<?xml version="1.0" encoding="utf-8"?>
<!-- Generator: Adobe Illustrator 18.1.1, SVG Export Plug-In . SVG Version: 6.00 Build 0)  -->
<svg version="1.1" id="Layer_1" xmlns="http://www.w3.org/2000/svg" xmlns:xlink="http://www.w3.org/1999/xlink" x="0px" y="0px"
	 viewBox="0 0 210.8 382.8" enable-background="new 0 0 210.8 382.8" xml:space="preserve">
<g>
	<path d="M33.1,149.1c-1.4,1.2-2.2,1.4-3.1,0.7c-0.9-0.7-1.2-2-0.6-3.4c1.3-2.6,2.3-5.4,3.3-8.2c1.9-5.1,2.3-10.2,0.6-15.4
		c-1.1-3.3-1.1-6.8-0.7-10.3c0.2-1.6-0.4-3.3-0.5-5c-0.3-4.2-0.6-8.4,0.6-12.5c0.5-1.7,1.1-3.2,2.2-4.6c0.3-0.3,0.5-0.7,0.6-1.1
		c3.6-10.6,9.4-19.8,18-27c2.3-2,3.8-4.7,5.3-7.3c0.8-1.4,1.7-2.8,2.8-4c0.9-0.9,1.6-1.9,2.1-3.1c0.3-0.6,0.7-1.2,1.2-1.6
		c1-0.7,2.1-0.5,2.8,0.4c0.6,0.9,1.3,1.8,1.3,2.9c0.1,1.4,0.6,2.6,1.2,3.9c0.7-0.2,1.2-0.7,1.6-1.2c2.6-2.9,6-4.6,9.5-6.3
		c0.4-0.2,0.8-0.3,0.9-0.8c0.5-4,1.8-7.6,3.7-11.2c2.1-3.9,4.3-7.6,7.2-10.9c5.8-6.6,12.3-12.5,20.2-16.5c1.9-1,4-1.6,6-2.3
		c3.3-1.1,6.6-2.4,9.8-3.7c0.9-0.4,1.8-0.5,2.7-0.4c1.5,0.1,2.5,1,2.6,2.5c0.2,1.8-0.2,3.4-1.8,4.5c-0.5,0.3-1,0.7-1.4,1.3
		c0.3,0.3,0.5,0,0.7-0.1c4.4-1.9,9.1-3,13.9-3.2c2-0.1,4-0.6,6.1-0.2c0.4,0.1,0.9,0.2,1.2,0.4c0.6,0.4,1.2,0.4,1.9,0.4
		c1.4-0.2,2.5,1,2.3,2.6c-0.2,1.4-0.8,2.8-1.3,4.1c-0.3,0.7-0.2,1,0.4,1.4c1.2,0.8,2.1,1.8,2.9,3c3.8,5.5,7,11.3,8.1,17.9
		c0.9,5.5,1.1,11,0.1,16.5c-0.1,0.6,0,0.8,0.5,1.1c1.7,1.2,2.9,2.8,4.1,4.5c3.5,4.6,6.7,9.4,8.6,14.9c1.7,5.2,3.8,10.3,4.5,15.8
		c0.9,6.9,1.4,13.7,0.9,20.7c-0.2,3.3-0.6,6.5-1.2,9.7c-0.1,0.3-0.1,0.6,0,0.8c0.9,1.5,0.7,3.1,0.6,4.7c0,6,0.8,12,0.8,18.1
		c0,3.5,0.1,7,0.2,10.6c0.1,3.6,0.4,7.3,0.7,10.9c0,0.3,0.1,0.6,0.3,0.9c1.6,1.6,2.8,3.6,4.4,5.2c4.1,3.9,7.9,8.2,12.2,11.9
		c1.1,1,2.4,1.7,3.7,2.5c0.9,0.5,1.7,1.1,2.2,2.1c0.5,1.1,0.2,2.1-0.8,2.5c-0.9,0.3-1.3,1.1-1.8,1.7c-2.8,3.4-5.9,6.5-9.4,9.3
		c-2.1,1.6-4.3,3-6.7,4.2c-1.2,0.6-2.4,1-3.7,0.6c-0.5-0.1-0.6,0-0.7,0.5c-0.6,2.8-1.4,5.5-1.9,8.2c-0.4,2-1.4,2.8-3.4,2.6
		c-2.8-0.3-3.1-0.5-3.8-3.3c-0.4-1.5-1.5-2.4-2.7-3.2c-1.9-1.4-4.1-2.2-6.2-3.4c-0.6-0.3-0.7,0.1-1,0.3c-1.1,1-2,2.1-3.5,2.7
		c-3,1.1-5.7,0.4-8.5-0.7c-1.8-0.8-3.4-1.9-5-3c-0.3,0.3,0,0.5,0.1,0.8c0.6,1.3,1,2.8,0.7,4.2c-0.3,1.3,0.2,1.9,1.3,2.3
		c2.4,0.9,4.7,1.9,6.9,3.3c1.5,1,3.1,1.9,4.7,2.8c3.9,2.4,8.1,3.9,11.9,6.5c1.5,1,3.1,2,4.5,3.1c1.2,0.9,1.8,2.4,3.2,3.3
		c0.6,0.4,0.7,1.4,0.1,2.1c-0.5,0.6-0.5,1.3-0.5,2c0.1,5.2,0.6,10.4,1,15.5c0.2,2.4,0,4.9-0.5,7.3c-0.5,2.3-0.4,4.6-0.9,6.8
		c-1.1,4.8-2.8,9.5-4.2,14.3c-1.9,6.2-3,12.5-4.7,18.7c-0.1,0.3-0.2,0.6,0.1,0.9c0.9,0.8,0.9,2,0.9,3.1c0,5.6,1.1,11.1,1.9,16.6
		c0.2,1.3,0.2,2.5,0.4,3.8c0.4,3.1,1.7,5.9,2.3,8.9c1,4.4,1,8.9,0.6,13.3c-0.2,1.9-0.3,3.8-0.8,5.7c-0.3,0.9-0.6,1.8-1.2,2.6
		c-0.6,0.8-1.3,1.3-2.3,0.8c-0.4-0.2-0.6,0-0.8,0.2c-2.3,2.7-4.7,5.5-7,8.2c-0.8,1-1.5,2-1.9,3.3c-0.5,1.4-1.5,1.9-2.9,1.6
		c-0.3-0.1-0.5-0.2-0.8,0c-1.2,0.7-2.3,0.3-3.4-0.2c-1-0.4-2.1-0.7-3.2-0.8c-2.4-0.1-4.8-0.2-7.2,0.2c-1.3,0.2-2.6,0.2-3.8,0.2
		c-1,0-1.8,0.2-2.7,0.9c-3.1,2.3-6.7,3.3-10.2,4.5c-2.7,0.9-5.3,2.2-8.2,2.6c-1.8,0.3-3.5,0.3-5.2,0.3c-0.6,0-1.3-0.1-1.9,0.2
		c-3.9,1.9-8.1,2.6-12.3,2.9c-2.5,0.2-4.8,1.2-7.3,1.7c-3.9,0.8-7.8,1.2-11.9,1.1c-3.9-0.1-8-0.2-11.8,1.7c-1.9,0.9-4,0.9-6.1,0.8
		c-4.2-0.3-8.4-0.6-12.7-1c-1.3-0.1-2.5-0.3-3.8-0.3c-2-0.1-2.6-0.9-2.6-2.9c0-0.2,0-0.4-0.1-0.6c-1.6-2.4-1.9-5.1-2.1-7.9
		c-0.2-2.7,0-5.3,0.5-8c0.1-0.3,0.3-0.5-0.2-0.7c-4.4-2.1-7.4-5.5-9.5-9.9c-2.5-5.3-4.1-10.9-5.5-16.6c-0.4-1.6-1-3.1-1.3-4.7
		c-0.3-2,0.1-3,1.9-3.8c0.3-0.1,0.4-0.3,0.5-0.6c0.7-4,2.3-7.8,3.7-11.6c2.1-5.7,4.1-11.4,5.7-17.3c0.3-1.2,0.8-2.3,2-2.8
		c0.4-0.2,0.4-0.5,0.5-0.9c0.6-3.3,0.2-6.5-0.1-9.8c-0.4-4.1-1.5-8.1-2.2-12.1c-0.2-1.5-0.4-3,0.9-4.3c0.3-0.3,0.1-0.7,0.1-1
		c-0.2-8.3-1.2-16.5-3.2-24.6c-0.6-2.3-1-4.7-0.4-7.1c0.5-1.9,1.4-2.6,3.3-2.4c0.4,0,0.6-0.1,0.7-0.4c4.1-6.1,9.6-10.6,16.3-13.7
		c1.5-0.7,3.1-1.4,4.7-2.1c-2.6-1.9-4.5-4.4-6.1-7c-0.3-0.5-0.5-0.4-1-0.2c-6.1,2.9-12.4,5-18.9,6.4c-6.7,1.5-13.4,1-19.9-1.5
		c-1.7-0.7-3.3-1.7-4.7-2.8c-1-0.9-1.7-1.9-1.5-3.3c0.1-0.4-0.1-0.6-0.4-0.8c-2-1.3-2.2-2.9-0.6-4.7c-0.3-0.4-0.9-0.5-1.3-0.7
		c-3.5-1.8-6.7-4-8.7-7.5c-0.6-1-1.1-2.1-1.1-3.3c0-0.4-0.2-0.6-0.4-0.9c-1.2-1.6-0.4-3.6,1.7-3.9c0.8-0.1,1.6,0,2.3,0.3
		c4.6,2,9.4,1.9,14.2,1.9c0.4,0,0.6-0.2,0.9-0.4c6-3.9,10.2-9.4,13.4-15.7c0.4-0.8,0.9-1.6,1.3-2.4c0.4-0.8,1.2-1.4,0-2.5
		c-1.1-1-0.6-2.7-0.2-4.1c0.6-2,1.4-4,1.4-6.1c0-0.3,0.1-0.7,0-0.8c-1.4-1.6-1.4-3.8-2.4-5.5C33.3,149.6,33.2,149.4,33.1,149.1z"/>
	<path fill="#2F5170" d="M164.7,358.9c-0.7,1.1-1.1,2.8-2.1,3.2c-0.9,0.4-2.4-0.7-3.7-0.9c-3.2-0.6-6.4-0.5-9.5,0
		c-1.6,0.2-3.1,0.1-4.7,0.3c-1.4,0.1-2.6,0.4-3.7,1.2c-3,2.2-6.5,3.2-10,4.3c-2.1,0.6-4,1.7-6.2,2.1c-1.8,0.4-3.5,0.4-5.2,0.4
		c-1.5,0-3,0.2-4.4,0.9c-3,1.4-6.2,1.9-9.5,2.2c-2.2,0.2-4.3,0.6-6.4,1.3c-3.1,1-6.3,1.4-9.4,2c-0.2,0-0.4,0-1,0
		c1.1-0.8,1.9-1.4,2.7-2.1c0.2-0.2,0.5-0.3,0.6-0.5c0.7-0.7,1-1.4,0.4-2.3c-0.6-0.9-1.4-0.8-2.2-0.4c-2.4,1.2-4.7,2.6-6.7,4.6
		c-0.4,0.4-0.7,0.8-1.3,0.7c-2.9-0.3-5.6,0.5-8.3,1.4c-3.1,1-6.1,0.8-9.3,0.5c-2.4-0.2-4.8-0.7-7.3-0.6c-1.4,0-2.8-0.3-4.2-0.4
		c-0.6-0.1-0.8-0.2-0.9-0.9c-0.7-4.3-0.8-8.7-1.4-13.1c-0.1-0.5-0.1-1,0.6-1.2c1.1-0.3,1.3-1.4,1.5-2.4c1-4,1.9-8,2.8-12
		c0.9-4.2,2.1-8.3,3.1-12.5c0.7-3,1.5-5.9,2.2-8.8c0.2-0.9,0.1-1.7-0.4-2.3c-0.6-0.7-0.5-1.4-0.3-2.2c0.7-3.5,1.9-7,2.4-10.6
		c0.2-1.6,0.6-3.2,0.5-4.7c-0.2-3.7,1.2-6.9,2.1-10.4c1.1-4.5,2.1-9.1,2.7-13.7c0.5-4.4,0-8.8,0.1-13.2c0-2.5-0.3-5-0.8-7.5
		c-0.2-0.8,0.1-1.6,0.1-2.4c0-2.3-0.3-4.6-0.8-6.9c-0.9-4.6-1.8-9.1-2.2-13.8c-0.3-3.2-1.1-6.4-1.7-9.6c-0.1-0.8-0.3-1.7-0.3-2.5
		c0-1.3-0.3-2.4-1.7-3.2c2.1-0.9,3.9-1.7,5.8-2.6c0.7-0.3,0.6,0.2,0.6,0.6c0,1.9,0,3.8,0,5.8c-0.1,4,1.2,7.7,2,11.5
		c0.7,2.9,1.1,6,2.1,8.8c0.1,0.1,0.1,0.4,0.1,0.4c-1.4,2.1-0.9,4.3-0.6,6.5c0.3,2.6,0.6,5.3,2.4,7.3c1.9,2.2,3.7,4.5,6.7,5.7
		c2.4,0.9,4.6,2.4,7.1,3.3c4,1.4,8.1,2.3,12.2,3.3c3,0.8,6.2,1.3,9.2,2.2c0.6,0.2,1.2,0.2,1.9,0.2c5.5,0,11,0.2,16.4-0.1
		c2.9-0.2,6-0.1,8.8-1.2c0.1,0,0.2-0.1,0.2-0.1c3.2,0.4,5.2-1.9,7.6-3.2c1.6-0.9,3.2-1.7,4.9-2.1c1.3-0.3,2.3-1.1,3.3-1.9
		c1.1-1,2.3-1.8,3.5-2.7c0.5-0.4,0.9-0.4,1.5-0.1c1.8,0.8,3.4-0.3,3.4-2.3c0-3.6-0.6-7.2-1.4-10.7c-0.1-0.4-0.2-0.9-0.5-1.2
		c-1.1-1.2-0.7-2.4-0.3-3.7c1.9-6.6,3-13.4,5.5-19.9c0,0,0-0.1,0-0.1c0.4-0.9,0.4-2.4,1.1-2.5c1-0.2,2.1,0.6,3.2,1.1
		c0.5,0.2,0.5,0.4,0.2,0.8c-3.5,5.6-4.6,12.1-5.9,18.4c-0.1,0.3,0,0.7-0.1,1.1c-0.2,4-0.2,8.1-0.5,12.1c-0.3,3.3-0.5,6.5,0.3,9.7
		c0.3,1.4,0.8,2.8,1.6,4.1c0.2,0.3,0.6,0.7,0.1,0.9c-1.5,0.7-1.7,2.1-2.1,3.5c-0.7,2.5-1,5.1-1.3,7.8c-0.7,5.9-0.2,11.9-0.4,17.8
		c-0.1,2.6-0.7,5.2-0.5,7.9c0.3,4.2-0.1,8.5,1.1,12.7c0.3,1,0,2.1,0.2,3.2c0.2,1.2,0.8,1.9,2,2c0.7,1.4,0.4,2.9,0.2,4.4
		c-0.1,0.2-0.3,0.4-0.5,0.4c-1.3,0.2-1.5,1-1.5,2.1c0,1.1,0.4,1.8,1.6,2c0.2,0,0.4,0.2,0.4,0.4c0.3,1.7,0.3,3.3,0,5
		c-2.9,1.3-1.9,3.9-1.9,6.2c0,0.9,0.1,1.8-0.1,2.7c-0.3,1.8-0.2,3.6,0.2,5.5c0.6,2.5,0.9,2.8,3.3,2.5
		C164.8,358.3,164.8,358.6,164.7,358.9z"/>
	<path fill="#EA6B79" d="M53.8,148.3c0.7-1.5,1.9-1,2.9-0.7c2.3,0.6,3.9-0.4,4.2-2.6c0.1-1-0.2-1.9-1.1-2.4
		c-0.3-0.2-0.6-0.3-0.7-0.7c-2.1-5.2-5.4-9.8-8.3-14.5c-1.2-2-2.1-4.1-3-6.2c-0.1-0.2-0.1-0.5,0-0.7c0.2-3.3,0.5-6.5,1.1-9.8
		c0.9-4.5,3.6-7.6,7.3-10.1c4.5-3.1,9.7-4.7,14.9-6.3c0.3-0.1,0.5-0.2,0.8,0c1.4,1.1,2.7,0.6,4-0.3c1.5-1.1,2.7-2.4,3.8-3.8
		c2.7-3.4,5.5-6.8,8.2-10.2c2.6-3.3,4.2-7,4.1-11.4c1.5,0.7,2.9,1.6,4.5,1.7c1.8,0.1,3,0.7,3.6,2.6c0.5,1.5,1.9,2.4,3.3,3.2
		c5.3,3.4,11.1,5.4,17.2,6.6c5.6,1,11.1,1,16.5-0.9c0.4-0.1,0.7-0.1,1,0.1c0.2,0.1,0.4,0.3,0.6,0.3c1.8-0.2,2.3,1.1,3,2.5
		c2.2,4.1,4.8,7.9,7.6,11.6c3.4,4.5,9.1,5.8,14.9,3.6c0.4-0.1,0.7-0.3,1.1-0.5c1.4-0.6,1.4-0.6,2.1,0.8c0.2,0.4,0.3,0.6-0.1,1
		c-1.1,0.9-1.2,2.1-0.7,3.4c2.5,6.8,3.5,13.9,3.7,21.1c0.2,4.2,0,8.3-0.5,12.4c0,0.2,0,0.5-0.2,0.7c-1.3,1.4-1.3,3.1-1.2,4.8
		c0.5,6.5-1.5,12.3-4.2,18.1c-2.6,5.4-4.7,11.1-7.4,16.5c-0.6,1.2-1.3,2.3-2.2,3.2c-6.2,6.2-12.8,11.9-20.3,16.6
		c-2.6,1.7-5.3,2-8.2,1.4c-0.4-0.1-0.9-0.1-1.3-0.1c-7.4,0.1-14.7-0.7-22.1-0.5c-3.8,0.1-7.5-0.9-11.2-1.6c-3.8-0.8-7.6-1.8-11.5-2
		c-2.4-0.1-4.1-1.7-6-3c-2.1-1.5-3.9-3.5-6.5-4.3c-0.4-0.1-0.7-0.5-1-0.8c-4.4-4.7-8-10-10.9-15.8c-0.2-0.4-0.3-0.8-0.1-1.3
		c0.7-1.9,1.3-3.9,1.6-5.9c0-0.2,0.1-0.5,0.3-0.6c1.6-0.6,1.5-2,1.3-3.2c-0.6-3.5-1.9-6.8-2.8-10.2C55.4,149,54.7,148.6,53.8,148.3z
		"/>
	<path fill="#FEB085" d="M186.3,170.2c4.1,4.3,8.4,8.6,12.7,12.7c1.4,1.3,2.8,2.6,4.5,3.7c-4.1,4.8-8.5,9.2-14.3,11.9
		c-0.7,0.3-1.3,0.6-1.4-0.6c-0.1-0.8-0.6-1.5-1.5-1.7c-0.9-0.3-1.6,0.1-2.3,0.8c-1,1-1.3,2.4-1.4,3.7c-0.3,2.1-0.9,4-1.4,6.3
		c-2.5-3-5.8-4.4-9-6c-0.5-0.3-0.5-0.6-0.6-1.1c-0.3-1.2-1.1-1.8-2.3-1.5c-1.2,0.2-2.2,0.6-3,1.6c-0.5,0.7-1.3,1.2-1.8,1.9
		c-1.4,2-3.3,1.9-5.3,1.2c-3.8-1.4-6.7-4-9.2-7.1c-1.8-2.2-1.7-2.2,0.3-4c2-1.8,3.9-3.6,5.9-5.5c0.6-0.6,1.2-1.2,2.1-1.6
		c0.4-0.2,0.8-0.6,1-1c0.8-1.6,2-2.9,2.9-4.5c0.4-0.7,0.7-1.5,0.7-2.4c0-0.5,0.2-0.8,0.3-1.2c2.4-5.5,4.7-11,7.1-16.4
		c2.1-4.8,2.9-9.8,3.4-14.9c0.4-3.9,0.9-7.8,1.1-11.8c0.3-6.2-0.1-12.4-1.1-18.5c-0.1-0.4-0.3-0.7,0.2-1c1.3-0.8,1.5-2.1,1.4-3.5
		c-0.3-5.3-2.7-9.9-5.4-14.2c-0.2-0.4-0.5-0.4-0.9-0.2C166,97,162.5,96.9,159,96c-0.4-0.1-0.9-0.2-1.3-0.2c-1.9-0.1-3.4-1-4.6-2.5
		c-2.9-3.7-5.3-7.8-7.8-11.8c-0.5-0.8-0.6-1.4,0.4-2c0.7-0.4,1.2-1.1,1.4-2c0.1-0.6,0.4-1.2,0.8-1.7c2.8-3.3,4.5-7.2,6.9-10.8
		c0.7-1-0.4-1.4-0.8-2c-0.4-0.5,0-1,0.1-1.5c0.9-2.8,2-5.5,2.8-8.3c-1.5,1.4-3.1,2.7-4.4,4.1c-1.3,1.5-2.8,2.3-4.8,2.2
		c-2.2,0-4.5,0.2-6.7,0.3c-0.8,0-1.5-0.2-2.2-0.6c-2.9-1.7-5.8-3.3-8.8-5c-0.8-0.5-1.5-1.1-1.9-1.9c-1.4-2.8-2.8-5.6-4.2-8.4
		c-0.5-1-0.4-1.6,0.2-2.5c2.8-3.9,5.5-7.9,8.3-11.8c0.1-0.2,0.3-0.4,0.3-0.7c-2.4,0.7-4.8,1.6-7.2,2.1c-3.6,0.7-6.3,2.7-8.9,5
		c-3.4,3.1-7,6-10.5,9c-0.2,0.2-0.5,0.4-0.8,0.6c-0.2,0.1-0.4,0.3-0.6,0.2c-0.3-0.2-0.1-0.5,0-0.7c0.5-1.1,1.2-2.2,1.8-3.3
		c3.7-6.6,7.4-13.1,11-19.7c0.2-0.4,0.4-0.8,0.8-1c1.8,0.4,2.4,0.2,3.4-1.3c0.1-0.2,0.2-0.3,0.4-0.4c5.3-3.2,10.7-6.3,16.7-8.1
		c2.6-0.8,5.3-0.9,8-1.2c1.7-0.2,3.3-0.4,5.1-0.2c-0.9,2.5-2,4.7-3,7.1c-1,2.5-2.2,5-2.8,7.7c-0.2,1.1-0.1,2,1,2.6
		c1.1,0.5,1.9-0.1,2.5-0.9c1.5-2,2.3-4.4,3.4-6.6c1.1-2.3,1.2-2.4,2.6-0.2c3.4,5,6.3,10.4,7.3,16.5c0.6,4,0.7,8,0.5,12.1
		c-0.1,1.3-0.2,2.4,0.7,3.6c0.9,1.1,1.4,2.5,1.6,4c0.1,0.6,0.4,1.1,0.8,1.6c3.7,4.2,6.3,9.1,9,14c1.1,1.9,1,4.1,1.9,6.1
		c2.8,6.5,3.6,13.3,4.1,20.3c0.5,7.1-0.4,14.1-1.4,21.1c-0.2,1.5-0.2,2.9,0.5,4.4c0.6,1.2,0.2,2.8,0.4,4.3
		c0.6,8.1,0.9,16.1,0.8,24.3c-0.5-0.7-1-1.3-1.5-2c-1.3-1.6-2.7-2-3.7-1.2c-1,0.7-0.9,2.1,0.1,3.8c0.9,1.6,1.8,3.3,2.7,4.9
		c-0.7,0.6-1.4,0.3-2.2,0.2c-0.9-0.2-1.1,0.2-0.9,1c1.3,4.8,2.4,9.6,3.7,14.4c0.3,0.9,1,1.5,1.7,2.1c1.5,1.4,3.3,2.5,4.6,4.1
		c0,2.3-0.7,4.4-1.8,6.3c-0.2,0.4-0.5,0.7-0.7,1.1c-0.4,1.1,0,2.3,1.1,2.7c1,0.4,2.2-0.3,2.5-1.4c0.9-2.7,2.1-5.3,2.6-8.2
		c0.1-0.3,0.2-0.7,0.5-0.9c0.9-0.3,1.8-0.1,2.8-0.4c-0.8-0.7-1.6-1.4-2.5-1.9c-0.5-0.5-1-0.9-1.6-1.3c-1.6-1.4-3.2-2.6-4.8-3.9
		c-0.2-0.1-0.4-0.3-0.5-0.5c-0.2-0.2-0.5-0.5-0.4-0.8c0.1-0.3,0.4-0.3,0.7-0.3C184.9,169.9,185.6,169.8,186.3,170.2z"/>
	<path fill="#3B5B4F" d="M118.7,270.8c-1.4,0-2.9-0.1-4.3,0c-2.9,0.1-5.7-0.5-8.6-1.1c-4.6-1-9.1-2.1-13.6-3.1c-3-0.7-6-1.8-8.6-3.4
		c-1.4-0.8-3-1.2-4.2-2.2c-0.5-0.4-1-0.7-1.2-1.4c-0.5-1.3-1.4-2.3-1.6-3.7c-0.3-2-0.8-3.9-0.9-5.9c-0.3-6.4-1-12.6-2.7-18.8
		c-0.6-2.3-0.6-4.6-0.6-7c0-1.8,0.2-3.7-0.2-5.5c-0.1-0.7,0.5-0.9,1-0.9c0.9-0.1,1.7,0.1,2.4,0.7c3.5,2.9,7.1,5.5,11.5,7
		c3,1,6.1,1.7,9.2,1.7c1.1,0,2.2,0,3.3,0.2c1.3,0.3,2.2-0.3,2.9-1.4c3.5-5.8,7.8-10.9,13.1-15.1c0.6-0.4,0.8-0.4,1.2,0.2
		c2.6,4.6,6.4,8.2,10.1,11.8c0.7,0.7,1.5,1.4,2.3,2.1c1.4,1.2,3.2,1,4.7,0.1c5.2-3,10.8-5.3,16.1-8.2c0.6-0.3,1.1-0.3,1.8-0.1
		c2.7,0.9,5.1,2.3,7.4,3.8c0.8,0.5,0.8,1,0.5,1.8c-2.8,7.2-4.6,14.6-6.1,22.1c-0.4,2-0.6,4.1,0.3,6.2c0.6,1.5,0.4,3.3,0.6,5
		c0.1,0.8,0,1.5,0.3,2.2c0.3,1-0.1,1.5-0.9,2c-1.7,1.1-3.3,2.4-5,3.5c-0.8,0.6-1.6,1.1-2.6,1.4c-3,0.9-5.6,2.6-8.2,4.2
		c-0.5,0.3-0.9,0.5-1.4,0.5c-0.2,0-0.4,0-0.6,0C130.5,271,124.6,270.8,118.7,270.8z"/>
	<path fill="#FEB084" d="M37.7,170.9c1-2.9,2.2-5.6,3.8-8.2c1.7-2.8,3.2-5.8,4.6-8.8c0.3-0.7,0.6-1.4,0.5-2.2
		c-0.1-1.3-1.1-1.9-2.3-1.4c-0.8,0.4-1.4,1.1-1.9,1.8c-0.7,1-1.3,2-2.2,3.3c0-0.7,0-1.1,0-1.4c0-0.6-0.1-1.2-0.5-1.6
		c-2-2.1-2.5-5-4.1-7.4c-0.3-0.5-0.2-0.9-0.1-1.5c1-3,2.1-6,2.8-9.1c0.7-3.7,0.7-7.4-0.4-11c0-0.2-0.1-0.3-0.1-0.5
		c0-0.1,0-0.1,0.1-0.3c0.6,0.8,1.3,1,2.3,1.1c-0.4-2.5-0.7-5-1.1-7.5c-0.3-2-0.9-4-1.1-6.1c0-0.4-0.1-0.9-0.3-1.1
		c-1.5-1.6-0.7-3.5-0.9-5.3c0-0.1,0-0.3,0.1-0.3c2.2-1.8,2-4.5,2.2-6.9c0.7-6.6,3.6-12.3,6.9-17.9c3.1-5.2,7-9.7,11.8-13.4
		c0.8-0.6,1.6-1,2.5-1.3c1.9-0.5,2.5-2.2,1.4-3.8c-0.2-0.2-0.5-0.4-0.2-0.8c1.3-1.8,1.9-4.1,3.8-5.6c0.5,1.1,1.4,2,1.8,3.2
		c0.6,1.7,3.6,1.9,5.3,0.4c1.8-1.6,3.7-3.2,5.6-4.7c2.3-1.8,4.7-3.4,7.3-4.8c1.3-0.7,2.1-1.5,1.9-3.1c0.5-0.3,0.7,0.1,1,0.3
		c1.3,1,2.5,2,3.7,3c0.8,0.7,1,1.4,0.6,2.4c-0.6,1.4-1.1,2.8-1.6,4.3c-0.4,1.1-0.1,1.9,1.1,2.2c1.3,0.4,2.6,0.7,3.9,1.1
		c1.3,0.4,1.5,0.8,0.5,1.8c-1.1,1.1-2.1,2.4-3.5,3.2c-1.9-1.4-1.9-1.4-4,0c-0.2,0.1-0.3,0.2-0.5,0.3c-2.1,1.1-2.9,2.5-2.3,5.1
		c0.6,2.4-0.4,4.6-1.7,6.7c-2.2,3.4-4.9,6.4-7.4,9.5c-0.5,0.7-1.1,1.4-1.7,2c-0.7,0.8-1.2,1.3-2.5,1.4c-1.5,0-2.9,1-4.4,1.4
		c-6.1,1.8-12,3.9-17.1,7.8c-4.9,3.7-7.7,8.5-8.4,14.6c-0.2,1.9-0.5,3.9-0.7,5.8c-0.3,3.8,0.8,7.2,2.7,10.3
		c2.6,4.3,5.3,8.6,7.9,12.8c0.5,0.9,0.8,1.4-0.6,1.6c-0.6,0.1-1.2,0.5-1.6,1c-0.6,0.6-0.7,1.2-0.4,2.1c0.8,2,1.5,4,1.9,6.1
		c0.4,2.5,0.6,4.9,1.1,7.4c0.2,1.4-0.3,3.2-0.6,4.8c-0.6,2.9-1.8,5.4-3,8c-0.4,0.9-0.1,1.5,0.6,2c0.4,0.3,0.7,0.6,1,1
		c3.3,6.2,7.2,11.9,12.2,16.8c0.1,0.1,0.1,0.2,0.2,0.3c-0.9,2-2.6,3.2-4.3,4.5c-1.4,1-3.1,1.5-4.7,2.2c-1.3,0.6-2.5,1.3-3.9,1.6
		c-1.7,0.4-3.4,0.1-5.1-0.1c-1.3-0.1-2.4-0.2-3.6,0.3c-1.1,0.4-2,0.1-2.9-0.6c-0.3-0.3-0.6-0.5-0.5-1c0.3-0.5,0.7-0.5,1.2-0.7
		c1.7-0.4,3.4-0.7,5-1.1c0.9-0.2,1.6-0.5,2.1-1.2c2.5-3,5-6,7.6-9.2c-1.9,0.4-3.5,1.2-5.2,1.6c-0.5,0.1-1.1,0.6-1.4,0.1
		c-0.4-0.5,0.2-1,0.4-1.4c0.9-1.6,1.7-3.2,2.5-4.9c-2.2,0.7-4.5,0.8-6,2.9c-1.7,2.3-3.6,4.3-5.5,6.6c1.7-0.6,3.2-1.3,4.8-1.9
		c0.4-0.1,0.8-0.4,1.1,0c0.3,0.4,0,0.8-0.2,1.1c-1.1,1.6-2.1,3.3-3.2,4.9c-0.4,0.5-0.9,0.9-1.4,1.2c-1.2,0.6-2.4,1.5-3.8,1.8
		c-0.6-0.1-1-0.5-1.2-1c-0.4-1.4-1.1-2.4-2.4-3c-0.3-2.3-2-3-4-1.8c-0.3,0.2-0.6,0.4-0.9,0.6c-0.6-0.1-1.2,0-1.7-0.2
		c-1.1-0.2-1.4-0.6-1.3-1.8c0.2-0.5,0.6-0.7,1.1-0.9c4-2,7.5-4.6,11.3-6.9c0.8-0.5,1.2-1.2,1.6-2c2.5-6.1,4.9-12.2,7.4-18.3
		c0.2-0.4,0.3-0.8,0.5-1.1c-1.8,2.1-3.5,4.4-5.4,6.5C40.8,169.9,39.4,170.6,37.7,170.9z"/>
	<path fill="#EAE5B2" d="M93.1,63.2c1.2-1.2,2.3-2.4,3.5-3.6c0.5-0.5,0.8-0.8-0.2-1c-1.4-0.3-2.8-0.7-4.1-1.1
		c-1.4-0.4-1.9-1.3-1.4-2.6c0.6-1.5,1.2-3,1.8-4.6c0.2-0.6,0.2-1.1-0.3-1.6c-1.6-1.2-3.1-2.7-4.9-3.8c0.2-1.9,0.7-3.7,1.4-5.5
		c0.4-0.9,0.8-1.8,1.9-2.2c0.9-0.3,1.1-1.3,0.9-2.1c-0.2-0.8,0.1-1.4,0.5-2c2.7-4.4,6.1-8.3,9.9-11.8c0.4,0.5,0.1,1-0.1,1.5
		c-1.5,2.8-1.5,5.7-0.8,8.7c0.3,1.4,0.4,2.8,0.6,4.3c2.2-4.1,4.2-8.2,6.4-12.3c0.3-0.6,0.7-1.1,1.2-1.5c3.2-3,6.5-6,9.8-8.9
		c1.1-1,2.2-2,3.3-3c0.9-0.8,1.7-1.6,2.7-2.1c1-0.4,2-0.9,3.1-1.4c-0.2,0.8-0.7,1.2-1.1,1.6c-0.6,0.8-1.3,1.5-0.9,2.7
		c0.2,0.5-0.3,0.6-0.6,0.7c-2.2,1.4-4.3,2.7-6.5,4c-0.5,0.3-1,0.7-1.3,1.2c-1.3,1.6-1.1,3.2,0.5,4.6c-1.8,3.3-3.7,6.7-5.5,10
		c-2.5,4.5-5.1,9-7.6,13.6c-0.2,0.3-0.3,0.5-0.6,1c1.4-0.8,2.4-1.8,3.4-2.7c4.1-3.5,8.2-7,12.2-10.5c0.8-0.7,1.8-0.7,2.8-1
		c3.2-1,6.4-1.9,9.6-2.9c0.2-0.1,0.4,0,0.9-0.1c-1.1,1.5-2,2.8-2.9,4.1c-2.3,3.2-4.5,6.5-6.8,9.7c-0.3,0.4-0.1,0.7,0,1
		c1.6,3.1,3.2,6.3,4.7,9.4c0.6,1.1,1.8,1.4,2.8,2c2.5,1.5,5.1,2.9,7.6,4.3c1.2,0.7,2.6,0.6,3.9,0.4c2.1-0.3,4.2,0,6.3-0.4
		c0.7-0.1,1.3-0.3,1.8-0.8c1.9-1.8,3.8-3.6,5.7-5.5c0.2-0.2,0.4-0.4,0.8-0.4c-1,3.6-2.6,6.9-3.5,10.5c-3.1,4.9-7.1,9.1-11.6,12.8
		c-1.1,0.9-2.2,1.3-3.7,1c-1.6-0.4-3.3,0.2-4.9,0.6c-6.9,1.7-13.6,0.6-20.2-1.8c-2.2-0.8-4.3-1.7-6.4-2.9c-1.6-1-3-2-3.8-3.8
		c-1.1-2.2-3.3-2.9-5.5-3.5C96,65.1,94.4,64.5,93.1,63.2z"/>
	<path fill="#3D5C4E" d="M45.9,240.5c-0.5-1.3-0.5-2.7-0.7-4.1c-0.1-0.5,0.1-0.8,0.7-1c1.2-0.4,2-1.2,2.9-2.1c2.2-2.4,4.6-4.6,7-6.7
		c0.5,0.7,0.9,1.3,1.7,1.5c0.4,0.1,0.4,0.4,0.5,0.8c0.8,4.5,1.8,9,2.2,13.5c0.3,3.6,1.2,7.2,2,10.8c0.3,1.4,0.6,2.7,1,4.1
		c0.3,1-0.1,1.8-0.1,2.7c-0.1,2.3,0.4,4.6,0.6,6.9c0.2,2.9,0.1,5.8,0.1,8.6c0,1.5,0,3-0.1,4.4c-0.2,3.7-1.1,7.2-1.8,10.8
		c-0.5,2.5-0.8,5-1.7,7.3c-1.7,4.5-1.3,9.2-2.3,13.8c-0.7,3.1-1.6,6.1-2,9.2c-0.2,1.5-0.5,3.1,0.2,4.6c0.2,0.4,0,0.8-0.1,1.2
		c-2,8.4-4.4,16.6-5.9,25.1c-0.3,1.7-0.7,3.3-1.1,5.2c-3.4-2.9-6.1-6-7.5-10.2c0.7-1.3,0.7-2.6,0.6-4c-0.4-5.3-0.8-10.5-1.2-15.8
		c-0.1-0.9,0.2-1.5,1.1-1.8c1.3-0.4,2.6-0.9,3.8-1.4c0.8-0.3,1.2-0.8,1.2-1.7c0.1-5.2,0.6-10.3,0.7-15.4c0.1-1.9,0.3-3.7,1-5.5
		c1.5-3.9,2.9-7.9,4.4-11.8c0.7-1.7,0.9-3.6,1.3-5.4c1.6-8.1,2.5-16.4,3.4-24.6c0.1-0.6,0.1-1.1,0.2-1.7c0.8-3.3-0.4-6.4-1.1-9.6
		c-0.7-3.1-1.4-6.2-2.1-9.2c-0.2-1-0.6-1.6-1.6-1.8c-0.9-0.2-1.7-0.6-2.5-0.8c-1.5-0.4-1.5-0.4-2.3,0.9c-0.5,0.8-0.9,1.6-1.4,2.4
		C46.7,240,46.5,240.5,45.9,240.5z"/>
	<path fill="#3E5D50" d="M162.7,331.7c0-1.5,0-3.1,0-4.6c1.5-0.5,1.6-1.8,1.6-3c0.1-1.3,0.1-2.6,0.5-3.9c0.1-0.4,0.1-0.9,0-1.3
		c-0.7-2.6-0.4-5.1-0.2-7.7c0.2-2.7,0-5.4,0.3-8.1c0.6-4.9,0.1-9.9,0.2-14.8c0.1-4.6,0.7-9.1,1.7-13.6c0.1-0.3,0.2-0.4,0.4-0.5
		c1.2-0.6,1.1-1.6,1-2.7c-0.3-2.1-1.1-4-1.4-6c-0.3-2-0.3-3.9-0.1-5.9c0.1-2.2,0.3-4.3,0.3-6.5c-0.1-4.6,0.5-9.1,1.7-13.6
		c1-3.7,2-7.4,3.7-10.8c0.3-0.7,0.5-0.7,1.1-0.4c1.8,0.9,3.2,2.3,4.8,3.3c1.7,1.1,1.2,3,1,4.6c-0.3,2.4,0.1,4.7,0.2,7
		c0,2,0.4,4,0.6,6c-0.3,0.2-0.5,0.5-0.8,0.7c-1.9,2.6-3.8,5.2-5.7,7.8c-0.6,0.7-0.8,1.5-0.8,2.5c0,1.5,0,3,0,4.4
		c0.1,3.6-0.3,7.3-0.3,10.9c0,2.2-1,4.2-1.5,6.3c-0.8,3-1.7,6-2.6,9c-0.4,1.3-0.5,2.6-0.3,3.9c0.4,3,0.8,6.1,0.9,9.1
		c0.2,0.7,0.3,1.5,0.5,2.2c0.6,3.5,1,7.1,1.5,10.7c0.3,2.7,0.2,5.4,0.1,8.1c-0.2,2.4-0.1,4.8-0.2,7.2c0,2.8,0,5.6,0,8.4
		c0,1.9,0.3,3.8,0.9,5.6c0.4,1.2,1,2.4,0.9,3.7c-2.6,3-5.3,6.1-7.9,9.1c0-0.2-0.1-0.5-0.3-0.6c0,0,0-0.1,0-0.1c1-3-0.2-5.8-0.4-8.7
		c-0.1-1.3,0.2-2.5,0.2-3.8c0-1.6-0.1-3-1.4-4.2c0-1.7,0-3.5,0-5.2C163.3,334.7,163.2,333.2,162.7,331.7z"/>
	<path fill="#6E936A" d="M45.9,240.5c0.8-1.4,1.7-2.7,2.5-4.1c0.4-0.7,0.8-1,1.6-0.6c1,0.4,2.1,0.8,3.2,1c1.3,0.2,1.8,1,2,2.2
		c1.1,4.9,2.2,9.7,3.3,14.5c0.4,1.6,0,3.2-0.2,4.8c-0.3,3.2-0.7,6.4-1.1,9.6c-0.5,4.1-0.9,8.2-1.8,12.3c-0.6,2.9-0.8,5.9-1.8,8.7
		c-1.7,4.7-3.4,9.4-5.1,14c-0.4,1.2-0.4,2.4-0.4,3.5c-0.1,2.2-0.3,4.4-0.3,6.6c-0.1,3.3-0.3,6.6-0.5,9.9c0,0.7-0.5,0.9-1,1.1
		c-1.4,0.5-2.8,1-4.3,1.5c-0.7,0.2-1,0.6-0.9,1.4c0.4,4.2,0.7,8.5,1,12.7c0.1,1.5,0,3,0.4,4.5c0.2,1.1-0.2,2-1.1,2.7
		c-1.9-4.2-3-8.7-4.1-13.2c-0.4-1.8-1.2-3.5-1.4-5.4c-0.1-0.5,0-0.8,0.4-1.2c1.5-1.7,2.2-3.8,3.1-5.8c3.4-7.4,6.3-15.1,8.3-23
		c0.1-0.3,0.1-0.6,0.3-0.7c2.3-2.1,2.8-4.8,2.7-7.6c0-5.7-0.9-11.3-2.2-16.9c-0.3-1.2-0.5-2.3,0-3.5c0.3-0.7,0.3-1.6,0.3-2.5
		c0.5-8.7-0.7-17.3-2.8-25.7C45.9,241,45.9,240.7,45.9,240.5z"/>
	<path fill="#2F5170" d="M140.8,199.7c0.7,1.9,2.1,3.3,3.5,4.7c0.5,0.5,0.9,1,1.4,1.3c1.5,1.2,1.3,2.9,1.5,4.5
		c0.3,2.1,0.3,2-1.6,3.1c-4.5,2.4-9.3,4.2-13.7,6.9c-0.6,0.4-1,0.3-1.2-0.4c-0.3-0.9-0.9-1.5-1.5-2.1c-3.3-3.1-6.2-6.4-8.7-10.2
		c-1.6-2.5-4.7-3.5-7.6-1c-5,4.4-9.5,9.2-13.3,14.7c-0.3,0.4-0.5,0.8-1.1,0.8c-5.4,0.4-10.5-0.8-15-3.8c-1.4-0.9-2.7-1.9-3.7-3.3
		c-0.3-0.4-0.3-0.6-0.1-1c1.9-3.6,3.3-7.4,4.4-11.3c0.3-1.1,0.7-1.3,1.8-1c3.3,0.8,6.6,1.5,9.9,2.3c1,0.2,2,0,3,0.1
		c4.8,0.4,9.6,0.1,14.4,0.3c3.5,0.1,6.9,0.6,10.4,0.4c1.9-0.1,3.7,0.4,5.5,0.5c3,0.2,5.5-1.2,7.9-2.7
		C138.1,201.5,139.4,200.6,140.8,199.7z"/>
	<path fill="#FEB78D" d="M33.4,194.7c1.3,0.2,2.1,0.9,2.4,2.2c0.1,0.7,0.4,1.4,1.2,1.6c0,0.5-0.3,0.5-0.8,0.5c1.1,0.1,2-1,3-0.3
		c0.3,1.1,1.6,1.9,2.6,1.5c2.3-0.9,4.5-0.4,6.8-0.1c1.2,0.1,2.4,0,3.4-0.5c2.5-1.2,5.1-2,7.5-3.4c1.5-1,2.9-2.2,4-3.7
		c0.2-0.2,0.3-0.5,0.6-0.6c1.4,1.4,3,2.6,4.8,3.7c-1.7,1.4-3.4,2.9-5.3,4c-2.6,1.4-5.4,2.7-8,4.1c-3.3,1.7-6.8,2.8-10.3,4
		c-4.7,1.5-9.5,2.8-14.5,2.5c-4.6-0.3-8.9-1.2-12.9-3.8c3.2-1.1,6-2.9,8.8-4.7c1.8-1.1,3.5-2.4,5-3.9C32.3,197,33.1,196,33.4,194.7z
		"/>
	<path fill="#6E926B" d="M169,303.8c-0.3-2.1-0.6-4.2-0.9-6.3c-0.2-1.1-0.2-2.1-0.4-3.2c-0.3-1.9,0.4-3.5,0.8-5.2
		c1.2-4.1,2.3-8.3,3.5-12.4c0.1-0.4,0.2-0.8,0.2-1.2c0.1-5.3,0.4-10.5,0.2-15.8c0-0.7,0.2-1.3,0.6-1.9c2-2.8,4.1-5.6,6.2-8.3
		c0.1-0.2,0.2-1.1,0.8-0.4c0.1,3.1,0.4,6.2,0.1,9.2c-0.3,2.6-1,5.1-1.9,7.6c-3.5,10.4-6.3,21-8.6,31.7
		C169.2,299.7,169,301.8,169,303.8z"/>
	<path fill="#EAE5B2" d="M37.7,170.9c1.5-0.9,3.2-1.3,4.4-2.8c1.7-2.2,3.6-4.4,5.4-6.6c0.1-0.1,0.2-0.2,0.5-0.2
		c-0.8,2.1-1.6,4.1-2.5,6.2c-2,4.9-4,9.9-6,14.8c-0.2,0.6-0.6,1-1.1,1.3c-4.2,2.6-8.2,5.5-12.7,7.7c-0.3,0.4-0.7,0.7-1.1,0.9
		c-2.5,1.2-4.9,2.4-7.4,3.7c-0.8,0.4-1.5,0.4-2.3,0c-1.9-1.1-3.8-2-5.7-3.1c-0.3-0.2-0.7-0.3-0.6-0.7c0,0,0.1,0,0.1,0
		c0,0,0.1,0,0.1,0c3,0.3,5.9,0.6,8.9,0.4c0.9,0,1.8-0.1,2.7-0.2c0.6-0.1,1.2-0.2,1.7-0.6c6-4.2,11-9.3,14.4-15.8
		c0.5-0.9,1-1.8,0.8-2.9C37.3,172.3,37.4,171.5,37.7,170.9z"/>
	<path fill="#FEAF84" d="M125.1,7.9c-2.9,2.6-5.8,5.3-8.6,7.9c-2.5,2.3-5.2,4.5-7.5,7c-1.3,1.4-2,3.4-2.9,5.1
		c-1.4,2.8-2.8,5.5-4.4,8.5c-0.6-1.4-0.5-2.8-0.8-4c-0.3-1.3-0.3-2.6-0.6-3.9c-0.5-1.8,0.4-3.3,0.9-4.9c0.3-0.8,0.7-1.5,0.8-2.4
		C108.5,14.8,116,10,125.1,7.9z"/>
	<path fill="#6D9169" d="M172.6,349.7c-0.9-2.9-2.3-5.6-2.2-8.7c0.1-4.5-0.1-9,0.1-13.5c0.1-2.6,0.2-5.2,0.2-7.8
		c0.1-3.5-0.8-6.9-1.1-10.3c-0.1-1.1-0.7-2.2-0.2-3.4c0.2,0.2,0.4,0.5,0.6,0.5c1.4,0.1,1.2,1.1,1.3,2c0.5,4,1.2,7.9,1.8,11.9
		c0.7,4.9,2.1,9.6,2.9,14.5c0.4,2.5,0.2,5.1,0.1,7.6c0,0.5-0.1,1-0.1,1.4c-0.2,1.6,0.2,3.3-1.9,4.2
		C173.5,348.4,173.1,349.2,172.6,349.7z"/>
	<path fill="#FEB48A" d="M73.4,213c-1.4-0.2-2.9-0.4-4.3-0.9c-1.3-0.4-2.4-1.1-3.3-2.3c-0.8-1-1.7-1.9-2.5-2.9
		c-0.6-0.7-0.6-1.3,0.3-1.7c3.9-1.4,6.8-4.3,9.9-6.8c0.8-0.6,1.5-0.9,2.5-0.3c0.9,0.5,1.9,0.8,2.9,1.2c0.4,0.1,0.6,0.2,0.4,0.7
		c-1.2,4.2-2.7,8.3-4.8,12.2C74.2,212.6,74.1,213.3,73.4,213z"/>
	<path fill="#EAE5B2" d="M186.3,170.2c-0.9,0-1.8,0-3.1,0c2.1,2,4.3,3.3,6.1,5.1c-1.4,0.7-2.3,1.9-2.8,3.4c-0.1,0.3-0.2,0.6-0.6,0.6
		c-1.7-1.4-3.4-2.9-5.1-4.3c-1.5-1.1-1.6-2.8-2-4.3c-1.1-4.1-2.1-8.2-3.2-12.3c-0.3-1.1-0.1-1.4,1-1.1c0.8,0.2,1.6,0.2,2.4,0.2
		c0.8,1.1,1.7,2.2,2.7,3.2c0.7,0.7,0.4,1.9,0.6,2.8c0.2,1.4,0.3,2.8,0.8,4.1c0.4,1.1,1,1.9,2.3,2C186,169.5,186.1,169.8,186.3,170.2
		z"/>
	<path fill="#FEB88F" d="M8.9,192c0.7,0.8,1.7,1.1,2.6,1.6c0.9,0.6,1.9,0.9,2.7,1.5c1.2,0.8,2.3,0.9,3.7,0.1
		c2.5-1.4,5.2-2.6,7.8-3.9c0,1.4,0.3,1.6,1.7,1.7c0.4,0,1-0.3,1.2,0.4c-2.4,2.6-5.3,4.4-8.3,6.2c-0.3,0.2-0.6,0.4-0.9,0
		c-1.3-1.3-3-2-4.7-2.8c-2-1-4-2-5.7-3.5c-0.5-0.4-1-0.8-1.3-1.5C8.1,191.7,8.5,191.7,8.9,192z"/>
	<path fill="#698DAE" d="M100.3,336.5c1.2-3.4,2.4-6.8,3.7-10.1c0.4-1,1.4-1.4,2.2-2c6.7-5.4,13.4-10.7,20.1-16.1
		c2.1-1.7,4.2-3.4,6.3-5.1c0.9-0.7,2.1-0.5,3.1-0.7c2.1-0.4,4.1-0.6,6.5-0.9c-2.5,1.5-4.7,2.9-7,4.3c-0.5,0.3-1,0.6-1.5,1
		c-2,1.2-2,1.2-0.9,3.2c1.6,3.1,3.3,6.1,4.9,9.2c0.4,0.7,0.4,1.1-0.4,1.6c-3.8,2.3-7.6,4.7-11.4,7.1c-1.2,0.7-1.2,0.8,0,1.5
		c4.4,2.7,8.7,5.5,13.1,8.2c1.3,0.8,1.3,0.8,0.1,1.6c-3.7,2.4-7.5,4.8-11.2,7.1c-0.2,0.1-0.4,0.2-0.5,0.2c-3.5-1.2-7.1-1.2-10.7-1.8
		c-4.7-0.8-8.7-3.1-12.7-5.5c-0.9-0.5-1.8-1.1-2.6-1.6C100.9,337.4,100.4,337.2,100.3,336.5z"/>
	<path fill="#698DAE" d="M69.1,342.1c-0.2-1.6-0.3-3.2-0.7-4.8c-1-4.6,0.5-9.1,1.1-13.6c0.6-4.8,1.5-9.7,2.3-14.5
		c0.8-5.1,1.6-10.1,2.3-15.2c0.8-5.2,1.5-10.5,2.2-15.7c0.2-1.4,0.5-2.8,0.7-4.2c0.1-0.5,0.2-0.6,0.8-0.5c1.6,0.2,3.2,0.4,4.9,0.6
		c0.4,0,0.7,0.2,1,0.4c2.4,1.4,4.9,2.7,7.3,4.1c1.6,0.9,3.3,0.6,4.9,0.7c4.7,0.3,9.3,0.2,14,0.4c1.5,0,2.9,0.2,4.5,0.4
		c-2.3,0.9-4.6,1.8-7,2.7c-8.3,3.4-16.9,6-25.4,9c-0.8,0.3-1.2,0.7-1.3,1.5c-1.7,9.3-3.7,18.5-6.1,27.6c-1.8,7-3.5,14.1-5.3,21.2
		C69.2,342.1,69.1,342.1,69.1,342.1z"/>
	<path fill="#698DAE" d="M84,330.7c-1-2.3-1.3-4.7-2.1-7.1c-0.1-0.4,0.1-0.6,0.3-0.8c3.1-3.5,6.2-7,9.3-10.5
		c3.7-4.3,7.5-8.5,11.2-12.8c1.9-2.3,4.1-4.2,6.6-5.9c3.5-2.4,6.9-4.9,10.3-7.3c0.1,0.1,0.2,0.1,0.3,0.2c-2.6,3.6-5.3,7.2-7.9,10.9
		c0.1,0.1,0.1,0.1,0.2,0.2c1.8-1.2,3.6-2.4,5.4-3.7c5.3-3.7,10.7-7.4,16-11.1c1.4-1,2.8-2.5,4.4-2.7c1.5-0.2,3.2,0.9,4.9,1.4
		c0.6,0.2,1.3,0.4,2.2,0.8c-1.6,0.9-3.1,1.7-4.5,2.5c-2.5,1.4-5.1,2.8-7.6,4.3c-0.3,0.2-0.7,0.3-1.1,0.5c-2.5,0.4-4.8,1.4-7,2.6
		c-4,2.3-7.8,5-11.4,7.9c-5.7,4.7-11.2,9.6-16.4,14.9c-4.5,4.6-8.8,9.4-12.1,14.9C84.7,330.3,84.5,330.7,84,330.7z"/>
	<path d="M84,330.7c5.3-9.1,12.9-16.2,20.5-23.3c5.3-4.9,10.8-9.6,16.9-13.6c2.6-1.7,5.4-3.3,8.4-4.2c0.7-0.2,1.3-0.3,2-0.1
		c1,1.1,1.1,1.6,0,2.6c-2.7,2.5-5.8,4.5-8.8,6.7c-5,3.7-9.8,7.7-14.4,11.9c-4.5,4.1-8.8,8.3-12.9,12.9c-2.9,3.2-5.5,6.7-7.6,10.5
		c-0.8,1.5-2,2.1-3.2,1.5c-1.3-0.6-1.9-2.1-1.4-3.5C83.6,331.6,83.8,331.2,84,330.7z"/>
	<path fill="#698EAE" d="M97.2,354.3c1.3-1.3,2.8-2.3,4.4-3.2c0.9-0.5,2.2,0.2,3.2,0.4c6.4,1,12.8,2,19.2,3.1c0.8,0.1,1.7,0,2.6,0.6
		c-3.4,1.2-6.8,2.3-10.4,3.5c3,0.9,5.6,1.7,8.2,2.5c0,0.1,0,0.2,0,0.3c-1.8,0.3-3.6,0.6-5.4,0.9c-0.9,0-1.6-0.5-2.2-1
		c-0.6-0.5-1.3-0.7-2-0.6c-1.2,0.3-2.3,0.1-3.4-0.2c-3.6-0.9-7.1-2-10.3-4c-0.8-0.5-1.8-0.9-2.7-1.3C97.9,355,97.4,354.8,97.2,354.3
		z"/>
	<path d="M100.3,336.5c4.8,3.2,9.5,6.4,15.2,7.8c2.6,0.6,5.3,0.8,7.9,1.1c1.4,0.2,2.8,0.4,3.9,1.3c0.5,0.9,0.1,1.5-0.6,2.1
		c-1.5,1.1-3.2,1.4-4.9,1.2c-2.4-0.2-4.7-0.6-7.1-1c-1.1-0.2-2.1-0.1-3.2-0.1c-0.6,0-1.3,0-1.5-0.6c-0.5-1.2-1.6-1.4-2.6-1.9
		c-3.8-2.1-7.7-4.1-10.9-7.1c-0.3-0.3-0.6-0.6-0.8-0.9c-0.8-1-0.7-2.2,0.1-2.9c0.8-0.7,2-0.7,3,0C99.3,335.8,99.7,336.3,100.3,336.5
		z"/>
	<path d="M97.2,354.3c4.3,2,8.4,4.6,13.1,5.6c1.5,0.3,3,0.9,4.7,0.4c0.7-0.2,1.4,0,1.9,0.6c0.6,0.7,1.4,0.8,2.1,1.4
		c1.1,1.5,0.7,2.6-1.1,3.1c-1.4,0.5-2.7-0.1-4-0.1c-0.6,0-1.1,0-1.6,0.2c-3.4,1.2-6.7,2.5-10.3,3.1c-0.2,0-0.4,0.1-0.6,0.1
		c-0.4,0-0.8,0.1-1-0.4c-0.2-0.5,0.1-0.8,0.5-1.1c1.5-1,3-2,4.5-2.9c0.3-0.2,0.7-0.4,1.2-0.7c-4-1.1-7.2-3.3-10.6-5.1
		c-0.1-0.1-0.3-0.1-0.4-0.2c-1.6-0.9-2-1.9-1.5-3.1C94.5,354,95.6,353.7,97.2,354.3z"/>
	<path d="M162.7,341.5c1.4,0.4,1.6,1.6,1.6,2.7c0.1,1.4,0,2.9-0.1,4.3c-0.1,1.7,0.2,3.4,0.6,5.1c0.4,1.7,0.4,3.2-0.5,4.7
		c-1.6,1-2.8,0.6-3.2-1.2c-0.5-2-1.1-4-0.6-6.1c0.5-1.9,0-4,0-5.9c0-0.6,0.1-1.2,0.2-1.8C161,342.1,161.6,341.5,162.7,341.5z"/>
	<path fill="#000101" d="M162.7,331.7c1,1.4,1,3.1,0,4.5c-1.6,0.1-2.1-0.3-2.1-2C160.5,332,160.9,331.6,162.7,331.7z"/>
	<path fill="#ECB9A7" d="M60.7,119.1c0-0.1-0.1-0.1-0.1-0.2c-1-2.8-1-2.8,1.3-4.4c4.7-3.2,9.3-6.5,13.9-9.7c1.2-0.8,2.6-0.7,3.9-0.8
		c7-0.9,13.9-2,20.6-3.8c0.2,0,0.4-0.1,0.8-0.3c-1.9-1.1-3.6-2-5.3-3c0-0.1,0.1-0.2,0.1-0.2c13.9,3,27.7,6,41.6,9c0,0.1,0,0.2,0,0.2
		c-2.8,0.4-5.7,0.8-8.5,1.2c0,0.1,0,0.2,0,0.3c1.8,0.5,3.5,1,5.3,1.5c4,1.1,8,2.3,12.1,3.4c0.3,0.1,0.4,0.2,0.5,0.4
		c-0.3,0.6-0.8,0.7-1.4,0.9c-1,0.3-2,0.5-3,0.9c-0.5,0.2-1,0.4-1.4,0.7c-0.3,0.3-0.6,0.6-0.4,1c0.2,0.4,0.5,0.6,1,0.6
		c0.4,0,0.9-0.2,1.3-0.2c2.6-0.5,5.1-1.5,7.7-1.9c1.8-0.3,3.7-0.3,5.5-0.6c1.3-0.2,1.8,0.3,2.1,1.6c0.1,0.5,0.2,0.9,0.3,1.4
		c0.1,0.4,0.2,0.9,0.8,0.9c0.5,0,0.9-0.3,1.2-0.7c0.6-1.1,0.4-2.2-0.2-3.2c-0.4-0.7-0.9-1.4-1.6-1.9c-0.2-0.2-0.5-0.4-0.6-0.7
		c0.8-0.7,1.5-0.7,2.1,0.3c2,3.4,4.1,6.8,6.2,10.2c0.3,0.5,0.3,0.8,0.2,1.3c-0.4,1.4-0.6,2.9-1.1,4.3c-1.1,3.4-1.1,6.8-0.7,10.3
		c0.2,2-0.1,3.8-1.3,5.6c-3.6,5.2-6.9,10.5-10.4,15.8c-0.7,1.1-0.7,2.4-0.9,3.7c-0.8,4.9-1.5,9.8-2.2,14.7c-0.1,0.7-0.5,1.3-1.1,1.7
		c-5.4,3.9-10.8,7.8-16.2,11.7c-1,0.7-2.1,0.7-3.2,0.9c-3.6,0.4-7.2,0.9-10.8,1.4c-4.2,0.5-8.4,0.9-12.5,1.6c-2.9,0.5-5.4-0.3-8.1-1
		c-4.4-1.2-8.8-2.4-13.1-3.5c-0.5-0.1-0.8-0.4-1.2-0.8c-4.3-4.6-8.4-9.5-12.8-13.9c-2.2-2.2-2.4-4.8-3-7.3
		c-1.3-5.4-2.4-10.8-3.5-16.2c-0.1-0.5-0.2-1-0.3-1.6c2.9,0.7,5.6,1.4,8.6,2.1c-1.4-2.6-2.6-5.1-4.1-7.4c-3.2-4.7-4.2-10-5.4-15.3
		c0-0.1,0.1-0.1,0.1-0.2c0.1,0,0.2-0.1,0.2,0c1.5,1,2.9,2,4.7,2.7c0.5,0.2,0.5,0.8,0.5,1.3c0,2,0.9,3.6,2.1,5.1c0.8,1,1.9,1.7,3.2,2
		c1.3,0.3,2.6,0.3,3.9,0.2c2.4-0.2,3.9-1.8,5.2-3.5c1.2-1.7,1.5-3.8,1.5-5.9c0-2.6-0.9-4.4-3.5-5.5c-1.5-0.7-2.9-1.7-4.6-1.7
		c-1.5,0-2.9,0.6-4.2,1.3c-2.3,1.3-4.6,1.4-7,0.4c-1.1-0.5-1.9,0-2.9,0.2c-0.5-1.5-1.2-3-1-4.7c0.5,0.1,0.8,0.5,1.2,0.7
		c0.7,0.3,1.4,0.4,2-0.2c0.6-0.5,0.5-1.2,0.2-1.9c-1-2.8,0.9-5.3,3.9-4.9c0.7,0.1,1.4,0.2,2.1,0.2c4.7-0.1,9.3,0.1,14,1.1
		c0.8,0.2,1.7,0.4,2.1-0.6c0.4-1-0.4-1.5-1.1-2.1c-0.4-0.4-1-0.6-1.5-0.7c-2.5-0.8-4.9-1.3-7.5-0.9c-0.8,0.1-1.7,0-2.5,0
		c-3,0.1-5.8,0.8-8.4,2.4c-0.3,0.2-0.6,0.4-0.9,0.5C63.2,116.1,61.5,117,60.7,119.1z"/>
	<path d="M62.5,126.3c1.3-1.1,1.8-1,3.3-0.3c2,0.8,4.1,0.8,6-0.3c3.4-2,6.6-2.2,9.6,0.3c0.2,0.2,0.5,0.4,0.7,0.4
		c2,0.5,2.7,1.9,2.7,3.9c0,1.3,0.3,2.5,0,3.8c-0.5,1.7-1,3.3-2.2,4.7c-2.6,3-5.8,3-9.2,2.2c-2.6-0.7-4.9-4.1-4.8-6.9
		c0-0.9-0.1-1.4-1.2-1.6c-1.6-0.4-2.8-1.5-4-2.5C62.3,128.9,61.7,127.7,62.5,126.3z"/>
	<path d="M60.7,119.1c0.1-1.1,0.4-2,1.4-2.5c3.3-1.8,6.5-4,10.3-4.3c3.9-0.3,7.9-0.7,11.7,0.6c1,0.3,2,0.8,2.8,1.6
		c0.6,0.5,0.9,1.2,0.6,1.9c-0.3,0.8-1.1,0.9-1.8,0.8c-1.1-0.1-2.1-0.2-3.2-0.5c-3.8-0.9-7.7-0.6-11.6-0.8c-0.8,0-1.5,0-2.3-0.1
		c-1.8-0.3-3.7,1.1-4.1,2.9c-0.1,0.5,0.2,0.9,0.5,1.3c0.7,1,0.8,1.9-0.2,2.6c-0.8,0.7-2.1,0.5-3-0.3c-0.2-0.2-0.4-0.4-0.5-0.6
		C61.1,120.8,60.6,120,60.7,119.1z"/>
	<path d="M158.1,111.3c1.6,1,2.7,2.4,3,4.4c0.1,0.5,0,1-0.2,1.5c-0.4,0.7-1,1.2-1.8,1.2c-0.9,0-0.7-0.9-1-1.5c0-0.1,0-0.2,0-0.2
		c-0.6-2.7-0.5-2.5-3.4-2.3c-4.3,0.3-8.4,1.7-12.6,2.6c-0.8,0.2-1.6,0.2-1.9-0.8c-0.3-0.9,0.4-1.4,1.1-1.7c1.8-0.8,3.8-1,5.5-1.8
		c3.4-1.5,6.9-1.6,10.5-1.6C157.7,111.1,157.9,111.3,158.1,111.3z"/>
	<path fill="#EAE5B2" d="M164.8,62.6c0.9,1.7,1.9,3.4,2.8,5.1c2.5,4.6,4.9,9.2,7.4,13.8c0.7,1.2,0.6,2.5,0.8,3.8
		c0.5,3.2,0.9,6.5,1.3,9.7c0,0.3,0,0.6-0.2,1c-0.9-2.3-1.8-4.5-2.8-7c-0.6,1.9-0.2,3.8-0.6,5.1c-1.5-1.3-3.1-2.8-4.7-4.3
		c-0.6-0.5-1-1.2-1.5-1.7c-1.5-1.4-2.8-2.9-3.5-4.9c-0.9-2.3-2-4.4-3-6.6c-0.2-0.3-0.3-0.7-0.5-1.4c3.3,2.4,6.2,4.7,9.4,7
		c-1.7-6.7-3.4-13.2-5-19.7C164.7,62.6,164.8,62.6,164.8,62.6z"/>
	<path d="M186,179.3c0.5-0.9,0.7-1.8,1.3-2.7c0.5-0.7,1.1-1.3,2.1-1.4c0.6,0.2,1.1,0.6,1.3,1.2c0.7,0.9,0.6,1.5-0.1,2.6
		c-0.5,0.9-0.7,1.9-0.9,2.9c-0.3,1.4-0.8,2.7-1.4,4c-0.2,0.5-0.5,1-0.6,1.5c-0.1,1.2-0.6,2-1.8,2.2c-0.9,0.2-1.8,0-2.3-0.8
		c-0.7-1-0.6-2.1,0.1-2.9C185.2,184,185.5,181.6,186,179.3z"/>
	<path fill="#010101" d="M176.1,177.5c0-0.8-0.1-1.6,0.8-1.9c0.9-0.2,1.3,0.5,1.5,1.2c0.6,1.8,1.9,3.3,2.1,5.3
		c0.1,0.5,0.1,0.9-0.3,1.2c-0.4,0.4-0.9,0.2-1.3,0c-2-1-2.5-3-2.8-5C176.1,178,176.2,177.7,176.1,177.5z"/>
	<path fill="#EAE3B2" d="M190.6,179.1c0.1-0.9,0.4-1.7,0.1-2.6c1.3,0.3,2,1.5,3.2,2.2C192.7,179,191.7,179.1,190.6,179.1z"/>
	<path fill="#6D9169" d="M130.6,234.3c-0.6,0.1-0.8-0.3-1.1-0.7c-1.3-2.5-2.7-5-4.1-7.6c0.6-0.2,1,0.2,1.5,0.4
		c1.8,0.6,3.6,1.2,5.4,1.9c1.5,0.6,2.8-0.1,4.2-0.4c3.6-0.9,7-2.1,10.6-2.8c0.2,0,0.3-0.1,0.5-0.1c2.2,0,4.4,0,6.6,0
		c-3.7,1.2-7.4,2.4-11.4,3.7c3.3,0.4,6.2,0.7,9.1,1c0.7,0.1,1,0.1,0.7,0.9c-0.2,0.6-0.3,1.2-0.3,1.8c-0.1,0.8-0.5,1-1.2,1
		c-1,0-1.7-0.7-2.7-0.9c-1.6-0.3-3.3-0.1-4.9,0.1c-2,0.2-3.9,0.2-5.8,0.2c-1.5,0-3,0.2-4.5,0.3C132,233,131.4,233.9,130.6,234.3z"/>
	<path fill="#6C9068" d="M83.8,234.8c-1.6-1.4-3.3-2.9-4.9-4.3c4.7-0.3,9.4,0.7,14.1-0.2c4.6-0.9,9.3-1.3,13.6-1.8
		c-1.4,1.6-3,3.3-4.6,5c-0.6,0.7-1.9,0.9-1.6,2.2c0,0.1-0.3,0.2-0.5,0.3c-0.6,0.6-1.5,0.9-2.1,1.6c-0.3,0.3-0.7,0.1-0.9-0.1
		c-1-0.9-2.2-1-3.4-1.1c-2.6-0.3-5.2,0.1-7.6-1.1C85.2,234.8,84.4,235.2,83.8,234.8z"/>
	<path d="M116,225.8c0,2.4-0.3,4.7-0.3,7.1c0,2.2-1.2,3.9-2.7,3.7c-1.6-0.1-2.7-2.1-2.5-4.2c0.5-3.8,0.8-7.6,0.6-11.5
		c0-1-0.2-1.9-0.2-2.9c0-2,1-3.2,2.6-3.2c1.6,0,2.5,1.1,2.6,3.1c0,0.2,0,0.3,0,0.5c0.1,0.1,0.3,0.3,0.2,0.5
		C116.2,221.2,116.6,223.6,116,225.8z"/>
	<path d="M83.8,234.8c0.6-0.1,1.3-0.3,1.9,0c2.7,1.3,5.5,1,8.3,1.2c1.3,0.1,2.5,0.4,3.3,1.7c0.6-0.9,1.3-1.6,2.5-1.7
		c0.9,0,1.9-0.3,2.8,0c1.6,0.5,2.4,1.9,2,3.4c-0.4,1.4-1.4,2-3.2,1.7c-0.7-0.1-1.3-0.2-2-0.3c-0.9-0.2-1.6-0.7-2.1-1.5
		c-2.3,2.3-5.3,1.6-8,1.7c-1.9,0-3.8-0.5-5.5-1.5C82.1,238.2,82,235.7,83.8,234.8z"/>
	<path d="M130.6,234.3c0.5-1.1,1.4-1.6,2.7-1.7c4.2-0.3,8.5-0.1,12.7-0.6c1.8-0.2,3.6,0,5.1,1.4c1.2,1.5-0.2,3.3-2.3,3.5
		c-5.3,0.6-10.6,1.1-16,0.5C131.2,237.2,130.5,236.2,130.6,234.3z"/>
	<path d="M117.1,255.6c-0.3,0.6-0.1,1.3-0.2,2c-0.2,1.5-1.2,2.6-2.4,2.6c-1.2,0-2.2-1-2.4-2.5c-0.2-2-0.1-4.1,0.1-6.1
		c0.2-2.3,0.6-4.6,1.1-6.8c0.2-1,0.7-1.9,0.9-2.9c0.2-0.9,2-1.7,2.9-1.5c1,0.3,1.7,0.6,1.5,2.8c0.2,1.2,0.1,2.3-0.1,3.4
		c-0.5,2.6-0.9,5.3-1,7.9C117.5,254.9,117.5,255.3,117.1,255.6z"/>
	<path fill="#6C9068" d="M117.1,255.6c0-3.1,0.4-6.2,1.1-9.3c0.2-1.1-0.1-2.1,0.4-3.2c0.2-0.9,0.6-1.7,1.2-2.5
		c0.8-0.9,1.4-1.3,2.6-0.8c1.7,0.7,1.8,0.6,0.9,2.2c-1.5,2.6-3.1,5.2-4.6,7.8c-0.5,0.8-0.7,1.6-0.5,2.6c0.3,1.4,0.1,2.8,0.3,4.2
		c0.1,1.1,0.2,2.3,0.2,3.5C118.2,258.6,117.2,257.3,117.1,255.6z"/>
	<path fill="#6B8F67" d="M116,225.8c0-2.5-0.1-4.9,0.2-7.4c1-0.8,1.9-1.8,3.2-2.6c-0.8,2.3-1.4,4.4-2.2,6.5
		C116.8,223.5,116.7,224.8,116,225.8z"/>
	<path fill="#EAE5B3" d="M74.6,81.5c-9.9,2.1-19.4,4.4-28.8,6.9c4.5-3.2,9.1-6.4,13.6-9.6c0-0.1,0-0.2-0.1-0.2c-3.1,0-6.1,0-9.2,0
		c0-0.1-0.1-0.2-0.1-0.3c4.6-3.2,9.1-6.4,13.7-9.6c0-0.1-0.1-0.1-0.1-0.2c-2.1,0-4.2,0-6.3,0c0-0.6,0.5-0.7,0.8-0.9
		c1.5-1,3.1-2,4.6-3.1c1.7-1.3,3.6-2.1,5.7-2.5c3.7-0.7,7.4-1.6,11.1-2.3c-2.5,1.3-5.1,2.5-7.8,3.9c1.8,1.3,3.5,2.5,5.2,3.6
		c0.9,0.6,0.9,0.9,0,1.5c-3.3,2.4-6.4,4.8-9.7,7.2c-0.7,0.5-0.7,0.8,0.1,1.3c2,1.1,3.9,2.3,5.9,3.4C73.7,80.8,74,81,74.6,81.5z"/>
	<path fill="#EAE5B2" d="M39.1,198.8c-1-0.1-1.9,0.5-2.9,0.5c0.1-0.4,0.6-0.4,0.7-0.7c4.4-1.3,6.5-5,8.6-9c-2.3,0.9-4.4,1.7-6.9,2.7
		c1.2-1.4,2.1-2.5,3-3.7c1.2-1.4,2.3-2.8,3.5-4.2c0.6-0.7,1.2-1.3,2.2-1.6c1.2-0.3,2.4-0.8,3.6-1.2c0.2-0.1,0.4-0.2,0.6,0
		c0.3,0.2,0,0.4-0.1,0.6c-0.9,1.6-1.7,3.2-2.6,4.9c-0.2,0.4-0.4,0.8-0.8,1.4c2.5-0.8,4.9-1.5,7.4-2.3c-1.1,1.8-2.5,3.1-3.6,4.5
		c-1.4,1.8-2.9,3.4-4.2,5.2c-1.1,1.5-2.7,1.6-4.2,1.9C42.2,198.1,40.7,198.4,39.1,198.8z"/>
	<path fill="#6B8FB0" d="M95.1,212.3c-3.1,0.9-5.9,1.7-9,2.7c1-1.7,1.9-3.1,2.7-4.5c0-0.1-0.1-0.1-0.1-0.2c-2.2,0.9-4.4,1.7-7,2.7
		c0.7-1.5,0.7-2.9,2-3.7c0.4-0.2,0.8-0.5,1.1-0.9c2.3-3,5.4-2.5,8.6-2.2c2.7,0.3,5.4,0.4,8.1,0.6c1.6,0.1,3.2,0.2,5.2,0.3
		c-4.7,4.2-8.7,8.8-14.4,11.6C93.2,216.5,94.1,214.6,95.1,212.3z"/>
	<path fill="#6B8FB0" d="M126.3,207.3c2.2,0.3,4.5,0.6,6.7,1.1c1,0.2,1.7,0,2.3-0.8c1.3-2,3.5-2.9,5.4-4.3c0.9,2.9,2.6,5.3,4.2,8
		c-2-0.2-3.8-0.3-5.5-0.5c-0.4,0-0.9-0.2-1.1,0.1c-0.3,0.3,0.1,0.8,0.2,1.1c0.3,0.6,0.3,1-0.4,1.3c-1.3,0.8-2.5,1.7-3.8,2.5
		c-0.4,0.3-0.8,0.5-1.2-0.1c-2.3-2.7-4.6-5.4-7-8.2C126.2,207.5,126.2,207.4,126.3,207.3z"/>
	<path d="M144.6,143c-2.4,0-7-3.3-6.9-6.5c0.1-1.9-0.1-3.8-0.1-5.7c0-1.6,0.5-3,1.9-3.9c0.3-0.2,0.5-0.4,0.6-0.7
		c2.2-4.3,4.6-3.7,7.4-2.4c0.2,0.1,0.4,0.2,0.5,0.3c2.1,2.4,4.2,1,6.2,0c1.4-0.6,2.4-0.7,3.1,0.2c0.8,0.9,0.8,2.2-0.1,3.3
		c-1.8,2-3.1,4.3-4.3,6.7c-0.4,0.8-0.5,1.7-0.7,2.5C151.6,140.1,148,143.1,144.6,143z"/>
	<path d="M99.1,179.1c-1.1,0.5-2.2,1-3.3,1.6c-0.7,0.3-1.5,0.6-2.3,0.7c-1.1,0.1-2-0.2-2.5-1.3c-0.5-1-0.1-1.9,0.8-2.5
		c0.9-0.6,1.9-1.1,2.8-1.5c0.5-0.3,0.8-0.5,0.8-1.2c0-1.2,1.1-2.1,2.7-2.5c2.3-0.6,4.6-1.1,6.9-1.8c1.9-0.6,3.9-0.3,5.8-0.2
		c3.1,0.2,6.2,0.4,9.3,1.3c1.5,0.4,3.2-0.1,4.8,0.2c2.2,0.4,4.3,0.9,6.6,0.9c1.6,0,2.1,0.7,2.4,2.3c0.2,0.7,0.8,1,1.2,1.4
		c0.5,0.5,0.9,1,1.3,1.5c0.3,0.5,0.5,0.9,0.1,1.4c-0.4,0.5-0.9,0.6-1.5,0.5c-0.9-0.1-1.5-0.8-2.1-1.4c-0.4,0-0.8-0.2-1.2-0.3
		c-4.3-1.1-8.8-1.5-13.2-1.8c-0.7,0-1.4-0.2-2.1-0.3c-1.4-0.2-2.8-0.3-4,0.5c-0.7,0.4-1.6,0.5-2.4,0.5c-1.4,0-2.7,0.1-4.1,0
		c-2.1-0.1-4.1,0-5.8,1.5C99.9,178.9,99.6,179.1,99.1,179.1z"/>
	<path fill="#EA6E7B" d="M117.2,154.1c-0.8-0.2-1.3-0.8-1.9-1.1c-0.4-0.2-0.4-0.6-0.3-1c0.9-4,1.8-7.9,2.6-11.9
		c0.4-1.8,0.8-3.7,1.4-5.5c1.8,4.2,3.6,8.5,5.5,12.7c0.2,0.5-0.1,0.8-0.2,1.1c-0.9,2-2.1,3.8-2.8,6c-0.5-0.1-0.4-0.5-0.5-0.8
		c-0.2-0.8-0.7-1.2-1.5-1.3c-0.8,0-1.3,0.4-1.6,1.1C117.6,153.7,117.7,154.1,117.2,154.1z"/>
	<path fill="#EA6C7A" d="M99.1,179.1c0.2-0.1,0.5-0.3,0.7-0.4c2,0.4,4.1,0.8,6.1,1.3c3.2,0.9,6.5,1,9.8,1.2c1.5,0.1,2.9,0.2,4.4,0.3
		c0.9,0,1.8,0,2.7-0.3c2.5-0.9,5-1.6,7.5-2.6c0.6-0.3,1.3-0.2,2-0.4c0.4,0,0.7,0.1,0.9,0.5c-2.2,1.5-4.4,3-6.6,4.5
		c-0.9,0.6-1.9,0.3-2.9,0.5c-2.4,0.5-4.8,0.5-7.1,1.2c-0.8,0.5-1.6,0.2-2.4,0.3c-1.2,0.2-2.5,0.2-3.7,0.5c-0.9-0.4-1.8-0.3-2.7-0.1
		c-2.1,0.3-4.3,0-6.4,0.5c0-0.1,0-0.2-0.1-0.3c1.6-0.8,3.1-1.5,4.9-2.3C103.7,181.8,101.4,180.4,99.1,179.1z"/>
	<path d="M110.5,185.5c1.8-1.2,3.8-0.7,5.7-0.8c0.2,0,0.3,0,0.5,0c0.9,0.2,1.9,0.4,2.7,0.8c0.4,0.2,0.9,0.4,0.9,1
		c0,0.5-0.5,0.7-0.9,0.9c-1.4,0.6-2.8,1-4.3,0.9c-1,0-2.1-0.1-3.1-0.2C110.5,188,109.9,187,110.5,185.5z"/>
	<path fill="#010101" d="M117.2,154.1c0.1-0.2,0.2-0.4,0.2-0.7c0.3-1,1-1.5,2-1.5c1,0.1,1.6,0.7,1.8,1.7c0,0.2,0.1,0.5,0.2,0.7
		c-0.1,0.3-0.1,0.7-0.2,1c-0.2,1.1-1.1,1.9-2,1.9c-1,0-1.9-1.1-2-2.3C117.2,154.7,117.2,154.4,117.2,154.1z"/>
	<path fill="#ECBAA7" d="M132.3,178.1c-2.6,1.2-5.3,1.8-7.9,2.9c-2.5,1-4.9,0.9-7.5,0.5c-1.3-0.2-2.6-0.2-3.9-0.2
		c-3.2,0-6.3-1-9.4-1.5c-1.1-0.2-2.1-0.5-3.1-0.7c-0.3-0.1-0.5-0.1-0.6-0.4c1.8-1.7,3.9-2,6.3-1.8c1.4,0.1,2.8,0,4.2,0
		c1,0,2-0.2,2.9-0.8c0.9-0.6,2-0.3,3-0.2c3,0.3,6.1,0.5,9.1,0.9c1.7,0.2,3.4,0.5,5.1,0.7C131.1,177.4,131.6,178.2,132.3,178.1z"/>
</g>
</svg>
