<?xml version="1.0" encoding="utf-8"?>
<!-- Generator: Adobe Illustrator 18.1.1, SVG Export Plug-In . SVG Version: 6.00 Build 0)  -->
<svg version="1.1" id="Layer_1" xmlns="http://www.w3.org/2000/svg" xmlns:xlink="http://www.w3.org/1999/xlink" x="0px" y="0px"
	 viewBox="0 0 210.8 382.8" enable-background="new 0 0 210.8 382.8" xml:space="preserve">
<g>
	<path fill="#FEFEFE" d="M0,191.4C0,128,0,64.5,0,1.1C0,0.2,0.2,0,1.1,0c69.5,0,139,0,208.6,0c0.9,0,1.1,0.2,1.1,1.1
		c0,126.9,0,253.8,0,380.6c0,0.9-0.2,1.1-1.1,1.1c-69.5,0-139,0-208.6,0c-0.9,0-1.1-0.2-1.1-1.1C0,318.3,0,254.9,0,191.4z"/>
	<path d="M65.4,215.5c-2.5-2-4.5-4.3-6.1-7c-0.4-0.6-0.6-0.5-1.1-0.3c-6,2.8-12.3,4.9-18.8,6.4c-6.8,1.5-13.5,1.1-20-1.5
		c-1.7-0.7-3.2-1.6-4.6-2.8c-1.1-0.9-1.8-2-1.6-3.4c0-0.4,0-0.5-0.3-0.8c-2.1-1.5-2.3-2.8-0.6-4.8c-2.2-1.1-4.4-2.2-6.3-3.8
		c-2.2-1.8-4-3.9-4.6-6.8c-0.2-0.8-0.4-1.5-0.8-2.2c-0.9-1.4,0.1-3.3,2-3.5c0.9-0.1,1.7,0,2.5,0.4c4.5,2,9.3,1.8,14.1,1.8
		c0.4,0,0.6-0.2,0.8-0.4c6-4,10.2-9.4,13.5-15.8c0.6-1.2,1.3-2.4,1.9-3.6c0.1-0.2,0.5-0.5,0-0.7c-1.4-0.7-1.1-2-1.1-3.1
		c0.1-1.9,1.1-3.6,1.4-5.4c0.3-1.5,0.7-3-0.5-4.4c-0.5-0.5-0.5-1.4-0.8-2.1c-0.3-1-0.6-1.9-1.3-2.7c-0.2,0.2-0.5,0.4-0.7,0.6
		c-1.4,1-3,0.2-3.3-1.5c-0.1-0.9,0.2-1.6,0.6-2.4c2.1-4.3,3.6-8.8,4.5-13.5c0.6-2.9,0.1-5.7-0.7-8.5c-1.1-3.7-1.4-7.5-0.9-11.4
		c0.2-1.6-0.4-3.3-0.5-5c-0.3-4.2-0.6-8.4,0.6-12.5c0.4-1.3,0.8-2.6,1.6-3.7c0.8-1.1,1.3-2.4,1.8-3.6c3.8-9.8,9.2-18.5,17.3-25.3
		c2.5-2.1,4-4.9,5.6-7.7c0.7-1.3,1.5-2.5,2.6-3.6c0.9-0.9,1.7-2,2.2-3.2c0.3-0.6,0.7-1.2,1.2-1.6c1-0.7,2.1-0.5,2.7,0.5
		c0.8,1.1,1.4,2.3,1.4,3.7c0,1.1,0.7,2,1.1,3c0.7-0.3,1.2-0.8,1.6-1.2c2.6-2.9,6-4.6,9.4-6.2c0.5-0.2,0.9-0.5,1-1.2
		c0.5-3.8,1.9-7.3,3.6-10.8c5.1-10.4,13.1-18,22.3-24.6c3.4-2.4,7.2-4,11.2-5.3c3.4-1.1,6.7-2.4,9.9-3.7c0.8-0.3,1.7-0.4,2.6-0.4
		c1.5,0.1,2.6,1,2.7,2.5c0.2,1.7-0.2,3.3-1.7,4.4c-0.5,0.4-1,0.9-1.4,1.5c1.3-0.5,2.6-1,3.8-1.5c3.3-1.3,6.8-1.7,10.3-2
		c2.1-0.1,4.3-0.7,6.4-0.3c0.5,0.1,1,0.2,1.4,0.4c0.6,0.3,1.1,0.5,1.8,0.3c1.4-0.2,2.5,1,2.4,2.6c-0.1,1.4-0.7,2.8-1.3,4.1
		c-0.3,0.7-0.2,1.1,0.4,1.5c1.1,0.8,2,1.8,2.8,2.9c3.8,5.5,7,11.3,8.1,17.9c1,5.5,1.1,11,0.1,16.6c0,0.3-0.4,0.5,0.1,0.8
		c2.1,1.3,3.5,3.3,4.9,5.2c3,4,5.9,8.3,7.6,13c2.4,6.6,4.9,13.3,5.5,20.4c0.4,4.5,0.8,8.9,0.7,13.4c-0.1,4.6-0.5,9.1-1.4,13.6
		c-0.1,0.3-0.2,0.8,0,1.1c0.8,1.3,0.6,2.8,0.6,4.2c-0.1,6.2,0.8,12.4,0.8,18.6c0,3.1,0.1,6.2,0.1,9.4c0,4,0.4,8,0.8,12
		c0,0.3,0.1,0.7,0.3,0.9c1.7,1.7,2.9,3.8,4.7,5.4c4,3.9,7.8,8.1,12,11.7c1.1,0.9,2.2,1.7,3.5,2.3c0.9,0.5,1.8,1.1,2.3,2.1
		c0.6,1.1,0.3,2.4-0.9,2.8c-0.9,0.3-1.1,0.9-1.6,1.5c-2.8,3.5-5.9,6.6-9.4,9.4c-2,1.6-4.2,2.9-6.4,4.1c-1.3,0.6-2.5,1.2-4,0.8
		c-0.4-0.1-0.6,0-0.6,0.4c-0.6,2.7-1.3,5.4-1.9,8.1c-0.4,1.8-1.2,2.8-2.5,2.9c-2.7,0.2-4.1-0.5-4.5-2.6c-0.4-2.2-1.8-3.5-3.6-4.5
		c-1.8-1.1-3.7-1.9-5.5-2.9c-0.7-0.4-0.9,0.1-1.1,0.4c-1.4,1.8-3.3,2.8-5.5,3.1c-2.3,0.3-4.5-0.4-6.6-1.4c-1.7-0.8-3.2-1.8-5-3.1
		c0.4,1.2,0.9,2.1,0.9,3.1c0,0.6,0.1,1.2,0.1,1.8c-0.1,2.1-0.1,2.2,1.9,2.9c3.3,1.1,6.1,3.2,9.1,4.9c1.8,1,3.4,2.2,5.3,3
		c3.8,1.5,7.1,3.8,10.6,6c2,1.2,3.3,3.2,5.1,4.5c0.8,0.6,1,1.6,0.4,2.4c-0.5,0.7-0.5,1.4-0.5,2.1c0.1,5.1,0.6,10.2,1,15.3
		c0.2,2.6,0,5.1-0.5,7.6c-0.4,2.2-0.4,4.5-0.9,6.7c-1.2,5.2-3,10.2-4.5,15.3c-1.7,5.8-2.8,11.8-4.4,17.7c-0.1,0.3-0.2,0.6,0.1,0.8
		c1.1,1,1,2.3,1,3.6c0,5.4,1.1,10.6,1.8,15.9c0.1,0.9,0.3,1.8,0.4,2.7c0.2,1.6,0.5,3.1,1,4.7c1.6,5.1,2.8,10.3,2.3,15.8
		c-0.3,3-0.4,6-1.1,8.9c-0.3,1-0.7,2-1.4,2.8c-0.4,0.5-1,1-1.5,0.7c-1-0.4-1.4,0.2-1.9,0.8c-2.2,2.6-4.5,5.2-6.7,7.9
		c-0.7,0.9-1.3,1.8-1.7,2.9c-0.5,1.5-1.5,2-3,1.6c-0.2,0-0.4-0.2-0.7,0c-1.3,0.8-2.4,0.3-3.6-0.2c-1-0.4-2.2-0.7-3.3-0.7
		c-3.9-0.3-7.7,0.4-11.6,0.4c-0.4,0-0.9,0.1-1.2,0.4c-3.4,2.5-7.4,3.7-11.4,5c-2.5,0.8-4.8,2-7.5,2.4c-1.8,0.3-3.7,0.3-5.5,0.3
		c-0.9,0-1.7,0.2-2.5,0.5c-3.2,1.4-6.5,2.1-9.9,2.4c-2,0.2-4,0.5-6,1.1c-4.8,1.4-9.6,2.1-14.6,1.9c-3.9-0.1-8-0.3-11.8,1.6
		c-1.9,1-4.2,1-6.3,0.8c-4.2-0.3-8.4-0.6-12.5-1c-1.3-0.1-2.7-0.3-4-0.3c-1.8-0.1-2.6-1-2.5-2.8c0-0.2,0-0.5-0.1-0.7
		c-1.7-2.5-1.9-5.5-2.1-8.4c-0.2-2.5,0-5,0.6-7.5c0.1-0.3,0.2-0.5-0.3-0.7c-4.4-2.1-7.4-5.5-9.4-9.8c-2.5-5.3-4.2-11-5.5-16.7
		c-0.4-1.7-1.1-3.2-1.3-4.9c-0.2-1.7,0.3-2.9,1.9-3.6c0.3-0.1,0.5-0.2,0.5-0.5c0.8-4.7,2.8-9.1,4.4-13.6c1.9-5.1,3.5-10.2,5-15.4
		c0.3-1.2,0.9-2.2,2-2.8c0.3-0.1,0.4-0.3,0.4-0.6c0.5-2.6,0.3-5.2,0.1-7.9c-0.4-4.9-1.6-9.6-2.4-14.4c-0.2-1.4-0.3-2.9,0.9-4.1
		c0.3-0.3,0.2-0.8,0.2-1.1c-0.2-8.3-1.2-16.5-3.2-24.6c-0.6-2.3-1-4.6-0.4-7c0.5-2,1.3-2.6,3.4-2.5c0.5,0,0.5-0.2,0.7-0.4
		c4.1-6,9.5-10.5,16.1-13.6C62.1,217,63.7,216.3,65.4,215.5z"/>
	<path fill="#2F5170" d="M164.7,358.9c-0.7,1.1-1.1,2.8-2.1,3.2c-0.9,0.4-2.4-0.7-3.7-0.9c-3.2-0.6-6.4-0.5-9.5,0
		c-1.6,0.2-3.1,0.1-4.7,0.3c-1.4,0.1-2.6,0.4-3.7,1.2c-3,2.2-6.5,3.2-10,4.3c-2.1,0.6-4,1.7-6.2,2.1c-1.8,0.4-3.5,0.4-5.2,0.4
		c-1.5,0-3,0.2-4.4,0.9c-3,1.4-6.2,1.9-9.5,2.2c-2.2,0.2-4.3,0.6-6.4,1.3c-3.1,1-6.3,1.4-9.4,2c-0.2,0-0.4,0-1,0
		c1.1-0.8,1.9-1.4,2.7-2.1c0.2-0.2,0.5-0.3,0.6-0.5c0.7-0.7,1-1.4,0.4-2.3c-0.6-0.9-1.4-0.8-2.2-0.4c-2.4,1.2-4.7,2.6-6.7,4.6
		c-0.4,0.4-0.7,0.8-1.3,0.7c-2.9-0.3-5.6,0.5-8.3,1.4c-3.1,1-6.1,0.8-9.3,0.5c-2.4-0.2-4.8-0.7-7.3-0.6c-1.4,0-2.8-0.3-4.2-0.4
		c-0.6-0.1-0.8-0.2-0.9-0.9c-0.7-4.3-0.8-8.7-1.4-13.1c-0.1-0.5-0.1-1,0.6-1.2c1.1-0.3,1.3-1.4,1.5-2.4c1-4,1.9-8,2.8-12
		c0.9-4.2,2.1-8.3,3.1-12.5c0.7-3,1.5-5.9,2.2-8.8c0.2-0.9,0.1-1.7-0.4-2.3c-0.6-0.7-0.5-1.4-0.3-2.2c0.7-3.5,1.9-7,2.4-10.6
		c0.2-1.6,0.6-3.2,0.5-4.7c-0.2-3.7,1.2-6.9,2.1-10.4c1.1-4.5,2.1-9.1,2.7-13.7c0.5-4.4,0-8.8,0.1-13.2c0-2.5-0.3-5-0.8-7.5
		c-0.2-0.8,0.1-1.6,0.1-2.4c0-2.3-0.3-4.6-0.8-6.9c-0.9-4.6-1.8-9.1-2.2-13.8c-0.3-3.2-1.1-6.4-1.7-9.6c-0.1-0.8-0.3-1.7-0.3-2.5
		c0-1.3-0.3-2.4-1.7-3.2c2.1-0.9,3.9-1.7,5.8-2.6c0.7-0.3,0.6,0.2,0.6,0.6c0,1.9,0,3.8,0,5.8c-0.1,4,1.2,7.7,2,11.5
		c0.7,2.9,1.1,6,2.1,8.8c0.1,0.1,0.1,0.4,0.1,0.4c-1.4,2.1-0.9,4.3-0.6,6.5c0.3,2.6,0.6,5.3,2.4,7.3c1.9,2.2,3.7,4.5,6.7,5.7
		c2.4,0.9,4.6,2.4,7.1,3.3c4,1.4,8.1,2.3,12.2,3.3c3,0.8,6.2,1.3,9.2,2.2c0.6,0.2,1.2,0.2,1.9,0.2c5.5,0,11,0.2,16.4-0.1
		c2.9-0.2,6-0.1,8.8-1.2c0.1,0,0.2-0.1,0.2-0.1c3.2,0.4,5.2-1.9,7.6-3.2c1.6-0.9,3.2-1.7,4.9-2.1c1.3-0.3,2.3-1.1,3.3-1.9
		c1.1-1,2.3-1.8,3.5-2.7c0.5-0.4,0.9-0.4,1.5-0.1c1.8,0.8,3.4-0.3,3.4-2.3c0-3.6-0.6-7.2-1.4-10.7c-0.1-0.4-0.2-0.9-0.5-1.2
		c-1.1-1.2-0.7-2.4-0.3-3.7c1.9-6.6,3-13.4,5.5-19.9c0,0,0-0.1,0-0.1c0.4-0.9,0.4-2.4,1.1-2.5c1-0.2,2.1,0.6,3.2,1.1
		c0.5,0.2,0.5,0.4,0.2,0.8c-3.5,5.6-4.6,12.1-5.9,18.4c-0.1,0.3,0,0.7-0.1,1.1c-0.2,4-0.2,8.1-0.5,12.1c-0.3,3.3-0.5,6.5,0.3,9.7
		c0.3,1.4,0.8,2.8,1.6,4.1c0.2,0.3,0.6,0.7,0.1,0.9c-1.5,0.7-1.7,2.1-2.1,3.5c-0.7,2.5-1,5.1-1.3,7.8c-0.7,5.9-0.2,11.9-0.4,17.8
		c-0.1,2.6-0.7,5.2-0.5,7.9c0.3,4.2-0.1,8.5,1.1,12.7c0.3,1,0,2.1,0.2,3.2c0.2,1.2,0.8,1.9,2,2c0.7,1.4,0.4,2.9,0.2,4.4
		c-0.1,0.2-0.3,0.4-0.5,0.4c-1.3,0.2-1.5,1-1.5,2.1c0,1.1,0.4,1.8,1.6,2c0.2,0,0.4,0.2,0.4,0.4c0.3,1.7,0.3,3.3,0,5
		c-2.9,1.3-1.9,3.9-1.9,6.2c0,0.9,0.1,1.8-0.1,2.7c-0.3,1.8-0.2,3.6,0.2,5.5c0.6,2.5,0.9,2.8,3.3,2.5
		C164.8,358.3,164.8,358.6,164.7,358.9z"/>
	<path fill="#EA6B79" d="M53.8,148.3c0.7-1.4,1.8-1,2.8-0.7c2.3,0.6,4-0.4,4.3-2.6c0.1-1-0.2-1.9-1.2-2.4c-0.3-0.2-0.5-0.3-0.7-0.6
		c-2.2-5.5-5.7-10.3-8.9-15.3c-1.1-1.7-1.7-3.7-2.5-5.5c-0.1-0.2-0.1-0.4,0-0.6c0.2-3.3,0.5-6.6,1.1-9.9c0.9-4.5,3.7-7.6,7.3-10.1
		c4.5-3.1,9.7-4.7,14.9-6.2c0.2-0.1,0.4-0.2,0.7,0c1.7,1.3,3.1,0.4,4.4-0.6c1.4-1.1,2.6-2.4,3.7-3.8c2.5-3.1,5-6.2,7.4-9.2
		c2.8-3.5,4.7-7.3,4.5-12.1c2.1,1.4,4.3,2,6.7,2.2c0.4,0,0.6,0.3,0.7,0.7c0.5,1.9,1.7,3.2,3.2,4.3c5,3.6,10.7,5.6,16.7,6.9
		c6,1.3,12,1.4,17.8-0.7c0.3-0.1,0.6-0.1,0.9,0.1c0.2,0.1,0.4,0.3,0.6,0.3c2.1-0.3,2.5,1.4,3.2,2.7c2,3.6,4.3,7,6.7,10.4
		c3.8,5.5,9.5,6.8,15.6,4.7c0.4-0.1,0.8-0.4,1.2-0.5c0.4-0.2,0.9-0.7,1.2-0.5c0.5,0.4,0.7,1,1,1.6c0.2,0.3-0.1,0.4-0.3,0.6
		c-1.2,1-1.3,2.2-0.8,3.5c2.1,5.6,3,11.4,3.5,17.3c0.5,5.4,0.4,10.8-0.3,16.2c0,0.3,0,0.6-0.2,0.8c-1.3,1.3-1.3,3.1-1.1,4.6
		c0.5,6.7-1.6,12.7-4.4,18.6c-2.5,5.3-4.6,10.8-7.2,16c-0.6,1.2-1.3,2.3-2.3,3.3c-6,6-12.4,11.4-19.5,16c-2.8,1.8-5.6,2.7-8.9,1.8
		c-0.4-0.1-0.9-0.1-1.3-0.1c-7.7,0.1-15.3-0.7-23-0.6c-2.9,0-5.9-0.3-8.7-1.3c-2.5-0.9-5.3-0.8-7.8-1.5c-1.6-0.5-3.2-0.7-4.8-0.7
		c-2.5,0-4.3-1.6-6.1-3c-2.1-1.6-4.1-3.6-6.7-4.4c-0.3-0.1-0.6-0.4-0.8-0.7c-4.5-4.8-8.1-10.1-11-16c-0.2-0.5-0.2-0.9,0-1.4
		c0.6-1.9,1.2-3.7,1.5-5.7c0-0.3,0-0.5,0.4-0.7c1.5-0.6,1.5-1.9,1.3-3.1c-0.6-3.5-1.9-6.9-2.9-10.3C55.4,149,54.6,148.6,53.8,148.3z
		"/>
	<path fill="#FEB085" d="M118.4,21.4c1.8,0.4,2.4,0.2,3.4-1.3c0.1-0.2,0.2-0.3,0.4-0.4c5.3-3.2,10.7-6.3,16.7-8.1
		c2.6-0.8,5.3-0.9,8-1.2c1.7-0.2,3.3-0.4,5.1-0.2c-0.9,2.5-2,4.7-3,7.1c-1,2.5-2.2,5-2.8,7.7c-0.2,1.1-0.1,2,1,2.6
		c1.1,0.5,1.9-0.1,2.5-0.9c1.5-2,2.3-4.4,3.4-6.6c1.1-2.3,1.2-2.4,2.6-0.2c3.4,5,6.3,10.4,7.3,16.5c0.6,4,0.7,8,0.5,12.1
		c-0.1,1.3-0.2,2.4,0.7,3.6c0.9,1.1,1.4,2.5,1.6,4c0.1,0.6,0.4,1.1,0.8,1.6c3.7,4.2,6.3,9.1,9,14c1.1,1.9,1,4.1,1.9,6.1
		c2.8,6.5,3.6,13.3,4.1,20.3c0.5,7.1-0.4,14.1-1.4,21.1c-0.2,1.5-0.2,2.9,0.5,4.4c0.6,1.2,0.2,2.8,0.4,4.3
		c0.6,8.1,0.9,16.1,0.8,24.3c-0.5-0.7-1-1.3-1.5-2c-1.3-1.6-2.7-2-3.7-1.2c-1,0.7-0.9,2.1,0.1,3.8c0.9,1.6,1.8,3.3,2.7,4.9
		c-0.7,0.6-1.4,0.3-2.2,0.2c-0.9-0.2-1.1,0.2-0.9,1c1.3,4.8,2.4,9.6,3.7,14.4c0.3,0.9,1,1.5,1.7,2.1c1.5,1.4,3.3,2.5,4.6,4.1
		c0,2.3-0.7,4.4-1.8,6.3c-0.2,0.4-0.5,0.7-0.7,1.1c-0.4,1.1,0,2.3,1.1,2.7c1,0.4,2.2-0.3,2.5-1.4c0.9-2.7,2.1-5.3,2.6-8.2
		c0.1-0.3,0.2-0.7,0.5-0.9c0.9-0.3,1.8-0.1,2.8-0.4c-0.8-0.7-1.6-1.4-2.5-1.9c-0.5-0.5-1-0.9-1.6-1.3c-1.6-1.4-3.2-2.6-4.8-3.9
		c-0.2-0.1-0.4-0.3-0.5-0.5c-0.2-0.2-0.5-0.5-0.4-0.8c0.1-0.3,0.4-0.3,0.7-0.3c0.8,0,1.5-0.1,2.2,0.3c4.1,4.3,8.4,8.6,12.7,12.7
		c1.4,1.3,2.8,2.6,4.5,3.7c-4.1,4.8-8.5,9.2-14.3,11.9c-0.7,0.3-1.3,0.6-1.4-0.6c-0.1-0.8-0.6-1.5-1.5-1.7c-0.9-0.3-1.6,0.1-2.3,0.8
		c-1,1-1.3,2.4-1.4,3.7c-0.3,2.1-0.9,4-1.4,6.3c-2.5-3-5.8-4.4-9-6c-0.5-0.3-0.5-0.6-0.6-1.1c-0.3-1.2-1.1-1.8-2.3-1.5
		c-1.2,0.2-2.2,0.6-3,1.6c-0.5,0.7-1.3,1.2-1.8,1.9c-1.4,2-3.3,1.9-5.3,1.2c-3.8-1.4-6.7-4-9.2-7.1c-1.8-2.2-1.7-2.2,0.3-4
		c2-1.8,3.9-3.6,5.9-5.5c0.6-0.6,1.2-1.2,2.1-1.6c0.4-0.2,0.8-0.6,1-1c0.8-1.6,2-2.9,2.9-4.5c0.4-0.7,0.7-1.5,0.7-2.4
		c0-0.5,0.2-0.8,0.3-1.2c2.4-5.5,4.7-11,7.1-16.4c2.1-4.8,2.9-9.8,3.4-14.9c0.4-3.9,0.9-7.8,1.1-11.8c0.3-6.2-0.1-12.4-1.1-18.5
		c-0.1-0.4-0.3-0.7,0.2-1c1.3-0.8,1.5-2.1,1.4-3.5c-0.3-5.3-2.7-9.9-5.4-14.2c-0.2-0.4-0.5-0.4-0.9-0.2C166,97,162.5,96.9,159,96
		c-0.4-0.1-0.9-0.2-1.3-0.2c-1.9-0.1-3.4-1-4.6-2.5c-2.9-3.7-5.3-7.8-7.8-11.8c-0.5-0.8-0.6-1.4,0.4-2c0.7-0.4,1.2-1.1,1.4-2
		c0.1-0.6,0.4-1.2,0.8-1.7c2.8-3.3,4.5-7.2,6.9-10.8c0.7-1-0.4-1.4-0.8-2c-0.4-0.5,0-1,0.1-1.5c0.9-2.8,2-5.5,2.8-8.3
		c-1.5,1.4-3.1,2.7-4.4,4.1c-1.3,1.5-2.8,2.3-4.8,2.2c-2.2,0-4.5,0.2-6.7,0.3c-0.8,0-1.5-0.2-2.2-0.6c-2.9-1.7-5.8-3.3-8.8-5
		c-0.8-0.5-1.5-1.1-1.9-1.9c-1.4-2.8-2.8-5.6-4.2-8.4c-0.5-1-0.4-1.6,0.2-2.5c2.8-3.9,5.5-7.9,8.3-11.8c0.1-0.2,0.3-0.4,0.3-0.7
		c-2.4,0.7-4.8,1.6-7.2,2.1c-3.6,0.7-6.3,2.7-8.9,5c-3.4,3.1-7,6-10.5,9c-0.2,0.2-0.5,0.4-0.8,0.6c-0.2,0.1-0.4,0.3-0.6,0.2
		c-0.3-0.2-0.1-0.5,0-0.7c0.5-1.1,1.2-2.2,1.8-3.3c3.7-6.6,7.4-13.1,11-19.7C117.7,22,117.9,21.6,118.4,21.4z"/>
	<path fill="#3B5B4F" d="M118.7,270.8c-1.2,0-2.5,0-3.7,0c-3.2,0.1-6.2-0.3-9.3-1.1c-4.1-1-8.2-1.9-12.3-2.9c-3.6-0.9-7-2-10.2-3.9
		c-0.9-0.6-2-0.7-2.9-1.3c-2.9-1.8-3.5-4.8-4.1-7.7c-0.4-1.9-0.3-3.8-0.9-5.6c-0.3-0.8,0.2-1.6,0.2-2.4c-0.1-3.3-0.5-6.6-1.4-9.8
		c-1.3-4.8-1.9-9.8-1.7-14.8c0-0.7,0.1-1.5-0.1-2.1c-0.3-1.1,0.4-1.3,1.1-1.4c0.8-0.1,1.6,0.1,2.3,0.7c3.4,2.9,7.1,5.5,11.4,6.9
		c3,1,6.1,1.7,9.4,1.7c1.1,0,2.2,0,3.3,0.2c1.3,0.3,2.2-0.4,2.9-1.5c2.8-4.6,6.1-8.8,10-12.5c1-1,2.1-1.8,3.2-2.7
		c0.5-0.4,0.7-0.3,1,0.2c2.6,4.6,6.3,8.1,10,11.7c0.8,0.8,1.7,1.4,2.5,2.2c1.3,1.2,3.1,1,4.6,0.2c5.2-3,10.8-5.3,16-8.1
		c0.7-0.4,1.3-0.3,2.1-0.1c2.7,0.9,5.1,2.3,7.4,3.9c0.6,0.4,0.7,0.8,0.5,1.5c-2.8,7.2-4.6,14.6-6.1,22.2c-0.4,2.1-0.7,4.1,0.3,6.3
		c0.6,1.4,0.4,3.2,0.6,4.8c0.1,0.9,0.2,1.9,0.4,2.8c0.1,0.4,0.1,0.7-0.3,1c-2.1,1.5-4.2,3-6.4,4.5c-1,0.7-2.3,0.9-3.4,1.4
		c-2.4,1-4.5,2.3-6.7,3.8c-0.5,0.3-0.9,0.5-1.4,0.5c-0.1,0-0.3,0-0.4,0c-2.4,0.9-5,0.8-7.5,1.2c-2,0.3-4,0.2-6,0.2
		C121.5,270.8,120.1,270.8,118.7,270.8z"/>
	<path fill="#FEB084" d="M33.4,194.7c-0.3-2.3-2-3-4-1.8c-0.3,0.2-0.6,0.4-0.9,0.6c-0.6-0.1-1.2,0-1.7-0.2c-1.1-0.2-1.4-0.6-1.3-1.8
		c0.2-0.5,0.6-0.7,1.1-0.9c4-2,7.5-4.6,11.3-6.9c0.8-0.5,1.2-1.2,1.6-2c2.5-6.1,4.9-12.2,7.4-18.3c0.2-0.4,0.3-0.8,0.5-1.1
		c-1.8,2.1-3.5,4.4-5.4,6.5c-1.1,1.2-2.5,2-4.2,2.2c1-2.9,2.2-5.6,3.8-8.2c1.7-2.8,3.2-5.8,4.6-8.8c0.3-0.7,0.6-1.4,0.5-2.2
		c-0.1-1.3-1.1-1.9-2.3-1.4c-0.8,0.4-1.4,1.1-1.9,1.8c-0.7,1-1.3,2-2.2,3.3c0-0.7,0-1.1,0-1.4c0-0.6-0.1-1.2-0.5-1.6
		c-2-2.1-2.5-5-4.1-7.4c-0.3-0.5-0.2-0.9-0.1-1.5c1-3,2.1-6,2.8-9.1c0.7-3.7,0.7-7.4-0.4-11c0-0.2-0.1-0.3-0.1-0.5
		c0-0.1,0-0.1,0.1-0.3c0.6,0.8,1.3,1,2.3,1.1c-0.4-2.5-0.7-5-1.1-7.5c-0.3-2-0.9-4-1.1-6.1c0-0.4-0.1-0.9-0.3-1.1
		c-1.5-1.6-0.7-3.5-0.9-5.3c0-0.1,0-0.3,0.1-0.3c2.2-1.8,2-4.5,2.2-6.9c0.7-6.6,3.6-12.3,6.9-17.9c3.1-5.2,7-9.7,11.8-13.4
		c0.8-0.6,1.6-1,2.5-1.3c1.9-0.5,2.5-2.2,1.4-3.8c-0.2-0.2-0.5-0.4-0.2-0.8c1.3-1.8,1.9-4.1,3.8-5.6c0.5,1.1,1.4,2,1.8,3.2
		c0.6,1.7,3.6,1.9,5.3,0.4c1.8-1.6,3.7-3.2,5.6-4.7c2.3-1.8,4.7-3.4,7.3-4.8c1.3-0.7,2.1-1.5,1.9-3.1c0.5-0.3,0.7,0.1,1,0.3
		c1.3,1,2.5,2,3.7,3c0.8,0.7,1,1.4,0.6,2.4c-0.6,1.4-1.1,2.8-1.6,4.3c-0.4,1.1-0.1,1.9,1.1,2.2c1.3,0.4,2.6,0.7,3.9,1.1
		c1.3,0.4,1.5,0.8,0.5,1.8c-1.1,1.1-2.1,2.4-3.5,3.2c-1.9-1.4-1.9-1.4-4,0c-0.2,0.1-0.3,0.2-0.5,0.3c-2.1,1.1-2.9,2.5-2.3,5.1
		c0.6,2.4-0.4,4.6-1.7,6.7c-2.2,3.4-4.9,6.4-7.4,9.5c-0.5,0.7-1.1,1.4-1.7,2c-0.7,0.8-1.2,1.3-2.5,1.4c-1.5,0-2.9,1-4.4,1.4
		c-6.1,1.8-12,3.9-17.1,7.8c-4.9,3.7-7.7,8.5-8.4,14.6c-0.2,1.9-0.5,3.9-0.7,5.8c-0.3,3.8,0.8,7.2,2.7,10.3
		c2.6,4.3,5.3,8.6,7.9,12.8c0.5,0.9,0.8,1.4-0.6,1.6c-0.6,0.1-1.2,0.5-1.6,1c-0.6,0.6-0.7,1.2-0.4,2.1c0.8,2,1.5,4,1.9,6.1
		c0.4,2.5,0.6,4.9,1.1,7.4c0.2,1.4-0.3,3.2-0.6,4.8c-0.6,2.9-1.8,5.4-3,8c-0.4,0.9-0.1,1.5,0.6,2c0.4,0.3,0.7,0.6,1,1
		c3.3,6.2,7.2,11.9,12.2,16.8c0.1,0.1,0.1,0.2,0.2,0.3c-0.9,2-2.6,3.2-4.3,4.5c-1.4,1-3.1,1.5-4.7,2.2c-1.3,0.6-2.5,1.3-3.9,1.6
		c-1.7,0.4-3.4,0.1-5.1-0.1c-1.3-0.1-2.4-0.2-3.6,0.3c-1.1,0.4-2,0.1-2.9-0.6c-0.3-0.3-0.6-0.5-0.5-1c0.3-0.5,0.7-0.5,1.2-0.7
		c1.7-0.4,3.4-0.7,5-1.1c0.9-0.2,1.6-0.5,2.1-1.2c2.5-3,5-6,7.6-9.2c-1.9,0.4-3.5,1.2-5.2,1.6c-0.5,0.1-1.1,0.6-1.4,0.1
		c-0.4-0.5,0.2-1,0.4-1.4c0.9-1.6,1.7-3.2,2.5-4.9c-2.2,0.7-4.5,0.8-6,2.9c-1.7,2.3-3.6,4.3-5.5,6.6c1.7-0.6,3.2-1.3,4.8-1.9
		c0.4-0.1,0.8-0.4,1.1,0c0.3,0.4,0,0.8-0.2,1.1c-1.1,1.6-2.1,3.3-3.2,4.9c-0.4,0.5-0.9,0.9-1.4,1.2c-1.2,0.6-2.4,1.5-3.8,1.8
		c-0.6-0.1-1-0.5-1.2-1C35.4,196.3,34.7,195.3,33.4,194.7z"/>
	<path fill="#EAE5B2" d="M93.1,63.2c1.2-1.2,2.3-2.4,3.5-3.6c0.5-0.5,0.8-0.8-0.2-1c-1.4-0.3-2.8-0.7-4.1-1.1
		c-1.4-0.4-1.9-1.3-1.4-2.6c0.6-1.5,1.2-3,1.8-4.6c0.2-0.6,0.2-1.1-0.3-1.6c-1.6-1.2-3.1-2.7-4.9-3.8c0.2-1.9,0.7-3.7,1.4-5.5
		c0.4-0.9,0.8-1.8,1.9-2.2c0.9-0.3,1.1-1.3,0.9-2.1c-0.2-0.8,0.1-1.4,0.5-2c2.7-4.4,6.1-8.3,9.9-11.8c0.4,0.5,0.1,1-0.1,1.5
		c-1.5,2.8-1.5,5.7-0.8,8.7c0.3,1.4,0.4,2.8,0.6,4.3c2.2-4.1,4.2-8.2,6.4-12.3c0.3-0.6,0.7-1.1,1.2-1.5c3.2-3,6.5-6,9.8-8.9
		c1.1-1,2.2-2,3.3-3c0.9-0.8,1.7-1.6,2.7-2.1c1-0.4,2-0.9,3.1-1.4c-0.2,0.8-0.7,1.2-1.1,1.6c-0.6,0.8-1.3,1.5-0.9,2.7
		c0.2,0.5-0.3,0.6-0.6,0.7c-2.2,1.4-4.3,2.7-6.5,4c-0.5,0.3-1,0.7-1.3,1.2c-1.3,1.6-1.1,3.2,0.5,4.6c-1.8,3.3-3.7,6.7-5.5,10
		c-2.5,4.5-5.1,9-7.6,13.6c-0.2,0.3-0.3,0.5-0.6,1c1.4-0.8,2.4-1.8,3.4-2.7c4.1-3.5,8.2-7,12.2-10.5c0.8-0.7,1.8-0.7,2.8-1
		c3.2-1,6.4-1.9,9.6-2.9c0.2-0.1,0.4,0,0.9-0.1c-1.1,1.5-2,2.8-2.9,4.1c-2.3,3.2-4.5,6.5-6.8,9.7c-0.3,0.4-0.1,0.7,0,1
		c1.6,3.1,3.2,6.3,4.7,9.4c0.6,1.1,1.8,1.4,2.8,2c2.5,1.5,5.1,2.9,7.6,4.3c1.2,0.7,2.6,0.6,3.9,0.4c2.1-0.3,4.2,0,6.3-0.4
		c0.7-0.1,1.3-0.3,1.8-0.8c1.9-1.8,3.8-3.6,5.7-5.5c0.2-0.2,0.4-0.4,0.8-0.4c-1,3.6-2.6,6.9-3.5,10.5c-3.1,4.9-7.1,9.1-11.6,12.8
		c-1.1,0.9-2.2,1.3-3.7,1c-1.6-0.4-3.3,0.2-4.9,0.6c-6.9,1.7-13.6,0.6-20.2-1.8c-2.2-0.8-4.3-1.7-6.4-2.9c-1.6-1-3-2-3.8-3.8
		c-1.1-2.2-3.3-2.9-5.5-3.5C96,65.1,94.4,64.5,93.1,63.2z"/>
	<path fill="#3D5C4E" d="M45.9,240.5c-0.5-1.3-0.5-2.7-0.7-4.1c-0.1-0.5,0.1-0.8,0.7-1c1.2-0.4,2-1.2,2.9-2.1c2.2-2.4,4.6-4.6,7-6.7
		c0.5,0.7,0.9,1.3,1.7,1.5c0.4,0.1,0.4,0.4,0.5,0.8c0.8,4.5,1.8,9,2.2,13.5c0.3,3.6,1.2,7.2,2,10.8c0.3,1.4,0.6,2.7,1,4.1
		c0.3,1-0.1,1.8-0.1,2.7c-0.1,2.3,0.4,4.6,0.6,6.9c0.2,2.9,0.1,5.8,0.1,8.6c0,1.5,0,3-0.1,4.4c-0.2,3.7-1.1,7.2-1.8,10.8
		c-0.5,2.5-0.8,5-1.7,7.3c-1.7,4.5-1.3,9.2-2.3,13.8c-0.7,3.1-1.6,6.1-2,9.2c-0.2,1.5-0.5,3.1,0.2,4.6c0.2,0.4,0,0.8-0.1,1.2
		c-2,8.4-4.4,16.6-5.9,25.1c-0.3,1.7-0.7,3.3-1.1,5.2c-3.4-2.9-6.1-6-7.5-10.2c0.7-1.3,0.7-2.6,0.6-4c-0.4-5.3-0.8-10.5-1.2-15.8
		c-0.1-0.9,0.2-1.5,1.1-1.8c1.3-0.4,2.6-0.9,3.8-1.4c0.8-0.3,1.2-0.8,1.2-1.7c0.1-5.2,0.6-10.3,0.7-15.4c0.1-1.9,0.3-3.7,1-5.5
		c1.5-3.9,2.9-7.9,4.4-11.8c0.7-1.7,0.9-3.6,1.3-5.4c1.6-8.1,2.5-16.4,3.4-24.6c0.1-0.6,0.1-1.1,0.2-1.7c0.8-3.3-0.4-6.4-1.1-9.6
		c-0.7-3.1-1.4-6.2-2.1-9.2c-0.2-1-0.6-1.6-1.6-1.8c-0.9-0.2-1.7-0.6-2.5-0.8c-1.5-0.4-1.5-0.4-2.3,0.9c-0.5,0.8-0.9,1.6-1.4,2.4
		C46.7,240,46.5,240.5,45.9,240.5z"/>
	<path fill="#3E5D50" d="M162.7,341.5c0-1.7,0-3.5,0-5.2c0.6-1.5,0.5-3,0-4.5c0-1.5,0-3.1,0-4.6c1.5-0.5,1.6-1.8,1.6-3
		c0.1-1.3,0.1-2.6,0.5-3.9c0.1-0.4,0.1-0.9,0-1.3c-0.7-2.6-0.4-5.1-0.2-7.7c0.2-2.7,0-5.4,0.3-8.1c0.6-4.9,0.1-9.9,0.2-14.8
		c0.1-4.6,0.7-9.1,1.7-13.6c0.1-0.3,0.2-0.4,0.4-0.5c1.2-0.6,1.1-1.6,1-2.7c-0.3-2.1-1.1-4-1.4-6c-0.3-2-0.3-3.9-0.1-5.9
		c0.1-2.2,0.3-4.3,0.3-6.5c-0.1-4.6,0.5-9.1,1.7-13.6c1-3.7,2-7.4,3.7-10.8c0.3-0.7,0.5-0.7,1.1-0.4c1.8,0.9,3.2,2.3,4.8,3.3
		c1.7,1.1,1.2,3,1,4.6c-0.3,2.4,0.1,4.7,0.2,7c0,2,0.4,4,0.6,6c-0.3,0.2-0.5,0.5-0.8,0.7c-1.9,2.6-3.8,5.2-5.7,7.8
		c-0.6,0.7-0.8,1.5-0.8,2.5c0,1.5,0,3,0,4.4c0.1,3.6-0.3,7.3-0.3,10.9c0,2.2-1,4.2-1.5,6.3c-0.8,3-1.7,6-2.6,9
		c-0.4,1.3-0.5,2.6-0.3,3.9c0.4,3,0.8,6.1,0.9,9.1c0.2,0.7,0.3,1.5,0.5,2.2c0.6,3.5,1,7.1,1.5,10.7c0.3,2.7,0.2,5.4,0.1,8.1
		c-0.2,2.4-0.1,4.8-0.2,7.2c0,2.8,0,5.6,0,8.4c0,1.9,0.3,3.8,0.9,5.6c0.4,1.2,1,2.4,0.9,3.7c-2.6,3-5.3,6.1-7.9,9.1
		c0-0.2-0.1-0.5-0.3-0.6c0,0,0-0.1,0-0.1c1-3-0.2-5.8-0.4-8.7c-0.1-1.3,0.2-2.5,0.2-3.8C164.1,344.1,164,342.6,162.7,341.5z"/>
	<path fill="#6E936A" d="M45.9,240.5c0.8-1.4,1.7-2.7,2.5-4.1c0.4-0.7,0.8-1,1.6-0.6c1,0.4,2.1,0.8,3.2,1c1.3,0.2,1.8,1,2,2.2
		c1.1,4.9,2.2,9.7,3.3,14.5c0.4,1.6,0,3.2-0.2,4.8c-0.3,3.2-0.7,6.4-1.1,9.6c-0.5,4.1-0.9,8.2-1.8,12.3c-0.6,2.9-0.8,5.9-1.8,8.7
		c-1.7,4.7-3.4,9.4-5.1,14c-0.4,1.2-0.4,2.4-0.4,3.5c-0.1,2.2-0.3,4.4-0.3,6.6c-0.1,3.3-0.3,6.6-0.5,9.9c0,0.7-0.5,0.9-1,1.1
		c-1.4,0.5-2.8,1-4.3,1.5c-0.7,0.2-1,0.6-0.9,1.4c0.4,4.2,0.7,8.5,1,12.7c0.1,1.5,0,3,0.4,4.5c0.2,1.1-0.2,2-1.1,2.7
		c-1.9-4.2-3-8.7-4.1-13.2c-0.4-1.8-1.2-3.5-1.4-5.4c-0.1-0.5,0-0.8,0.4-1.2c1.5-1.7,2.2-3.8,3.1-5.8c3.4-7.4,6.3-15.1,8.3-23
		c0.1-0.3,0.1-0.6,0.3-0.7c2.3-2.1,2.8-4.8,2.7-7.6c0-5.7-0.9-11.3-2.2-16.9c-0.3-1.2-0.5-2.3,0-3.5c0.3-0.7,0.3-1.6,0.3-2.5
		c0.5-8.7-0.7-17.3-2.8-25.7C45.9,241,45.9,240.7,45.9,240.5z"/>
	<path fill="#2F5170" d="M140.8,199.7c0.7,1.9,1.9,3.3,3.4,4.5c1.9,1.6,3,3.5,3,6c0,2,0.2,2-1.7,3c-4.5,2.5-9.4,4.3-13.8,6.9
		c-0.4,0.3-0.8,0.4-1.1-0.3c-0.3-0.9-0.9-1.7-1.6-2.3c-3.2-3-6.2-6.3-8.6-10.1c-1.6-2.5-4.8-3.6-7.6-1.1c-5.1,4.4-9.6,9.3-13.4,14.8
		c-0.2,0.4-0.5,0.7-1,0.7c-5.3,0.4-10.3-0.8-14.8-3.7c-1.5-1-2.9-2-4-3.5c-0.3-0.4-0.2-0.6-0.1-0.9c1.9-3.7,3.4-7.6,4.5-11.6
		c0.3-1,0.7-1.1,1.6-0.9c3.3,0.8,6.7,1.6,10,2.4c1,0.2,2,0,3,0.1c4.8,0.4,9.7,0.2,14.5,0.3c2.8,0.1,5.6,0.5,8.5,0.4
		c2.1,0,4.2,0,6.4,0.4c3.3,0.6,6.1-0.9,8.8-2.6C138.1,201.4,139.4,200.6,140.8,199.7z"/>
	<path fill="#FEB78D" d="M33.4,194.7c1.3,0.2,2.1,0.9,2.4,2.2c0.1,0.7,0.4,1.4,1.2,1.6c0,0.5-0.3,0.5-0.8,0.5c1.1,0.1,2-1,3-0.3
		c0.3,1.1,1.6,1.9,2.6,1.5c2.3-0.9,4.5-0.4,6.8-0.1c1.2,0.1,2.4,0,3.4-0.5c2.5-1.2,5.1-2,7.5-3.4c1.5-1,2.9-2.2,4-3.7
		c0.2-0.2,0.3-0.5,0.6-0.6c1.4,1.4,3,2.6,4.8,3.7c-1.7,1.4-3.4,2.9-5.3,4c-2.6,1.4-5.4,2.7-8,4.1c-3.3,1.7-6.8,2.8-10.3,4
		c-4.7,1.5-9.5,2.8-14.5,2.5c-4.6-0.3-8.9-1.2-12.9-3.8c3.2-1.1,6-2.9,8.8-4.7c1.8-1.1,3.5-2.4,5-3.9C32.3,197,33.1,196,33.4,194.7z
		"/>
	<path fill="#6E926B" d="M169,303.8c-0.3-2.1-0.6-4.2-0.9-6.3c-0.2-1.1-0.2-2.1-0.4-3.2c-0.3-1.9,0.4-3.5,0.8-5.2
		c1.2-4.1,2.3-8.3,3.5-12.4c0.1-0.4,0.2-0.8,0.2-1.2c0.1-5.3,0.4-10.5,0.2-15.8c0-0.7,0.2-1.3,0.6-1.9c2-2.8,4.1-5.6,6.2-8.3
		c0.1-0.2,0.2-1.1,0.8-0.4c0.1,3.1,0.4,6.2,0.1,9.2c-0.3,2.6-1,5.1-1.9,7.6c-3.5,10.4-6.3,21-8.6,31.7
		C169.2,299.7,169,301.8,169,303.8z"/>
	<path fill="#EAE5B2" d="M37.7,170.9c1.5-0.9,3.2-1.3,4.4-2.8c1.7-2.2,3.6-4.4,5.4-6.6c0.1-0.1,0.2-0.2,0.5-0.2
		c-0.8,2.1-1.6,4.1-2.5,6.2c-2,4.9-4,9.9-6,14.8c-0.2,0.6-0.6,1-1.1,1.3c-4.2,2.6-8.2,5.5-12.7,7.7c-0.3,0.4-0.7,0.7-1.1,0.9
		c-2.5,1.2-4.9,2.4-7.4,3.7c-0.8,0.4-1.5,0.4-2.3,0c-1.9-1.1-3.8-2-5.7-3.1c-0.3-0.2-0.7-0.3-0.6-0.7c0,0,0.1,0,0.1,0
		c0,0,0.1,0,0.1,0c3,0.3,5.9,0.6,8.9,0.4c0.9,0,1.8-0.1,2.7-0.2c0.6-0.1,1.2-0.2,1.7-0.6c6-4.2,11-9.3,14.4-15.8
		c0.5-0.9,1-1.8,0.8-2.9C37.3,172.3,37.4,171.5,37.7,170.9z"/>
	<path fill="#FEAF84" d="M125.1,7.9c-2.9,2.6-5.8,5.3-8.6,7.9c-2.5,2.3-5.2,4.5-7.5,7c-1.3,1.4-2,3.4-2.9,5.1
		c-1.4,2.8-2.8,5.5-4.4,8.5c-0.6-1.4-0.5-2.8-0.8-4c-0.3-1.3-0.3-2.6-0.6-3.9c-0.5-1.8,0.4-3.3,0.9-4.9c0.3-0.8,0.7-1.5,0.8-2.4
		C108.5,14.8,116,10,125.1,7.9z"/>
	<path fill="#6D9169" d="M172.6,349.7c-0.9-2.9-2.3-5.6-2.2-8.7c0.1-4.5-0.1-9,0.1-13.5c0.1-2.6,0.2-5.2,0.2-7.8
		c0.1-3.5-0.8-6.9-1.1-10.3c-0.1-1.1-0.7-2.2-0.2-3.4c0.2,0.2,0.4,0.5,0.6,0.5c1.4,0.1,1.2,1.1,1.3,2c0.5,4,1.2,7.9,1.8,11.9
		c0.7,4.9,2.1,9.6,2.9,14.5c0.4,2.5,0.2,5.1,0.1,7.6c0,0.5-0.1,1-0.1,1.4c-0.2,1.6,0.2,3.3-1.9,4.2
		C173.5,348.4,173.1,349.2,172.6,349.7z"/>
	<path fill="#FEB48A" d="M73.5,213c-1.7-0.2-3.4-0.5-4.9-1.1c-1-0.4-1.9-1-2.6-1.9c-0.8-1.1-1.8-2-2.7-3c-0.6-0.7-0.7-1.3,0.3-1.7
		c3.8-1.4,6.7-4.2,9.8-6.7c0.9-0.7,1.6-0.9,2.7-0.4c0.9,0.5,1.9,0.8,2.9,1.2c0.4,0.1,0.4,0.3,0.3,0.7c-1.2,4.2-2.7,8.3-4.8,12.2
		C74,213,74,213,73.5,213z"/>
	<path fill="#EAE5B2" d="M186.3,170.2c-0.9,0-1.8,0-3.1,0c2.1,2,4.3,3.3,6.1,5.1c-1.4,0.7-2.3,1.9-2.8,3.4c-0.1,0.3-0.2,0.6-0.6,0.6
		c-1.7-1.4-3.4-2.9-5.1-4.3c-1.5-1.1-1.6-2.8-2-4.3c-1.1-4.1-2.1-8.2-3.2-12.3c-0.3-1.1-0.1-1.4,1-1.1c0.8,0.2,1.6,0.2,2.4,0.2
		c0.8,1.1,1.7,2.2,2.7,3.2c0.7,0.7,0.4,1.9,0.6,2.8c0.2,1.4,0.3,2.8,0.8,4.1c0.4,1.1,1,1.9,2.3,2C186,169.5,186.1,169.8,186.3,170.2
		z"/>
	<path fill="#FEB88F" d="M8.9,192c0.7,0.8,1.7,1.1,2.6,1.6c0.9,0.6,1.9,0.9,2.7,1.5c1.2,0.8,2.3,0.9,3.7,0.1
		c2.5-1.4,5.2-2.6,7.8-3.9c0,1.4,0.3,1.6,1.7,1.7c0.4,0,1-0.3,1.2,0.4c-2.4,2.6-5.3,4.4-8.3,6.2c-0.3,0.2-0.6,0.4-0.9,0
		c-1.3-1.3-3-2-4.7-2.8c-2-1-4-2-5.7-3.5c-0.5-0.4-1-0.8-1.3-1.5C8.1,191.7,8.5,191.7,8.9,192z"/>
	<path fill="#698DAE" d="M100.3,336.5c1.2-3.4,2.4-6.8,3.7-10.1c0.4-1,1.4-1.4,2.2-2c6.7-5.4,13.4-10.7,20.1-16.1
		c2.1-1.7,4.2-3.4,6.3-5.1c0.9-0.7,2.1-0.5,3.1-0.7c2.1-0.4,4.1-0.6,6.5-0.9c-2.5,1.5-4.7,2.9-7,4.3c-0.5,0.3-1,0.6-1.5,1
		c-2,1.2-2,1.2-0.9,3.2c1.6,3.1,3.3,6.1,4.9,9.2c0.4,0.7,0.4,1.1-0.4,1.6c-3.8,2.3-7.6,4.7-11.4,7.1c-1.2,0.7-1.2,0.8,0,1.5
		c4.4,2.7,8.7,5.5,13.1,8.2c1.3,0.8,1.3,0.8,0.1,1.6c-3.7,2.4-7.5,4.8-11.2,7.1c-0.2,0.1-0.4,0.2-0.5,0.2c-3.5-1.2-7.1-1.2-10.7-1.8
		c-4.7-0.8-8.7-3.1-12.7-5.5c-0.9-0.5-1.8-1.1-2.6-1.6C100.9,337.4,100.4,337.2,100.3,336.5z"/>
	<path fill="#698DAE" d="M69.1,342.1c-0.2-1.6-0.3-3.2-0.7-4.8c-1-4.6,0.5-9.1,1.1-13.6c0.6-4.9,1.5-9.7,2.3-14.6
		c0.8-5,1.6-10.1,2.3-15.1c0.7-4.6,1.3-9.3,2-13.9c0.3-2,0.6-3.9,0.9-5.9c0.1-0.6,0.2-0.8,0.9-0.7c1.6,0.3,3.2,0.4,4.7,0.5
		c0.4,0,0.7,0.2,1,0.4c2.4,1.4,4.9,2.7,7.3,4.2c1.6,0.9,3.3,0.6,4.9,0.7c4.7,0.2,9.3,0.2,14,0.4c1.5,0.1,2.9,0.2,4.5,0.4
		c-2.3,0.9-4.6,1.8-6.9,2.7c-8.3,3.4-16.9,6-25.4,9c-0.8,0.3-1.2,0.7-1.3,1.5c-1.7,9.3-3.7,18.5-6.1,27.6
		c-1.8,6.9-3.5,13.9-5.2,20.9C69.4,341.8,69.4,342,69.1,342.1z"/>
	<path fill="#698DAE" d="M84,330.7c-1-2.3-1.3-4.7-2.1-7.1c-0.1-0.4,0.1-0.6,0.3-0.8c3.1-3.5,6.2-7,9.3-10.5
		c3.7-4.3,7.5-8.5,11.2-12.8c1.9-2.3,4.1-4.2,6.6-5.9c3.5-2.4,6.9-4.9,10.3-7.3c0.1,0.1,0.2,0.1,0.3,0.2c-2.6,3.6-5.3,7.2-7.9,10.9
		c0.1,0.1,0.1,0.1,0.2,0.2c1.8-1.2,3.6-2.4,5.4-3.7c5.3-3.7,10.7-7.4,16-11.1c1.4-1,2.8-2.5,4.4-2.7c1.5-0.2,3.2,0.9,4.9,1.4
		c0.6,0.2,1.3,0.4,2.2,0.8c-1.6,0.9-3.1,1.7-4.5,2.5c-2.5,1.4-5.1,2.8-7.6,4.3c-0.3,0.2-0.7,0.3-1.1,0.5c-2.5,0.4-4.8,1.4-7,2.6
		c-4,2.3-7.8,5-11.4,7.9c-5.7,4.7-11.2,9.6-16.4,14.9c-4.5,4.6-8.8,9.4-12.1,14.9C84.7,330.3,84.5,330.7,84,330.7z"/>
	<path d="M84,330.7c5.3-9.1,12.9-16.2,20.5-23.3c5.3-4.9,10.8-9.6,16.9-13.6c2.6-1.7,5.4-3.3,8.4-4.2c0.7-0.2,1.3-0.3,2-0.1
		c1,1.1,1.1,1.6,0,2.6c-2.7,2.5-5.8,4.5-8.8,6.7c-5,3.7-9.8,7.7-14.4,11.9c-4.5,4.1-8.8,8.3-12.9,12.9c-2.9,3.2-5.5,6.7-7.6,10.5
		c-0.8,1.5-2,2.1-3.2,1.5c-1.3-0.6-1.9-2.1-1.4-3.5C83.6,331.6,83.8,331.2,84,330.7z"/>
	<path fill="#698EAE" d="M97.2,354.3c1.3-1.3,2.8-2.3,4.4-3.2c0.9-0.5,2.2,0.2,3.2,0.4c6.4,1,12.8,2,19.2,3.1c0.8,0.1,1.7,0,2.6,0.6
		c-3.4,1.2-6.8,2.3-10.4,3.5c3,0.9,5.6,1.7,8.2,2.5c0,0.1,0,0.2,0,0.3c-1.8,0.3-3.6,0.6-5.4,0.9c-0.9,0-1.6-0.5-2.2-1
		c-0.6-0.5-1.3-0.7-2-0.6c-1.2,0.3-2.3,0.1-3.4-0.2c-3.6-0.9-7.1-2-10.3-4c-0.8-0.5-1.8-0.9-2.7-1.3C97.9,355,97.4,354.8,97.2,354.3
		z"/>
	<path d="M100.3,336.5c4.8,3.2,9.5,6.4,15.2,7.8c2.6,0.6,5.3,0.8,7.9,1.1c1.4,0.2,2.8,0.4,3.9,1.3c0.5,0.9,0.1,1.5-0.6,2.1
		c-1.5,1.1-3.2,1.4-4.9,1.2c-2.4-0.2-4.7-0.6-7.1-1c-1.1-0.2-2.1-0.1-3.2-0.1c-0.6,0-1.3,0-1.5-0.6c-0.5-1.2-1.6-1.4-2.6-1.9
		c-3.8-2.1-7.7-4.1-10.9-7.1c-0.3-0.3-0.6-0.6-0.8-0.9c-0.8-1-0.7-2.2,0.1-2.9c0.8-0.7,2-0.7,3,0C99.3,335.8,99.7,336.3,100.3,336.5
		z"/>
	<path d="M97.2,354.3c4.3,2,8.4,4.6,13.1,5.6c1.5,0.3,3,0.9,4.7,0.4c0.7-0.2,1.4,0,1.9,0.6c0.6,0.7,1.4,0.8,2.1,1.4
		c1.1,1.5,0.7,2.6-1.1,3.1c-1.4,0.5-2.7-0.1-4-0.1c-0.6,0-1.1,0-1.6,0.2c-3.4,1.2-6.7,2.5-10.3,3.1c-0.2,0-0.4,0.1-0.6,0.1
		c-0.4,0-0.8,0.1-1-0.4c-0.2-0.5,0.1-0.8,0.5-1.1c1.5-1,3-2,4.5-2.9c0.3-0.2,0.7-0.4,1.2-0.7c-4-1.1-7.2-3.3-10.6-5.1
		c-0.1-0.1-0.3-0.1-0.4-0.2c-1.6-0.9-2-1.9-1.5-3.1C94.5,354,95.6,353.7,97.2,354.3z"/>
	<path d="M162.7,341.5c1.4,0.4,1.6,1.6,1.6,2.7c0.1,1.4,0,2.9-0.1,4.3c-0.1,1.7,0.2,3.4,0.6,5.1c0.4,1.7,0.4,3.2-0.5,4.7
		c-1.6,1-2.8,0.6-3.2-1.2c-0.5-2-1.1-4-0.6-6.1c0.5-1.9,0-4,0-5.9c0-0.6,0.1-1.2,0.2-1.8C161,342.1,161.6,341.5,162.7,341.5z"/>
	<path fill="#000101" d="M162.7,331.7c1,1.4,1,3.1,0,4.5c-1.6,0.1-2.1-0.3-2.1-2C160.5,332,160.9,331.6,162.7,331.7z"/>
	<path fill="#ECBAA7" d="M146,112.3c0.5,0,1,0.1,1.5,0.3c1.8,0.7,3.5,0.8,5.4,0.1c1.8-0.7,3.7-1.1,5.5-1.7c0.9-0.3,1.4-0.1,1.9,0.7
		c2,3.4,4.1,6.8,6.2,10.1c0.3,0.5,0.3,0.8,0.2,1.3c-0.3,1.2-0.5,2.4-0.9,3.6c-1.1,3.6-1.3,7.3-0.9,11c0.2,2-0.1,3.8-1.3,5.6
		c-3.6,5.2-6.9,10.5-10.4,15.8c-0.7,1.1-0.7,2.4-0.9,3.7c-0.8,4.9-1.5,9.8-2.2,14.7c-0.1,0.7-0.5,1.3-1.1,1.7
		c-5.4,3.9-10.8,7.7-16.2,11.7c-1.1,0.8-2.3,0.8-3.5,0.9c-3.5,0.5-7,0.8-10.5,1.3c-4.2,0.5-8.4,0.9-12.5,1.7c-2.8,0.5-5.3-0.3-7.8-1
		c-4.4-1.2-8.8-2.4-13.3-3.6c-0.6-0.1-0.9-0.5-1.2-0.9c-4.2-4.6-8.3-9.4-12.8-13.8c-2.2-2.2-2.4-4.8-3-7.3
		c-1.3-5.4-2.4-10.8-3.5-16.2c-0.1-0.5-0.2-0.9-0.3-1.6c2.8,0.7,5.6,1.4,8.6,2.1c-1-1.8-1.8-3.4-2.7-5c-1.4-2.4-2.8-4.8-4.1-7.3
		c-1-1.9-1.2-4-1.7-6.1c-1.4-5.7-2.8-11.4-4.2-17.2c-0.2-0.8-0.1-1.3,0.7-1.8c5.1-3.5,10.1-7,15.1-10.5c1.2-0.8,2.6-0.6,3.9-0.8
		c4.3-0.7,8.6-1.1,12.8-2c2.8-0.6,5.5-1.3,8.6-2c-2-1.1-3.7-2-5.4-3c0-0.1,0.1-0.2,0.1-0.2c13.9,3,27.7,6,41.6,9c0,0.1,0,0.2,0,0.2
		c-2.8,0.4-5.7,0.8-8.5,1.2c0,0.1,0,0.2,0,0.3c3.9,1.1,7.8,2.1,11.7,3.2c-0.3,1.1-1.3,1.2-2.2,1.4c-1.7,0.5-3.4,0.9-4.8,2
		c-1.2,0.8-1.6,1.7-1.1,2.6c0.5,0.9,1.6,1.3,2.8,0.7c1.4-0.6,2.8-1,4.3-1.4c2-0.5,3.6-1.6,5.2-2.9
		C145.2,112.8,145.5,112.4,146,112.3z"/>
	<path d="M146,112.3c-1.8,2-3.9,3.3-6.5,4.1c-1.3,0.4-2.6,0.7-3.8,1.3c-0.7,0.4-1.4,0.5-2.2,0.2c-0.8-0.3-1.4-0.8-1.5-1.7
		c-0.1-0.9,0.3-1.5,1-2c1.6-1.2,3.4-1.8,5.3-2.3c0.9-0.2,1.7-0.5,2.4-1.2c0.7-0.4,1.4-0.8,2.2-1.2c0.9-0.4,1.9-0.5,2.8,0.2
		C146.5,110.5,146.4,111.4,146,112.3z"/>
	<path fill="#EAE5B2" d="M164.7,62.7c1.2,1.5,2,3.3,2.9,4.9c2.6,4.7,5,9.4,7.5,14c0.7,1.3,0.6,2.9,0.8,4.3c0.5,2.9,0.8,5.8,1.2,8.7
		c0.1,0.5,0,0.9-0.2,1.4c-0.9-2.3-1.8-4.5-2.7-7c-0.7,1.9-0.1,3.8-0.8,5.5c-2.7-2.8-5.4-5.6-8.1-8.4c-0.8-0.9-1.1-2-1.6-3.1
		c-1.2-2.5-2.3-5-3.2-7.6c3,2.2,6,4.5,9.2,6.8C168,75.6,166.3,69.2,164.7,62.7z"/>
	<path d="M186,179.3c0.5-0.9,0.7-1.8,1.3-2.7c0.5-0.7,1.1-1.3,2.1-1.4c0.6,0.2,1.1,0.6,1.3,1.2c0.7,0.9,0.6,1.5-0.1,2.6
		c-0.5,0.9-0.7,1.9-0.9,2.9c-0.3,1.4-0.8,2.7-1.4,4c-0.2,0.5-0.5,1-0.6,1.5c-0.1,1.2-0.6,2-1.8,2.2c-0.9,0.2-1.8,0-2.3-0.8
		c-0.7-1-0.6-2.1,0.1-2.9C185.2,184,185.5,181.6,186,179.3z"/>
	<path fill="#010101" d="M180.7,182.6c-0.1,0.7-0.5,1.1-1.3,0.9c-1-0.3-1.7-1-2.2-1.8c-0.8-1.5-1.1-3.1-1.1-4.8
		c0-0.5,0.2-0.9,0.7-1.2c0.5-0.2,1,0,1.2,0.3C179.1,178.1,180.3,180.1,180.7,182.6z"/>
	<path fill="#EAE3B2" d="M190.6,179.1c0.1-0.9,0.4-1.7,0.1-2.6c1.3,0.3,2,1.5,3.2,2.2C192.7,179,191.7,179.1,190.6,179.1z"/>
	<path fill="#6D9169" d="M130.6,234.3c-0.6,0.1-0.8-0.3-1.1-0.7c-1.3-2.5-2.7-5-4.1-7.6c0.6-0.2,1,0.2,1.5,0.4
		c1.8,0.6,3.6,1.2,5.4,1.9c1.5,0.6,2.8-0.1,4.2-0.4c3.6-0.9,7-2.1,10.6-2.8c0.2,0,0.3-0.1,0.5-0.1c2.2,0,4.4,0,6.6,0
		c-3.7,1.2-7.4,2.4-11.4,3.7c3.3,0.4,6.2,0.7,9.1,1c0.7,0.1,1,0.1,0.7,0.9c-0.2,0.6-0.3,1.2-0.3,1.8c-0.1,0.8-0.5,1-1.2,1
		c-1,0-1.7-0.7-2.7-0.9c-1.6-0.3-3.3-0.1-4.9,0.1c-2,0.2-3.9,0.2-5.8,0.2c-1.5,0-3,0.2-4.5,0.3C132,233,131.4,233.9,130.6,234.3z"/>
	<path fill="#6C9068" d="M83.8,234.8c-1.6-1.4-3.3-2.9-4.9-4.3c4.7-0.3,9.4,0.7,14.1-0.2c4.6-0.9,9.3-1.3,13.6-1.8
		c-1.4,1.6-3,3.3-4.6,5c-0.6,0.7-1.9,0.9-1.6,2.2c0,0.1-0.3,0.2-0.5,0.3c-0.6,0.6-1.5,0.9-2.1,1.6c-0.3,0.3-0.7,0.1-0.9-0.1
		c-1-0.9-2.2-1-3.4-1.1c-2.6-0.3-5.2,0.1-7.6-1.1C85.2,234.8,84.4,235.2,83.8,234.8z"/>
	<path d="M116,225.8c0,2.4-0.3,4.7-0.3,7.1c0,2.2-1.2,3.9-2.7,3.7c-1.6-0.1-2.7-2.1-2.5-4.2c0.5-3.8,0.8-7.6,0.6-11.5
		c0-1-0.2-1.9-0.2-2.9c0-2,1-3.2,2.6-3.2c1.6,0,2.5,1.1,2.6,3.1c0,0.2,0,0.3,0,0.5c0.1,0.1,0.3,0.3,0.2,0.5
		C116.2,221.2,116.6,223.6,116,225.8z"/>
	<path d="M83.8,234.8c0.6-0.1,1.3-0.3,1.9,0c2.7,1.3,5.5,1,8.3,1.2c1.3,0.1,2.5,0.4,3.3,1.7c0.6-0.9,1.3-1.6,2.5-1.7
		c0.9,0,1.9-0.3,2.8,0c1.6,0.5,2.4,1.9,2,3.4c-0.4,1.4-1.4,2-3.2,1.7c-0.7-0.1-1.3-0.2-2-0.3c-0.9-0.2-1.6-0.7-2.1-1.5
		c-2.3,2.3-5.3,1.6-8,1.7c-1.9,0-3.8-0.5-5.5-1.5C82.1,238.2,82,235.7,83.8,234.8z"/>
	<path d="M130.6,234.3c0.5-1.1,1.4-1.6,2.7-1.7c4.2-0.3,8.5-0.1,12.7-0.6c1.8-0.2,3.6,0,5.1,1.4c1.2,1.5-0.2,3.3-2.3,3.5
		c-5.3,0.6-10.6,1.1-16,0.5C131.2,237.2,130.5,236.2,130.6,234.3z"/>
	<path d="M117.1,255.6c-0.3,0.6-0.1,1.3-0.2,2c-0.2,1.5-1.2,2.6-2.4,2.6c-1.2,0-2.2-1-2.4-2.5c-0.2-2-0.1-4.1,0.1-6.1
		c0.2-2.3,0.6-4.6,1.1-6.8c0.2-1,0.7-1.9,0.9-2.9c0.2-0.9,2-1.7,2.9-1.5c1,0.3,1.7,0.6,1.5,2.8c0.2,1.2,0.1,2.3-0.1,3.4
		c-0.5,2.6-0.9,5.3-1,7.9C117.5,254.9,117.5,255.3,117.1,255.6z"/>
	<path fill="#6C9068" d="M117.1,255.6c0-3.1,0.4-6.2,1.1-9.3c0.2-1.1-0.1-2.1,0.4-3.2c0.2-0.9,0.6-1.7,1.2-2.5
		c0.8-0.9,1.4-1.3,2.6-0.8c1.7,0.7,1.8,0.6,0.9,2.2c-1.5,2.6-3.1,5.2-4.6,7.8c-0.5,0.8-0.7,1.6-0.5,2.6c0.3,1.4,0.1,2.8,0.3,4.2
		c0.1,1.1,0.2,2.3,0.2,3.5C118.2,258.6,117.2,257.3,117.1,255.6z"/>
	<path fill="#6B8F67" d="M116,225.8c0-2.5-0.1-4.9,0.2-7.4c1-0.8,1.9-1.8,3.2-2.6c-0.8,2.3-1.4,4.4-2.2,6.5
		C116.8,223.5,116.7,224.8,116,225.8z"/>
	<path fill="#EAE5B3" d="M74.2,81.5c-9.5,2-19,4.3-28.5,6.8c4.6-3.2,9.1-6.4,14-9.8c-3.4,0-6.5,0-9.6,0c0-0.1-0.1-0.2-0.1-0.3
		c4.6-3.2,9.1-6.4,13.7-9.6c0-0.1,0-0.2-0.1-0.3c-2.1,0-4.2,0-6.3,0c4.1-2.7,7.6-6.2,12.8-6.8c3.1-0.3,6.2-1.4,9.4-1.9
		c-2.5,1.3-5,2.5-7.7,3.9c1.8,1.3,3.5,2.5,5.2,3.6c1,0.6,0.9,0.9,0,1.6c-3.2,2.3-6.4,4.8-9.6,7.1c-0.7,0.5-0.8,0.8,0.1,1.3
		c2.3,1.3,4.6,2.7,6.9,4C74.3,81.3,74.3,81.4,74.2,81.5z"/>
	<path fill="#EAE5B2" d="M39.1,198.8c-1-0.1-1.9,0.5-2.9,0.5c0.1-0.4,0.6-0.4,0.7-0.7c4.4-1.3,6.5-5,8.6-9c-2.3,0.9-4.4,1.7-6.9,2.7
		c1.2-1.4,2.1-2.5,3-3.7c1.2-1.4,2.3-2.8,3.5-4.2c0.6-0.7,1.2-1.3,2.2-1.6c1.2-0.3,2.4-0.8,3.6-1.2c0.2-0.1,0.4-0.2,0.6,0
		c0.3,0.2,0,0.4-0.1,0.6c-0.9,1.6-1.7,3.2-2.6,4.9c-0.2,0.4-0.4,0.8-0.8,1.4c2.5-0.8,4.9-1.5,7.4-2.3c-1.1,1.8-2.5,3.1-3.6,4.5
		c-1.4,1.8-2.9,3.4-4.2,5.2c-1.1,1.5-2.7,1.6-4.2,1.9C42.2,198.1,40.7,198.4,39.1,198.8z"/>
	<path fill="#6B8FB0" d="M81.7,212.9c0.6-1.6,0.8-3.1,2.2-3.9c0.7-0.4,1.4-1,1.9-1.6c1.9-2.4,4.5-1.4,6.9-1.3
		c2.9,0.1,5.7,0.4,8.6,0.6c1.7,0.1,3.3,0.2,5.3,0.3c-4.7,4.2-8.7,8.8-14.4,11.6c0.9-2.1,1.8-4,2.9-6.3c-3.1,0.9-5.9,1.7-9,2.7
		c1-1.7,1.9-3.1,2.7-4.5c0-0.1-0.1-0.1-0.1-0.2C86.5,211.1,84.3,211.9,81.7,212.9z"/>
	<path fill="#6B8FB0" d="M126.2,207.3c1.9,0.3,3.8,0.4,5.7,0.9c1.7,0.4,2.9,0.2,3.9-1.4c1-1.5,2.9-2.2,4.4-3.3
		c0.3-0.2,0.4-0.1,0.5,0.2c0.9,2.6,2.5,4.9,4,7.4c-1.9,0.2-3.6-0.3-5.2-0.3c-0.5,0-1.1-0.3-1.4,0c-0.3,0.3,0.1,0.8,0.3,1.2
		c0.3,0.5,0.2,0.8-0.4,1.2c-1.3,0.9-2.7,1.8-4,2.7c-0.4,0.3-0.7,0.3-1-0.1c-2.3-2.8-4.7-5.5-7-8.2
		C126.1,207.5,126.2,207.4,126.2,207.3z"/>
	<path d="M121.3,165.4c3.7-0.5,8,0.9,12.3,2.4c0.9,0.3,1.8,0.7,2.3,1.6c0.4,0.8,0.5,1.5,0,2.3c-0.4,0.7-1.1,0.9-1.9,0.7
		c-0.7-0.2-1.2,0.1-1.8,0.5c-3.6,2.2-7.4,3.8-11.7,4.2c-2,0.2-3.9,0.2-5.9-0.1c-3-0.4-5.5-1.9-7.8-3.9c-0.3-0.2-0.4-0.5-0.8-0.2
		c-0.8,0.5-1.8,0.5-2.7,0.9c-1.1,0.4-2,0.2-2.6-0.8c-0.6-1-0.5-1.9,0.3-2.8c0.2-0.3,0.5-0.6,0.8-0.7c2.9-0.8,5.4-2.8,8.5-3.4
		C113.6,165.6,117,165.5,121.3,165.4z"/>
	<path d="M149.8,138.5c-4.9-0.4-9.6-1.8-12.7-6.5c-0.3-0.4-0.5-0.5-1.1-0.4c-1.8,0.4-3.2-0.9-2.9-2.7c0.1-0.5,0.2-1.1,0.4-1.6
		c0.2-0.6,0.5-1.1,1.1-1.3c2.8-1.1,5.6-2.3,8.4-3.4c1.2-0.5,2.4-0.2,3.7,0.1c2.2,0.5,3.6,2.3,5.6,3c0.5,0.1,0.6,0.6,0.6,0.9
		c0.3,1.1,1,1.9,1.9,2.5c1,0.6,1.9,1.4,2.6,2.2c0.4,0.4,0.7,0.9,0.9,1.4c0.6,1.5-0.3,2.8-1.8,2.9c-0.3,0-0.7-0.1-0.9,0.3
		C154.3,137.9,152.3,138.3,149.8,138.5z"/>
	<path d="M68.4,135.8c-1.5,0.5-2.4,0.4-2.9-0.6c-0.6-1-0.3-2.2,0.8-3c4.6-3.3,9.3-6.5,15-7.9c2.7-0.6,3.6-0.4,5.1,1.9
		c0.3,0.5,0.9,0.7,1.3,1.2c1.6,1.6,1.3,3.1-0.8,3.9c-0.4,0.2-0.3,0.4-0.3,0.6c0,1.2-0.4,2.2-1.3,3c-3.2,2.8-6.6,5.4-11,6.2
		c-1,0.2-2.1,0.2-3.1,0C69,140.7,67.1,139,68.4,135.8z"/>
	<path fill="#EA6C7A" d="M134.5,177.8c-1.3,0.9-2.4,1.6-3.5,2.4c-1.1,0.7-2.2,1.4-3.1,2.2c-1.6,1.4-3.7,1.2-5.5,1.5
		c-6.1,0.9-12.2,1.7-18.4,1.8c-0.9,0-1.7,0.3-2.8,0.1c1.7-0.8,3.3-1.6,5-2.4c-2.5-1.5-4.8-2.9-7.2-4.2c0-0.1,0.1-0.1,0.1-0.2
		c1.3,0.3,2.7,0.5,4,0.8c4.3,1.1,8.7,1.7,13.2,1.9c1.5,0,3.1,0,4.6,0.3c0.5,0.1,1.2-0.2,1.7-0.4c3.5-1.2,6.9-2.4,10.4-3.5
		C133.4,177.8,133.8,177.6,134.5,177.8z"/>
	<path fill="#EA6D7B" d="M122.2,153.1c-0.9,0.5-1,1.6-1.5,2.4c-0.3,0.6-0.6,0.8-1.2,0.4c-1.3-0.9-2.7-1.8-4.1-2.7
		c-0.4-0.3-0.6-0.6-0.5-1.2c1.2-5.3,2.3-10.6,3.5-15.9c0.1-0.4,0-1,0.5-1.5c0.8,1.8,1.6,3.6,2.3,5.3c0.2,0.4,0.3,0.8,0.7,1.1
		c-1.1,2.4-0.7,5-0.8,7.5C121,150.1,121.3,151.7,122.2,153.1z"/>
	<path d="M86.2,120.4c-4.2-0.2-7.1-2.1-9.3-5.2c-0.6-0.9-0.5-1.9,0.3-2.8c0.7-0.8,1.9-0.9,2.8-0.2c0.7,0.5,1.3,1.1,1.9,1.7
		c1.2,1.2,2.6,1.8,4.3,1.8c2,0,3,0.7,3,2C89.2,119.2,87.9,120.3,86.2,120.4C86.1,120.4,86,120.4,86.2,120.4z"/>
	<path fill="#010000" d="M122.2,153.1c-1-0.7-1.4-1.6-1.4-2.8c0-2.3,0-4.6,0-6.8c0-1,0.3-1.9,1.1-2.6c1.9-0.7,3.3-0.1,3.5,1.9
		c0.2,2.9,0.2,5.7,0.1,8.6C125.4,152.9,124,153.6,122.2,153.1z"/>
	<path fill="#B84953" d="M111.3,170.7c5.1-0.9,10.2-0.6,15.5-0.4C123.5,172.8,114.1,173.8,111.3,170.7z"/>
	<path fill="#FCFCFC" d="M149.3,133.7c0.4-1.7,0.1-2.5-0.9-3.1c-1.1-0.7-2.1-0.4-3.4,0.5c-0.7,0.5-1.7,0.6-2.5,0.1
		c-0.7-0.4-1.3-1.2-1.7-2c-0.4-0.6-0.1-0.9,0.5-1.2c1.6-0.9,3.3-0.8,5-0.4c0.7,0.2,1.1,0.7,1.6,1.2c1.2,1.3,2.4,2.6,3.8,3.6
		c0.5,0.4,0.5,0.6-0.1,0.9C151,133.9,150.2,133.7,149.3,133.7z"/>
	<path fill="#FBFBFB" d="M84.6,130.2c-0.1,0.1-0.1,0.2-0.2,0.2c-1.6,0.8-3,1.8-4.4,2.8c-0.4-2.4-1.3-3-3.6-2.5
		c1.7-1.3,3.6-1.7,5.4-2.2c0.3-0.1,0.4,0,0.6,0.2C83.1,129.5,83.9,129.8,84.6,130.2z"/>
	<path fill="#FBFBFB" d="M70,134.6c1.7-1.5,3.6-2.4,5.8-3.5c-0.4,0.6-0.7,0.9-0.9,1.1c-0.7,0.9-0.9,1.9-0.2,3
		c0.4,0.7,0.3,1.1-0.6,1.2c-0.5,0.1-1.1,0.2-1.6,0.3c-0.5,0.1-0.9,0-1.1-0.6C71.2,135.5,70.7,135,70,134.6z"/>
</g>
</svg>
