<?xml version="1.0" encoding="utf-8"?>
<!-- Generator: Adobe Illustrator 18.1.1, SVG Export Plug-In . SVG Version: 6.00 Build 0)  -->
<svg version="1.1" id="Layer_1" xmlns="http://www.w3.org/2000/svg" xmlns:xlink="http://www.w3.org/1999/xlink" x="0px" y="0px"
	 viewBox="0 0 239.1 391" enable-background="new 0 0 239.1 391" xml:space="preserve">
<g>
	<path fill="#FEFEFE" d="M239.1,195.6c0,64.8,0,129.5,0,194.3c0,0.9-0.2,1.1-1.1,1.1c-79,0-157.9,0-236.9,0c-0.9,0-1.1-0.2-1.1-1.1
		C0,260.3,0,130.7,0,1.1C0,0.2,0.2,0,1.1,0C80.1,0,159,0,238,0c0.9,0,1.1,0.2,1.1,1.1C239.1,65.9,239.1,130.8,239.1,195.6z"/>
	<path d="M233.1,181.7c0.7-0.9,1.4-1.8,2.2-2.7c0.5-0.6,1.1-1.1,2-0.8c0.9,0.3,1.1,1.1,1.1,2c-0.1,1.8-0.7,3.5-1.6,5.1
		c-2,3.5-4.5,6.7-6.4,10.2c-3.4,6.4-7.2,12.6-9.2,19.6c-1.9,6.7-3.7,13.5-5.1,20.4c-0.1,0.3,0,0.6-0.1,1c-0.1,0.8-0.3,1.7-1,1.9
		c-1.4,0.5-1.8,1.3-1.8,2.7c0,0.8-0.7,1.4-1.5,1.6c-0.9,0.2-1.6-0.1-2.2-0.7c-0.4-0.4-0.6-0.9-0.9-1.4c-0.6-1.1-0.8-2.4-1.7-3.4
		c-1-1.1-2.2-2.1-3.3-3.1c-2.5,2.1-2.5,5.4-3.1,8.4c-0.7,3.1-0.5,6.3-0.5,9.4c0,1.4,0.1,2.8-0.4,4.1c-0.2,0.4,0,0.8,0.1,1.1
		c0.4,0.9,0.2,1.8-0.5,2.6c-0.7,0.7-1.6,0.9-2.5,0.6c-1.8-0.5-3.2-1.5-4.1-3.2c-0.6-1.2-1.4-2.3-2.2-3.4c-2.6-3.6-6.6-4.7-10.6-5.6
		c-0.3-0.1-0.6,0-0.8,0.1c-0.9,0.2-1.3,0.5-0.7,1.5c0.4,0.7,0.8,1.3,1.4,1.8c1.4,1.4,2.8,2.7,4.2,4.2c1.5,1.5,1.6,2.9,0.6,4.6
		c0.3,0.1,0.5,0,0.7-0.1c1.5-0.5,3.1,0.6,3.2,2.3c0.1,6.6,0.4,13.2-0.2,19.8c-0.7,8-2.1,15.9-3.3,23.8c-0.2,1.3,0.5,2.5,0.7,3.7
		c1,5.9,1.8,11.8,1.8,17.8c0,6,0,12,0,18c0,0.6,0,1.1,0.5,1.7c0.7,0.8,0.6,1.8,0.6,2.8c0,5.1,0,10.2,0,15.2c0,0.6,0,1.1,0.6,1.6
		c0.8,0.7,0.7,1.7,0.2,2.5c-0.4,0.8-0.7,1.5-1,2.4c-0.4,1.7-1.7,2.4-3.3,1.8c-0.5-0.2-0.8,0-1.1,0.2c-3.7,2-7.5,3.8-11.1,6
		c-1.7,1-3.4,1.8-5.4,2.1c-0.4,0.1-0.8,0.3-1.1,0.5c-6.2,3.6-12.8,6.2-19.9,7.5c-1.5,0.3-3,0.5-4.5,0.6c-7.8,0.1-15.5,0.2-23.3,0.1
		c-0.9,0-1.7-0.1-2.4-0.5c-1.9-1.1-4-1.5-5.9-2.6c-0.5-0.3-0.5,0.2-0.7,0.4c-0.8,0.8-1.8,0.9-2.5,0.1c-0.5-0.5-1-0.6-1.6-0.6
		c-5.7,0-11.4,0-17.2-0.2c-1.9,0-3.9-0.6-5.8-0.7c-6.5-0.3-13-1.7-19.6-1.2c-4.6,0.4-8.8-1-13-2.7c-1.2-0.5-2.2-0.7-3.2,0.4
		c-1,1-2.7,0.6-3.2-0.8c-0.3-0.8-0.8-1-1.6-1.1c-1.8-0.3-2.4-1.8-1.6-4.1c-2.2-0.1-4.4,0-6.5-0.7c-3.2-1.1-6.2-2.6-8.9-4.5
		c-0.7-0.5-1.3-1-1.8-1.7c-0.6-0.9-1-1.9-2.6-1.8c-1.1,0.1-1.5-1.2-1.7-2.2c-0.2-0.9-0.3-1.8-0.3-2.7c-0.1-10.6-0.2-21.2,0-31.8
		c0-2.3,0.4-4.6,1.1-6.8c0.6-1.8,1.1-3.7,1.2-5.6c0.1-0.9,0.5-1.8,1.4-2c1-0.2,1-0.8,1.1-1.5c0.8-6.8,1.8-13.5,3.2-20.2
		c0.5-2.5,0.6-5.1,0.5-7.6c-0.2-7.3-0.1-14.7-0.2-22c0-0.9-0.3-1.9-0.5-2.8c-0.2-0.8-0.2-1.5-0.2-2.3c0.2-2,2.2-2.8,3.7-1.6
		c0.5,0.4,0.7,0.4,1-0.1c1-1.4,2.5-2.2,4.2-2.5c0.4-0.1,0.8-0.2,1.1-0.4c2.7-1.5,5.1-3.5,8-4.8c-4,0.1-7.8-1-11.7-1.4
		c-1.4-0.1-2.8,0.2-4.3,0.2c-1.4,0-2.7-0.3-3.9-1c-3.8-2.3-7.3-4.8-9.6-8.8c-0.8-1.5-1.8-2.8-2.7-4.2c-0.2-0.3-0.3-0.7-0.9-0.4
		c-1.2,0.6-2.1,0-2.2-1.4c-0.1-2.5-0.1-5.1,0.3-7.5c1.7-9.5,2-19.1,1.7-28.8c-0.3-0.1-0.4,0.3-0.5,0.5c-1,1.5-2.2,2.6-3.7,3.6
		c-1.8,1.2-3.3,0.5-3.7-1.7c-0.6,0.4-1.3,0.7-1.9,0.3c-0.8-0.5-0.7-1.3-0.7-2c0.1-3.8,1-7.4,2-11c1.5-5.7,2.3-11.5,3.6-17.2
		c0.8-3.7,1.7-7.4,2.5-11.2c0.3-1.2,0.4-2.5,0.3-3.9c-0.5,0.6-1,1.1-1.4,1.6c-1.3,1.3-2.3,1.6-3.6,0.9c-1.6-0.8-2.1-1.8-1.8-3.6
		c0.4-2.2,0.9-4.5,1.5-6.6c0.8-3.1,1.6-6.2,2.6-9.3c0.6-1.8,0.5-3.8,0.8-5.8c0.9-4.9,2.1-9.6,3.2-14.4c0.2-0.7,0.1-1.2-0.2-1.8
		c-1.7-3.7-3.3-7.5-4.7-11.3c-1.2-3.4-0.8-5,2-7.2c2-1.6,3.4-3.7,4.8-5.8c1.8-3,3.8-5.9,5.9-8.7c1.1-1.5,2.1-3.2,3-4.9
		c0.1-0.3,0.3-0.5,0.2-0.8c-0.1-1,0.5-1.7,1.3-2.3c0.4-0.3,0.9-0.5,1.1-0.9c2-3.3,4.9-5.8,7.3-8.7c3.1-3.9,6.1-7.9,9.4-11.7
		c8.2-9.4,17.3-17.9,27.5-25.1c2.6-1.9,5.1-4,7.9-5.5c1-0.5,1.9-0.8,2.9-0.1c0.8,0.5,1.3,1.2,1.3,2.2c0.1,1.9-0.2,3.7,0.6,5.5
		c0.2,0.4,0,0.9-0.1,1.6c1.3-1.1,2.6-2.2,3.8-3.3c8.7-7.7,18.3-14,28.2-20c2.8-1.7,5.5-3.5,8.3-5.3c1.2-0.8,2.4-1.5,3.8-2
		c0.5-0.2,0.8-0.4,1.2-0.8c1.3-1.3,3.2-1.2,4.1,0.5c3.3,6.4,8.3,11.4,13.4,16.3c0.9,0.8,1.7,1.7,2.9,2.1c1.5,0.3,2.7,1,4.1,1.5
		c1.1,0.4,2.1,0.8,3.1,1.3c1.2,0.7,1.7,1.7,1.5,2.8c-0.2,1-1.2,1.8-2.5,1.9c-2.3,0.3-4.2-0.7-6.2-1.5c-2.9-1.1-5.3-2.8-7.4-5
		c-3.1-3.3-6.6-6.2-9.2-9.9c-0.9-1.2-1.8-2.4-2.5-3.6c-0.4-0.7-0.8-0.8-1.5-0.3c-6.3,4.5-13,8.4-19.4,12.5
		c-5.6,3.6-11,7.6-16.1,11.9c-4.4,3.7-8.7,7.6-13.1,11.2c-1.5,1.3-2.8,2.9-4.4,4.1C70.5,48,69,48.1,68,47c-1.1-1.1-1-3,0.2-4.3
		c1.6-1.8,3.4-3.3,5.2-4.9c0.9-0.8,1.8-1.6,2.7-2.3c0.8-0.5,1.4-1.3,2.2-1.7c-1.6,0.3-2.5-0.7-3.3-1.7c-0.8-1.7-0.8-1.7-2.2-0.5
		c-1.9,1.6-3.9,3-5.9,4.4c-4.1,3.1-8.1,6.5-11.8,10.1c-6.2,5.4-11.6,11.7-16.6,18.2c-2.6,3.3-5.2,6.6-8.2,9.5
		c-0.9,0.8-1.5,1.9-2.3,2.8c-1.4,1.4-2.5,2.9-3.1,4.9c-0.4,1.6-1.5,2.9-2.5,4.2c-2.6,3.5-4.9,7.2-7.3,10.8c-1.3,1.9-2.6,3.8-4.5,5.1
		c-0.6,0.4-0.7,0.9-0.4,1.5c1,2.4,2,4.9,3.1,7.3c0.2,0.3,0.4,0.6,0.7,0.8c1.5,0.6,2,1.9,2,3.3c-0.1,2.2,0.8,3.9,1.9,5.5
		c0.5,0.7,1,1.4,1.4,2.2c0.7,1.2,0.6,2.5-0.3,3.3c-0.8,0.8-2,0.9-3.2,0.3c-0.6-0.3-1-0.8-1.7-1.2c-2,6.7-2.8,13.7-4.7,20.3
		c-0.1,0.2,0.2,0.2,0,0.2c0,0,0,0,0-0.1c0.3-0.7,0.8-1.3,1.3-1.9c0.7-0.8,1.4-1.6,2.1-2.5c1.2-1.5,2.8-1.4,3.6,0.4
		c0.9,2,0.3,3.8-1,5.3c-0.7,0.9-1.4,1.8-2.1,2.8c-0.2,0.3-0.5,0.7-0.2,1c1.2,1.5,1,3.2,1.1,4.9c0.2,3.3-0.5,6.5-1.3,9.7
		c-1.6,6.1-2.7,12.3-3.9,18.4c-0.1,0.4-0.2,0.8-0.3,1.2c-0.7,2.9-1.4,5.8-2.4,8.6c-0.5,1.3-0.8,2.6-1.4,3.9c0.5-0.6,0.9-1.3,1.3-2
		c2.1-4.3,5.2-8,7.6-12c0.5-0.7,1.1-1.4,1.9-1.8c1-0.6,1.9-0.7,2.9-0.1c1,0.7,1,1.6,0.9,2.7c-0.1,0.5-0.3,0.9-0.5,1.3
		c-1.3,2.4-2.6,4.7-4.3,6.9c-0.5,0.6-0.6,1,0.2,1.5c1,0.6,1.3,1.7,1.3,2.8c0,5.6,0.2,11.2,0,16.8c-0.2,4.5-0.9,8.9-1.8,13.3
		c-0.2,1-0.4,1.9-0.6,2.9c-0.1,0.5-0.1,0.8,0.4,1.1c0.6,0.4,1,0.9,1.4,1.5c1.9,2.7,3.3,5.8,5.5,8.3c1.6,1.9,3.7,3.2,5.8,4.4
		c0.8,0.5,1.7,0.5,2.6,0c0.9-0.5,1.9-0.4,2.8-0.2c3.4,0.8,6.9,1.4,10.4,1.5c3.4,0.1,6.7,0,10.1,0c1.8,0,3.5-0.4,5.3-1
		c4.6-1.5,9.2-3.1,14.1-3.1c1,0,1.1-0.4,0.8-1.2c-0.4-1.3-0.9-2.6-0.9-4.1c0-0.7-0.5-0.9-1-1.2c-6-3.3-11.7-7.1-17.1-11.3
		c-4.9-3.8-9.6-7.8-13.2-12.8c-2.4-3.3-4.2-7.1-6.3-10.6c-1.8-3-3.7-6.1-5.3-9.3c-2.6-5.4-4.7-11-6.1-16.9c-0.5-2.1-0.5-4.2-0.8-6.3
		c-0.2-1.6-0.1-3.3-0.1-4.9c-0.1-1.6,0.2-3.2,0.3-4.9c0-0.9,0.5-1.8,0.8-2.6c0.2-0.4,0.3-0.8,0.4-1.2c0.3-1.5,0.3-1.5-1.1-2
		c-0.7-0.3-1.1-0.8-1.2-1.6c-0.1-0.4-0.3-0.8-0.6-1.2c-0.7-1.1-0.4-2.2,0.7-2.9c0.1,0,0.1-0.1,0.2-0.1c3.5-0.9,5.4-3.8,7.5-6.4
		c3.7-4.7,6.7-9.8,9.8-14.9c1-1.7,2.2-3.3,3.5-4.9c0.4-0.5,0.9-1,1.7-1c1.2,0,1.9,0.8,1.7,2.1c-0.2,1.8-0.9,3.4-1.6,5
		c-2.5,5.8-6.1,11-9.8,16.1c3.9-2.3,7.4-5.2,11.1-8c2.6-1.9,4.2-4.3,5.5-7.1c1.6-3.2,3.1-6.5,4.9-9.6c0.1-0.1,0,0,0.1-0.1
		c0.9-1.5,1.7-2,2.6-1.7c1,0.3,1.5,1.7,1.3,3.2c-0.4,3.1-1.4,6-2.8,8.8c-2.3,4.8-5,9.5-7.5,14.2c-0.8,1.6-1.5,3.3-2.2,5.1
		c0.9-0.7,1.7-1.4,2.4-2.1c4.4-4.5,9.2-8.8,13.9-13c2.3-2.1,4.6-4.3,6.9-6.5c3.1-3,6.2-6,9.7-8.5c0.3-0.2,0.5-0.4,0.8-0.6
		c1-0.6,1.7-0.6,2.4,0.1c0.8,0.7,0.6,1.5,0.1,2.3c-1.1,1.8-2.5,3.3-3.9,4.9c-1.8,2.1-3.7,4.2-5.7,6.2c-4.2,4-8.3,8-12.7,11.9
		c-1.6,1.4-3.1,3-4.6,4.6c-0.2,0.2-0.5,0.4-0.6,0.7c0.8-0.3,1.3-0.8,1.9-1.3c6-4.1,12.5-7.5,18.8-11.1c3.6-2,7.1-4.1,10.5-6.6
		c1.2-0.9,2.4-1.7,3.7-2.4c0.4-0.2,0.8-0.4,1.2-0.4c0.9-0.1,1.8-0.1,2.4,0.8c0.5,0.8,0.4,1.7-0.1,2.5c-0.8,1.5-2.2,2.4-3.5,3.4
		c-0.7,0.6-1.3,1.2-1.8,2c-0.8,1.3-1.9,2.3-3.1,3.3c-1.7,1.5-3.4,3.1-4.9,5.1c5.5-2.9,10.7-5.9,15.9-9.1c5.3-3.2,10.2-7.1,15.2-10.7
		c2.5-1.8,5-3.5,7.6-5c1-0.6,1.9-0.9,2.9-0.2c0.5,0.3,0.8-0.1,1.1-0.4c4.4-5.3,9-10.5,13.4-15.9c2.3-2.8,4.8-5.6,7.4-8.2
		c5.4-5.3,10.6-10.7,15.3-16.5c1.2-1.5,2.3-3.2,3.5-4.8c0.4-0.6,0.6-1.3,0.8-2c0.8-3.6,1.2-7.2,1.5-10.8c0.2-3.3,0.2-6.5,0.2-9.8
		c0-3.1-0.3-6.1-0.6-9.2c-0.1-1.5-0.3-3.1-0.3-4.7c0-4.8,0-9.5,0-14.3c0-1-0.4-1.1-1.2-0.9c-4.4,1.2-8.9,1.3-13.4,1.1
		c-0.8-0.1-1.4-0.6-1.9-1.3c-0.6-0.8-0.6-1.5,0-2.3c0.5-1.2,1.5-1.7,2.8-1.7c0.9,0,1.8,0,2.6,0c0.7,0,1.3,0,1.9-0.4
		c0.3-0.2,0.9-0.4,1.3-0.3c2.3,0.7,4.4-0.4,6.6-0.7c2.2-0.3,4.4-0.9,6.6-0.4c1.9,0.4,2.4,1.1,2.2,3c-0.1,0.7,0.1,1.5-0.1,2.3
		c-0.2,0.7-0.5,1.4-1.1,1.6c-0.8,0.3-0.9,0.8-0.9,1.6c0,1.4,0.1,2.9,0,4.3c0,0.7,0.2,0.9,0.8,1.2c6.8,3,13.9,5.6,20,10.1
		c2.3,1.7,4.7,3.1,7.4,4.1c2.1,0.8,3.9,2,5.6,3.4c1.3,1.1,2.3,2.4,3.7,3.4c1.8,1.3,1.8,3.7,1.8,5.7c0.1,3.6,0.1,7.1,0,10.7
		c0,0.7,0.2,1.1,0.7,1.6c2.1,2,4.4,3.7,6.8,5.4c1.6,1.1,2.6,2.6,3,4.4c0.2,0.8,0.1,1.6-0.6,2.1c-0.7,0.5-1.4,0.3-2.1-0.2
		c-0.8-0.6-1.7-1.2-2.6-1.8c-0.2,0-0.5,0-0.7-0.1c-1.4-0.9-2.7-1.9-4.2-2.9c-0.2,1.1-0.1,2.2-0.1,3.2c0,1.5,0,3,0,4.5
		c0.1,2.6,0.1,5.2-0.9,7.7c-0.3,0.9-0.7,1.8-1.4,2.5c-0.7,0.7-1.4,0.8-2.3,0.6c-0.9-0.3-1.3-0.9-1.4-1.8c-0.1-0.5-0.1-1,0-1.6
		c0.5-7.6,0.1-15.2,0.2-22.8c0.1-3.9,0-7.8,0-11.8c0-0.9-0.3-1.3-1.2-1.4c-1.8-0.2-2.5-1-2.8-2.7c-0.1-0.6-0.4-1-0.9-1.3
		c-1.3-0.8-2.6-1.5-4-2.1c-2.7-1.1-5.2-2.6-7.5-4.4c-3.9-2.7-8-4.9-12.4-6.7c-1.3-0.5-2.6-1.1-3.8-1.7c-0.7-0.3-0.9-0.1-0.9,0.7
		c0.3,5,0.9,10,0.9,15.1c0,5.6-0.2,11.1-0.8,16.6c-0.2,2-0.5,3.7-1.5,5.5c-0.8,1.4-1.3,3.1-2.1,4.6c-0.5,1-1.2,1.8-2.3,2.2
		c-0.9,0.3-1.3,1.3-1.8,2c-0.1,0.2-0.1,0.4,0,0.6c0.9,1,1,2.2,0.9,3.5c1.9-1.8,3.7-3.5,5.6-5.2c3.3-3,6.7-5.9,10.8-7.9
		c1.6-0.7,2.5-0.7,3.1,0.2c0.6,0.8,0.4,1.8-0.7,3c-0.8,0.9-1.7,1.8-2.6,2.6c-0.4,0.4-0.6,0.7-0.2,1.2c0.7,1,0.6,2,0.2,3.1
		c-2.5,6.8-5.7,13.4-9.7,19.5c-0.5,0.7-0.8,1.2,0.2,1.8c0.9,0.5,1,1.6,0.4,2.6c-0.2,0.4-0.6,0.8-0.8,1.2c1.3-1.8,2.8-3.4,4.3-4.9
		c0.3-0.3,0.6-0.6,1-0.8c0.8-0.4,1.6-0.4,2.4,0.2c0.8,0.6,0.7,1.5,0.4,2.3c-0.6,1.5-1.7,2.7-2.6,4c-0.6,0.7-0.8,1.3,0,2
		c0.7,0.7,0.8,1.7,0.5,2.7c-0.1,0.4-0.2,0.8-0.5,1.1c-1.4,1.8-2.5,3.6-2.1,6c2.3-1.5,4.5-3.2,6.7-5.1c5.7-4.9,11.5-9.6,16.8-14.8
		c0.8-0.8,1.7-1.4,2.7-1.9c0.9-0.5,1.9-0.5,2.7,0.3c0.8,0.7,0.9,1.7,0.5,2.6c-0.4,1.1-1.2,2.1-2.1,2.9c-1.2,1.3-2.5,2.6-3.8,3.8
		c-0.6,0.6-1,1.1-0.3,1.9c0.2,0.2,0.3,0.6,0.4,0.9c0.6,2.2,0.3,4.4,0,6.5c-1.1,6-3.2,11.8-5.9,17.3c-0.4,1.2-1.2,2.2-1.6,3.3
		c-0.6,0.9-1.2,1.7-1.9,2.5c-0.6,0.7-1.2,1.4-1.9,2c-0.7,0.6-1.4,0.9-2.3,0.4c-0.8-0.5-0.9-1.4-0.7-2.2c0.7-2.4,1.8-4.6,2.8-6.9
		c2.6-5.5,4.8-11.2,6.2-17.1c0.3-1.4,0.4-2.8,0.6-4.2c-4.4,3.7-8.6,7.6-13.3,11c-3.6,2.6-7.4,4.9-11,7.5c-0.6,0.4-1.2,0.8-1.7,1.3
		c-0.9,0.9-1.9,1.2-3.2,1c-0.3-0.1-0.6-0.2-0.8-0.4c-1.2-1.5-1.4-2.6-0.1-3.8c1.8-1.8,2.8-3.9,3.6-6.4c0.4-1.3,0.6-2.6,1-3.9
		c-3.5,3.5-7.1,6.9-9.5,11.2c-0.9,1.5-2.1,2.2-3.8,2.3c-1,0.1-2,0.2-3,0.4c-1.4-0.1-1.8-0.9-1-2.1c0.5-0.7,1.3-1.2,1.8-1.9
		c1.1-1.1,1.7-2.5,2.6-3.7c3.2-4.8,6.2-9.8,8.7-15c0.2-0.4,0.5-0.8,0-1.3c-0.8-0.9-0.6-1.9-0.3-2.9c0.6-1.8,1.6-3.4,2.5-5
		c3-5.3,5.7-10.7,8.2-16.3c-3.5,2.9-6.4,6.5-9.9,9.4c-0.5,0.4-0.8,0.9-1,1.5c-1.7,4.3-3.7,8.4-5.7,12.5c-0.4,0.9-1,1.8-1.6,2.5
		c-0.6,0.6-1.3,1-2.1,0.7c-0.8-0.3-1.1-1-1.1-1.8c-0.1-2.2,0.4-4.4,1.2-6.4c0.5-1.4,1.2-2.7,1.7-4.1c0.8-2,1.5-4,2.5-6
		c0.8-1.6,0.8-3.4,0.9-5.5c-1.6,1.7-3,3.1-4.3,4.6c-1.3,1.4-2.6,2.7-3.9,4.1c-4.8,4.7-9,10-13.3,15.1c-4,4.7-8.1,9.4-12.9,13.3
		c-0.7,0.5-1.3,1-2.1,1.4c-0.7,0.4-1.5,0.4-2-0.3c-0.8-1.1-1.3-0.3-1.8,0.1c-2.6,2.4-5.4,4.5-8.2,6.6c-6.7,5.1-14,9.3-21.3,13.4
		c-3.3,1.8-6.7,3.4-10.2,4.8c-2.9,1.2-5.9,0.8-8.9,0.8c-0.8,0-0.9-0.6-0.6-1.2c1.3-2.4,2.5-4.9,4.7-6.6c-3.8,2-7.6,4.2-11.4,6.4
		c-1.1,0.6-2.3,1.2-3.4,1.8c-1.2,0.7-2.5,0.7-3.8,0.6c-0.7,0-1.3-0.3-1.6-0.8c-0.5-0.8-0.8-0.5-1.3,0c-2.5,2.2-5.2,4.2-7.6,6.6
		c-1.2,1.2-3.1,1.4-4.3,0.5c-1.6-1.1-2.2-2.8-1.5-4.5c1.4-3.1,2.7-6.2,3.9-9.5c-3.3,2.3-6.8,4.3-10.2,6.3c-1.1,0.7-2.3,1.3-3.6,1.7
		c-0.6,0.2-0.7,0.5-0.5,1c0.5,1.1,0.6,2.3,0.4,3.5c-0.9,4.2-0.9,8.5-0.7,12.7c0.2,4.2,1.6,8.2,3,12.2c1.8,5,4.2,9.7,7,14.2
		c1.6,2.7,3.2,5.4,4.7,8.1c2.7,5,6.5,9,10.9,12.7c6.9,5.8,14.5,10.7,22.3,15.2c0.6,0.3,1.2,0.5,1.8,0.2c0.2-0.1,0.5-0.1,0.7-0.1
		c0.5-0.1,1.1,0.5,1.3,0.1c0.4-0.6,0.7-1.3,1-2c0.2-0.3-0.1-0.6-0.3-0.9c-0.7-1.2-0.7-2.3,0.2-3.5c0.8-1,1-2.3,1.8-3.4
		c0.2-0.3,0.1-0.6-0.2-0.8c-1.9-2.2-2.1-3.9-0.6-6.5c0.3-0.5,0.4-0.8-0.2-1.2c-1-0.5-1.5-1.4-1.7-2.5c0-0.2,0-0.3,0-0.5
		c1.3-2.8,1.9-5.9,4.4-8.1c0.7-0.6,1.1-1.3,0.9-2.3c-0.2-1,0.3-1.9,1-2.6c1.7-1.7,3.4-3.5,5.3-5.1c1-0.8,2-0.9,3.1-0.4
		c1.1,0.5,1.5,1.4,1.4,2.6c-0.1,0.8,0.1,0.9,0.8,0.5c1.2-0.6,2.6-1,3.7-1.9c0.9-0.6,1.9-0.6,2.8,0c0.5,0.3,0.9,0.3,1.5,0.1
		c1.9-0.8,3.8-1.3,5.8-2c1-0.4,2-0.3,3,0.4c0.5,0.4,1.2,0.4,1.8,0.6c1.8,0.7,3.8-0.1,5.5,1c0.3,0.2,0.7,0,1-0.1
		c1.6-0.7,3.1-0.9,4.5,0.5c0.7,0.7,1.2,0.5,1.8-0.3c1.5-2.2,3-2.4,4.9-0.5c1.4,1.4,3,2.6,4.4,4.1c0.5,0.5,0.9,0.6,1.6,0.2
		c1.4-0.9,3-0.4,3.7,1.1c1,2,1.4,4.2,2,6.3c0.2,0.6,0.4,1.1,0.4,1.7c0,1.2-0.5,2.2-1.7,2.6c-0.8,0.5-1.6,0.4-2.4,0
		c-0.2-0.1-0.5-0.3-0.8-0.4c-1.9-0.4-2.7-1.6-3-3.4c-0.1-0.9-1.1-1.3-2.3-1.1c-0.5,0.1-1,0.3-1.5,0.2c-1.4-0.3-2.3-1.3-2.4-2.8
		c-0.1-1.5-0.1-1.5-1.5-1.3c-0.3,0-0.6,0.1-0.8,0c-1.3-0.6-2.1,0.1-3,0.9c-1.8,1.6-3.3,1.5-4.8-0.3c-0.3-0.4-0.7-0.5-1.2-0.6
		c-1.6-0.3-3-0.1-4.5,0.6c-1.2,0.6-2.6,0.5-3.7-0.6c-0.4-0.4-0.9-0.5-1.4-0.3c-1.4,0.5-2.7,0.6-4.1-0.1c-0.4-0.2-0.8-0.2-1.1,0
		c-1.9,1.6-4.2,1.4-6.4,1.3c-0.8,0-1.5,0.1-2.2,0.5c-1.6,0.9-3.1,2-5.1,1.3c-0.2-0.1-0.4,0.1-0.5,0.3c-1,2.4-2.8,4.2-4.1,6.3
		c-0.4,0.7-0.8,1.1,0.3,1.5c1.5,0.6,1.9,2.2,1.1,3.8c-0.5,1-0.9,1.8-0.5,2.9c0.1,0.3-0.1,0.7-0.2,1.1c-0.1,0.4-0.1,0.8,0.2,1.1
		c1.1,1.2,0.9,2.5,0.2,3.9c-0.4,0.7-0.9,1.3-1,2.2c-0.2,1.2-0.6,2.3,0.3,3.5c0.8,1.1,0,2.1-0.7,3.1c-0.2,0.3-0.7,0.6-0.5,1
		c0.2,0.4,0.7,0.3,1.1,0.3c2.2,0.1,4.5-0.4,6.7,0.3c3.9,1.1,7.8,1,11.8,0.9c1.9,0,3.7,0.3,5.5,0.6c1.6,0.3,3.2,0.4,4.8,0.3
		c0.5,0,1-0.1,1.4-0.5c0.7-0.9,1.7-1,2.7-0.7c1,0.3,2,0.4,3,0.3c1.1,0,2.2,0.1,3.2,0.4c1.3,0.4,2.5,0.4,3.8,0.1
		c2.4-0.6,4.8-1.4,7.1-2.2c0.6-0.2,0.9-0.6,0.6-1.3c-0.4-1.1-0.1-2.1,0.5-3.1c0.3-0.5,0.6-1,0.9-1.6c0.3-0.7,0.4-1.4,0-2.2
		c-0.3-0.5-0.5-1.1-0.2-1.6c1-1.5,0.6-3.3,1.2-4.9c0.2-0.6,0.1-0.9-0.3-1.4c-1.1-1.4-1.2-2.4-0.1-3.9c0.4-0.6,0.8-1.2,1.2-1.8
		c0.6-1.2,1.5-2,2.8-2.4c1.7-0.8,3.4,0.2,3.5,2.2c0.2,1.9-0.1,3.7-0.3,5.6c-0.1,1.2-0.2,2.5-0.5,3.7c-0.2,0.6-0.2,1.1,0.2,1.7
		c1.1,1.6,1.1,2.8-0.4,4.3c-1,1-1.5,2.3-2.1,3.7c3.6-1.5,6.9-3.4,10.3-5.1c6.1-3.1,12-6.4,17.9-9.9c6-3.6,11.8-7.5,17.2-11.9
		c0.9-0.7,1.2-1.5,1.2-2.6c0.1-2.7,0.1-5.5,0.4-8.2c0-0.2,0-0.4,0.1-0.6c0.5-1.1,0.5-1.8-0.8-2.4c-1.2-0.5-1.2-2.1-0.2-3.2
		c0.6-0.6,1.4-1,2-1.5c1.2-1.2,2.6-2.2,4-3.2c0.5-0.4,1.1-0.8,1.8-0.9c1.8-0.3,3.1,1,2.7,2.8c-0.2,1-0.4,1.9-0.4,2.9
		c0,1.3-0.7,2.2-1.7,2.9c-1,0.6-1.6,1.5-1.9,2.6c-0.4,1.2-0.7,2.4-0.4,3.7c1.2-1.6,2.1-3.4,3.6-4.8c0.9-0.8,1.8-1.3,2.9-0.8
		c1.1,0.5,1.6,1.4,1.6,2.6c0,2.6-0.8,5-1.8,7.4c-0.7,1.5-1.1,3.1-1,4.7c0.1,1-0.1,2-0.3,3c-0.9,4.6-1.6,9.2-3,13.7
		c-0.2,0.7-0.4,1.5-0.9,2.1c-0.5,0.7-1.1,1.2-2,1c-0.9-0.2-1.4-0.8-1.6-1.7c-0.1-0.7-0.1-1.4,0-2c0.5-5.1,1.4-10.1,2.2-15.2
		c0-0.1,0.1-0.3,0-0.5c-4.2,3.7-8.8,6.7-13.4,9.8c-5.9,3.9-12,7.4-18.1,10.8c-5.3,2.9-10.6,5.7-15.9,8.6c-0.3,0.2-0.4,0.4-0.1,0.7
		c1.2,1.1,1.1,2.5,1.1,3.9c0,1.5,0,1.5,1.4,1.5c2.9,0,5.8,0,8.6,0c2,0.2,3.9,0.6,5.7,1.3c1.7,0.7,3.5,1.3,5.4,1.7
		c1.2,0.3,2.1,1.4,3.2,1.5c1.1,0.1,1.9-1.3,3.1-1.6c1.3-0.4,2.6-0.7,3.9-0.5c4.1,0.7,8,2.1,11.4,4.7c1,0.8,1.8,1.8,2.8,3
		c-0.4-5,0.3-9.5,1.5-14c0.5-1.8,1.2-3.4,2.3-4.8c1.1-1.4,1.1-1.5-0.1-2.8c-0.8-0.9-1.2-1.8-1.2-3c0-1.2,0.5-2.1,1.6-2.6
		c1-0.5,1.9,0,2.6,0.7c2.8,2.8,5.7,5.7,8.5,8.5c0.3,0.3,0.5,0.6,1.1,0.9c0.4-2.2,0.9-4.3,1.4-6.4c1.7-6.7,3.1-13.6,6-20
		c3.6-7.9,7.6-15.7,12.7-22.8C231.7,183.4,232.1,182.4,233.1,181.7z"/>
	<path d="M217.4,80.1c1,0.1,1.9,0.6,2.6,1.3c1.3,1.3,2.7,2.7,4,4c0.9,0.9,1.4,2,1.4,3.3c0.1,6.1,0.4,12.2-0.1,18.2
		c-0.3,3.6-1,7.2-0.9,10.8c0,0.6,0,1.1,0.7,1.4c0.8,0.3,1,1.2,1.3,1.9c1.5,4,3.8,7.6,6.7,10.8c1,1,2,2,3.2,2.7
		c0.8,0.5,1.5,1.1,2,1.9c0.7,1.1,0.5,2.2-0.5,3c-0.3,0.3-0.4,0.5-0.5,0.9c-0.4,6.4-1.6,12.6-3,18.9c-1.3,5.7-2.1,11.5-3,17.3
		c-0.2,1-0.3,2-0.5,2.9c0.2,1.5-0.4,2.9-0.9,4.2c-0.1,0.2-0.2,0.4-0.3,0.6c-0.8,1.1-1.8,1.6-2.9,1.3c-1.2-0.3-1.6-1.3-1.9-2.4
		c-0.1-0.5-0.1-1,0-1.4c1.3-6.3,2-12.8,3.3-19.1c0.8-3.9,1.7-7.7,2.6-11.6c0.7-3.6,1.7-7.2,2.5-10.8c0.1-0.5,0.5-1.1,0-1.7
		c-1.4-0.9-2.8-2-4-3.3c-0.7-0.7-1.2-1.5-1.9-2.1c-1.4-1.9-2.7-3.7-3.8-6c-0.2,0.9-0.3,1.7-0.7,2.4c-0.5,0.9-1.1,1.6-2.2,1.6
		c-0.9,0-1.6-0.8-2-2c-0.2-0.9-0.3-1.7-0.2-2.6c0.3-2.7,0.5-5.4,0.4-8.1c-0.1-3.3,0.3-6.5,0.7-9.8c0.2-1.7,0.4-3.3,0.3-5
		c-0.1-4.3,0.1-8.6,0.2-12.9c0-1.1-0.3-1.9-1.1-2.7c-1.2-1.1-2.2-2.3-3.6-3.1c-1.3-0.7-1.5-1.9-1.2-3.2
		C215.1,80.1,215.8,79.8,217.4,80.1z"/>
	<path fill="#C1865C" d="M217.4,80.1c-1.3-0.1-2.3,0.4-2.8,1.6c-0.1,0.2-0.1,0.5-0.4,0.5c-1.5-0.1-3.1,0.4-4.6-0.3
		c0-1.6,0-3.2,0-4.8c1.6-0.7,3.3-0.5,4.9,0c0.2-0.1,0.3,0,0.3,0.2C215.3,78.5,216.5,79.2,217.4,80.1z"/>
	<path fill="#C1855C" d="M229.7,183.4c0.4-1.3,0.8-2.7,1.1-4c0.7,0.8,1.5,1.6,2.2,2.4c-0.5,1-1.2,1.8-1.8,2.6
		C230.4,184.7,230,184,229.7,183.4z"/>
	<path fill="#BF845B" d="M149.8,21.6c-1.4-0.4-2.8-0.9-4.1-1.7c0.8-0.8,1.3-1.9,2.6-2.1c-0.3,1.9,0.2,2.7,2,3.4
		C150.3,21.6,150,21.6,149.8,21.6z"/>
	<path fill="#932843" d="M149.8,21.6c0.2-0.1,0.3-0.3,0.5-0.4c4.8,0.2,9.6-0.2,14.2-1.4c0.3-0.1,0.8-0.4,0.8,0.4
		c-0.2,4.6-0.1,9.2-0.1,13.8c0,4.3,0.7,8.6,0.9,12.9c0.1,3.7,0.2,7.4-0.1,11.1c-0.2,2.7-0.5,5.4-0.7,8.1c-0.4,3.8-2,6.9-4.3,9.8
		c-3.8,4.7-7.7,9.2-12,13.4c-6.3,6.1-11.9,12.9-17.6,19.7c-2.5,3-5.1,6-7.7,9.1c-0.4,0.5-0.5,0.6-1,0c-0.7-0.8-1.5-0.4-2.3,0
		c-4.1,2.3-7.9,5-11.6,7.9c-8.5,6.6-17.8,12-27.3,17c-0.3,0.1-0.6,0.3-0.9,0.4c0.6-1.3,3-4,5.1-5.8c1.4-1.2,2.8-2.4,3.7-4.2
		c0.5-1,1.7-1.5,2.5-2.2c0.7-0.7,1.5-1.3,2.1-2.1c0.6-0.8,1-1.7,0.3-2.6c-0.7-0.9-1.7-0.8-2.6-0.4c-0.8,0.4-1.7,0.8-2.4,1.3
		c-6.7,5-14.1,8.8-21.3,12.9c-3.4,1.9-6.6,4-9.9,6c-0.5,0.2-1,0.8-1.6,0.2c3.3-3.5,6.9-6.6,10.4-9.8c5.7-5.2,11.1-10.7,15.9-16.8
		c0.3-0.4,0.6-0.8,0.8-1.2c0.4-0.6,0.3-1.2-0.2-1.7c-0.5-0.5-1.1-0.5-1.8-0.1c-1.6,1.1-3.1,2.3-4.5,3.5c-4.1,3.5-7.7,7.4-11.7,11
		c-5.9,5.3-11.6,10.7-17.4,16.2c-0.3,0.3-0.6,0.5-1.1,0.9c0.6-2,1.3-3.7,2.2-5.3c2.4-4.8,5-9.5,7.4-14.2c1.5-2.9,2.7-5.9,3.1-9.2
		c0.1-0.7,0-1.3-0.1-2c-0.1-0.6-0.5-1-1.1-1.1c-0.6-0.1-1.1,0.1-1.5,0.6c-0.6,0.8-1.1,1.7-1.5,2.6c-2,3.8-3.9,7.7-5.8,11.5
		c-0.4,0.9-1,1.6-1.8,2.2c-4.2,3.2-8.1,6.7-12.7,9.4c-0.4,0.3-0.9,0.5-1.4,0.7c1-1.4,2-2.8,3-4.2c3.3-4.8,6.5-9.7,8.4-15.3
		c0.3-0.8,0.6-1.7,0.6-2.5c0-0.7-0.2-1.2-0.8-1.5c-0.6-0.2-1.2-0.1-1.6,0.3c-1.1,1.2-2,2.5-2.9,3.8c-2.9,4.3-5.4,8.8-8.3,13
		c-2.2,3.1-4.5,6-7.2,8.6c-0.4,0.4-0.9,0.7-1.5,0.8c-0.6,0.1-1.1,0.4-1.7,0.6c-0.7,0.3-1.2,1.1-0.8,1.7c0.7,1.1,0.8,2.6,1.9,3.4
		c1.2,0.8,1.2,2.1,1.2,3.4c-1.3,2.3-1,4.9-1.2,7.4c-0.6,0.2-0.9-0.2-1.3-0.5c-2.1-1.6-4.3-3.2-6.5-4.7c-0.5-0.4-0.8-0.8-0.8-1.5
		c0-0.5,0.1-1-0.1-1.4c0-0.7,0-1.4-0.1-2c0-0.7-0.1-1.5-0.5-1.9c-1.1-1-0.6-1.7,0.1-2.5c0.6-0.7,1.2-1.5,1.8-2.3
		c1.2-1.6,1.7-3.2,0.8-5.1c-0.7-1.5-2.1-1.6-3-0.3c-1.2,1.7-2.8,3-4,4.8c1.8-7.1,2.9-14.4,4.9-21.6c0.6,0.5,1.2,1,1.9,1.5
		c1.1,0.7,2.2,0.6,3-0.1c0.8-0.8,0.9-1.9,0.2-3.1c-0.8-1.4-1.8-2.6-2.5-4.1c-0.5-1.1-0.9-2.1-0.8-3.3c0.1-1.5-0.2-3-2-3.5
		c-0.4-0.1-0.5-0.4-0.6-0.7c-1-2.5-2.1-5.1-3.2-7.6c-0.3-0.8-0.3-1.2,0.5-1.7c1.8-1.1,3.1-2.8,4.3-4.6c2.7-4.1,5.4-8.2,8.2-12.2
		c1.2-1.7,2.6-3.4,2.4-5.7c0-0.2,0.1-0.4,0.3-0.5c1.4-0.7,2.1-2,3.1-3.1c2.7-3.1,5.5-6,8.1-9.2c3.3-4.1,6.4-8.4,10.1-12.3
		c2.6-2.7,5.2-5.5,8.1-7.9c0.4,0.5-0.1,0.9-0.3,1.3c-3.6,5.6-7.1,11.2-10.8,16.7c-3,4.5-5.5,9.3-8.1,14c-3.2,5.7-6.3,11.5-9.5,17.2
		c5.9-4.7,11.8-9.5,17.7-14.3c0.2-0.1,0.3-0.3,0.5-0.4c0.3-0.2,0.5-0.4,0.9-0.3c0.4,0.2,0.3,0.6,0.3,1c-0.1,1.4-0.2,2.9-0.4,4.3
		c-0.5,4-0.8,8.1-1.3,12.3c1.9-2.2,3.7-4.4,5.4-6.5c4.3-5,8.4-10.1,12.7-15.2c0.3-0.3,0.6-0.8,1-0.6c0.5,0.2,0.4,0.8,0.4,1.2
		c0.1,4.8,0.3,9.6,0.3,14.4c0,2.2,0.3,4.4,0.2,6.7c1.3-0.9,2.1-2.2,3.1-3.2c3.7-4.1,7.4-8.2,11-12.3c3-3.3,6-6.7,8.9-10
		c1.1-1.2,2.2-2.3,3.2-3.6c0.3-0.4,0.6-0.7,1-1c0.7-0.5,1-0.4,1.1,0.5c0.1,1.9,0.1,3.8-0.1,5.6c-0.1,0.6-0.1,1.2-0.1,1.8
		c0,5.4,0,10.8-0.2,16.2c0,0.3,0,0.5-0.1,0.7c2.6-5,5.2-10.1,7.8-15.1c1.4-2.6,2.7-5.3,4.1-7.9c2.7-5.1,5.3-10.1,7.9-15.2
		c0.6-1.2,1.4-2.2,2.4-3.1c4.2-3.7,8.4-7.4,12.6-11.1c1.9-1.7,3.7-3.4,5.7-5c-7.8,4.1-15.5,8.2-23.2,12.3c-4.3,2.3-8.6,4.5-12.9,6.9
		c-0.1,0.1-0.3,0.2-0.4,0.2c-0.4,0.1-0.8,0.4-1.1,0.1c-0.4-0.3-0.2-0.7,0-1.1c2.2-5.4,4.4-10.8,6.6-16.2c0.3-0.7,0.6-1.4,0.9-2.1
		c-0.4,0-0.5,0.3-0.7,0.5c-5.1,5.2-10.5,10.1-15.7,15.2c-1.5,1.5-3.1,3-4.7,4.5c-0.3,0.3-0.6,0.8-1.1,0.4c-0.3-0.3,0.1-0.7,0.3-1.1
		c2.4-3.8,4.9-7.7,7.4-11.5c0.1-0.1,0.2-0.3,0.3-0.5c-2.2,1.3-4.3,2.7-6.4,4c-8.3,5.3-16.7,10.6-25,15.9c-0.4,0.2-0.8,0.7-1.2,0.3
		c-0.5-0.4-0.1-1,0.1-1.4c2.3-5.2,4.6-10.4,7-15.7c1.2-2.7,2.4-5.4,3.6-8.1c0.2-0.5,0.5-1,0.8-1.5c2.5-2,5.2-3.8,7.7-6
		c0.3,0.8,0.5,1.4,0.7,2.1c-0.7,1.1-0.3,2,0.7,2.7c0.3,0.2,0.7,0.5,0.5,1c-2.6,2.4-5.2,4.7-7.8,7.1c-1.7,1.5-1.4,4,0.5,4.7
		c1.1,0.4,2,0,2.8-0.7c2.4-2.2,4.6-4.4,7.1-6.5c8.3-7,16.3-14.4,25.5-20.2c6.1-3.9,12.1-7.7,18.2-11.6c1-0.6,1.9-1.3,2.8-2
		c0.4-0.3,0.7-0.3,0.9,0.2c3.4,5.8,8.2,10.4,12.9,15.1c3,3,6.7,4.3,10.6,5.5c0.7,0.2,1.4,0.1,2.1,0c1-0.2,1.8-0.6,2-1.6
		c0.3-1-0.2-1.8-1.1-2.4C152,22.5,150.8,22.2,149.8,21.6z"/>
	<path fill="#932843" d="M229.7,183.4c0.6,0.3,0.8,1.1,1.6,1c-5.6,8.3-10.5,16.9-14,26.2c-2.2,5.7-3.4,11.7-4.9,17.6
		c-0.5,1.9-0.9,3.9-1.3,5.9c-0.2,0.1-0.3-0.1-0.4-0.2c-3.2-3.2-6.4-6.5-9.7-9.7c-0.6-0.6-1.3-0.9-2.1-0.6c-0.8,0.3-1.3,0.9-1.4,1.8
		c-0.3,1.7,0.6,2.9,1.7,4c0.6,0.6,0.7,1,0.2,1.7c-1.1,1.4-2.3,2.9-2.7,4.7c-0.4,1.9-0.9,3.9-1.3,5.8c-0.5,2.4-0.5,4.8-0.5,7.2
		c0,0.8,0,1.6,0,2.6c-0.8-0.9-1.3-1.6-1.9-2.3c-3.8-3.8-8.5-5.4-13.6-5.9c-1.9-0.2-3.6,0.6-5,1.9c-0.6,0.6-0.9,0.5-1.4,0
		c-0.4-0.4-1-0.7-1.5-0.9c-4-1.2-7.8-3.1-12-3.5c-2.5-0.2-5,0-7.5-0.1c-0.5,0-1,0-1.4,0c-1.2-0.1-1.4-0.3-1.4-1.6c0-0.6,0-1.1,0-1.7
		c0-1,0.1-2-0.7-2.8c-0.1-0.1-0.2-0.4-0.1-0.6c3.4-1.8,6.8-3.6,10.2-5.5c10.7-5.7,21.2-11.7,31-18.8c2.3-1.7,4.6-3.2,6.7-5.5
		c-0.1,2.1-0.5,3.9-0.8,5.7c-0.7,3.8-1.1,7.6-1.6,11.4c-0.1,0.5,0,1,0,1.4c0.1,0.8,0.5,1.5,1.3,1.6c0.8,0.2,1.5-0.3,1.8-1
		c0.9-1.9,1.4-4,1.8-6c0.8-3.7,1.6-7.4,2.1-11.1c0.2-1.2-0.1-2.4,0.2-3.6c0.4-1.8,1.4-3.4,1.9-5.1c0.4-1.6,0.9-3.1,0.8-4.8
		c0-1.1-0.4-1.9-1.4-2.3c-1-0.4-1.8,0-2.5,0.6c-1.3,1.2-2.1,2.7-3.1,4.1c-0.3,0.4-0.6,0.7-0.9,1.1c-0.2-1.2-0.1-2.5,0.2-3.7
		c0-0.2,0.2-0.4,0-0.7c0.3-1.2,0.8-2.1,2-2.7c0.6-0.3,1.1-0.9,1.4-1.6c0.5-1.6,0.5-3.2,0.6-4.9c0.2-1.5-1.8-2.2-3.3-1.2
		c-1.5,1-3,1.9-4.3,3.2c-0.2,0.2-0.4,0.3-0.5,0.4c-0.8-0.3-1.5-0.2-2.1,0.5c-0.3,0.3-0.7,0.6-1,0c1.1-1.6,2.7-2.7,4.2-3.9
		c4.1-3,8-6.2,11.6-9.9c0.4-0.4,0.8-0.7,0.9-1.2c0.3-0.9-0.1-1.5-1.1-1.4c-0.6,0-1.1,0.4-1.7,0.7c-5.2,2.9-9.8,6.6-14.2,10.5
		c-0.3,0.3-0.6,0.7-1.1,0.6c-0.1-0.1-0.2-0.3-0.2-0.5c0.3-1.1,1-1.8,1.7-2.6c1.5-1.5,2.6-3.3,3.7-5.1c2.4-4,4.7-8.1,6.8-12.2
		c0.4-1.4,1.4-2.5,2.2-3.7c1-1.7,2.1-3.4,3.1-5.1c0.6-1,0.9-2,0.2-3.1c-0.3-0.4-0.1-0.8,0.2-1.2c0.4-0.5,0.8-1,1.1-1.5
		c0.3-0.6,0.8-1.2,0.1-1.9c-0.6-0.6-1.3-0.3-1.9,0.1c-1.9,1.2-3.9,2.4-5.6,3.8c-1.7,1.3-3.4,2.6-5,4c-0.3,0.3-0.7,0.6-1.2,0.6
		c-0.4-0.1-0.7-0.4-0.9-0.8c-0.1-0.4,0.2-0.8,0.4-1.1c2.5-4.5,4.2-9.3,6.2-14c0.3-0.7,0.5-1.3,0.3-2.1c-0.1-0.6,0.2-1.1,0.5-1.5
		c1-1.3,2.3-2.3,3.3-3.7c0.7-1,1.4-2,2-3.1c0.2-0.5,0.4-1.1,0.3-1.6c-0.1-1-0.9-1.5-1.9-1.1c-0.7,0.3-1.2,0.8-1.7,1.3
		c-3,3.4-6.4,6.4-9,10.2c-0.1,0.1-0.2,0.2-0.4,0.3c-0.5,0-0.4-0.5-0.6-0.8c2.4-5,4.3-10.2,5.6-15.7c0.1-0.5,0-1,0.3-1.4
		c0.5-1.7,0.6-3.5,0.7-5.2c0-0.7-0.3-1.2-0.7-1.7c-0.1-0.2-0.1-0.4-0.3-0.5c-1.2-0.9-0.5-1.5,0.3-2.2c1.7-1.6,3.5-3.3,5-5.2
		c1.2-1.6,1.4-2.9,0.5-3.8c-0.9-0.8-2.1-0.7-3.7,0.5c-1.9,1.5-3.5,3.2-5.3,4.8c-6.5,5.7-12.8,11.5-19.8,16.4
		c-0.2,0.1-0.3,0.2-0.6,0.4c0.2-1.3,0.7-2.5,0.3-3.8c-0.1-0.3,0.3-0.5,0.4-0.7c0.6-0.9,1.3-1.7,1.8-2.7c0.9-1.6,0.7-2.8-0.7-3.9
		c-0.5-0.4-0.3-0.6-0.1-0.9c1-1.4,2.1-2.8,3-4.3c0.5-0.9,0.8-1.8-0.1-2.6c-0.9-0.7-1.8-0.3-2.6,0.4c-1.6,1.5-3.1,3.2-4.6,4.9
		c-0.3,0.4-0.6,0.9-1.4,1.2c0.5-0.7,0.8-1.2,1.2-1.7c1.3-1.8,1-2.8-1.1-3.6c1.4-2.5,2.9-5,4.3-7.4c2.5-4.4,4.4-9,6.2-13.7
		c0.5-1.3,0.3-2.4-1.2-3.4c1.2-1.1,2.3-2.1,3.4-3.2c0.3-0.3,0.6-0.7,0.9-1c0.5-0.6,0.7-1.3,0.2-2c-0.5-0.7-1.3-0.7-2-0.4
		c-2.4,1-4.6,2.4-6.6,4c-3.5,2.7-6.7,5.8-9.9,8.9c-0.3,0.3-0.5,0.7-1.1,0.9c0-0.7,0-1.4,0-2c0-0.5-0.2-1-0.4-1.5
		c-0.2-0.4-1.1-0.6-0.7-1.2c0.6-0.8,0.9-2,1.9-2.3c1.2-0.4,1.8-1.1,2.3-2.1c0.6-1.1,1.1-2.3,1.6-3.5c0.1-0.2,0.1-0.5,0.3-0.7
		c2.4-3.3,1.5-7.3,2.1-10.9c0.5-2.9,0.4-5.8,0.4-8.7c0-3.9,0-7.8-0.5-11.7c-0.3-2.3-0.4-4.5-0.5-6.8c0-0.4-0.1-0.9,0.6-0.6
		c5.7,2.6,11.6,4.8,16.7,8.5c0.1,0,0.1,0.1,0.2,0.2c0.4,1.6-0.1,3.2-0.3,4.7c-0.3,3-0.6,6-1,9c-0.1,0.7,0.2,1.3,0.4,1.9
		c2.3,6,4.7,12,7.1,17.9c0.4,1.1,0.4,2-0.1,3.1c-1.5,3.3-3.3,6.4-4.7,9.7c-0.3,0.6-0.5,1.2-0.8,1.5c2.6-3.1,5.4-6.4,8.2-9.7
		c0.8-0.9,1.5-1.8,2.3-2.8c0.3-0.3,0.6-0.7,1-0.5c0.4,0.2,0.3,0.7,0.3,1.1c-0.4,4-0.6,8-1.2,11.6c1.2-8.3,2.9-17,4.4-25.6
		c0.1-0.6,0.2-1.2,0.9-1.6c0.4,1.1,0,2.3,0.2,3.4c0,6.9,0.1,13.8,0,20.7c0,1.1-0.3,2.2-0.3,3.3c0,1,0.2,1.8,1.2,2.1
		c1.1,0.3,1.9-0.2,2.4-1.1c1-1.9,1.6-3.9,1.7-6.1c0.1-1.1,0-2.2,0-3.4c1.5,0,2.9,0,4.4,0.1c0.3,0,0.4-0.2,0.6-0.3
		c-0.3,1.6,0.3,2.6,1.8,3.4c1.6,0.9,2.7,2.4,4,3.8c0.3,0.3,0.2,0.8,0.2,1.2c-0.1,5.3,0,10.6-0.2,15.9c-0.1,2.7-0.7,5.3-0.8,8
		c0,0.7-0.1,1.4-0.1,2.1c0,3.5-0.1,6.9-0.5,10.4c-0.1,0.9-0.1,1.7,0.2,2.6c0.2,0.9,0.6,1.6,1.6,1.7c1,0.1,1.6-0.5,1.9-1.3
		c0.3-0.7,0.4-1.4,0.6-2.2c0.1-0.3,0.2-0.6,0.3-1c1.1,2.6,2.7,4.7,4.2,7c0.3,0.6-0.1,1-0.4,1.4c-3.6,5.6-7.2,11.1-10.8,16.7
		c-0.8,1.2-1.5,2.5-2.3,3.6c-0.3,0.5-0.5,1-0.4,1.6c0.9,3.4,1.9,6.7,2.8,10.2c0.6-1.1,0.9-2.1,1.2-3c3.5-9,7-18.1,10.6-27.2
		c0.2-0.5,0.3-1.2,0.9-1.5c1.2,1.1,2.4,2.3,3.8,3.2c0.1,0.1,0.2,0.3,0.1,0.4c-0.9,1.4-0.9,3-1.1,4.6c-0.3,2.3-0.7,4.5-1.3,6.8
		c-0.1,0.3-0.1,0.6,0,0.9c-1.1,4.9-2.2,9.8-3.1,14.8c-0.8,4.2-1.4,8.5-2.1,12.8c-0.2,1.1-0.4,2.1-0.6,3.2c-0.1,0.6-0.1,1.2,0,1.8
		c0.2,0.9,0.6,1.6,1.6,1.8c1,0.2,1.7-0.3,2.3-1C229.4,184,229.5,183.7,229.7,183.4z"/>
	<path fill="#ECB9A5" d="M152.2,128.4c-0.3,0.6-0.8,0.9-1.2,1.3c-0.3,0.3-0.7,0.6-0.8,1c-0.3,0.9-0.1,1.3,1,1.3
		c0.1,0.6-0.4,0.9-0.7,1.3c-1.9,2.3-3.9,4.5-5.8,6.8c5.4-2.5,10.8-4.9,16.2-7.4c0.7-0.3,1.4-0.8,2.3-0.5c0.2,0.1,0.4,0.2,0.6,0.3
		c0.9,0.2,1.8,0.2,2.7,0.5c1.1,0.5,1.3,0.8,0.7,1.9c-1.6,3.1-3.3,6.2-5,9.3c-0.5,0.9-0.7,1.9-1.7,2.4c-0.9,0.4-1.7,1-2.4,1.5
		c-3.6,2.6-7.6,4.5-11.6,6.5c-2.1,1-4.2,2-6.1,3.3c-0.8,0.5-1.6,1.1-2.1,1.9c-0.5,0.9-0.5,2.1,0.1,2.7c0.5,0.6,1.7,0.9,2.7,0.4
		c0.9-0.5,1.6-0.3,2.3,0.4c2.2,1.9,4.4,3.7,6.6,5.6c1.6,1.4,3.6,2.4,5.4,3.5c1.8,1,2.9,2.4,3.3,4.5c0.1,0.4,0.2,0.8,0.5,1.2
		c1,1.4,2.3,1.5,3.5,0.2c0.3-0.3,0.4-0.7,0.8-0.9c1.1,0.7,1.3,1,0.8,2.1c-0.6,1.4-0.5,2.6,0.7,3.7c0.5,0.4,0.5,1,0.5,1.5
		c0,1.1,0.1,2.2,1.4,2.6c1.3,0.5,2.1-0.1,2.9-1.1c0-0.1,0.1-0.1,0.2-0.2c2.3-0.6,4.6-0.6,6.9-0.9c1-0.1,1.2,0.3,0.7,1.3
		c-1.2,2-2.5,4-3.7,6c-0.7,1.1-0.7,1.2,0.6,1.7c0.9,0.4,1.8,0.7,2.7,1.1c0.9,0.4,1,0.8,0.3,1.5c-0.9,1-1.8,2-2.8,3
		c-1.8,1.9-3.6,3.9-5.4,5.8c-0.5,0.6-1,0.6-1.7,0.3c-0.8-0.4-1.5-0.9-2.3-1.4c-0.7-0.4-1.2-0.4-1.8,0.2c-2,2.2-4.3,4-6.3,6.1
		c-3.2,3.4-6.7,6.4-10,9.7c-0.3,0.3-0.6,0.8-1.2,0.6c0.3-2.9,0.7-5.8,0.8-8.8c0-2.3-1.1-3.2-3.4-2.7c-0.1-0.1-0.1-0.1-0.1-0.2
		c0-0.1,0-0.1,0.1-0.1c1.4-1,1.7-1.8,1.2-3.4c-0.6-2-1.1-4.1-1.8-6.1c-0.8-2.5-2.7-3-4.6-1.2c-1.9-1.8-3.7-3.5-5.5-5.3
		c-1.5-1.5-3.2-1.3-4.2,0.6c-0.7,1.3-1.4,1.4-2.3,0.3c-1-1.1-2.6-1.3-4.3-0.3c-0.5,0.3-0.9,0.5-1.4-0.1c-0.2-0.2-0.6-0.5-0.8-0.4
		c-1.7,0.3-3.2-0.5-4.8-0.5c-0.3,0-0.6,0.1-0.8-0.1c-1.7-1.7-3.6-1-5.3-0.2c-1.5,0.7-3.2,0.7-4.5,1.7c-0.4,0.3-0.6-0.1-0.8-0.3
		c-1-0.8-2.1-1-3-0.1c-1.4,1.3-3.3,1.2-4.6,2.5c-0.3-0.6-0.1-1.1-0.1-1.5c0.1-1-0.2-1.7-1-2.3c-0.8-0.6-1.8-0.7-2.6,0
		c-2.2,1.8-4.2,3.8-6.1,5.9c-0.5,0.6-0.7,1.5-0.4,2.3c0.3,0.7,0,1.2-0.5,1.6c-0.9,0.8-2,1.6-2.4,2.8c-0.8,2-2.1,3.8-2.5,6
		c-0.5,0.2-0.8-0.1-1.1-0.4c-0.7-0.6-1.1-0.5-1.3,0.4c-0.4,1.7-1.1,3.3-1.5,4.9c-0.5,1.8-1.2,3.6-1.8,5.5c-0.3,1.1-0.6,1.1-1.4,0.3
		c-3.7-3.8-7.2-7.7-10.7-11.6c-1.2-1.3-2.2-2.6-3.5-3.8c-0.9-0.8-1-1.6-0.7-2.7c1.1-3,2-6.1,3-9.1c0.5-1.5,0.5-1.6-1-2.2
		c-3.1-1.3-6.1-2.6-9.2-3.9c-0.6-0.2-1.2-0.5-1.6-1c-1.4-1.4-2.9-2.7-4.3-4c-2.7-2.6-5.4-5.2-8.2-7.7c-0.6-0.5-0.7-1-0.3-1.7
		c2.3-3.5,4.6-7.1,6.9-10.7c0.2-0.3,0.4-0.7,0.8-0.5c0.4,0.1,0.5,0.5,0.6,0.8c0.5,1.9,0.9,3.8,1.4,5.7c0.1,0.4,0.1,0.8,0.4,1.1
		c0.2,0,0.3-0.1,0.4-0.2c3.5-3.5,7.2-6.9,10.8-10.4c0.6-0.6,1-1.5,1.3-2.3c0.3-0.7,0.7-1.3,1.1-1.9c0.4-0.5,0.9-0.9,1.6-0.9
		c0.5,0,1-0.1,1.5-0.4c0.9-0.4,1.6,0.4,2.4,0.5c0.6,1.9,1.1,2.2,3,2.5c1.3,0.2,2.6,0,3.9,0.3c0.6,0.4,0.2,1.1,0.6,1.6
		c0.7-0.3,1.2-1.1,2-1.2c0.2,0,0.4,0,0.6,0c0.5,0.2,1.3,0.2,1.3,0.9c0,0.7-0.8,0.5-1.2,0.7c-2.6,1.2-5.4,1.8-8,2.8
		c-0.5,0.2-1,0.4-1.4,0.7c-0.6,0.4-1.1,0.9-0.9,1.7c0.2,0.8,0.8,1,1.6,1.1c1.2,0,2.3,0.1,3.5-0.1c0.7-0.1,1.5-0.2,2.3-0.2
		c0.2,0,0.5,0,0.6,0.3c0.1,0.2-0.1,0.4-0.3,0.5c-0.1,0.1,0,0-0.1,0.1c-2.7,1.5-5.4,3.1-8.5,3.8c-0.6-0.2-0.4-0.7-0.3-1.1
		c0.3-1.7-0.4-3-2.1-3.1c-1.7-0.1-3.5-0.5-5.2,0.2c-1.7,0.1-2.2,1.5-2.7,2.8c-1.9,2.1-3.1,4.6-3.7,7.4c-0.1,0.7-0.5,1.2-0.9,1.7
		c-0.7,1-0.8,2,0,3c0.3,0.5,0.4,0.9,0.3,1.5c-0.2,1.4,0.2,2.2,1.2,2.6c1,0.4,2.3,0,3.1-1c0.4-0.5,0.7-1.1,1-1.8
		c0.3-0.8,0.7-1.5,1.3-2.1c0.7-0.7,0.8-1.5,0.7-2.4c-0.2-0.9-0.2-1.7-0.1-2.6c0.1-1.7,0.9-2.3,2.5-1.9c0.3,0.1,0.6,0.1,0.9,0.2
		c0.1,0.1,0-0.1,0.1,0.1c1.4,2.1,3.3,2,5.4,1.2c3.8-1.4,7.3-3.2,10.8-5.2c4.8-2.7,9.6-5.4,14.8-7.2c0.4-0.1,0.8-0.4,1.2-0.6
		c0.9-0.6,1.4-1.3,1.3-2.4c-0.1-1.1-0.8-1.6-1.8-1.8c-0.2,0-0.4-0.1-0.5-0.3c0-0.5,0.4-0.6,0.8-0.8c3.4-1.2,6.7-2.3,10.1-3.4
		c0.6-0.2,1.2-0.3,1.3,0.8c1.4-1,2.8-1.9,4.2-2.8c0.5-0.3,0.9-0.6,1.5-0.6c1.3,0,2.6-0.2,3.8-0.2c4-0.1,7.9-0.4,11.8-0.5
		c0.8,0,1.3-0.4,1.7-1.1c3.8-6,7.5-12,11.2-18c1.1-1.7,2.1-3.4,3.2-5.1c0.4-0.6,0.9-0.9,1.7-0.7c3,0.9,5.9,2,8.8,3.1
		C152,128.2,152.2,128.3,152.2,128.4z"/>
	<path fill="#3C348D" d="M94,255.7c0.2-1.7-0.7-3-2.4-3.1c-1.1-0.1-2.1-0.1-3.2,0c-2.5,0-4.6-0.8-5.9-3c-0.6-0.9-1.4-1.5-2.4-1.8
		c-0.7-0.6-0.8-1.5-1.2-2.4c0-2.3,0-4.5-0.9-6.9c1.1,0.4,2.1,0.7,3,1c0.8,0.3,1.6,0.3,2.3-0.1c0.3-0.2,0.6-0.2,0.9-0.1
		c1,0.3,2,0.3,3.1,0.3c2.7,0,5.5-0.2,8.2,0.7c1.9,0.6,4,0.3,6,0.3c3.4-0.1,6.8,0.3,10.1,0.9c1.2,0.2,2.4,0,3.6,0.2
		c-1.5,0.6-2.6,2.1-4.5,1.8c-1.3-0.2-2.6,0.5-2.6,1.8c-0.1,3.1-1.5,6-1.3,9.2c0.1,0.9,0,1.8,0,2.8c0.1,2.9,1.8,4.7,4.7,4.7
		c0.7,0,1.1,0,1.3,1c1.3,10.7,1.6,21.4,1.4,32.1c-0.1,2.6,0.3,5.2,1.5,7.5c0.3,0.6,0.1,1.1-0.1,1.6c-0.9,2.3-2,4.5-3,6.6
		c-1.7,3.4-2.6,7.1-3.4,10.8c0,0.2-0.1,0.4-0.2,0.5c-1.8,0.8-3.6,1-5.5,1c-1.5-1.1-3.2-1.2-4.9-1.1c-1.7,0.1-3.5-0.2-5.2,0.3
		c-3-0.9-5.9-2-8.8-3.1c-1.8-0.6-3.6-1.2-5.3-1.9c-0.3-0.1-0.7-0.2-0.9-0.5c0.7-1.3,0.5-2.2-0.9-2.9c-1.3-0.8-2.9-0.6-4.3-0.8
		c-1.7-0.3-3.3-0.7-4.7-1.7c-1.8-1.3-4-1.8-6-2.6c-0.6-0.2-1.2-0.1-1.9,0.3c0.1-1,0.2-1.8,0.3-2.6c0.3-4.2-0.7-8.2-1.9-12.1
		c-1.3-4-2.3-8.1-2.2-12.4c0-0.4-0.1-0.7-0.1-1.1c-0.3-1.7-1.3-2.5-2.8-2.4c-1.3,0.1-2.3,1.3-2.3,2.8c-0.1,4,0.5,7.9,1.6,11.8
		c0.9,3.3,2.1,6.5,2.5,9.9c0.4,2.6,0,5-0.5,7.5c-1,5.9-3.2,11.4-4.5,17.2c-0.6,2.4-1.1,4.8-0.9,7.3c0,0.4,0.1,0.8,0.2,1.2
		c0.1,0.5,0.3,0.9-0.5,0.9c-0.9,0-1.4,0.7-1.9,1.5c-1.9,3-2.6,6.4-3.3,9.8c-1.4,7.3-1.2,14.7-1.2,22.1c0,1.1,0,1.7-1.4,1.4
		c-1.4-0.3-2.8,0.1-4.3,0c-2.5-0.2-4.6-1.3-6.8-2.5c-0.2-1.2-0.2-2.4-0.2-3.6c-0.1-3.9-0.4-7.7-0.6-11.6c-0.2-3.7-0.3-7.3-0.6-11
		c-0.1-1.1,0-2.1,0.4-3.2c1.3-3.1,2.4-6.4,3.8-9.4c1.5-3.1,1.7-6.4,1.9-9.7c0.5-6.4,0.6-12.8,2.5-19.1c1.5-5,2.6-10.2,3.9-15.2
		c0.2-1,0.3-1.9,0.1-2.8c-1-4.8-2-9.6-3-14.4c-0.3-1.4-0.2-1.6,1.1-2.2c8.3-3.7,16.6-7.3,24.9-11c2.6-1.1,5.1-2.2,7.7-3.4
		c0.5-0.2,1.2-0.7,1.5-0.2c0.4,0.5-0.3,1-0.7,1.3c-2.8,2.6-5.7,5.2-8.5,7.7c-1.2,1.1-2.3,2.3-3.8,3.4c3.9-1.2,7.5-2.4,11.1-3.5
		c1.4-0.4,1.6-0.3,1.9,1.1c0.8,3.7,1.5,7.4,2.2,11.2c0.6-4.1,1.1-8.1,1.7-12.2c0-0.2,0-0.4,0.1-0.6c0.2-1.3,0.5-1.5,1.8-1.2
		c4,1,8.1,1.9,12.1,2.9c1.1,0.3,2.2,0.2,3.3-0.1c3.5-1.1,7.1-2.2,10.7-3.5c-1.2-0.3-2.4-0.7-3.6-1c-2.1-0.5-4.1-1.1-6.1-1.6
		C95.1,256.3,94.4,256.2,94,255.7z"/>
	<path fill="#D18175" d="M65.6,154.8c-0.5,0.1-1.1,0.6-1.5-0.3c0-0.1-0.2-0.2-0.3-0.1c-1.8,0.8-4,0.8-4.5,3.4
		c-0.2,1.2-1.2,2.1-2.1,2.9c-3.5,3.3-7,6.8-10.7,10.4c-0.7-2.9-1.4-5.6-2.2-8.6c-1,1.5-1.8,2.8-2.7,4.1c-1.6,2.5-3.2,5-4.8,7.4
		c-0.3,0.4-0.5,0.7,0,1.2c1.9,1.7,3.7,3.4,5.5,5.1c2.3,2.2,4.6,4.5,7,6.7c1.3,1.3,3.2,1.6,4.8,2.4c2.2,1.1,4.5,2,6.8,2.9
		c0.8,0.3,0.9,0.6,0.6,1.3c-1.1,3.3-2.1,6.6-3.2,9.9c-0.3,1-0.2,1.7,0.6,2.5c4.1,4.3,8,8.8,12,13.1c0.9,1,1.9,1.8,2.9,2.7
		c0.7-2.3,1.5-4.7,2.3-7.2c0.5-1.5,1-3,1.4-4.6c0.2-0.6,0.4-0.8,1-0.3c0.4,0.4,0.9,0.7,1.4,1.1c0.3,1.4,1,2.4,2.6,2.6
		c-1,1.4-1.7,2.8-1.6,4.4c0,1.3,0.4,2.5,1.7,3c0.6,0.2,0.5,0.5,0.2,0.9c-1.1,1.3-1.4,2.9-2.4,4.3c-0.6,0.9-0.4,2,0.4,2.8
		c0.4,0.5,0.4,0.7,0,1.1c-0.6,0.6-0.8,1.5-0.9,2.5c-0.9-0.7-1.8-1-2.7-0.4c-0.4,0.2-0.6,0-0.9-0.1c-9.9-5.6-19.4-11.7-27.5-19.7
		c-2.1-2.1-4-4.3-5.4-6.9c-3.2-5.7-6.7-11.1-9.6-17c-2.6-5.3-4.7-10.9-5.8-16.8c-0.2-1.1-0.4-2.2-0.4-3.3c0-2.7,0-5.4,0-8.2
		c0-0.3-0.1-0.7,0.1-0.8c1.4-1.3,0.5-3,0.8-4.5c0.2-1-0.2-2.1-1.1-2.9c5.8-2.1,10.6-5.7,15.8-8.9c-1.3,3.3-2.4,6.6-4,9.7
		c-0.6,1.2-0.9,2.4,0,3.7c1.2,1.8,3.3,2.3,4.9,0.7c2.7-2.6,5.7-4.8,8.4-7.3c0.1-0.1,0.2-0.2,0.5-0.4c0.2,0.9,0.6,1.7,1.5,1.8
		c1.2,0.2,2.4,0.3,3.6-0.3c3-1.4,5.8-3.2,8.7-4.8c2.5-1.4,5.1-2.8,7.7-4.1c-2.5,2.3-4.1,5.2-5.7,8.3c3-0.2,5.8,0.3,8.7-0.6
		c5.9-1.9,11.2-5,16.5-8.1c9-5.2,17.6-11,25.3-18.1c0.1,0,0.1-0.1,0.2-0.1c0.6,1.8,1.4,2.1,3,0.9c4.2-3.1,7.9-6.8,11.2-10.8
		c7.1-8.5,14.3-16.9,22.2-24.7c0.9-0.9,1.7-1.9,2.8-3.1c0,2.7-0.2,5-1.2,7.2c-1.9,4.3-4,8.5-4.9,13.1c-0.2,1-0.1,1.9-0.1,2.9
		c0,0.6,0.4,1.1,0.9,1.3c0.5,0.2,1,0,1.4-0.3c0.8-0.8,1.4-1.7,1.9-2.7c2-4.1,4-8.2,5.7-12.5c0.1-0.4,0.3-0.8,0.6-1
		c3.7-3.5,7.2-7.3,11.2-10.7c-0.2,1.1-0.7,1.9-1,2.7c-2.4,5.2-5,10.3-7.8,15.3c-0.8,1.5-1.7,3-2.2,4.6c-0.3,1-0.4,1.9,0.7,2.5
		c0.3,0.2,0.3,0.3,0.2,0.6c-3.2,6.7-7.2,13-11.3,19.1c-0.1,0.2-0.3,0.3-0.4,0.4c-2.9-0.7-5.6-1.9-8.4-2.8c-1.8-0.5-1.8-0.6-2.7,1
		c-4.7,7.6-9.5,15.2-14.2,22.8c-0.3,0.6-0.7,0.7-1.3,0.8c-4.1,0.1-8.3,0.3-12.4,0.5c-1.2,0.1-2.5,0.2-3.7,0.2
		c-0.4,0-0.7,0.2-1.1,0.5c-1.6,1.1-3.3,2.2-4.9,3.3c-0.3-0.3,0-0.4,0-0.6c0-0.2,0.3-0.4,0.1-0.6c-0.2-0.2-0.4,0-0.7,0.1
		c-3,1-5.9,2-8.8,3c-0.8,0.3-1.6,0.4-2.3,0.9c-1,0.8-2.2,1.1-3.4,1.4c-0.6,0.2-1-0.2-1.4-0.5c-4.1-2.6-8.6-4.4-13.4-5.2
		c-2-0.4-3.9,0-5.8,0.2c-0.5,0.1-0.9,0.4-1.3,0.8C66.2,154.4,66.1,154.8,65.6,154.8z"/>
	<path fill="#3C3890" d="M180.5,300c-0.3,1.8-0.1,3.7-1.2,5.3c-0.3,0.5-0.4,1.1-0.1,1.7c0.4,0.9,0.4,1.8,0.3,2.8
		c-0.9,1.3-2.2,2.1-3.4,3c-0.9,0.7-1.2,1.5-1.1,2.7c0.9,7.8,1.7,15.6,2.6,23.3c0.2,1.4-0.1,2.7-0.2,4.1c-0.6,6.1-1.1,12.2-1.8,18.2
		c-0.1,0.8,0.1,1.5,0.3,2.2c0.6,2,1.1,4.1,1.6,6.1c0.1,0.5,0.3,1,0,1.5c-3.4,1.7-6.7,3.9-10.4,5.6c0.6-1.7,1.2-3.2,1.6-4.7
		c0.2-0.6,0.2-1.3-0.1-1.7c-0.6-0.8-0.4-1.6-0.2-2.5c1.5-6.3,1.8-12.6,1.7-19c0-0.7,0.1-1.4,0.5-2.1c0.9-1.7,0.7-3.6,0.6-5.4
		c-0.1-2.3-0.1-4.6-0.1-6.8c-0.1-2.1,0.1-4.2-1.1-6.1c-0.1-0.1-0.1-0.4,0-0.6c0.5-2.8,0.2-5.6-0.3-8.3c-0.4-2-0.5-3.9-0.5-5.9
		c0-1.1-0.2-2.3-1.3-3c-0.5-0.3-0.2-0.7-0.1-1c0.2-1.3,0.7-2.5-0.7-3.4c-0.3-0.2-0.2-0.5-0.1-0.8c1.4-6,2.1-12.2,2.9-18.3
		c0.6-4,0.4-8.1,0.3-12.1c-0.1-2.3-2.2-3.7-4.2-3c-1.5,0.6-2.1,2-1.3,3.4c0.4,0.7,0.4,1.3,0.5,2.1c0.2,6-0.7,11.9-1.6,17.8
		c-0.5,3.2-1.4,6.3-1.3,9.6c0,0.8,0,1.7,0.3,2.5c0.3,0.8,0.1,1.2-0.5,1.8c-0.9,0.8-1.8,1.5-2.8,2.2c-1.4,0.8-2.7,1.8-2.6,3.7
		c-3.7,1.4-7.5,2.7-11.3,3.9c-1.3,0.4-2.8,0.8-3.8,1.8c-0.1-0.2-0.2-0.4-0.2-0.6c-0.4-1.5-1.2-2.1-2.8-1.9c-0.8,0.1-1.6,0.3-2.4,0.7
		c-2.1,0.8-4.3,1.1-6.6,1c-0.5,0-1,0-1.4,0c-1.7,0.1-3,0.7-3.7,2.3c-1.2,0.1-2.4,0-3.4-0.6c-0.1-0.9-0.3-1.8-0.3-2.6
		c1-2.7,1.6-5.5,2.4-8.2c0.6-2.1,1.1-4.2,1.8-6.4c0.4-1.2,0.5-2.4,0.3-3.7c-0.3-1.8-0.2-3.7-0.3-5.5c-0.2-4-0.4-8-0.6-12
		c-0.1-2.1,0-4.3-0.4-6.4c-0.2-1.4,0.3-2.4,1.5-3.2c6.2-4.1,12.4-8.2,18.6-12.3c1-0.7,1.6-1.5,1.7-2.7c0.3-4.3,0.7-8.5,1-12.8
		c0-0.5-0.1-1.2,0.6-1.5c0.7,1.1,1.7,1.5,3.1,1.5c2.6-0.1,5.3,0,7.9,0c1.4,0,2.9,0.2,4.2,0.7c2,0.7,4.1,1.4,6.1,2.1
		c1.5,0.5,2.9,1.3,3.1,3.2c0.1,0.9,0.8,1.4,1.7,1.3c0.4,0,0.8-0.1,1.1,0.3c1.4,2,3.4,3.5,5,5.3c0.3,0.4,0.7,0.7,1,1
		c1.3,1.5,1.8,1.7,3.7,1.1c-0.8,1.1-0.9,2.3-0.9,3.5c0,2.9,0,5.8,0,8.7c-0.7,1.8-1.9,3.3-3.1,4.8c-2.4,2.9-3.7,6.1-4.1,9.8
		c-0.2,1.7-0.6,3.3-0.9,4.9c-0.1,0.8,0.1,1.3,0.6,1.9C177.3,296.3,179.1,297.9,180.5,300z"/>
	<path fill="#C1855C" d="M66.7,35.7c-0.8,2.6-2,5-3.1,7.5c-2.7,6-5.4,12-8,18.1c-0.1,0.3-0.2,0.7-0.4,1.3
		c11.2-7.1,22.2-14.1,33.2-21c0.1,0.1,0.2,0.1,0.3,0.2c-2.9,4.5-5.8,9-8.6,13.4c0.1,0,0.1,0.1,0.2,0.1C87.6,48.2,95,41,102.5,33.9
		c0.1,0,0.2,0.1,0.2,0.1c-0.8,1.9-1.6,3.9-2.4,5.8c-1.8,4.5-3.7,9-5.5,13.5c-0.1,0.2-0.4,0.5-0.1,0.8c0.3,0.3,0.5,0,0.7-0.2
		c7.2-3.8,14.4-7.6,21.6-11.4c5.2-2.7,10.4-5.5,15.6-8.2c0.1-0.1,0.3-0.1,0.6-0.2c-0.9,1.3-2.1,2-3.1,2.9c-5.3,4.8-10.7,9.5-16,14.2
		c-1,0.9-1.8,1.9-2.4,3.1c-5,9.8-10.1,19.5-15.1,29.3c-1.6,3.1-3.3,6.3-5.1,9.4c0.2-8.5,0.3-17,0.5-25.4c-0.1-0.1-0.2-0.1-0.2-0.2
		C82.4,77.6,73.2,88,63.9,98.4c-0.1,0-0.2-0.1-0.3-0.1c-0.2-7.6-0.3-15.1-0.5-23c-6.6,7.9-13,15.5-19.4,23.1c-0.1,0-0.2-0.1-0.2-0.1
		c0.6-6,1.2-11.9,1.9-18.3c-6.7,5.4-13.2,10.7-19.7,15.9c-0.1,0-0.1-0.1-0.2-0.1c0.9-1.6,1.7-3.2,2.6-4.8c4-7.3,7.9-14.6,12.1-21.8
		c2.6-4.5,5.6-8.8,8.4-13.2c2-3.1,4-6.3,6-9.4c0.2-0.2,0.3-0.4,0.3-0.8C58.7,42.2,62.5,38.8,66.7,35.7z"/>
	<path fill="#932843" d="M22.4,168.3c0.3,2.9,0.7,5.8,1.5,8.7c2.2,7.8,5.6,15.1,9.8,22c1.8,2.9,3.4,5.8,5,8.7c2.8,5,6.8,9,11.1,12.6
		c6.7,5.7,13.9,10.6,21.6,14.8c0.7,0.4,0.9,0.7,0.8,1.5c-0.1,1.5,0.6,2.9,1.1,4.4c0.2,0.7,0,0.9-0.7,0.9c-5.1,0-9.9,1.5-14.7,3.1
		c-1.7,0.6-3.4,1-5.3,1c-3.6,0-7.2,0-10.8,0c-2.2,0-4.3-0.6-6.4-0.8c-1.3-0.2-2.5-0.2-3.7-0.8c-0.6-0.3-1.5-0.3-2.2,0.2
		c-1.3,0.9-2.5,0.5-3.7-0.2c-3.6-2.1-6.4-4.9-8.3-8.6c-0.8-1.6-1.8-3-2.8-4.5c-0.2-0.4-0.6-0.6-0.9-0.9c-0.5-0.6-0.3-1.4-0.2-2
		c0.1-0.7,0.3-1.4,0.2-2.1c1.3-6,2-12,1.9-18.2c-0.1-3.8,0-7.6,0-11.4c0-1.7-0.4-3.2-2.4-3.7c2-2.6,3.6-5.3,5.2-8.1
		c0.9-1.6,0.9-3-0.1-3.7c-1.1-0.8-2.4-0.5-3.7,0.9c-0.4,0.4-0.8,0.8-1,1.3c-2.4,4-5.4,7.5-7.5,11.7c-1.1-0.5-0.4-1.4-0.5-2.2
		c0.8-2.9,1.6-5.8,2.4-8.7c1.4-2,3.2-3.5,4.8-5.3c2.7-2.9,5.6-5.7,8.3-8.6C22,169.8,21.8,168.9,22.4,168.3z"/>
	<path fill="#3C358E" d="M165.1,327.1c0.3,0.9,0.5,1.9,1.2,2.7c0.6,0.7-0.2,1.6,0,2.5c-0.5,1.4-0.4,2.9-0.5,4.4
		c-0.6,7.8-1.5,15.7-2.2,23.5c-0.1,1.3-0.5,2.5-1.2,3.6c-2.8,4.3-5.6,8.7-8.3,13.1c-0.6,0.9-1.3,1.3-2.3,1.5
		c-1.7,0.2-3.4,0.3-5.1,0.3c-4.7,0.2-9.5,0.6-14.2,0.8c-4.5,0.3-9.1,0.4-13.6,0.9c-1.7,0.2-2.1-0.1-2.6-1.6c-1.2-4.5-2.5-9-3.8-13.5
		c-0.4-1.5-0.4-2.9,0.1-4.4c0.8-2.3,1.4-4.7,2.1-7c1.1-3.7,1.3-7.6,2-11.3c0.1-0.7,0.1-1.4,0.6-1.9c0.3-0.2,0.7-0.2,1-0.2
		c5.4,0,10.8-1,16.2-1.6c1-0.1,2-0.4,3-0.2c0.5,0.2,0.5,0.7,0.6,1.1c0.2,1,1,1.5,2,1.6c0.8,0.1,1.7,0.2,2.5,0
		c2.9-0.6,5.6-1.7,8.1-3.4c0.5-0.4,0.8-0.9,1.2-1.3c4.1-3.1,8.4-6.1,12.6-9.1C164.5,327.1,164.8,326.9,165.1,327.1z"/>
	<path fill="#D18276" d="M145.7,220.8c0.2-0.1,0.4-0.3,0.6-0.4c3.3-3.2,6.6-6.4,9.9-9.6c2.4-2.3,4.8-4.6,7.1-6.9
		c0.4-0.4,0.7-0.5,1.2-0.2c0.9,0.6,1.9,1.1,2.8,1.6c0.5,0.3,0.9,0.4,1.4-0.2c1.4-1.6,2.9-3.2,4.4-4.7c1.3-1.4,2.6-2.7,3.9-4.1
		c0.5-0.5,0.4-0.7-0.3-0.9c-1.1-0.4-2.2-0.9-3.3-1.3c-0.9-0.3-1-0.7-0.5-1.5c1.5-2.3,3-4.7,4.6-7.3c-2.8,0.3-5.2,0.5-7.7,0.8
		c-0.5-0.7-0.4-1.4,0.1-2c2.3-2,4.3-4.2,6.5-6.4c1.9-1.8,3.7-3.7,5.6-5.6c0.8-0.8,0.5-3-0.5-3.5c-0.5-0.2-0.8,0.1-1.2,0.3
		c-3.5,1.6-7,3.1-10.5,4.7c-0.2,0.1-0.4,0.1-0.6,0.2c-0.5,0-1.1-0.1-1.6-0.4c-0.1-0.1-0.2-0.3-0.1-0.5c0.1-0.3,0.4-0.5,0.6-0.7
		c1.2-1.1,1.1-2.3-0.2-3.2c-0.3-0.2-0.7-0.3-0.9-0.7c0.5-1.6,1.6-2.8,2.5-4.2c1.6-2.5,3.2-5.1,4.9-7.6c0.5-0.7,0.6-1.3,0.1-2
		c-0.4-0.6-0.7-1.3-1-1.9c-0.3-0.8-0.8-0.9-1.5-0.6c-3.4,1.3-6.9,2.5-10.3,3.9c-0.9,0.3-1.6,0.5-2.2-0.4c-0.4-0.6-1.5-0.5-1.5-1.6
		c1.2-1.3,2.7-2.1,4.1-3c1.2-0.8,1.5-1.9,1-3c-0.3-0.7-0.8-1.1-1.6-1.1c-0.4,0-0.9,0.1-1.2-0.3c1-0.6,1.3-1.8,1.8-2.8
		c1.7-2.9,3.2-6,4.8-8.9c0.4-0.7,0.3-1.1-0.5-1.3c-0.9-0.2-1.8-0.6-2.7-0.8c0.9,0.1,1.7,0.1,2.4-0.5c3.2-2.8,6.8-4.9,10.3-7.2
		c5.6-3.8,10.6-8.3,15.8-12.7c0.3-0.3,0.6-0.5,1-0.9c-0.2,3.8-1.1,7.2-2.2,10.6c-1.7,5.5-4.3,10.5-6.5,15.8c-0.4,0.9-0.7,1.8-1,2.7
		c-0.2,0.7-0.2,1.5,0.6,1.9c0.7,0.4,1.3,0.1,1.9-0.3c0.7-0.6,1.4-1.3,2-2.1c0.6,0.6,0,0.9-0.2,1.3c-0.9,1.3-2.1,2.4-3,3.7
		c-0.9,1.1-0.9,2.1-0.1,2.9c0.8,0.8,1.9,0.8,3-0.2c0.5-0.4,1-1,1.5-1.4c0.3-0.2,0.5-0.6,0.9-0.3c0.3,0.2,0.1,0.6-0.1,0.9
		c-0.6,1.3-1.4,2.6-2.1,3.9c-2.4,4-5.1,7.8-7.9,11.6c-0.4,0.5-0.8,0.9-1,1.5c-0.2,0.5-0.3,0.9,0.1,1.3c0.4,0.4,0.9,0.4,1.4,0.1
		c1-0.6,1.8-1.4,2.6-2.1c0.7-0.6,1.4-1.3,2-2.1c0.5-0.6,0.9-0.9,1.4,0c0.7,1.2,1.8,1.3,3,0.6c0.5-0.3,0.9-0.8,1.3-1.2
		c2.4-2.3,4.6-4.8,7.3-6.8c0.1-0.1,0.2-0.2,0.4-0.3c0.3-0.2,0.7-0.6,1.1-0.2c0.3,0.3,0,0.7-0.2,1c-1.2,2.1-2.6,4-3.8,6.1
		c-2.5,4.4-4.9,9-7.6,13.3c-1.7,2.6-3.7,5-5.4,7.6c-0.6,0.9-1.2,1.7-1.6,2.7c-0.2,0.6-0.4,1.3,0.2,1.8c0.7,0.5,1.3,0.3,1.9-0.2
		c1.4-1.2,2.4-2.7,3.5-4.1c0.3-0.4,0.6-1,1.2-1c0,0.2,0,0.4,0,0.6c0.1,0.6-0.4,0.8-0.6,1.2c-0.5,0.8-1,1.5-0.5,2.4
		c0.5,0.9,1.2,1,2.1,0.9c0.2,0,0.3,0,0.4,0.2c0.6,0.4,0.8-0.1,1-0.4c0.7-0.8,1.4-0.8,2.1,0c-0.6,0.4-1.3,0.8-1.8,1.3
		c-0.6,0.5-0.9,1.1-0.7,1.9c0.2,0.8,0.8,1.3,1.6,1.4c0.4,0,0.9,0.1,0.6,0.7c-1.4,3.3-0.9,6.8-1,10.2c0,1.3-0.4,2.2-1.5,3
		c-9.2,7.5-19.5,13.4-29.8,19c-5.3,2.9-10.7,5.7-16.4,8.4c0.8-1.6,1.1-3.1,2.2-4.3c1.8-1.9,1.8-2.4,0.4-4.5
		C145.3,221.7,145.4,221.3,145.7,220.8z"/>
	<path fill="#4489C8" d="M94,255.7c4.1,1.1,8.3,2.2,12.4,3.2c0,0.1,0,0.2,0,0.2c-1.7,0.6-3.5,1.2-5.2,1.7c-2.2,0.7-4.5,1.3-6.7,2.1
		c-1,0.3-1.8,0.3-2.8,0.1c-4.2-1-8.4-2-12.5-3.1c-0.9-0.2-1.2,0-1.3,0.9c-0.5,3.7-1,7.5-1.5,11.2c-0.1,0.9-0.2,1.8-0.6,2.6
		c-0.4-2.1-0.9-4.2-1.3-6.2c-0.4-2.1-0.8-4.2-1.2-6.3c-0.1-0.8-0.5-0.9-1.2-0.7c-3.8,1.2-7.6,2.4-11.4,3.6c-0.2,0.1-0.4,0.1-0.7-0.1
		c4.6-4.2,9.2-8.3,13.8-12.5c0-0.1-0.1-0.2-0.1-0.2c-1.6,0.7-3.2,1.3-4.8,2c-9.9,4.3-19.7,8.7-29.6,13c-0.6,0.3-0.7,0.5-0.6,1.2
		c1.1,5.3,2.2,10.6,3.3,15.9c0.1,0.4,0.1,0.8,0,1.2c-1.8,7.3-3.6,14.5-5.4,21.8c-0.5,2.2-0.5,4.4-0.7,6.6c-0.4,4.2-0.5,8.4-1.1,12.5
		c-0.3,2-1.4,4-2.2,5.9c-1,2.6-2.1,5.2-3.1,7.8c-0.3,0.7-0.4,1.4-0.3,2.1c0.3,5.1,0.7,10.3,0.9,15.4c0.1,1.9,0.1,3.7,0.3,5.6
		c0.1,1.2,0,2.3,0.2,3.5c0.1,0.8,0.1,1.6-0.2,2.4c-1.7-0.8-3.2-1.7-4.1-3.5c-0.4-0.8-1-1.6-1.9-1.9c-1-0.4-1-1-1-1.8
		c0-9.8,0-19.7,0-29.5c0-1.7,0.2-3.3,0.5-5c0.2-1.1,0.8-1.9,1.5-2.8c1.5-1.8,2.1-4.2,2.5-6.5c0.9-5.4,1.2-10.9,2.4-16.3
		c0.9-4.1,1.5-8.3,1.4-12.6c-0.1-6.2,0.3-12.4,0.1-18.7c0-1.8,0-3.5-0.2-5.3c-0.1-0.8,0.1-1.4,1-1.6c1.6-0.2,3.1-0.9,4.2-1.9
		c4.9-4,10.7-6.2,16.3-9c5-2.5,10.2-4.3,15.7-5.4c0.8-0.2,1.6-0.3,2.5-0.4c1-0.1,2.1-0.5,2.3,1.3c0.1,1.3,1.5,1.6,3.4,1.2
		c1.2,4.8,5,7.8,10.2,8c1.2,0,2.4,0,3.6,0C92.3,257.5,93.4,257,94,255.7z"/>
	<path fill="#D38277" d="M143.1,209.1c0,0.1,0,0.2,0,0.3c-2,1.1-2.8,3.2-4,4.9c-0.7,1-0.3,2.3,0.8,3.1c0.6,0.4,0.6,0.6,0.2,1.2
		c-0.5,0.8-0.7,1.7-0.5,2.6c0.1,0.5,0,0.7-0.3,1.1c-0.8,1.1-1,2.2-0.1,3.3c0.3,0.4,0.3,0.7,0.1,1.1c-0.3,0.8-0.6,1.5-1.1,2.2
		c-0.8,1.1-1.1,2.3-0.4,3.6c0.3,0.6,0.1,0.8-0.4,1c-2.7,1-5.4,2-8.3,2.6c-1,0.2-2,0.2-2.9-0.1c-1.3-0.4-2.7-0.6-4.1-0.5
		c-0.8,0-1.5,0-2.3-0.3c-1-0.4-1.9-0.2-2.5,0.8c-0.3,0.5-0.7,0.5-1.2,0.6c-1.9,0-3.8-0.1-5.7-0.5c-2.9-0.6-5.8-0.6-8.7-0.5
		c-2.5,0-4.9-0.1-7.3-0.8c-2.3-0.7-4.8-0.3-7.2-0.3c-0.4,0-0.9,0-1.3-0.1c-0.6-0.1-0.9-0.5-0.4-1.1c0.4-0.4,0.7-0.8,1-1.2
		c0.8-1.1,0.7-2.2-0.2-3.1c-0.4-0.4-0.4-0.6-0.2-1.1c0.5-1.7,1-3.4,1.9-4.9c0.5-0.9,0.2-1.9-0.6-2.6c-0.6-0.4-0.5-0.7-0.3-1.3
		c0.3-0.6,0.4-1.3,0-1.8c-0.3-0.5-0.1-0.8,0.1-1.2c0.1-0.2,0.3-0.4,0.4-0.6c1.3-2.3,0.5-4-2.2-4.2c1.5-3,4.2-5.3,5.3-8.6
		c1.2,0.9,2.5,0.7,3.8-0.1c0.5-0.3,1-0.5,1.5-0.8c1.4-1.1,3-0.8,4.5-0.6c1.6,0.2,2.9-0.4,4.1-1.3c0.5-0.4,0.9-0.5,1.5-0.1
		c1.4,0.8,3,0.5,4.4-0.1c0.5-0.2,0.7-0.3,1.1,0.3c0.8,1.2,2,1.5,3.3,1c0.4-0.2,0.8-0.4,1.2-0.6c0.8-0.5,1.6-0.9,2.5-0.3
		c0.1,0,0.2,0.1,0.2,0c1.2-0.2,2.1,0.2,2.8,1.4c0.6,0.9,2,1,3,0.3c0.5-0.3,1-0.8,1.5-1.2c0.6-0.5,1.1-1,2-0.5
		c0.8,0.4,1.6,0.2,2.3-0.2c0.7-0.3,1-0.2,0.9,0.6c0,0.4,0,0.8,0,1.2c0.1,1.9,1.7,3.1,3.5,2.4c1-0.4,1.7,0.4,2.6,0.3
		c0.3,0,0.2,0.6,0.2,1c0.1,1.9,0.6,2.5,2.5,3.2C140.9,208.8,141.8,209.6,143.1,209.1z"/>
	<path fill="#3C348D" d="M104.4,341c-0.6,2.6-1.2,5.3-1.6,8c-0.2,1.5,0.4,2.8,0.6,4.2c0.4,4.6,1.6,9,2,13.6c0,0.2,0,0.4,0,0.6
		c0.1,4.6,0.2,9.3,0.3,13.9c0,0.8-0.2,1.1-1.1,1.1c-5.4,0-10.7,0-16.1-0.1c-1.6,0-3.2-0.4-4.7-0.7c-2.2-0.4-4.4,0-6.6-0.5
		c-6-1.3-12-0.8-18-1c-2.5-0.1-4.8-1.3-7.2-2.2c-1.2-0.5-2.3-1-3.5-0.9c-0.6,0-0.7-0.3-0.7-0.8c0.1-6.8-0.3-13.6,0.3-20.4
		c0.4-3.9,0.9-7.7,1.8-11.5c0.3-1.1,0.8-2.2,1.2-3.2c0.5-1.4,0.9-2.8,2.1-4.1c1.2-1.3,1.2-3.4,1.5-5.2c0.4-2,0.7-4,1.5-5.9
		c1.2,0.4,2,1.3,2.5,2.5c-0.1,0.4-0.5,0.5-0.7,0.8c-0.7,0.8-0.8,1.6-0.3,2.5c0.7,1.1,1.5,2.1,2.7,2.7c0.5,0.2,0.9,0.5,1.3,0.9
		c0.2,0.3,0.7,0.6,0.2,1c-0.4,0.2-0.7,0.5-0.7,1c-0.1,0.7-0.2,1.3-0.2,2c0,4.7-0.3,9.3-0.5,14c-0.2,4.2-0.2,8.5-0.6,12.7
		c-0.1,1.1,0.2,1.8,1.2,2.4c3.7,2.3,7.4,4.6,11.1,7c0.8,0.5,1.5,0.6,2.4,0.4c6.1-1.7,12.2-3.3,18.3-5.1c0.8-0.2,1.1-0.6,1.3-1.4
		c1.4-7.3,2.8-14.7,4.2-22c0.2-1.1,0.1-1.2-1.1-1.1c-4,0.4-8,0.6-11.9,1.1c-0.7,0.1-1.4-0.1-2.1-0.4c-5-2.5-10-5-15-7.5
		c-0.3-0.2-0.6-0.3-0.9-0.6c0.3-1,1.2-1.3,2-1.6c1.9,1.3,3.7,2.8,5.5,4.2c1.1,0.9,2.2,1.1,3.5,1c3.1-0.4,6.1-0.4,9.2-0.6
		c1-0.1,1.9-0.2,2.6-1c0.2,0.2,0.2,0.5,0.3,0.8c0.3,1.4,0.9,2,2.3,2c1,0.1,2.1,0,3.1,0c1.6-0.1,2.1-0.5,2.6-2.1
		c0.1-0.2,0.1-0.5,0.4-0.6c1.6-0.1,3.2,0,4.8,0C103.7,340.7,104.1,340.7,104.4,341z"/>
	<path fill="#EAFAFE" d="M58.6,328.3c-0.8-0.9-1.5-1.7-2.4-2.4c0.3-2.1,1.1-4,1.6-6c0.7-2.6,1.4-5.1,1.9-7.6c4.5,2.4,8.6,5.5,14,5.7
		c1.6,0.1,3.1-0.1,4.3-1.3c1.7,0.3,3.2,1,4.9,1.6c2.9,1,5.8,2,8.7,3.1c0.4,0.2,0.9,0.2,1.3,0.6c0,0.4-0.3,0.6-0.5,0.9
		c-0.8,1.4,0,3.1,1.6,3.2c2.4,0.2,4.8,0.2,7.1,0c1.4-0.1,2-1,2-2.4c0-0.3-0.2-0.7,0.2-1c1.8-0.3,3.7-0.5,5.5-0.8
		c-1,4.2-2,8.4-3,12.6c-0.5,2.1-0.9,4.2-1.4,6.3c-1.7,0-3.4,0-5,0.1c-0.3,0-0.6,0.1-0.9-0.2c-1.8-2.6-4.3-1.9-6.8-1.7
		c-0.9,0.1-1.3,1-1.9,1.5c-0.1,1-0.6,1.2-1.5,1.2c-3.8,0.2-7.6,0.4-11.3,0.7c-0.8,0.1-1.4-0.2-2-0.6c-1.7-1.3-3.4-2.6-5-3.9
		c-0.4-0.3-0.8-0.5-1-1c0.2-1.8-0.7-2.7-2.3-3.5c-1.6-0.9-3-2.3-4.4-3.6c-1-0.9-1.9-1.6-3.2-1.4C58.8,328.5,58.7,328.4,58.6,328.3z"
		/>
	<path fill="#EAF9FE" d="M137.5,338.6c-4.7,0.6-9.3,1.2-14,1.7c-2.1,0.2-4.2,0.2-6.3,0.3c-0.1,0.1,0.1,0-0.1,0.1
		c-2.3,0.4-4.5,0.6-6.8,0.4c-0.2,0-0.4-0.2-0.5-0.3c1.3-6.6,2.9-13.2,4.7-19.7c0.5-0.3,1.1-0.3,1.6-0.3c0.4,0.1,0.5,0.5,0.7,0.8
		c1.1,1.5,2.3,1.6,3.7,0.3c0.2-0.2,0.3-0.4,0.6-0.4c1.1,0.3,2.2,0.1,3.3,0.6c1.1,1.8,2.9,2.2,4.9,2.1c2.5-0.1,5.1,0.2,7.6-0.8
		c1.8-0.7,3.6-1.2,4.9-2.8c0.1-0.7,0.5-1.1,1.3-1.3c4.2-1.4,8.4-2.9,12.6-4.3c0.4-0.1,0.7-0.4,1.1-0.1c0.6,2.2,2.5,2.8,4.2,1.5
		c0.3-0.2,0.5-0.5,0.8-0.7c1.3-0.9,2.1-0.7,2.3,0.9c0.5,3.5,1.2,6.9,1,10.4c-3.9,2.8-7.8,5.5-11.7,8.3c-0.5,0.3-1,0.7-1.5,1.1
		c-0.3-0.3-0.2-0.7-0.2-1c0-1.2-0.9-2-2.1-1.9c-0.7,0.1-1.4,0.4-2,0.7c-1.5,0.8-3,1.5-4.6,2.1c-0.5,0.2-1,0.4-1.5,0.4
		C139.9,336.6,138.6,337.3,137.5,338.6z"/>
	<path fill="#4489C8" d="M109.7,340.8c2.5-0.1,4.9-0.1,7.4-0.2c-0.4,2.9-0.9,5.9-1.3,8.8c-0.5,3.8-1.9,7.4-3,11.1
		c-0.5,1.7-0.5,3.3,0,5c1.3,4.4,2.5,8.7,3.6,13.1c0.3,0.9,0.6,1.4,1.7,1.3c5.9-0.4,11.8-0.8,17.6-1.2c3-0.2,6-0.3,9.1-0.5
		c2.5-0.1,4.9-0.3,7.4-0.5c0.5,0,0.8-0.3,1-0.7c3.1-4.9,6.2-9.8,9.4-14.8c0.4-0.6,0.4-1.4,0.5-2.1c0.5-5.3,1-10.6,1.5-15.9
		c0.4-3.8,0.8-7.5,1.2-11.3c0-0.4,0.1-0.7,0.5-0.9c-0.4,4.6,0.1,9.2-0.8,13.7c-0.3,1.6-0.3,3.3-0.3,4.9c0,5.8-0.6,11.6-1.4,17.4
		c-0.1,0.6-0.1,1.3-0.1,1.9c0.3,1.9-0.6,3.4-1.6,4.7c-1.2,1.5-1.7,2.8-0.4,4.4c-5.4,1.9-10.5,4.6-16.1,5.6c-1.7,0.3-3.5,0.6-5.2,0.6
		c-7,0-14.1,0-21.1,0c-1.7,0-2.9-1-4.3-1.6c-0.3-0.1-0.2-0.4-0.3-0.6c-0.4-2.4-1.6-3-3.9-2.3c-0.1,0-0.2,0-0.3,0c0-1.5,0-3,0-4.5
		c0.3-7.1-0.3-14-1.8-20.9c-0.4-2-0.2-4-0.4-6C108.1,346.5,109.1,343.7,109.7,340.8z"/>
	<path d="M187.5,180.1c-1.2,1.4-2.3,2.9-3.5,4.3c-0.4,0.5-0.9,1-1.5,1.4c-0.6,0.4-1.2,0.4-1.8,0c-0.6-0.5-0.7-1.1-0.5-1.8
		c0.2-0.7,0.6-1.4,1-2c5.9-7.4,10.2-15.8,14.9-23.9c1-1.7,2.1-3.3,3.1-5c-1,0.4-1.7,1.2-2.5,1.8c-2.4,2-4.5,4.3-6.7,6.5
		c-0.8,0.8-1.7,1.3-2.8,0.9c-0.8-0.3-1.2-1-1.5-1.8c-1.4,1.6-2.8,3.1-4.4,4.3c-0.3,0.2-0.6,0.5-0.9,0.7c-0.6,0.4-1.3,0.4-1.9-0.1
		c-0.5-0.5-0.5-1.2-0.1-1.8c0.6-0.9,1.2-1.7,1.8-2.5c3.3-4.6,6.6-9.1,9.1-14.2c0.2-0.3,0.3-0.6,0.2-1.1c-0.6,0.7-1.2,1.4-1.9,2
		c-1.2,1.1-2.6,1.2-3.5,0.3c-0.9-0.9-0.9-2.3,0.3-3.5c1.1-1.2,2.2-2.5,3.2-3.9c0.2-0.2,0.6-0.4,0.2-0.8c1-0.5,1.2-1.7,2-2.2
		c0.5-1,0.9-2,1.9-2.6c2.2-3,4.5-5.9,7.3-8.4c0.7-0.7,1.4-1.5,2-2.2c0.5-0.5,0.9-1,1.5-1.4c0.6-0.4,1.2-0.4,1.8-0.1
		c0.7,0.3,0.9,0.9,0.8,1.6c-0.1,1.9-1.3,3.3-2.3,4.6c-1.1,1.4-2.3,2.6-3.5,3.9c-0.3,0.4-0.5,0.7-0.3,1.3c0.3,0.9-0.2,1.7-0.5,2.5
		c-2,4.9-4,9.9-6.6,14.6c-0.2,0.9-0.6,1.7-1.5,2.7c0.8-0.6,1.2-1.6,2.2-1.9c3.6-2.9,7.2-5.9,11.2-8.3c0.9-0.5,1.8-1.4,2.8-0.3
		c1,1.1,0,1.9-0.5,2.7c-0.2,0.3-0.5,0.6-0.7,0.9c-0.4,0.4-0.6,0.7-0.1,1.3c0.7,0.9,0.4,1.8-0.1,2.7c-1.5,2.5-3.1,5-4.7,7.5
		c-0.3,0.5-0.6,1-0.8,1.6c-2.3,3.5-4.4,7.2-6.6,10.8c-1.3,2.3-2.4,4.7-4.2,6.8C188.5,178.6,188,179.4,187.5,180.1z"/>
	<path fill="#4489C8" d="M116.2,320.9c-0.6,0.2-1.1,0.3-1.7,0.1c0.6-3,1.5-5.9,2.9-8.7c1.3-2.8,2.8-5.6,3.5-8.6
		c0.4-1.8,0.5-3.5,0.2-5.3c-0.1-0.8-0.5-1.4-1.1-1.7c-0.8-0.3-0.8-0.8-0.8-1.5c0-5.4,0-10.9,0-16.3c0-3.4-0.5-6.8-0.8-10.2
		c-0.1-1.5-0.2-3-0.4-4.5c-0.1-0.9-0.3-1.8-1-2.4c-1.1-0.9-0.6-1.3,0.3-1.8c1.3-0.8,2.8-0.7,4.2-0.8c1.7-0.1,3.5-0.3,5.3-0.3
		c1.2,0,2.3-0.4,3.3-1c0.8-0.4,1.6-1.1,2.7-1c1.1,0.7,2.2,1.6,3.7,1.3c0.8-0.1,1.6-0.2,2.3-0.6c2.1-1,3.7-2.6,4.9-4.6
		c0.7-1.2,1-2.6,0.7-4c0.5-1.7,1.5-3.2,2.2-4.7c0.2-0.3,0.5-0.7,0.8-0.1c0,0.1,0,0.1,0,0.2c-0.5,1.2-0.3,2.4-0.4,3.7
		c-0.4,3.4-0.6,6.7-0.8,10.1c-0.1,1.5-0.5,2.6-1.9,3.5c-6.3,4-12.4,8.3-18.7,12.3c-1.1,0.7-1.5,1.5-1.2,2.7c0.4,2,0.2,4,0.4,6
		c0.3,4.1,0.3,8.3,0.6,12.4c0.2,2.1,0,4.2,0.4,6.3c0.2,1,0,2-0.3,3c-1.3,4.6-2.5,9.1-3.8,13.7c-0.1,0.4,0,0.9-0.6,1.1
		c-0.4,0-0.6-0.2-0.8-0.4c-1.5-1-3-0.4-3.4,1.4C116.4,320.3,116.5,320.7,116.2,320.9z"/>
	<path fill="#C1855C" d="M204.5,66.2c-0.3-0.5-0.1-1-0.2-1.5c0-0.5,0-1,0-1.5c-0.1,0-0.3,0-0.4-0.1c-1.7,9.4-3.3,18.7-5,28.1
		c-0.1,0-0.1,0-0.2,0c0.4-4.6,0.8-9.1,1.2-13.7c-0.1,0-0.1-0.1-0.2-0.1c-4,4.7-8,9.5-12,14.2c-0.1,0-0.1-0.1-0.2-0.1
		c0.7-1.4,1.3-2.9,2-4.3c1.4-2.9,2.8-5.9,4.3-8.8c0.3-0.6,0.3-1.1,0-1.7c-2.5-6.3-5-12.5-7.5-18.8c-0.3-0.7-0.3-1.4-0.2-2.2
		c0.4-3.2,0.7-6.4,1.1-9.6c0.1-1.2,0.3-2.4,0.5-3.7c3.6,3,8.2,4.3,12.2,6.8c0.4,0.3,0.7,0.4,0.6,1.1c-0.1,1.6,0.9,2.8,2.6,2.7
		c1.2,0,1.4,0.5,1.4,1.5C204.5,58.4,204.5,62.3,204.5,66.2z"/>
	<path fill="#3C3890" d="M132.7,257.1c-1,0.1-1.7,0.6-2.5,1.1c-1.4,0.8-2.9,1.1-4.6,1.1c-2.5,0.1-5.1,0.3-7.6,0.5
		c-0.3,0-0.6,0.2-0.9,0.2c0.3-0.6,0.8-0.8,1.5-0.8c1.5,0,2.6-1.1,2.6-2.6c0-4,0-8,0-12c0-1-0.3-2.1-1.2-2.9c1.6,0,3,0.1,4.3-0.7
		c0.1-0.1,0.3,0,0.5,0c3.4,0.9,6.5-0.1,9.7-1.1c3.3-1,6.5-2.4,9.8-4c-0.5,1.4-0.5,2.7-0.4,3.9c0.1,1.9,0.8,2.8,2.7,3.1
		c0.9,0.1,0.5,0.7,0.6,1.2c-0.6-0.3-0.6,0.3-0.7,0.5c-0.7,1.4-1.5,2.9-2.2,4.3c-2.2-0.8-3.6,0.3-4.8,2c-1.1,1.5-2.4,2.7-4.4,3
		C133.4,254.1,133.1,254.7,132.7,257.1z"/>
	<path fill="#4489C8" d="M177.6,371c-0.7-2.7-1.4-5.4-2.2-8.1c-0.2-0.8-0.2-1.6-0.1-2.5c0.3-2.8,0.5-5.5,0.8-8.3
		c0.4-3.8,0.7-7.6,1.2-11.4c0.2-1.3-0.1-2.6-0.3-3.9c-0.4-4.2-0.9-8.5-1.4-12.7c-0.4-3.2-0.8-6.4-1.1-9.6c-0.1-0.5-0.1-0.9,0.3-1.2
		c1.6-1.2,3-2.5,4.6-3.6c0.1,1,0.3,1.9,1,2.7c0.5,0.5,0.4,1.4,0.5,2.1c1.7,9.5,1.1,19.2,1.1,28.8c0,2.3-0.1,4.6,1,6.8
		c0.1,0.3,0.1,0.6,0.1,0.9c0,5.3,0,10.5,0,15.8c0,0.8-0.2,1.2-0.9,1.6C180.7,369.4,179.3,370.4,177.6,371z"/>
	<path fill="#C1855C" d="M22.4,168.3c0.2,1.2-0.5,2-1.3,2.9c-4,4-7.9,8.1-11.8,12.2c-0.3,0.3-0.7,0.6-1.1,1c1.5-7.6,3-15.2,4.9-22.7
		c0.5-2.2,0.6-4.5,0.6-6.8c0,0,0.1,0.1,0.1,0.1c-0.3,1.8,1,2.7,2.2,3.5c2.1,1.5,4.2,3,6.3,4.5C22.4,164.7,22.4,166.5,22.4,168.3z"/>
	<path fill="#4489C8" d="M180.5,300c-2.1-1.8-3.7-4.2-5.7-6.1c-0.3-0.3-0.2-0.5-0.2-0.9c0.6-3.3,1.2-6.6,1.8-10
		c0.1-0.8,0.5-1.4,0.9-2c1.9-2.7,3.8-5.4,5.7-8.1c0.2,5.4-0.3,10.8-1.1,16.1C181.5,292.7,181,296.4,180.5,300z"/>
	<path fill="#D08074" d="M163.1,132.2c-1.7,0.2-3,1.2-4.5,1.8c-4.7,2.1-9.3,4.3-13.9,6.4c-0.2,0.1-0.4,0.3-0.7,0.1
		c2.4-2.8,4.9-5.7,7.3-8.5c1.3-0.2,2.7-0.5,4-0.7c0.9-0.1,1.4-0.4,1.8-1.1c2.6-4.8,6.6-8.5,10.3-12.4c0.2-0.2,0.3-0.4,0.7-0.8
		c-0.5,2.4-0.9,4.5-1.9,6.4c-0.1,0.3-0.3,0.6-0.3,0.9c0.3,1.4-0.6,2.1-1.5,2.8c-0.4,0.4-0.8,0.8-1.2,1.2
		C162,129.8,162,130.7,163.1,132.2z"/>
	<path fill="#3C348D" d="M116.2,250.8c0,0.5,0,1,0,1.6c-0.1,0.8,0.4,1.7-0.2,2.3c-0.9,0.8-1.9,1.5-3.1,1.8c-0.7,0.2-1.2,0.1-1.3-0.9
		c-0.3-2.5,0.8-4.6,1.3-6.9c0.2-0.8,1.2-0.8,1.8-1.2c1.4-0.8,1.5-0.7,1.5,0.9C116.1,249.2,116.1,250,116.2,250.8
		C116.1,250.8,116.2,250.8,116.2,250.8z"/>
	<path fill="#FDFDFD" d="M214.5,77.1c-1.6,0-3.3,0-4.9,0c0-1.1,0-2.3,0-3.5C211.3,74.8,212.9,75.9,214.5,77.1z"/>
	<path fill="#BD825A" d="M76.4,35.6c-0.3-0.4-0.7-0.8-1-1.1c-1.2-1.2-1.2-1.2-0.2-2.6c0.9,1.2,2,2,4,1.5C78,34.2,77.3,35,76.4,35.6z
		"/>
	<path fill="#B97C58" d="M148.1,234c1,0.9,1.3,1.8,1.1,3.3c-0.5,3-0.2,3.2,2.8,3.2c2.1,0,4.1,0,6.2,0c0.4,0,0.8-0.1,1.1,0.2
		c-3.2,0-6.5,0-9.7,0.1c-0.7,0-0.9-0.2-0.8-0.9c0.1-0.6,0-1.2,0-1.8c0-1.5-0.4-2.8-2-3.5C147.3,234.4,147.7,234.2,148.1,234z"/>
	<path fill="#BB7D59" d="M197.3,110.2c0.8,0.4,1.1,1,1,1.8c-0.2,1.7-0.1,3.5-1,5.1C197.5,114.8,197.7,112.5,197.3,110.2z"/>
	<path fill="#BC8159" d="M5.8,193c0.1,0.7,0,1.5,0.5,2.2c-0.5,0.9-1,1.8-2.1,2.6C4.8,196,5.3,194.5,5.8,193z"/>
	<path fill="#B77D57" d="M23.5,155.5c-0.2-1.2-0.5-2.3-1.2-3.4c0.6,0.3,1.2,0.2,1.9,0.3C23.8,153.5,23.8,154.5,23.5,155.5z"/>
	<path fill="#B67D56" d="M14,226.3c0.5,0.9,0,1.7,0,2.6c0,0.5,0,1,0,1.5c-0.7-0.1-0.8-0.4-0.7-1.1C13.5,228.4,13.7,227.4,14,226.3z"
		/>
	<path fill="#4386C6" d="M78.7,245.3c0.5,0.7,0.9,1.5,1.2,2.4c-1.4,0.1-1.4,0.1-1.2-1.3C78.7,246,78.7,245.6,78.7,245.3z"/>
	<path fill="#B77E57" d="M191.8,134.9c-0.6,0.9-1.3,1.7-1.9,2.6c0-1.3,1.1-2.2,1.5-3.3C191.7,134.3,191.8,134.6,191.8,134.9z"/>
	<path fill="#B97F58" d="M56.4,146.4c0.6,0.2,1.1-0.2,1.6-0.2c-0.8,0.7-1.6,1.3-2.9,1.5C55.5,147,55.9,146.7,56.4,146.4z"/>
	<path fill="#B57756" d="M196.1,191.8c0.1,1.1,0,2.2-0.1,3.3c0,0.3-0.1,0.7-0.1,1c-0.5,0.2-0.3-0.2-0.3-0.3
		C195.5,194.4,195.6,193.1,196.1,191.8z"/>
	<path fill="#C1855C" d="M229.5,135.1c-3.1,7.8-6.1,15.7-9.2,23.5c-1.1,2.9-2.3,5.9-3.5,8.9c-0.6-0.9-0.7-1.9-1-2.8
		c-0.8-2.7-1.5-5.5-2.3-8.3c-0.2-0.6,0-1,0.3-1.4c4.5-6.9,8.9-13.8,13.4-20.7c0.2-0.4,0.5-0.7,0.6-1.2
		C228.4,133.8,228.9,134.5,229.5,135.1z"/>
	<path fill="#BF835B" d="M231.1,151c-0.4-1.1,0.2-2.2,0.3-3.2c0.3-2.5,0.7-4.9,0.9-7.4c0.1-0.9,0.9-1.3,1-2.1
		c0.7,0.2,0.8,0.5,0.6,1.2C232.9,143.3,231.9,147.1,231.1,151z"/>
	<path fill="#C1855C" d="M152.4,45c-0.9,2.9-1.6,5.5-2.4,8.2c-2.9,9.6-5.9,19.2-8.8,28.8c-0.2,0.7-0.6,1.3-1.1,1.8
		c-7.8,7.7-15.5,15.5-23.2,23.2c-0.6,0.6-1.2,0.9-1.9,1.2c-5.8,1.8-11.6,3.7-17.4,5.5c-0.2,0.1-0.4,0.1-0.7-0.1
		c10.1-9,20.1-18,30.2-27c-0.1-0.1-0.1-0.2-0.2-0.3c-7.3,3.9-14.6,7.9-21.9,11.8c0-0.1-0.1-0.1-0.1-0.2c0.5-0.6,1-1.2,1.6-1.8
		c6.5-6.6,13-13.2,19.5-19.8c0.9-0.9,0.9-2.1,1.1-3.2c1-5.1,1.8-10.3,2.7-15.4c0.2-1.2,0.8-2.1,1.4-3.2c3.8-7.1,7.5-14.3,11.3-21.4
		c0.4-0.8,0.9-1.6,1.5-2.3c-2.7,9-5.4,18.1-8.2,27.4C141.3,53.9,146.7,49.5,152.4,45z"/>
	<path d="M188.9,185.5c-1.1,0.3-2.1,0.3-2.7-0.7c-0.7-1.1-0.3-2,0.4-2.9c0.3-0.4,0.6-0.7,0.9-1.1c3-2.9,6.3-5.4,9.6-7.8
		c2-1.5,4.1-2.7,6.3-3.9c0.8-0.4,1.6-0.7,2.3,0.1c0.7,0.9,0.2,1.6-0.5,2.3c-3.7,3.9-7.9,7.2-12.1,10.4
		C191.6,183,190.3,184.3,188.9,185.5z"/>
	<path fill="#BF825A" d="M189,177.9c3.2-5.5,6.1-11.1,9.7-16.3c0.3-0.4,0.5-1,1.1-1.2c-1.2,2.6-2.7,5.1-4.1,7.5
		c-1.8,3.2-3.5,6.4-5.8,9.3C189.6,177.4,189.4,177.8,189,177.9z"/>
	<path fill="#B17955" d="M192.8,152.2c-0.9,1-1.7,1.9-2.6,2.9c-0.1-0.1-0.2-0.2-0.3-0.3c0.7-1.1,1.4-2.2,2.2-3.4
		C192.4,151.6,192.6,151.9,192.8,152.2z"/>
	<path d="M65.6,154.8c0.6-1.4,1.6-1.8,3.1-2c7-0.8,12.9,2,18.6,5.4c0.5,0.3,0.9,0.4,1.4,0.2c1-0.4,2-0.7,3-1
		c1.6,0.1,2.4,0.7,2.7,1.8c0.3,1.2-0.3,2.3-1.6,3c-1.7,1-3.5,1.5-5.3,2.2c-2.4,1-4.7,2.2-7,3.5c-4.5,2.4-8.8,5.1-13.6,6.9
		c-0.9,0.3-1.8,0.7-2.7,0.8c-1.9,0.3-2.8-0.3-3.6-2c-0.5-1.4,0.3-2.8,1.8-3.3c0.7-0.2,1.4-0.4,2.1-0.2c3.1-1.1,6.1-2.5,8.9-4.3
		c-1.7,0.1-3.4,0.4-5.1,0.4c-0.4,0-0.8,0-1.2,0c-0.9,0-1.7-0.5-1.9-1.4c-0.2-0.9,0.3-1.6,1.1-2c1.6-0.8,3.2-1.3,4.9-1.7
		c2.1-0.5,3.8-1.7,6.2-2c-0.9-0.5-1.5-0.7-2.2-0.8c-0.8,0-1.7,0.1-2.4-0.4c-1.4-0.1-2.9-0.2-4.3-0.2
		C66.4,157.6,65.7,156.8,65.6,154.8z"/>
	<path d="M160.3,146.4c1-0.1,1.9-0.1,2.7,0.7c1.1,1.2,0.8,3-0.7,4c-1.4,0.9-2.8,1.9-4.2,2.8c-0.1,0.2-0.2,0.4-0.4,0.5
		c-1.9,1.1-3.8,2.2-5.6,3.1c2.1,0,4.3,0,6.3,1.4c0.7,0.5,1.3,1.1,1.7,2c0.6,1.5-0.2,3-1.9,3.2c-0.7,0.1-1.4,0.1-2-0.2
		c-1.6-0.7-3.2-0.5-4.9-0.5c2,2.3,4.5,3.5,6.9,5c2.5,1.5,4.3,3.5,5,6.4c0.3,0.9,0.4,1.9-0.1,2.8c-0.6,1.5-1.4,2.2-2.6,2.1
		c-1.2-0.1-2-0.8-2.3-2.4c-0.4-2.2-1.6-3.7-3.5-4.6c-4.7-2.3-8.2-6.2-12.2-9.3c-0.4-0.3-0.6-0.5-1.2-0.2c-1.3,0.8-2.6,0.7-3.4-0.2
		c-0.8-0.9-0.7-2.3,0.2-3.5c0.5-0.6,1.1-1.1,1.7-1.5c2.8-1.8,5.9-3.2,8.9-4.7c3.4-1.7,6.7-3.5,9.8-5.7
		C159.1,146.9,159.7,146.6,160.3,146.4z"/>
	<path fill="#4CA3BE" d="M163.3,177.4c0.1-3.5-1.4-6.1-4.1-8.2c-0.3-0.2-0.6-0.5-1-0.7c0.7-3.3,4.9-4,7-2.4c0.7,0.5,1.5,1.1,1.7,2.1
		c-0.3,0.5-0.9,0.5-1.3,0.8c-1,0.6-1.4,1.5-1.2,2.4c0.3,0.9,1,1.3,2.3,1.3c0.3,0,0.6-0.1,0.9,0.2c0,0.2,0,0.3,0,0.5
		c-1.8,1.5-2,3.2-0.6,5.1c0.4,0.5,0.3,1.3,0.6,1.9c0.3,1.1,1,1.8,2.2,1.8c0.5,0,0.9,0.1,0.9,0.7c0.1,0.6-0.2,1-0.6,1.4
		c-0.6,0.5-0.3,1.3-0.4,1.9c-1,1.7-2.4,2.1-3.8,1.3c-1-0.6-1.2-1.5-1.1-2.6c0.1-0.7,0-1.2-0.6-1.7c-1.1-0.9-1.4-2.3-0.6-3.6
		C164.3,178.5,163.9,178,163.3,177.4z"/>
	<path fill="#4CA3BE" d="M64.4,170.3c-0.4,0.1-0.7,0.3-1.1,0.4c-2.2,0.3-2.8,1-2.8,3.1c-0.5,0-0.9,0-1.4-0.2
		c-0.9-0.2-1.7,0.4-1.7,1.4c0.1,1.1-0.2,2.2,0.2,3.3c0.2,0.8,0,1.7-0.7,2.2c-0.8,0.6-1.1,1.5-1.5,2.4c-0.5,1.1-1,2.2-2.2,2.7
		c-0.9,0.4-1.9,0.4-2.7-0.2c-0.9-0.7-1.1-1.6-0.8-2.6c0.2-0.6,0.2-1-0.3-1.5c-0.7-0.8-0.8-1.9-0.2-2.8c0.6-1,0.8-2.1,1.2-3
		c1-2.3,1.7-4.8,3.8-6.5c0.7,0.3,0.4,0.8,0.4,1.3c-0.2,1.5,0.2,2.3,1.3,2.6c1,0.3,2.3-0.3,2.9-1.3c1-1.7,0.4-3.8-1.4-4.8
		c-0.3-0.2-0.6-0.2-0.6-0.6c0.9-0.4,1.9-0.6,2.9-0.3c0.5,0.2,1-0.1,1.5-0.1c2.3-0.2,3.9,1.6,3.2,3.9C64.5,169.8,64.3,170,64.4,170.3
		z"/>
	<path d="M120.3,165.2c1.1,0.1,2,0.6,2.6,1.5c1.3,2,2.1,4.2,2.7,6.4c0.4,1.3-0.3,2.6-1.4,3.1c-1.1,0.5-2.3,0.1-3.1-1.2
		c-0.4-0.7-0.8-1.4-1-2.1c-0.5-1.4-1.1-2.8-1.9-4.1c-0.5-0.8-0.6-1.7-0.1-2.5C118.6,165.5,119.3,165.2,120.3,165.2z"/>
	<path fill="#C9CEE1" d="M56.9,166.1c2.4,1.1,3.2,2.4,2.7,4.6c-0.3,1.2-1.1,2.1-2.2,2.5c-1.8,0.6-3.4-0.9-3-2.8c0.1-0.5,0.4-1,0-1.5
		C54.5,167.4,55.2,166.3,56.9,166.1z"/>
	<path fill="#CF8175" d="M72.7,158c0.9-0.1,1.6,0.1,2.4,0.4c-0.6,0.4-1.1,0.9-1.7,1.3c-0.2,0.1-0.3,0.3-0.5,0.3
		c-0.3-0.1-0.2-0.4-0.2-0.6C72.7,158.9,72.7,158.4,72.7,158z"/>
	<path fill="#4489C8" d="M107.5,300c0.7,5-1.1,10-2.2,15.1c-0.6,2.7-0.6,2.6-3.4,2.1c-7.3-1.3-14.6-2.8-22-3.9
		c-3.9-0.6-7-2.3-10-4.6c-0.6-0.4-0.3-0.8-0.2-1.2c1.4-4.5,2.9-9,4.4-13.5c0.2-0.7,0.3-1.2,0-1.9c-1-2.3-1.9-4.6-2.9-6.8
		c-0.3-0.7-0.2-1,0.6-1.3c10.4-3.4,20.9-6.8,31.3-10.2c0.8-0.3,1,0,1.1,0.7c0.9,5.3,1.7,10.6,2.7,15.9
		C107.5,293.3,107.6,296.5,107.5,300z"/>
	<path d="M103.3,322.9c0.7,2.3-0.3,3.7-2.7,3.8c-2,0.1-4.1,0-6.1,0c-1.2,0-2.2-0.5-2.6-1.7c-0.4-1.2,0-2.2,1-2.9
		c0.7-0.4,1.4-0.5,2.2-0.5c1.6,0,3.2,0.1,4.7,0C101.2,321.6,102.3,321.9,103.3,322.9z"/>
	<path fill="#4489C8" d="M172.6,269.8c-0.3,0-0.8-0.2-1.3-0.4c-5.5-2.6-11.1-5.1-16.6-7.7c-0.7-0.3-1.3-0.8-1.7-1.4
		c-1.5-2.3-3-4.5-4.5-6.8c-0.4-0.6-0.6-1,0.3-1.3c2.4-0.9,4.8-2,7.2-3c0.5-0.2,0.8-0.1,1.3,0c5.8,2,11.5,4,17.3,6
		c0.5,0.2,0.8,0.4,1,0.9c1.9,3.8,3.8,7.6,5.7,11.5c0.3,0.5,0.3,0.9-0.4,1C178.2,268.9,175.5,269.3,172.6,269.8z"/>
	<path d="M141.7,320.6c-0.3,1.1-1.1,1.6-2,2c-4,1.9-8.2,2.3-12.5,1.8c-1.7-0.2-2.6-1-2.9-2.4c0.2-1.5,1.3-2.6,3.3-2.6
		c3.7,0.1,7.2-0.5,10.7-1.7C140.4,317.2,141.6,318.4,141.7,320.6z"/>
	<path fill="#010101" d="M116.2,320.9c-0.1-1.1,0.1-2.2,1.2-2.8c1.2-0.7,2.4-0.4,3.5,0.8c0.4,0.8,0.5,1.6,0.2,2.5
		c-0.6,1-1.3,1.7-2.5,1.6C117.2,322.9,116.6,322.1,116.2,320.9z"/>
	<path d="M137.5,338.6c0.4-1.3,1.3-2.1,2.6-2.1c2,0,3.8-0.7,5.5-1.6c0.9-0.4,1.8-0.9,2.8-1.4c1-0.4,2.1-0.7,3,0.1
		c0.9,0.7,0.7,1.8,0.5,2.7c-1.3,2.2-3.7,2.9-5.8,3.9c-1.8,0.8-3.6,1.3-5.6,1.3C138.4,341.5,137.6,340.7,137.5,338.6z"/>
	<path fill="#ECB9A5" d="M166.9,168.3c-1.1-0.9-1.8-2.2-3.4-2.5c-2.4-0.4-3.7,0.2-5.4,2.8c-2.7-1.5-5.4-3-7.7-5.7
		c1.8,0.1,3.5-0.3,5.1,0.4c0.6,0.2,1.2,0.5,1.9,0.5c1,0,1.9-0.3,2.4-1.3c0.4-1,0-1.8-0.6-2.5c-1.4-1.6-3.3-2.2-5.4-2.2
		c-0.9,0-1.8,0-2.7-0.2c2.3-1.2,4.6-2.5,6.9-3.7c0,0.8,1,0.6,1.3,1.1c0.8,1.3,1.7,0.8,2.7,0.4c3.3-1.3,6.6-2.5,10-3.7
		c0.7-0.3,1-0.2,1.5,0.5c1.6,2.3,1.6,4.2-0.3,6.6c-2.4,3-4.2,6.4-6.3,9.6C167,168.2,167,168.2,166.9,168.3z"/>
	<path fill="#ECB9A5" d="M170.1,184.1c0.1-0.5,0.3-1,0.4-1.5c0-0.4,0-0.8,0.3-1.1c1.4-2.3,0.5-4.6-0.8-6.6c-0.3-0.4-0.8-0.6-0.7-1.3
		c3.9-1.8,7.8-3.6,11.6-5.3c0.1-0.1,0.4-0.2,0.4-0.2c1,0.6,1,1.7,1.6,2.6c0.3,0.5,0.1,0.8-0.2,1.1c-4,4-8,8-12,12
		C170.5,183.9,170.3,184,170.1,184.1z"/>
	<path fill="#C9CEE1" d="M169.2,173.5c1.4,1.1,1.9,2.6,2.5,4.2c0.5,1.4,0,2.6-0.6,3.8c-0.2,0.3-0.4,0.7-0.6,1
		c-0.1-0.1-0.2-0.3-0.4-0.3c-1.9,0-2.6-0.4-3-2.2c-0.3-1-0.5-2-1.1-3c-0.9-1.4-0.2-2.9,1.6-3.9C168.1,173.2,168.7,173.4,169.2,173.5
		z"/>
	<path fill="#C9CEE1" d="M166.9,168.3c0,0,0.1,0,0.1,0c0.3,0.1,0.5,0.2,0.8,0.3c0.8,0.4,1.4,1.1,1.4,2c0,1.2-0.7,1.8-1.6,2.2
		c-0.2,0-0.5,0-0.7,0.1c-1.4,0.3-2.2-0.1-2.7-1.3c-0.4-1,0.1-2.2,1.2-2.8C165.8,168.5,166.3,168.3,166.9,168.3z"/>
	<path d="M115.3,226.2c1,0.1,1.7-0.1,2.5,0.1c1.2,0.3,2,1.2,2,2.4c0,1.2-0.8,2.2-2,2.5c-0.8,0.2-1.5,0-2.3,0
		c-2.6,0.1-5.1,0.1-7.7,0.2c-1.7,0-2.8-0.6-3.6-2.2c-0.9-1.8-1.4-3.6-1.4-5.6c0-2.5,0.1-5-0.1-7.4c-0.1-1.4-0.2-2.7,0.4-3.9
		c0.3-0.5,0.6-1,1-1.3c2.5-2.2,5.5-3.3,8.7-3.9c4-0.9,5.3,0.9,6.3,4.4c0.6,2.1,1,4.4,1,6.7c-0.1,3.2-1.3,5.6-3.8,7.4
		C116,225.7,115.7,225.9,115.3,226.2z"/>
	<path fill="#ECB9A5" d="M89.6,228.6c1.3-3.2,2.7-6.3,4-9.5c0.2-0.5,0.6-0.5,1-0.5c2.3,0,4.6,0,7,0c0.7,0,0.9,0.2,0.9,0.9
		c-0.2,3.1-0.5,6.2-0.7,9.3c0,0.7-0.5,0.6-0.9,0.6c-1.7,0-3.4-0.1-5.1-0.3C93.8,228.9,91.7,229.3,89.6,228.6z"/>
	<path fill="#ECB9A5" d="M121.6,227.4c0.5-0.4,1.1-0.8,1.5-1.3c1.7-1.7,3.5-3.4,5.2-5.2c0.6-0.6,0.9-0.8,1.3,0.2
		c0.9,2,1.8,3.9,2.8,5.8c0.2,0.3,0.5,0.8-0.3,0.8c-3.4,0-6.8,0-10.2,0C121.8,227.7,121.7,227.5,121.6,227.4z"/>
	<path fill="#4489C8" d="M67,338.4c5.4,2.7,10.9,5.4,16.3,8.2c0.7,0.4,1.4,0.3,2.1,0.2c3.5-0.4,7-0.7,10.5-0.9c0.1,0,0.2,0,0.4,0
		c2.4-0.2,2.4-0.2,2,2.1c-1.3,6.9-2.8,13.9-3.9,20.8c-0.3,1.7-1.2,2-2.5,2.4c-6,1.6-12,3.3-18,4.9c-0.6,0.2-1.1,0.1-1.6-0.2
		c-3.9-2.5-7.8-5-11.8-7.4c-1.3-0.8-1.3-1.7-1.1-2.8c0.4-2.3,0.1-4.6,0.4-6.9c0.3-2.8,0.2-5.7,0.3-8.5c0.2-4.5,0.5-9,0.7-13.5
		c0-1,0.7-0.8,1.2-0.8c0.4-0.1,0.7,0.1,0.9,0.4c1,1.1,2.2,1.8,3.7,1.8C66.7,338.2,66.9,338.3,67,338.4z"/>
	<path d="M67,338.4c-2.2,0.3-3.6-1-5-2.4c-0.5-0.7-1.1-1.2-1.8-1.5c-1.3-0.6-2.1-1.7-2.8-2.8c-0.8-1.2-0.3-2.3,1.3-3.4
		c1.4-0.3,2.4,0.2,3.6,1.2c1.8,1.4,3.1,3.4,5.4,4.2c1.4,0.5,1.8,1.8,1.2,3.3C68.4,337.7,67.7,338.1,67,338.4z"/>
	<path d="M89.7,340.6c0.4-1.3,1.3-1.9,2.6-1.9c1.2-0.1,2.4-0.1,3.6,0c1.4,0.1,2.2,0.8,2.6,2.2c-0.1,2-0.9,2.8-3,2.9
		c-0.8,0-1.7,0-2.5,0C90.5,343.7,89.9,343.1,89.7,340.6z"/>
	<path fill="#010101" d="M117.8,334.9c0,1.3-1.1,2.3-2.3,2.3c-1.3,0-2.4-1.1-2.3-2.4c0.1-1.3,1.1-2.3,2.4-2.2
		C116.8,332.5,117.8,333.6,117.8,334.9z"/>
	<path d="M132.7,257.1c-0.5-1.8,0.2-3.2,1.9-3.4c2.4-0.3,3.8-1.7,5-3.5c0.4-0.7,1.1-1.2,1.8-1.5c1-0.5,2-0.6,2.8,0.3
		c0.3,0.6,0.3,1.2,0.2,1.7c-0.6,4.1-5.1,8.2-9,7.9C134.3,258.5,133.4,258.1,132.7,257.1z"/>
	<path fill="#000101" d="M123,270.1c-1.3,0-2.4-1-2.4-2.3c0-1.3,1.1-2.4,2.4-2.4c1.5,0,2.7,1.1,2.7,2.3
		C125.7,269,124.5,270.1,123,270.1z"/>
	<path fill="#C9CEE1" d="M50.1,182.3c0.1-0.5-0.1-0.9-0.3-1.4c-0.6-1.5-0.2-2.9,1-3.7c1-0.8,3.1-0.8,4.1-0.1c1.4,1,1.4,3.2-0.2,4.1
		c-0.5,0.3-0.8,0.5-0.7,1.2c0.1,1.5-0.6,2.3-1.9,2.3C50.8,184.6,50.1,183.9,50.1,182.3z"/>
	<path fill="#833460" d="M108,220c0-1.5,0.1-3,0-4.4c-0.1-1.4,0.7-2,1.7-2.3c1.2-0.4,2.4-0.7,3.5-1.1c0.6-0.2,0.9-0.1,0.9,0.4
		c0.1,1.8,0.9,3.4,1,5.1c0.1,1.5-0.3,2.6-1.6,3.5c-0.9,0.6-1.9,1.2-2.7,2c-0.5,0.6-0.9,1.2-1,2c0,0.6-0.1,1-0.8,0.9
		c-0.7,0-1.1-0.3-1.1-1.1C108,223.4,108,221.7,108,220C108,220,108,220,108,220z"/>
</g>
</svg>
