<?xml version="1.0" encoding="utf-8"?>
<!-- Generator: Adobe Illustrator 18.1.1, SVG Export Plug-In . SVG Version: 6.00 Build 0)  -->
<svg version="1.1" xmlns="http://www.w3.org/2000/svg" xmlns:xlink="http://www.w3.org/1999/xlink" x="0px" y="0px"
	 viewBox="0 0 1000.2 2103" enable-background="new 0 0 1000.2 2103" xml:space="preserve">
<g id="Layer_6">
</g>
<g id="Layer_2">
	<path fill="#B77B68" d="M865.1,837.9c-6.3-14.9-57.2-134-63.2-146.3c-17.7-36.3-59-84.8-77-120.9c4.9,43.5,15.4,396.9,23.1,455.7
		c9.3,49.5,2.9,115.3-34.1,374.9c28.5-26.4,157.1-150.3,159.9-224.9c-2.6,14.8-1.2,11.7-5.6,46.7c-3.2,25.7-12.1,136.8-20.2,164.3
		c10.1-17.4,76.8-108.2,81.9-127.5c11.9-45.1-33.2-122.5-33.2-182C892,944.8,877,866.3,865.1,837.9z"/>
</g>
<g id="Layer_4">
	<path fill="#E29A96" d="M715.1,1557.7c-15.3-45.6-17.3-38.4-30.6-84.6c-1.2-4-2.1-8-3.1-12c1.6-6.8,7.4-5.9,12.1-6.2
		c13.3-0.6,26.7,0.1,40.1-1.9c7.7-1.1,12.3,1.3,12.7,10.8c0.3,6.6,0.6,13.9,4.2,20.1c2.6,3.1,1.4,6.8,1.5,10.2
		c-5.4,14.9,5.5,23.9-0.2,38.7C749.9,1537.5,723.5,1554.2,715.1,1557.7z"/>
	<path fill="#FAE6CB" d="M747.7,1501.7c0.9,5.7,1.1,11.6,3,17c2.5,7,0.2,10.3-5.9,13.8c-5.6,3.2-11.5,6.5-15.4,12.1
		c-9.2,5-12,2.2-12.6-8c-0.9-13.6,2.5-25.7,9.1-36.8c6.3-10.7,8-24.1,18.4-32.5c0,0.6,0,1.1,0.1,1.7
		C743.9,1480,750.1,1490.4,747.7,1501.7z"/>
	<path fill="#353138" d="M677.5,1407l80.2-1c0,0-2.1,41.9-2.1,53.7c-3.1,7.3-19.5,2.7-38.2,5.5c-15.5,2.3-45.7,15.1-48.2,9.2
		C663.5,1461.3,677.5,1407,677.5,1407z"/>
	<path fill="#3F3A43" d="M242.8,1609.5c0,0-53.8,135.2-81.2,247.2c-27.3,112-14.7,183.3-14.7,183.3l446.4,34.4l195.8-33.8
		L734,1776.4l-68.6-301.6H303.1L242.8,1609.5z"/>
	<g>
		<path fill="#FAE6CB" d="M180.9,1517.2c-0.5-11.4-1-22.8-1.5-34.3c2.3-8.9-0.2-17.6-0.9-26.4c3-7.1,8.1-4.3,12.5-2.3
			c17.6,8,36.2,12.5,54.9,16.7c6.5,1.5,11.8,4,14.8,10.2c2.8,18.6,5.1,37.3,2,56.1c-3.5,5-8.8,4.7-13.5,3.6
			c-16.8-3.9-34.7-2.5-50.7-10.4C191.7,1527.2,185.7,1523.1,180.9,1517.2z"/>
		<path fill="#E29A96" d="M180.9,1517.2c24.2,17,52.1,19.3,80.4,20.5c0.8,0.2,1.3,0.7,1.4,1.3c0.1,0.7,0.1,1-0.1,1.1
			c-1.2,11.3,3.6,22.5,0.4,33.8c-6.2-1.7-11.8,0.8-16.1-5.6c-3-5.8-6.6-11.4-10-9.7c-7.9,0.4-14.7-1.7-18.8-9.2
			c-2.2-4-3.9-4.5-7.7-6.1c-0.8-0.3-8.3-1.3-9.1-1.7c-3.3-1.6-5.4-6.1-8.4-8C186,1529.1,183.8,1526,180.9,1517.2z"/>
		<path fill="#E29A96" d="M264.2,1517.2c-6.5-25.4-12.3-42.1-17.2-43c-20.6-4-41-8.9-59.9-18.5c-2.9-1.5-5.3-1.9-7.6,0.8
			c-0.4,1.4-1.1,1.7-2.1,0.7c-0.7-5.1-1.5-10.1-2.2-15.2c2.6-1.8,5.6-1.8,8.4-1.1c19.7,5,40.2,5.4,60,10c3-0.7,20.4,3.1,23.3,2.4
			C277.1,1459.1,271.3,1518.8,264.2,1517.2z"/>
	</g>
	<path fill="#353138" d="M174.3,1405.9l114,5.6c0,0-1.1,33.2-1.1,45c-3.1,7.3-54.3,4.8-73,7.5c-15.5,2.3-40-5.4-42.6-11.2
		C166,1439.8,174.3,1405.9,174.3,1405.9z"/>
	<path fill="#DFD6E7" d="M688.9,1457.4c25.6-2,37.6-5.1,66.7-3.4c-0.1-2.2,0.1-5.4,0.1-5.4s-32.9-1.8-48.9,1.6
		c-14.2,3-18.3,1.6-18.3,1.6L688.9,1457.4z"/>
	<path fill="#DFD6E7" d="M688.5,1444.3c25.6-2,38.7-5.1,67.8-3.4c-0.1-2.2,0.1-5.4,0.1-5.4s-32.6,0.5-48.9,1.6
		c-14.3,0.9-18.3,1.6-18.3,1.6L688.5,1444.3z"/>
</g>
<g id="Layer_3">
	<g>
		<path fill="#353138" d="M296.8,1420.4l394.4,0c0,0-5.8,42.5-5.8,54.3c-3.1,7.3-315.3,6.2-334,9c-15.5,2.3-51.3,2.1-53.9-3.8
			C291.8,1467,296.8,1420.4,296.8,1420.4z"/>
		<path fill="#292332" d="M185.9,1770.6c4.2,12.3,2.3,35.1,0.1,47.4c-4.3,23.9-0.9,47.2-10.6,69.7c1-12.8,2.5-35.9-0.9-37.5
			c-7.2-1.8-13.4,32.8-19.6,37.5C161.1,1858.9,174.1,1796,185.9,1770.6z"/>
		<path fill="#292332" d="M147,2040.1c6.5-19.8,20-35.6,31.8-52c18.8-25.9,34.1-53.2,45.8-82.8c2.1-5.4,5.2-10.4,8.1-16.2
			c3.5,4.4,1.7,8,0.4,11.6c-15.8,47-33.5,93.3-52.1,139.3c-1.2,2.9-0.8,8.4-6.8,5.8C163.9,2049.3,155,2047,147,2040.1z"/>
		<path fill="#292332" d="M777,2061.1c-9.6,0.3-11.2-6.7-12.5-13.9c-5.7-32.4-13.4-64.6-15.1-98c5,14.5,10,29,15.2,43.4
			c2.1,5.9,4.5,11.9,12.2,12.7c5,16,10,32.1,15,48.1C787.5,2057.1,783.6,2061.7,777,2061.1z"/>
		<path fill="#3F3A43" d="M869.7,1978.1c1.4,3,3.2,5.9,2.5,9.5c-0.3,0.5-0.5,1-0.8,1.6c-22.3,18.6-45.8,35.6-68.3,53.8
			c-0.5,0.4-34,36.2-93.6,37.6c-11.2,0.3-23,12.8-35.5,12.8c-22.6,0-47.9,10.5-73.6,9.6c-92.1-3.4-205.7-2.3-292.6-14.8
			c-13.7-2-30.2,1.7-42.8-0.3c-40.5-6.4-65-39.6-87.6-40.4c-17.9-0.6-30.3-4.7-30.4-7.3c-19.2-22.1,636.8-1.2,636.5-2.2
			c-0.1-2.9,0.4-5.8-0.1-8.7c-4.4-15.7-10.3-30.9-14.5-46.6c-7.6-27.8-21.3-53.6-27.5-81.8c-12.7-57.1-29.8-112.9-45-169.3
			c-19.6-72.6-37.9-145.4-56.8-218.1c-3.7-14.1-0.7-22.9,10.1-31.4c18.5-14.6,19.1-14.6,28,6.9c14.7,35.5,30.7,70.4,49,104.2
			c0.9,1,1.8,2,2.5,3.2c4,11.8,24.5,99.6,48.9,166.8C814,1862.5,858.4,1953,869.7,1978.1z"/>
	</g>
	<path fill="#2B2331" d="M379.8,1730.7c-7.5,24.9-24.1,181.3-39.8,239.9c-9.9,37-20.3,73.8-30.4,110.7c-0.7,2.6-2.3,4.4-4.6,5.6
		c-14.3,3.9-28.5,4.4-42.8-0.3c31.2-57.5,62.2-115.2,84.7-176.8c12.7-34.8,20.5-155.1,18.6-176.2l4-11"/>
	<path fill="#292332" d="M405.1,2087.1c6-25,33.7-126,38.3-151.4c4.3-23.7,6.1-47.8,6.9-71.7c1.2-35.5-1.4-71.1,0.7-106.5
		c3-50.9,0-101.8,2.6-152.5c1.4-26.6-11.2-106-40.4-112.7c0.8,14-28.9,229.1-34.5,242c-1.5,3.4-13.9,52.4-13.2-0.6
		c0-2.5,32.7-221.6,32.3-242.5c-11.8,1.2-23.3,6.8-44.3,54.9c-39.1,89.5-90.8,261.6-114.3,321c4.4-14.6,8.5-29.2,13.1-43.8
		c18.7-59.6,33.9-120.2,50.9-180.2c3.8-13.5,51.3-140.9,3.2-163c-9.6,21.7-30.1,73.1-36.6,89.8c-5.6,14.4-27.6,52-32.6,54.2
		c6.9-15.1,35.9-110.5,54.5-149.8c1.8-3.9,4-7.4,8.9-7.6c8.2,2.3,343.4,21.7,373.5-1.8c3.5-2.7,6.6-6.8,12.1-4.8
		c2.9,2.1,4.1,5.2,5,8.4c9.2,33.6,36.9,125.4,37.8,127.6c2.1,7.1,2.7,11.5,6.2,22.6c-18.8-34.8-37.2-59.8-51.9-96.4
		c-6.3-15.8-25.6-34.6-46.1-35.5c4.1,18.5,6.9,34,10.7,49.5c29,115.7,60.3,230.7,91.9,345.6c6.6,23.8,11.3,48.2,19.3,71.7
		c5.9,17.2,14.2,33.7,17.7,51.7c-7,3.3-10.1-2-12.5-6.5c-7-13.5-12-27.7-13-39.5c5.3,27.2,10.9,57.9,17,88.5c1.2,6.2,6.8,8,9.6,12.4
		c-2.5,7.7-7.6,11.7-15.9,11.1c-2.4-25.7-9.7-50.5-13.9-75.9c-7.1-42.5-13.9-85.1-21.6-127.5c-4.3-23.7-9.5-47.2-15.3-70.6
		c-16.8-67.3-35.8-134.1-57.6-200c-5.9-17.7-27.9-95.6-35.2-108.8c-12.4,12.5-22.7,41.2-9.2,118.3c15.3,70.1,20.5,130.5,35.2,200.7
		c9.4,44.7,22.5,88.6,33.5,132.9c11.1,44.8,21.5,89.7,32.4,134.5c0.5,2.1,1.2,3.9-0.7,5.6c-9.6,1.1-16.8,7.8-25.5,11.1
		c-3.2,1.3-6.1,4.6-10,1.7c0-4.2,0-8.4,0-12.7c-4.6-7.9-5.9-16.6-5.9-25.4c0.2-79.1-12.9-156.5-31.9-232.9
		c-16-64.1-26.7-129.4-46-192.7c-2.9-9.6-6.1-19.1-8.4-28.9c-1.6-6.9-9.6-47.4-25.1-76.9c-12.1-23.1-31.7-37.7-38.2-35.5
		c23,123.4,47.8,286.8,62.6,408.2c6.6,54.3,13.4,108.7,20.7,162.9c0.8,6.3-0.8,12.4-0.6,18.6c0,5.8,0.1,11.7,0.1,17.6
		c1.4,2.8,1.4,7.9-0.9,7.2c-8.4-2.6-16.7,0.5-24.7-1.2c-4.9-1-5.2-6.1-5.5-10.3c-0.7-9.2-0.9-18.4-0.2-27.6
		c6.2-81.3,0.2-161.9-13.6-242.2c-12.6-73.4-23.3-147-33.4-220.8c-2.1-15.1-14-87.7-20.2-110.5c-3.5,1.9-18.3,10.2-26.4,46.5
		c-8.2,36.6-9.8,101.3-10.2,127.7c-0.7,48.4-0.8,96.9-4.5,145.3c-2.4,31.4-0.6,62.6-0.5,93.9c0.1,38.3-1.4,76.9-5.3,115.1
		c-2.2,21.3-2.1,51.1-2.9,72.4"/>
	<path fill="#292332" d="M729.6,1596.7"/>
	<path fill="#2B282D" d="M294.2,1382.3l394.4,0c0,0-5.8,42.5-5.8,54.3c-3.1,7.3-315.3,6.2-334,9c-15.5,2.3-51.3,2.1-53.9-3.8
		C289.2,1428.9,294.2,1382.3,294.2,1382.3z"/>
</g>
<g id="Layer_1">
	<path fill="#B77B68" d="M224.7,895.2c6.3-14.9,57.2-134,63.2-146.3c17.7-36.3,35.9-72.3,54-108.5c-4.9,43.5,7.7,384.4,0,443.3
		c-9.3,49.5-3.3,71.4,33.7,331c-28.5-26.4-156.7-106.4-159.5-181c2.6,14.8,1.2,11.7,5.6,46.7c3.2,25.7,10.8,55.9,18.9,83.4
		c-10.1-17.4-16.6-36.2-21.7-55.5c-11.9-45.1-25.6-113.6-25.6-173.1C197.8,1002.1,212.8,923.6,224.7,895.2z"/>
	<path fill="#B77B68" d="M380.6,354.3c-0.7,0.7,354.6-19.8,360.1,3.1c4,16.3,1,119.3,0,130.4c-2.4,14.8,11.9,260.2,8.4,260.7
		c-16,2.4-193.8,20.2-195.2,36.3c-0.3,3.7-235-37.3-237.9-40c-11.9-11.1,27.9-193.1,19.8-207.4c-2.3-7.6,1.7-164.5,7.8-179.4
		c1.9-4.5,3.5-8.4,8.9-9.2C359.8,351.7,378.7,353.1,380.6,354.3z"/>
	<path fill="#FDE08A" stroke="#917632" stroke-miterlimit="10" d="M17.3,1305.8c-1.2-21.7-7.3,26.2-4.7,45.3c0.1,4,4.8,36.7,7.5,45
		c-4.5-5.1-19.5-57.5-19.5-86.6c-0.1-45.8,3.7-72.9,9.3-118.1c12.1-44.2,25.9-87.8,46.6-128.9c20.5-40.6,45.2-78.6,70.8-116.2
		c38-55.8,70.7-114.9,104.4-173.4c7.8-13.5,94.6-175.4,97.4-178.6c1.6-1.8,34-8.4,28.1,9.4c-4.2,12.6-79,185.8-90.6,205.9
		c-28.9,50.2-42.7,104.9-52.4,161.2c-6.7,38.7-15.5,77.2-16.9,116.5c-1.9,53-4.5,106.2,12.6,157.8c0.3,0.8,0.6,1.6,0.7,2.4
		c0.7,4,3.5,9.4-1.3,11.2c-4.2,1.5-6.9-3.7-8.9-7.3c-6.4-11.9-10.5-24.6-12.9-37.8c-7.4-40.3-10.6-80.8-8.9-122
		c1.6-36.9,6-73.2,12.8-109.4c1.2-6.2,3.3-11.9,5.6-17.6c-16,40.3-35.5,79.1-46.2,121.4c-2.7,14.3-10.8,26.9-13.2,41.3
		c-4.8,23-9.6,46-14.4,68.9c-6,17.1-13.6,86.3-15.7,103c0,0-0.2,76.5,0.5,117.9c5,24.7,12.2,48.6,23.8,71.2c3,5.8,6.7,11.1,9.9,17
		c-17.8-11-33.1-24.7-47-39.9c-18-19.7-35.7-39.6-48.4-63.4C41.3,1392.8,16.8,1314.5,17.3,1305.8z"/>
	<path id="hair_front_2_" fill="#F8E3D4" d="M736.6,334.6c6.8,30.4-54.9,162.8-52.8,114.5c0.9-21.2,9.1-47.3,9.2-68.5
		c0-3.2-0.2-5.9-2.7-8.3c-27.3-26.9-48.3-58.9-61.6-96.9c-0.2-0.5-0.6-0.8-1.3-1.7c-11.2,38.3-26.4,74.3-43.6,109.9
		c-0.7-17.3-1.5-34.5-2.3-53.6c-8.3,16.2-16.1,30.7-23.3,45.5c-10.9,22.4-28.4,34.8-49.6,41.9c-6.4,2.1-8.3,0.7-5.4-5.6
		c6.1-13.5,1.4-23.4-5.3-34.6c-17.8-29.8-32.6-61.6-45.9-94.2c-0.8-1.8-1.6-3.6-2.8-6.4c-11.4,38.2-10.4,75.5-7,113.2
		c-9.1-30.5-11-61.1-10.1-94.2c-3.5,3.2-4.4,7-6,10.3c-14.1,28.6-30.5,55.2-51.8,77.7c-2.7,2.8-4,5.7-4.2,10.1
		c-1.2,39.7,10.7,74.8,30.3,107.2c1.8,3,3.8,5.9,6.1,9.5c-4.4,0.3-8-1.2-11.5-2.6c-4-1.5-8-3.1-11.8-5.1L281.3,459
		c-0.8-9.5-2.2-31.3-2.3-36.3c-0.3-18.5-1-37.1,1-55.6c2-19.1-3.9-37.2-6.1-55.8c-2.1-17.9-5.3-35.6-4.9-53.7L486.7,68L736.6,334.6z
		"/>
	<path fill="#9A7D82" d="M572,317.6c0,0,57.8-18.4,109.6,3.5c51.8,21.9-15.2-6.4-44.1-5.2S554.6,324.6,572,317.6z"/>
	<path fill="#9A7D82" d="M485,314c0,0-57.8-18.4-109.6,3.5c-51.8,21.9,15.2-6.4,44.1-5.2C448.5,313.5,502.4,321,485,314z"/>
	<path fill="#424242" d="M712.7,1415.4c0.6,16.5-11.2,21.2-27.4,22.3c-53.5,3.5-340.8-1.2-416.7-12.7c-11.7-1.8-16-13-16.1-14.5
		C248.8,1363.1,712.7,1415.4,712.7,1415.4z"/>
	<path fill="#424242" d="M791.5,744.1c34.3,54.7-6.4,157.2-9.2,217.4c-3.3,72.6-21.1,156.1-21,228.5c0.1,67,3.7,133.2,7.6,201.1
		c0.8,13.5-1.1,23.3-5.2,25.8c-19,0-5.8,3.7-51-1.5c-127.2,0-334.7-25.3-460.3-4.9c-39.2,6.4-29.7,7.2-51.3,10.1
		c-2.5,0.3-12.5-0.9-21.2,0c-6.3,0.7-11.9,5-13.8,0c-3.3-15.2,51.1-232.6,55.1-256.2c11.4-66.8,9.5-138.8,9.6-207.5
		c0-20.5-14.1-190.2,13.3-200.4L791.5,744.1z"/>
	<path fill="#3F414E" d="M712.7,1415.4c-18-44.1-2.9-350.7,4.8-387.9c6.9-33.3,7.2-54.1,6.8-66c-0.2-5.9,0.8-11.4,0.6-21.5
		c-0.2-10.1-1.5-72.4-2.2-72.6c3.8,1.1,17.2,118,46.7,146.6c11.8-94.8,47.1-233.4,3.4-229c-0.8-10-51.3,44.7-49.5,34.9
		c45.6-50.1,12.5-42.2-10.3-45.9c28.9-11.6,46.1-20.8,78.6-29.9c34.7,43.3-1.5,219-17.7,305.4c-4.8-10.7-32.6-66.3-45.1-97.2
		c-0.4,2.4-0.1-0.3-1.4,9.1c-11.5,88.1-51.3,458.5,27.3,453.8C741.7,1426.9,712.9,1415.3,712.7,1415.4z"/>
	<path fill="#3F414E" d="M227.8,819.7c0-17.2,0.6-21.7,3.3-34.7c2.5-11.6,2.7-18.1,7.2-25.2c8.8-6.5,13.9-4.3,20.8-3.1
		c26.9,4.4,137.3,13.2,90.4,28.3c-15,6.1-69.8-11.8-94-14.9c4.3,10.4,21.5,41.3,23.6,48.9c-4.9-1.8-29.8-37.3-34.2-46.6
		C242.4,766.7,231.7,815.2,227.8,819.7z"/>
	<g>
		<path fill="#FFFFFF" d="M597.7,990.9c4.3,6,7.6,12.7,11.3,19c11.6,43.2,23.5,86.2,43.3,126.9c2.8,5.9,5.7,11.8,9.3,19.3
			c-9-3.8-25-17.6-27.2-20c-19.8-22-41.9-42-62.2-63.7c-16.5-17.7-27.4-37.3-33.2-60.1c-7.1-27.8-16.3-55-22.6-83
			c-0.8-3.4-2.1-6.8-1-10.4c2.9-5.3,15.8-3,26.1-4.2C547.9,916.6,582.4,969.5,597.7,990.9z"/>
		<path fill="#FFFFFF" d="M509.2,919.6c0.8,15.1-6.5,28.4-10.8,42.1c-10.4,33.1-20.9,66.2-32.3,99c-7.9,22.6-24.2,38.7-39.4,55.8
			c-18.9,21.3-39.3,41-58.2,62.3c-2.9,3.3-33.6,33.6-35.4,35.6c-1.9,1-4.1,0-3.4-3c4.9-11.1,9.7-22.2,14.6-33.3
			c16.3-40.9,38.5-107.7,42.4-133.9c2.4-17.3,7.3-28.3,16.1-37.4c27.6-28.8,52.3-60.2,80.2-88.8c2-2.1,3.8-4.4,7-4.9"/>
		<path fill="#353138" d="M513.9,910.4c-4.1,0-8.4-0.6-13.1-0.7c-5,0-9,0.7-11.7-3.5c-1.3-7.4-3.8-22.5,3-31.8
			c13.2,0,26.5,0.3,39.7,0c6-0.1,7.8,2.3,8.3,7.9c0.4,4.3,1.2,20-5.3,26C529.2,913.5,516.5,909.3,513.9,910.4z"/>
		<path fill="#FFFFFF" d="M486.5,873.2c-29.9-0.1-110.5-10.8-110.5-49.1c-2.7-15.6,9.2-48.2,16.3-44.8
			c20.7,9.9,85.4,59.9,106.1,69.7c1.9,0.9,3.4,2.4,5,3.7c5.3,4,10.9,19.6,5.7,19.5C500.4,872.1,495.3,872.3,486.5,873.2z"/>
		<path fill="#DFD6E7" d="M485,924.7c3,1.9-4.7,6.6-6.1,8.3c-7.7,9.3-15.3,18.7-22.5,28.5c-6.1,8.3-12.3,16.7-13.2,27.8
			c-2.1,26.6-72.4,152.6-88,172.2c28.2-63.3,35.2-128.5,42.5-137.3c11.9-18.1,59.4-71.1,72.2-88.6
			C473.3,930.8,482.5,922.6,485,924.7z"/>
		<path fill="#DFD6E7" d="M523.2,927c2,12.2,15.1,53.1,25.5,64c18.7,19.7,19,45.2,25.3,69.2c-7.4-7.5-14.4-15.2-18.2-25.1
			c-5.9-15.1-10.3-30.8-15.6-46c-6-17.1-12.6-46.2-19.8-60.9C516.9,921.5,522.8,924.9,523.2,927z"/>
		<path fill="#FFFFFF" d="M538.7,873.2c29.9-0.1,111.7-2.4,111.7-64.7c2.7-15.6-40.9-43.2-48-39.9c-20.7,9.9-54.9,70.6-75.7,80.4
			c-1.9,0.9-3.4,2.4-5,3.7c-5.3,4-10.9,19.6-5.7,19.5C524.8,872.1,529.9,872.3,538.7,873.2z"/>
	</g>
	<g id="SHIRTNECK">
		<path fill="#353138" d="M244.1,756.3c0,0,209-82.4,225.3-118.4c16.3-36,105.6-30.7,123.8,5.4s198.3,100.7,198.3,100.7
			s-72.2,32.7-148.4,60.5s-88.1,40.7-121.7,49c-33.7,8.3-61.1-27.2-145.7-53.1S244.1,756.3,244.1,756.3z"/>
		<path fill="#DFDBDA" d="M495.5,835.3c-16.3-7.4-63.8-31.1-111.6-48.6c-46.4-16.9-93.1-27.6-109.8-31.9c0,0,90.3,28.8,105.5,34.1
			C394.8,794.3,495.5,835.3,495.5,835.3z"/>
		<path fill="#DFDBDA" d="M526.5,831.8c16.3-7.4,63.8-31.1,111.6-48.6c46.4-16.9,93.1-27.6,109.8-31.9c0,0-90.3,28.8-105.5,34.1
			S526.5,831.8,526.5,831.8z"/>
		<path fill="#DFDBDA" d="M475.7,808.4c-16.3-7.4-9.1-8.9-56.9-26.4c-46.4-16.9-93.1-27.6-109.8-31.9c0,0,90.3,28.8,105.5,34.1
			S475.7,808.4,475.7,808.4z"/>
		<path fill="#DFDBDA" d="M462.1,779.2c-46.4-16.9-107.9-32.7-124.6-37L462.1,779.2z"/>
		<path fill="#DFDBDA" d="M553.9,805.7c16.3-7.4,9.1-8.9,56.9-26.4c46.4-16.9,101.3-32.8,118-37.1c0,0-98.5,34-113.7,39.3
			S553.9,805.7,553.9,805.7z"/>
		<path fill="#DFDBDA" d="M588.1,769.8c46.4-16.9,107.9-32.7,124.6-37L588.1,769.8z"/>
		<path fill="#DFDBDA" d="M512.6,742.2c-18.8,6.2-20.9,7.9-34.2,18.5L512.6,742.2z"/>
		<path fill="#DFDBDA" d="M521.3,742.2c18.8,6.2,20.9,7.9,34.2,18.5L521.3,742.2z"/>
	</g>
	<g id="NECK">
		<path fill="#B48790" d="M599.1,558.6c-7.4,12.7-7.8,26.7-7.5,40.8c0.2,9.6-0.1,19.1-0.2,28.7c-0.3,5.8,3.9,44.4-1.9,49.4
			c-3.8-7.1-2.4-46.4-1.3-53.8c2.6-17.7-0.9-35.7,2.3-53.4c0.4-2.4-2.6-2.7-4.6-2.9C590.3,564.5,594.7,561.5,599.1,558.6z"/>
		<path fill="#A68591" stroke="#59332B" stroke-miterlimit="10" d="M459.1,654c0-6.9,0-81.3,0-88.3c2.8,2,7.3,5.1,10.1,7.1
			C458.9,573.5,465.1,650.9,459.1,654z"/>
		<path fill="#E29A96" d="M462,572.9c-0.2-7,38.7-19,55.8-11.3c8.9,5,24.2,4.6,33.2-2.9c10.6-5.6,24.2,14.4,34.8,8.8
			c8.8-2.7,7.4,3.4,7.1,8.3c-1.3,18.6,1.6,37.4-2.5,55.9c-0.8,3.6-0.4,7.5,0.8,11.1c0.4,1.4,0.7,2.8,0.8,4.2c0.3,3.4,0.3,6.8-1.4,10
			c-4.2,4.6-8.5,1.6-12.5-0.2c-37.8-16.7-75.1-34.2-107.1-61c-2.3-1.9-7.5-6-8.6-6.6C461.7,578.8,461.8,578.6,462,572.9z"/>
		<path fill="#FAE6CB" d="M462.3,589.2c4.5-3.7,7.7,1.7,10.1,3.8c26.9,23.1,58.2,38.6,89.9,53.6c8.6,4.1,17.5,7.8,26.2,11.7
			c5.9,4.9,3.1,11.8,4.2,17.8c9.8,26-3.7,46.3-16.5,66.7c-1.9,3-4.7,4.7-8.4,4.1c-5.1,0.7-9.8-0.7-14.3-3.1c-4.4-2.3-9-4.5-12.9-7.5
			c-16.2-12.3-31.5-11.4-47.2,1.3c-6.3,5.1-12.9,10.8-22,10.7c-5.5-0.4-10.1-3-12.2-7.7c-7.2-16.2-13.2-32.5-5.1-50.5
			c4.9-10.9,5-22.7,5.9-34.4C461.8,633.9,461.3,596.6,462.3,589.2z"/>
		<path fill="#E29A96" d="M561,746.7c11.7-1.8,17.9-13.5,22.6-21.1c9.4-15.1,6.9-76.5,8.4-84.4c7.7,11,20.8,21,26.8,25.1
			c5.4,3.8-4.9,16.3-12.1,29c-9.3,16.2-18.9,32.2-27.8,48.6C575.6,750,561.1,747.4,561,746.7z"/>
		<path fill="#E29A96" d="M477.8,747.5c2-0.8-0.8,0.7-7.2,2.6c-4.9,1.9-8.2,2.1-11.3-4.1c-11.2-22.7-21.4-45.6-28.1-70.1
			c-1.5-5.5,0.3-6.7,5.9-10.3c6.9-4.5,15.2-11.9,23.3-16.9c0.4,2.8-1.4,34.4-1.9,45.8C455.7,712.5,456.2,746.2,477.8,747.5z"/>
	</g>
	<path fill="#3F414E" d="M299.7,940.8c-3.2-5,2.2-22.3,2.6-32.5c0.7-17.1,1.3-34.1,0-38c-1.8-5.7-4.9-9.2-9-20.1
		c4.2,4.7,10.3,11.2,12.5,18.1c1.2,4.1,1.1,21.4,0,34C304.4,917.6,301.2,928.8,299.7,940.8z"/>
	<path fill="#3F414E" d="M201.1,1420.5c74.5-43.6,94-287.6,83.5-374.2c-4.5,12.9-71.3,164.2-72,164.1c13-84.2,17.9-161.6,18.5-248.9
		c7.8,4.6,11.7,121.8,9.9,139c22.9-10.2,43.6-71,52.2-108.2c-1,6,4.5,19,3.4,43.1c-4.6,93.9-2.9,307.7-34.2,387.5
		C239.5,1428.8,212.4,1420.3,201.1,1420.5z"/>
	<path fill="#3F414E" d="M218.3,1171.6c5.7,10.3-11.2,52-12.7,61.7c-8.6,56.6-18.2,113.1-32.4,168.7c-4.9,19.1,1.6,0.6-7.1,18.6
		c2.5-31.6,2.6-37.3,11-74.6C187.8,1298.4,208.5,1219.3,218.3,1171.6z"/>
	<path fill="#3F414E" d="M561.8,1432.7c48.7-103.4,90.2-209.6,123.6-319L561.8,1432.7z"/>
	<path fill="#FAE6CB" stroke="#59332B" stroke-miterlimit="10" d="M670.5,497c-6.6,14.9-58.7,53.4-69.1,60.6
		c-4.5,2.7-8.8,5.7-13.4,8.1c-10.8,6-55.4,32.6-69.8,32.4c-17.9-7.2-38.5-17.1-59.4-33.2c-13.2-8.7-73.1-58.6-77.7-78.3
		c-5.8-24.9-13.3-68.5-15-91.2c-1.8-19.9,6.3-263.2,10.3-264.4c7.3-1.6,313.2,31.9,313.7,33.1c4.5,13.3,1.3,208.1,7.7,216.6
		C700.4,384.2,674.5,491.9,670.5,497z"/>
	<path fill="#FDE08A" stroke="#917632" stroke-miterlimit="10" d="M980,1217.3c3.4-21.4,4.7,26.8,0.1,45.5c-0.5,4-8.5,36-11.9,44
		c5-4.6,25.2-55.2,28.1-84.2c4.7-45.5,3.6-72.9,2.6-118.4c-7.6-45.2-16.9-90-33.5-133c-16.3-42.5-37.1-82.7-58.9-122.7
		c-32.3-59.3-58.8-121.4-86.5-183c-6.4-14.2-77.3-218.2-78.4-214.1c-3.7,13-10.6,25.8-24.7,54.5c1.5,19.7,2.5,27,4.3,34.9
		c2.9,13,8.6,25.3,10.9,38.5c0.1,1.2,0.4,2.4,0.9,3.6c1.9,2.5,39.1,94.4,48.7,115.7c23.8,52.9,32,108.7,36,165.7
		c2.7,39.2,7.7,78.3,5.2,117.6c-3.4,52.9-6.1,106.1-28.3,155.7c-0.3,0.8-12.2,23.7-11.3,23.6c5.1-1.1,17.9-13,20.2-16.4
		c7.6-11.2,12.9-23.5,16.7-36.3c11.4-39.4,18.7-79.3,21.1-120.5c2.1-36.9,1.4-73.4-1.8-110.1c-0.5-6.3-2.1-12.2-3.8-18.1
		c11.8,41.7,27.4,82.3,33.8,125.4c1.3,14.5,8.1,27.8,9,42.4c2.5,23.3,4.9,46.7,7.4,70c4.3,17.6,4.9,87.2,5.4,104
		c0,0-7.5,76.2-12.3,117.3c-7.4,24.1-17,47.2-30.8,68.4c-3.5,5.5-7.7,10.4-11.5,16c18.8-9.2,35.4-21.3,50.8-35
		c19.8-17.8,39.5-35.9,54.5-58.3C947.3,1301.5,979.5,1226,980,1217.3z"/>
	<g id="left_eye">
		<path fill="#F48049" d="M639.3,419.8c7.8-4.4,11.1-30.1,11.1-30.1c-11.4-1.7-24.4-0.3-35.8-2.5c-42.2-8.2-20.7,17.8-17.5,21.9
			c6.5,15.4,7.9,15.8,12,15.5C618,424,632.4,425.5,639.3,419.8z"/>
		<path fill="#060606" d="M641.3,422.4c9.1-19.7,11.7-29.1,14.5-41c1.1-4.6,1-12.7,10.7-9.9c8,2.3,13.5,5.5,10.8,15.1
			c5.8-5.6,13.8-10.1,10.4-20.4c-2.2-3.2-5.3-5-8.9-6.1c-25.1-6.1-53.8-6.7-73.6-6c-21.9,3.3-29.8,14.8-30.2,15.4
			c-0.3,3.7,0.9,5.9,5.1,4.7c5.2,3.8,5.5,12.3,7,19.9c5.1,0.3,4.8-3.9,5.8-7c-0.8-10.2,4.4-14.8,14.2-16.5
			c10.3-1.8,20.3-3.1,30.8-1.3c7.9,1.3,8.7,0,10.6,4.7c0.7,1.8,1,8.9,0.7,19.8C648.9,403.7,639.5,420.7,641.3,422.4z"/>
		<path fill="#AF3347" d="M649.2,393.9c0-2.1,0.6-4.7,0.8-6.8c1.3-19.5,1.3-19.5-18.3-22c-12.8-1.7-24.8,2.2-36.7,5.6
			c-9.1,2.6-4.9,21.9-2.7,24.3c9.2,1.5,11.4,10.9,17.7,15.7c1.2,0.5,2.4,0.7,3.6,0.9c8.7-0.8,17.1-2,22.2-10.6
			C638.3,396.7,648.4,394.5,649.2,393.9z"/>
		<path fill="#4C3F44" d="M589.3,381.8c-0.8,2.6,1.5,10.9-2.2,12.4c2.8,9,5.8,18,8.1,27.1c0.7,2.7,2.2,3.6,3.9,3.9
			c13.5,2.5,29.1,2.6,42.2-2.8c1.9-6,0.9-4.5,2.1-8.5c-1.2-0.4-3-1-6.9-0.1c-9.2,6.6-19.1,9.4-30.2,5.2
			C596.9,413.6,592.7,401.2,589.3,381.8z"/>
		<path fill="#433C42" d="M580.1,374.4c-1.7-1.6-3.4-3.1-5.1-4.7c-5.8,5-6.1,5.6-13.5,15.9C568.2,380.1,573.7,377.7,580.1,374.4z"/>
		<path fill="#FEF4F4" d="M595,377.7c0.3,4,3,4.7,6.1,4.7c3.9,0.1,8-0.4,8.7-4.9c0.6-3.6-2.8-4.8-5.8-4.8
			C600.2,372.7,596.7,373.8,595,377.7z"/>
		<path fill="#060606" d="M619.5,386.4c-5.2,1-4.9,4.7-4.9,8c0,3,0.5,6.5,4.6,5.8c3.9-0.7,4.9-4.2,4.8-7.7
			C624,389.2,622.4,386.9,619.5,386.4z"/>
		<path fill="#834F54" d="M658,385.1"/>
		<path fill="#DEB0AA" d="M663.8,427.2"/>
		<path fill="#834F54" d="M557.3,397.7"/>
		<path fill="#FEF4F4" d="M627.2,406.8c0.3,4,3,4.7,6.1,4.7c3.9,0.1,8-0.4,8.7-4.9c0.6-3.6-2.8-4.8-5.8-4.8
			C632.4,401.8,628.9,402.8,627.2,406.8z"/>
	</g>
	<g id="left_eye_1_">
		<path fill="#F48049" d="M425.2,423.1c-7.8-4.4-11.1-30.1-11.1-30.1c11.4-1.7,24.4-0.3,35.8-2.5c42.2-8.2,20.7,17.8,17.5,21.9
			c-6.5,15.4-7.9,15.8-12,15.5C446.5,427.3,432.1,428.9,425.2,423.1z"/>
		<path fill="#060606" d="M423.2,425.8c-9.1-19.7-11.7-29.1-14.5-41c-1.1-4.6-1-12.7-10.7-9.9c-8,2.3-13.5,5.5-10.8,15.1
			c-5.8-5.6-13.8-10.1-10.4-20.4c2.2-3.2,5.3-5,8.9-6.1c25.1-6.1,53.8-6.7,73.6-6c21.9,3.3,29.8,14.8,30.2,15.4
			c0.3,3.7-0.9,5.9-5.1,4.7c-5.2,3.8-5.5,12.3-7,19.9c-5.1,0.3-4.8-3.9-5.8-7c0.8-10.2-4.4-14.8-14.2-16.5
			c-10.3-1.8-20.3-3.1-30.8-1.3c-7.9,1.3-8.7,0-10.6,4.7c-0.7,1.8-1,8.9-0.7,19.8C415.6,407.1,425,424.1,423.2,425.8z"/>
		<path fill="#AF3347" d="M415.3,397.2c0-2.1-0.6-4.7-0.8-6.8c-1.3-19.5-1.3-19.5,18.3-22c12.8-1.7,24.8,2.2,36.7,5.6
			c9.1,2.6,4.9,21.9,2.7,24.3c-9.2,1.5-11.4,10.9-17.7,15.7c-1.2,0.5-2.4,0.7-3.6,0.9c-8.7-0.8-17.1-2-22.2-10.6
			C426.2,400.1,416.1,397.8,415.3,397.2z"/>
		<path fill="#4C3F44" d="M475.2,385.1c0.8,2.6-1.5,10.9,2.2,12.4c-2.8,9-5.8,18-8.1,27.1c-0.7,2.7-2.2,3.6-3.9,3.9
			c-13.5,2.5-29.1,2.6-42.2-2.8c-1.9-6-0.9-4.5-2.1-8.5c1.2-0.4,2.7-1.3,6.9-0.1c9.2,6.6,19.1,9.4,30.2,5.2
			C467.6,416.9,471.8,404.6,475.2,385.1z"/>
		<path fill="#433C42" d="M484.4,377.7c1.7-1.6,3.4-3.1,5.1-4.7c5.8,5,6.1,5.6,13.5,15.9C496.3,383.5,490.8,381,484.4,377.7z"/>
		<path fill="#FEF4F4" d="M437.3,385.2c-0.3,4-3,4.7-6.1,4.7c-3.9,0.1-8-0.4-8.7-4.9c-0.6-3.6,2.8-4.8,5.8-4.8
			C432.1,380.3,435.6,381.3,437.3,385.2z"/>
		<path fill="#060606" d="M445,389.7c5.2,1,4.9,4.7,4.9,8c0,3-0.5,6.5-4.6,5.8c-3.9-0.7-4.9-4.2-4.8-7.7
			C440.5,392.6,442.1,390.3,445,389.7z"/>
		<path fill="#834F54" d="M406.5,388.4"/>
		<path fill="#DEB0AA" d="M400.7,430.5"/>
		<path fill="#834F54" d="M507.2,401"/>
	</g>
	<path id="NOSE" fill="#E6AEB4" d="M531.3,449.8c3.6,0.7,4.6,3.3,4.7,6.4c0.2,4.9-2,8-7.3,8c-2.9,0-5.2-1.2-3.7-4.5
		C526.7,456.2,526,451.1,531.3,449.8z"/>
	<path id="hair_front" fill="#FDE08A" stroke="#917632" stroke-miterlimit="10" d="M174.7,447.1c8.3,0.6,16.6,1.4,24.9,1.9
		c24.9,1.4,48.4-4.4,70.4-17.7c3.8-2.3,5.1-4.8,5-9.7c-0.3-18.5-1-37.1,1-55.6c2-19.1-3.9-37.2-6.1-55.8
		c-2.1-17.9-5.3-35.6-4.9-53.7c0.4-18.1,10-49.6,9.7-51.2c-1.4-8.2,7.2-15.1,5.4-23.2c-0.8-3.5-4.1-1.7-6.1-1.5
		c-17.4,2.1-34.7,1.4-51.9-1.7c-17-3-33.2-8.4-48.1-18.6c9.9,2.5,19.7,5.5,29.7,7.6c43.6,9.2,81.1-4.2,112.7-38.6
		c6.2-6.8,11.7-14,16-22.7c15.3-31.2,39.5-52,67-68.4c26.8-16,54.7-29.7,84.9-33.9c45-6.2,90.4-6.3,133.1,13.1
		c34.6,15.7,63.5,41.2,83.7,77.3c2,3.6,4.8,5.5,7.9,7.3c49.1,28.7,94.2,63.6,134.3,106.4c1.7,1.8,3.2,3.7,4.5,6.3
		c-36.4-24.3-73.8-46-112.6-65.2c3.6,3.6,7.3,7.1,10.8,10.9c9.7,10.5,14.3,23,11.5,38.3c-1.8,9.7-1.2,19,4.5,27.5
		c2.8,4.1,4.3,9.3,6.5,13.8c10.2,20.4,14.2,41.9,9.2,64.9c-1.2,5.6-0.5,10.8,0.7,16.1c6.8,30.4,12.1,61.2,16.1,92.2
		c0.7,5.1,2.6,7.2,6.6,8.5c18.9,6.3,38.2,8.1,57.8,5.9c4.4-0.5,8.8-0.9,13.4-0.6c-8.7,4.5-18.1,6.3-27.5,7.5
		c-14.2,1.7-28.6,1.7-42.8-0.5c-4.4-0.7-4.8,1.1-4.3,4.9c3.4,29,5.2,58.2,6.3,87.5c0.7,18,0.5,36-0.5,54.2
		c-3.3-17-6.6-33.9-9.9-50.9c-6.2-31.6-12.4-63.2-18.5-94.8c-0.9-4.8-2.5-8.2-7.3-8.8c-5.7-0.8-11.5-8.1-16-4.7
		c-3.7,2.8-4,11.2-5.8,17.1c-17.6,58.2-85.9,168.1-88.3,172.9c11.1-28.8,10.6-34.2,11.4-43.7c4.1-48.1,8.6-71.3,10.7-119.6
		c0.9-21.2,9.1-47.3,9.2-68.5c0-3.2-0.2-5.9-2.7-8.3c-27.3-26.9-48.3-58.9-61.6-96.9c-0.2-0.5-0.6-0.8-1.3-1.7
		c-11.2,38.3-26.4,74.3-43.6,109.9c-0.7-17.3-1.5-34.5-2.3-53.6c-8.3,16.2-16.1,30.7-23.3,45.5c-10.9,22.4-28.4,34.8-49.6,41.9
		c-6.4,2.1-8.3,0.7-5.4-5.6c6.1-13.5,1.4-23.4-5.3-34.6c-17.8-29.8-32.6-61.6-45.9-94.2c-0.8-1.8-1.6-3.6-2.8-6.4
		c-11.4,38.2-6.5,75.9-3,113.7c-9.1-30.5-15-61.5-14.1-94.6c-3.5,3.2-4.4,7-6,10.3c-14.1,28.6-30.5,55.2-51.8,77.7
		c-2.7,2.8-4,5.7-4.2,10.1c-1.2,39.7,10.7,74.8,30.3,107.2c1.8,3,3.8,5.9,6.1,9.5c-4.4,0.3-8-1.2-11.5-2.6c-4-1.5-8-3.1-11.8-5.1
		c-3.6-1.8-7-4.2-11.4-6.8c0.6,8.4,1.2,15.9,1.7,23.5c1.5,22.5,2.2,44.8-4.5,66.7c-2.7,9,2.2,17.8,3,26.9c0.4,3.8,7.3,34.1,7.2,38.4
		c-8.9-36.2-15.7-49.4-18.5-46.8c-6.1,8.7-8.4,45.8-8.5,43.8c-1.2-19.3-16-35.6-16.7-54.9c-0.3-8.5-3.6-40.9-7.9-48.2
		c-3.9-6.5-6.7-13.7-9.6-21c-2.3,32.1-1.3,64.2,0.3,96.5c-2.2-6-4.5-11.9-6.6-17.9c-2.2-6.3-4.4-12.6-6.4-19.1
		c-12.4-40.7-20.9-82.3-24.4-125.1c-0.8-9.5-0.9-9.5-9.4-7.3c-29.2,7.6-58.5,8.6-87.7-0.2c-1.9-0.6-3.9-1.3-5.8-2
		C174.6,447.8,174.6,447.4,174.7,447.1z"/>
	<path fill="#FEF4F4" d="M469.5,411.6c-0.3,4-3,4.7-6.1,4.7c-3.9,0.1-8-0.4-8.7-4.9c-0.6-3.6,2.8-4.8,5.8-4.8
		C464.3,406.6,467.8,407.7,469.5,411.6z"/>
</g>
<g id="Layer_7">
	<path fill="#FDE08A" stroke="#917632" stroke-miterlimit="10" d="M277.4,179.8c0,0,12.5,3.8,38.5-13.2"/>
	<path fill="#FDE08A" stroke="#917632" stroke-miterlimit="10" d="M270.4,449.8c0,0,33-7.5,40.5-21.9"/>
	<path fill="#FDE08A" stroke="#917632" stroke-miterlimit="10" d="M347.4,403.6c0,0-0.5-69,25.5-108.5"/>
	<path fill="#FDE08A" stroke="#917632" stroke-miterlimit="10" d="M503,264.1c17.9,29.5-0.8,137-0.8,137"/>
	<path fill="#FDE08A" stroke="#917632" stroke-miterlimit="10" d="M595,123.7c0,0,81.7,40.7,103.1,140.4"/>
	<path fill="#FDE08A" stroke="#917632" stroke-miterlimit="10" d="M365.9,173.2c0,0,48.1-106.9,123.6-102.2"/>
</g>
</svg>
