<?xml version="1.0" encoding="utf-8"?>
<!-- Generator: Adobe Illustrator 18.1.1, SVG Export Plug-In . SVG Version: 6.00 Build 0)  -->
<svg version="1.1" id="Layer_1" xmlns="http://www.w3.org/2000/svg" xmlns:xlink="http://www.w3.org/1999/xlink" x="0px" y="0px"
	 viewBox="0 0 270.1 352.6" enable-background="new 0 0 270.1 352.6" xml:space="preserve">
<g>
	<path d="M140.4,0.2c5.5,0.1,10.6,1.6,15.5,4.1c1.2,0.6,2.3,1.2,3.8,1.4c1.5,0.2,2.7,1.3,4,2.1c2.6,1.8,5.4,3,8.5,3.6
		c0.7,0.2,1.4,0.2,2.1,0.2c2.1,0,4.1,0.1,5.9,1.6c1.2,1,3.1,1.2,4.7,1.7c9.9,2.9,18.5,7.8,24.6,16.3c1.1,1.6,2,3.4,2.9,5.1
		c0.5,1,0.8,2.2,2,2.8c0.2,0.1,0.5,0.5,0.5,0.8c0.6,2.8,2.4,5.1,2.7,8c0.2,2,0.3,4.1,0.1,6.1c0,0.6-0.2,1.4-0.8,1.7
		c-1,0.7-0.9,1.6-0.8,2.5c0.1,7.2-1.9,14-4.4,20.7c-2.5,6.7-6,12.7-9.9,18.6c-0.3,0.4-0.5,0.9-0.9,1.2c-1.3,1.1-1.7,2.8-1.7,4.3
		c-0.1,3.8-0.3,7.7,0.1,11.5c0.1,1.4,0.5,2.7,1.2,4c1.9,3.3,2.6,6.9,2.6,10.7c0,2.1,0.1,4.2-0.2,6.5c2.6-1,5.2-1.7,7.9-2.1
		c5.4-0.7,10.8-0.7,16,0.7c5.1,1.4,9.2,4.4,12.2,8.7c0.4,0.5,0.8,0.8,1.4,1c6.5,2.7,12.8,5.8,17.1,11.8c1.9,2.7,3,5.8,4,8.9
		c2,6.8,4.6,13.4,6.3,20.3c1.4,5.7,1.3,11.5,1,17.3c0,0.5,0,0.8,0.4,1.1c0.7,0.7,0.9,1.6,0.5,2.5c-1.9,4.5-2.9,9.3-4.2,14
		c-1.3,4.7-2.9,9.2-4.4,13.9c-0.2,0.6-0.2,1,0.1,1.5c1.2,1.9,1.4,4.1,1.7,6.3c0.8,6.5,1.2,13,1,19.5c-0.1,5.4-0.5,10.7-0.9,16
		c-0.2,3-0.2,6-0.1,9c0.1,1.2-0.1,2.4-0.4,3.5c-0.4,1.6,0.3,3.2,0.7,4.8c0.8,2.9,1.8,5.8,2.7,8.6c0.1,0.4,0.4,0.8,0,1.3
		c-4.2,4.8-7,10.6-9.9,16.2c-1.4,2.8-2.8,5.6-4.1,8.4c-0.9,1.9-1.6,3.8-2.1,5.8c-0.2,0.9-1.2,1.5-1.8,0.8c-1.4-1.5-3.2-1-4.8-1.3
		c-7.9-1-15.3-3.2-21.9-7.8c-1.1-0.8-2.2-1.7-2.3-3.4c-1.6,2.1-3,4.1-4.5,6c-1,1.3-2.1,2.4-3.9,1.6c-0.4-0.2-0.7,0.2-1,0.3
		c-4.3,1.8-8.5,3.9-13.1,5c-1.9,0.4-3.7,0.9-5.6,0.1c-0.2-0.1-0.4,0-0.6,0.1c-3.6,2.4-7.7,3.5-11.8,4.8c-8.1,2.5-16.2,4.7-24.5,6.6
		c-0.8,0.2-1.6,0.3-2.5,0.4c-1.3,0.1-2.4,0.3-2.6,2c-0.1,0.8-1,1.4-1.9,1.4c-1,0.1-1.9-0.4-2.2-1.3c-0.4-1.2-1.1-1.1-2.1-1.1
		c-4.2,0.2-8.3,0.4-12.5,0.3c-0.7,0-1,0-1.3,0.8c-0.4,1.4-1.3,2-2.4,1.9c-1-0.1-1.7-0.9-2-2.4c-0.1-0.6-0.4-0.7-0.9-0.8
		c-6.1-0.5-12.1-0.6-18.2-0.7c-4.8-0.1-9.5-0.8-14.2-1.3c-6.8-0.8-13.5-2.3-20.3-3.3c-5-0.7-9.4-2.8-13.7-5.3
		c-3.6-2.2-7.4-4.2-10.7-6.8c-0.5-0.4-0.9-0.3-1.4-0.1c-2,0.8-4.1,1.5-6.3,1.5c-10.9-0.1-20.6-3.8-29.5-9.7c-1.9-1.3-3.9-2.5-5.6-4
		c-1.2-1.1-2.4-2.3-2.9-3.9c-0.2-0.6-0.4-1.2-0.2-1.8c0.3-0.9-0.2-1.6-0.5-2.3c0-0.3,0-0.6,0-1c0.5-4.4,2.1-8.5,3.4-12.7
		c1.1-3.4,2.3-6.8,3.2-10.3c0.2-0.8,0.3-1.6,0.3-2.5c0-5.1,0-10.2,0-15.2c0-2.4-0.3-4.8-0.9-7.1c-0.4-1.4-0.5-2.7-0.5-4.2
		c0-0.4,0-0.9,0.2-1.3c1.6-3,1.7-6.4,2.1-9.7c1.4-10.1,1-20.2,1-30.3c0-1.9-0.4-3.7,0.1-5.6c0.1-0.4-0.1-0.7-0.2-1.1
		c-1.1-3.6-1.6-7.2-1.3-10.9c0.3-2.5,0-4.9,0-7.4c-0.2-6.2,1.1-12.1,2.9-18c2.2-7.4,6.1-13.8,11.2-19.5c1.1-1.2,2.2-2.4,3.7-3
		c0.4-0.2,0.8-0.6,1-1c3.2-4.6,7.3-8.1,11.8-11.3c4.5-3.2,9.5-5.6,14.6-7.7c2-0.9,4.2-1.4,6.4-1.6c1-0.1,1.2-0.5,1-1.4
		c-0.3-1.2-0.4-2.5-0.5-3.7c-0.2-3.4,0.3-6.6,3.1-9.2c3.6-3.5,5.9-7.9,8.1-12.4c1.2-2.4,1.7-4.9,2.2-7.4c0.3-1.7-0.3-3.5-1.4-4.8
		c-1.9-2.3-3.1-4.8-3.9-7.6c-1.1-3.7-2.7-7.3-3.2-11.2c-0.2-1.6-0.2-3.2-0.1-4.8c0.1-1.3,0.6-2.5,2-3c0.7-0.3,0.8-0.9,0.8-1.6
		c-0.1-1.1-0.4-2.2-1.1-3.2c-1.2-1.7-1.5-3.6-1.5-5.6c-0.1-4.5,0-8.9,0.4-13.4c0.2-1.8,0-3.6,0.4-5.4c0.3-1.6,1.1-3.1,1.1-4.8
		c0-0.8,0.7-1.4,1.3-1.9c3.5-3,7-5.9,10.9-8.4c3.8-2.5,7.7-4.8,11.8-6.8c4.7-2.3,9.7-3.8,14.8-5.2c4-1.1,8.1-2.2,12.3-2.8
		c0.6-0.1,0.9-0.5,1.2-0.9c0.5-0.9,1.3-1.5,2.3-1.8c4.9-1.4,9.8-2.7,14.9-2.5C137.4,0.2,138.9,0.1,140.4,0.2z"/>
	<path fill="#FEFEFE" d="M135.6,0.2c-5,0.1-9.8,1.4-14.6,2.7c-1.1,0.3-1.9,1-2.2,2.1c-0.1,0.5-0.4,0.6-0.9,0.6
		c-16.4,2.7-31.6,8.4-44.7,18.9c-1.9,1.5-3.8,3.1-5.6,4.7c-0.5,0.4-1,0.9-0.9,1.5c0.2,1.5-0.6,2.8-0.9,4.1c-0.3,1.2-0.5,2.4-0.5,3.7
		c-0.1,4.5-0.5,9-0.5,13.5c0,3,0.2,5.9,1.9,8.5c0.6,0.9,0.6,1.9,0.6,2.9c0,0.8-0.1,1.3-1.1,1.5c-1,0.2-1.4,1-1.5,1.9
		c-0.5,3.3-0.1,6.5,0.9,9.6c1,3.3,2.2,6.5,3.2,9.7c0.6,1.8,1.8,3.2,2.9,4.6c1.1,1.5,2,3.4,1.6,5.1c-0.5,2.2-0.9,4.6-1.9,6.7
		c-2.6,5.3-5.4,10.5-9.7,14.7c-0.9,0.9-1.2,2.1-1.5,3.4c-0.7,3-0.1,5.9,0.3,8.9c0.1,0.5,0,0.8-0.6,0.8c-2.8,0-5.4,0.8-8,1.9
		c-7.4,3.1-14.3,7.1-20.2,12.5c-2.1,1.9-4,3.9-5.4,6.3c-0.2,0.3-0.4,0.5-0.8,0.7c-1.6,0.6-2.7,1.8-3.8,3c-4.1,4.6-7.5,9.8-9.7,15.5
		c-2.7,7-4.5,14.3-4.3,21.9c0,1.4,0.1,2.9,0.3,4.3c0.1,0.8-0.4,1.4-0.4,2.2c-0.2,3.9,0.1,7.8,1.3,11.6c0.2,0.7,0.3,1.3,0,2
		c-0.2,0.6-0.2,1.3-0.1,2c0.4,8.6,0.4,17.2,0,25.8c-0.3,5-1,10-1.9,14.9c0,0.2-0.1,0.5-0.2,0.7c-1.6,2-1,4.3-0.5,6.4
		c0.6,2.5,0.9,4.9,1,7.4c0.1,5,0,10.1,0,15.1c0,2.7-1,5.2-1.8,7.7c-1.7,5.5-3.6,10.9-5,16.5c-0.1,0.4,0.1,1-0.4,1.3
		C0,207.3,0,104.2,0,1.1C0,0.2,0.2,0,1.1,0c44.8,0,89.7,0,134.5,0C135.7,0.1,135.7,0.1,135.6,0.2C135.7,0.2,135.6,0.2,135.6,0.2z"/>
	<path fill="#919191" d="M135.6,0.2c0-0.1,0-0.1,0-0.2c1.6,0,3.2,0,4.8,0c0,0.1,0,0.1,0,0.2C138.8,0.2,137.2,0.2,135.6,0.2z"/>
	<path fill="#577697" d="M64.6,145.5c0.8,2,1.6,4.1,2.4,6.1c0.8,2,2.1,3.7,3.2,5.6c1.2,2.2,3.1,3.6,4.9,5.1c0.7,0.6,0.1,0.8-0.2,1
		c-2.1,1.6-3.7,3.6-5.2,5.7c-1.5,2.1-1.6,4.4-1.4,6.7c0,0.4,0.2,0.9,0.5,1c1,0.6,1.3,1.7,1.7,2.6c0.7,1.8,2.1,2.6,4,2.7
		c3,0.1,5.9-0.7,8.8-1.3c4.3-0.9,8.6-1.3,12.9-0.1c4.2,1.2,7.3,3.8,9.2,7.6c0.8,1.5,1.4,3.1,1.7,4.8c0.1,0.7,0.6,1.3,0.9,1.9
		c-0.5,0.4-1.1,0.1-1.6,0c-3.9-0.8-7.7-1.9-11.5-2.9c-0.9-0.2-1.6-0.1-2.4,0.4c-4.3,2.7-8.5,5.5-12.9,8.2c-2.3,1.4-4.1,3.3-6,5.1
		c-5,4.7-10.1,9.4-15.2,14.1c-1.3,1.2-1.2,1.2-0.6,2.9c1.4,3.4,2.9,6.8,4.2,10.2c0.4,1.1,1,1.3,2.1,1.2c6.7-0.9,13.5-1.8,20.2-2.8
		c4.5-0.6,8.9-1.3,13.4-1.8c0.9-0.1,1.5-0.5,1.9-1.3c4-6.9,8-13.7,11.9-20.7c1.7-3,2.8-6.3,4.2-9.4c0.2-0.5,0.1-0.8-0.5-1
		c-0.8-0.2-1.6-0.4-2.4-0.6c-0.5-0.1-1-0.2-1.2-0.7c1.1-1.1,1.2-2.3,0.5-3.6c-0.1-0.3-0.2-0.5-0.2-0.8c1-3.8,2.3-7.2,6.7-8.2
		c1.4-0.3,2.7-1,3.1-2.6c0.1-0.4,0.4-0.3,0.7-0.3c0.5,0,0.9,0.1,1.4,0.2c0.9,0.1,2-0.3,2.5,0.3c0.5,0.6,0.5,1.6,0.7,2.5
		c2.3,7.6,4.4,15.2,7.3,22.6c1.9,5,3.1,10.2,3.9,15.5c0.1,0.9,0.4,1.8,0.7,2.8c-0.9-0.8-1.8-1.2-2.9-0.8c-1.1,0.4-1.3,1.4-1.5,2.4
		c-1.3,7-2.5,13.9-4.1,20.9c-1.4,6.5-3.1,13-4.3,19.6c-0.2,0.9-0.2,1.7-0.4,2.6c-0.2,1.3-0.1,2.5-0.9,3.7c-0.9,1.3-0.1,2.9,0.1,4.3
		c1,5.9,1.8,11.9,2.4,17.9c0.7,6.9,0.7,13.7,0.7,20.6c0,2.3,0.2,4.5,0.6,6.8c0.4,1.9-0.4,3.8-0.8,5.6c-0.8,3.9-2.1,7.8-2.8,11.7
		c-0.2,1.2-0.4,2.4-0.4,3.6c0,0.7-0.1,1-0.9,0.9c-7-0.6-14-0.5-21-0.8c-6.8-0.3-13.7-1.2-20.4-2.5c-4.1-0.8-8.3-1.4-12.4-2.3
		c-4.3-1-8.3-2.9-12-5.5c-1.3-1.7-1.7-3.8-2.5-5.8c-3.2-8.5-6.2-16.9-9.5-25.4c-0.9-2.4-1-4.8-0.8-7.3c0.5-4.8,0.8-9.6,1.2-14.4
		c0.4-4.5,0.7-8.9,1.1-13.4c0.1-1,0.1-2,0.2-3c0.1-1,0.6-1.5,1.6-1.8c4.6-1.3,9.2-2.8,13.9-4c0.1,0,0.1-0.1,0.2-0.1
		c7.5,0.7,14.5-1.4,21.6-3.5c4.9-1.5,9.7-3.1,14.7-4.1c1-0.2,2.1-0.3,3-0.7c0.5-0.2,1-0.4,1.4-0.7c0.8-0.6,1.4-1.4,1.1-2.5
		c-0.3-1.1-1.2-1.4-2.2-1.5c-1.4-0.2-2.7,0.3-4,0.6c-8.1,2.3-16.1,4.9-24.2,6.8c-6.7,1.5-13.2,1-19.7-0.9c-3.3-1-6.5-2.1-9.9-2.8
		c-1.7-0.4-2.8-1.2-3.5-2.7c-1.2-2.4-2.3-4.9-2.2-7.6c0.1-1.7,0.7-3.2,1.8-4.4c8.3-8.5,13.8-18.5,17-29.9c1.2-4.2,1.5-8.5,2.3-12.8
		c0.7-3.6,1.5-7.3,2-10.9c0.1-0.8,0.1-1.6,0.1-2.4c0-1.4-1-2.4-2.2-2.5c-1.2-0.1-2.3,0.8-2.5,2.1c-1,7.2-2.7,14.2-3.7,21.4
		c-0.8,6-3.3,11.5-6,16.9c-3,5.9-7,11.1-11.8,15.6c-0.9,0.8-1.7,1.7-2.3,2.8c-0.4,0.8-0.4,1.7-0.1,2.6c0.4,1,0.3,2.1,0.5,3.2
		c0.7,4.1,2.1,7.9,5,11c0.5,0.5,1.2,1,1.8,1.4c0.4,0.3,0.4,0.5,0.1,0.9c-2.9,3.9-4.2,8.2-4.6,13c-0.3,4.2-1.1,8.5-1.5,12.7
		c-0.4,3.3-0.4,6.7-0.3,10.1c0.2,3.7,0.3,7.5,0.6,11.2c0.7,7.9,1.8,15.6,6.6,22.3c0.7,1,1.4,1.9,2.5,2.6c-1.6,1.7-3.4,2.6-5.7,2.1
		c-0.7-0.1-1.4-0.1-2,0c-6.3,0.4-12.1-1.2-17.6-4c-1.3-0.7-2.7-1.2-3.9-2c-0.3-0.5-0.5-1-0.6-1.6c-0.6-2.8-1.1-5.6-1.7-8.4
		c-0.2-0.8-0.2-1.7,0-2.5c1.7-8.3,3.8-16.4,6.4-24.5c0.9-3,1.2-5.8,0.7-8.9c-2-11.2-3.7-22.4-5.4-33.6c-0.1-0.6-0.4-1.4,0.3-1.6
		c0.6-0.2,0.8,0.6,1.1,1.1c2.8,4.6,5.5,9.2,8.3,13.8c0.2,0.3,0.3,0.7,0.6,0.9c0.4-3.3,0.2-6.7,0.4-10c0.7-14.5,0.4-29.1,0.5-43.6
		c0-0.9,0.2-1.8,0.5-2.7c3.5-11,6.9-22,10.3-33c0.5-1.5,1.2-2.7,2.5-3.6c7.6-5.4,15.1-10.8,22.6-16.2
		C63.1,146.7,63.8,146,64.6,145.5z"/>
	<path fill="#527192" d="M150.2,189.6c-1.7-3.2-3.4-6.4-5.2-9.6c-0.3-0.5,0-0.7,0.4-0.7c3.5-0.6,7-1.3,10.5-1.9
		c0.4-0.1,0.5,0.1,0.6,0.5c0.3,1.4,1.2,2.2,2.5,2.3c0.5,0.1,0.7,0.3,0.9,0.6c1.1,1.6,1.9,3.4,3.3,4.8c0.5,0.5,0.2,1.2,0.1,1.8
		c-0.2,0.9-0.4,1.8-0.5,2.7c-0.2,1.7,0.6,3.7,2.7,3.6c0.3,0,0.7,0.2,1,0.3c1.2,0.3,2.2-0.1,2.6-1.2c0.9-2.6,2.9-4.2,5.1-5.7
		c3.6-2.3,7.4-3.8,11.7-3.4c1,0.1,1.9,0.1,2.8,0.6c0.5,0.3,1.1,0.4,1.6,0.3c1.4-0.1,2.8-0.6,4.3-0.7c1.8-0.1,2.2-2.4,0.9-3.9
		c-0.4-0.5-0.8-1-1-1.6c-1.4-4.8-4.7-7.9-8.9-10.3c-0.9-0.5-0.9-0.8-0.1-1.3c0.4-0.3,0.8-0.6,1.1-0.9c0.5-0.5,1-0.8,1.9-0.5
		c1.1,0.4,2.1-0.2,2.7-1.1c1.4-2.2,2.6-4.4,3.9-6.6c0.7-1.3,1.4-2.6,2.2-3.8c1.3,0.1,2.5-0.5,3.8-0.7c0.3,0,0.5-0.1,0.8-0.2
		c0.4-0.1,0.9-0.2,1.2,0.2c0.3,0.5-0.2,0.8-0.4,1.1c-0.7,1-1.4,2-2.5,2.6c-0.9,0.5-0.3,1,0.1,1.4c1.7,1.4,3.4,2.9,5.1,4.3
		c5.5,4.6,10.9,9.3,16.4,13.9c0.8,0.6,1,1.4,0.9,2.4c-1.1,8.8-2.2,17.5-3.3,26.3c-0.1,0.7-0.1,1.3,0.2,2
		c4.2,11.2,8.4,22.3,12.6,33.5c0.4-0.4,0.5-0.8,0.6-1.2c0.8-2.6,2.3-4.6,4.5-6.3c3.2-2.6,6.2-5.4,9.4-8c0.7-0.6,1-1.2,1-2.1
		c-0.3-5.9-0.4-11.7-0.5-17.6c-0.1-2.2-0.2-4.3-0.2-6.5c0-1.8-0.4-3.6-0.3-5.4c0-0.7,0.2-1.4,0.6-2.1c2.3-4,4.4-8.1,6.7-12.1
		c0.5-0.9,0.3-1.4-0.5-2c-6.1-4.1-12.1-8.3-18.3-12.3c-3.5-2.2-6.4-4.9-8.7-8.3c-0.8-1.1-1.7-2.1-2.4-3.3c-0.8-1.5-0.4-2.1,1.3-2.2
		c3.1-0.2,6.3,0,9.4-0.1c1.2,0,2.4,0,3.5,0.7c0.3,0.5,0.5,1,0.8,1.4c0.8,1.1,1.8,1.5,2.8,1.2c0.9-0.4,1.4-1.6,1.2-2.9
		c-0.1-0.5-0.2-1-0.3-1.6c5.6,2.6,10.5,5.8,12.7,11.8c3,8.2,5.8,16.4,7.7,24.9c1.4,6.4,1.6,12.9-0.3,19.3c-0.5,1.6-0.5,3.3-0.6,5.1
		c0,1.8-0.7,3.7-1.2,5.5c-2.1,7.7-4.8,15.3-7.1,22.9c-1.6,5.3-3.4,10.6-4.6,16.1c-0.2,1.1-0.4,2.1-0.4,3.2c0.1,1.3,0.8,2.3,1.7,2.4
		c1,0.2,2-0.4,2.5-1.6c0.9-1.9,1.1-4.1,1.7-6.1c1-3.4,1.9-6.8,3-10.2c0.8,6.2,1.3,12.3,0.9,18.5c-0.2,3.9-0.4,7.7-0.6,11.6
		c-0.2,4.2,0.2,8.6-0.6,12.7c-1,5.3,0.9,9.8,2.4,14.5c0.6,2.1,0.5,3.8-0.4,5.7c-3.6,7.6-7.1,15.3-11.1,22.7
		c-0.3,0.6-0.6,0.9-1.4,0.8c-5.2-0.5-10.4-1.2-15.2-3.4c-3.2-1.4-6.5-2.8-8.9-5.4c-0.6-0.6-1.4-0.6-2.4-0.6c1.7-2.6,3.3-5.1,4.8-7.7
		c1.6-2.9,3.2-5.8,3.7-9.2c0.5-3.2,0.6-6.5,0.3-9.7c-1-10.3-3.9-20.2-6.4-30.2c-0.6-2.4-1.9-4.6-3-6.9c-0.3-0.6-0.1-1.1,0.1-1.8
		c0.9-3.2,3.8-5.3,4.4-8.6c0.6-3.3,0.5-6.7,0.4-10c-0.1-1.3-0.9-2.4-1.7-3.4c-5.1-6.4-8.8-13.4-10.4-21.5
		c-1.1-5.7-1.3-11.5-0.4-17.3c0.4-2.7,0.2-5.3,0.5-8c0.2-1.9,0.3-3.8,0.2-5.7c0-0.6-0.1-1.2-0.2-1.8c-0.3-1.1-1-1.9-2.2-1.9
		c-1.2,0-1.9,0.7-2.3,1.8c-0.2,0.5-0.2,1-0.3,1.5c-0.1,3.2-0.2,6.5-0.3,9.7c0,1.5-0.3,2.9-0.4,4.4c-0.5,5.2-0.3,10.5,0.4,15.6
		c0.9,6.4,3.2,12.4,6.3,18.1c1.6,2.8,3.3,5.6,5.2,8.2c0.5,0.6,0.6,1.3,0.7,2c0.1,2.1,0.1,4.2-0.2,6.2c-0.4,2.9-2.2,5.1-4.4,6.9
		c-1.8,1.5-4.2,1.8-6.3,2.7c-4.7,2.2-9.7,2-14.7,1.6c-3.8-0.3-7.6-0.4-11.3-1.2c-2.7-0.5-5.5-0.9-7.8-2.8c-1-0.8-2.2-0.7-3.1,0.2
		c-0.8,0.8-0.9,2-0.2,3.1c1,1.4,2.4,2.3,4,2.9c2.9,1.1,5.9,1.5,9,1.9c4.4,0.5,8.9,0.6,13.4,0.9c4.7,0.3,9.2-0.4,13.5-2.5
		c0.8-0.4,1.7-0.4,2.5-0.6c0.6-0.2,0.5,0.5,0.7,0.8c3.2,5.8,4.4,12.2,5.9,18.5c1.1,4.6,2.4,9.2,3,13.9c0.7,5.2,1.3,10.5-0.9,15.5
		c-2,4.8-4.8,9.2-8,13.3c0,0.1-0.1,0.1-0.1,0.2c-2,3.7-5.2,5.7-9,7.2c-3.7,1.4-7.2,3.3-11.1,4.1c-0.8,0.2-1.7,0.2-2.5,0.2
		c-0.8,0-1.5,0.1-2.1,0.6c-0.6,0.5-1.3,0.3-2,0.4c-2.9,0.5-5.4,1.9-8.1,2.8c-8.7,2.9-17.6,5.1-26.4,7.4c-0.1,0-0.3,0-0.5,0
		c-0.5-0.6-0.3-1.4-0.3-2.1c0.2-2.7,0.4-5.3,0.4-8c0-0.8,0.2-1.5,0.2-2.3c0.1-0.8,0.1-1.6,1.3-1.3c0.3,0.1,0.5-0.2,0.6-0.5
		c0.1-0.3,0.1-0.6,0.1-0.8c-0.1-3,0.2-6,0.3-9c0.2-4.7,0.2-9.4,0.6-14.1c0.1-1.2,0-2.4-0.3-3.6c-1.9-7.6-3.8-15.3-5.8-22.9
		c-0.3-1.2-0.1-2.2,0.7-3.2c3.1-4,6-8.1,9.1-12.1c0.7-0.9,1-1.8,1-2.9c-0.1-4.5,0.4-9,0.2-13.5c0-1.3,0.4-2.6,0.8-3.9
		c0.2-0.7,0.7-0.9,1.4-0.9c4.5,0.4,9,0.6,13.5,1c1.2,0.1,2.3,0.1,3.5,0.3c0.7,0.1,0.9-0.2,0.5-0.8c-0.7-1.3-1.5-2.5-2.2-3.9
		c-0.2-0.5-0.6-1-0.5-1.6c0.3-0.5,0.8-0.2,1.2-0.2c1.4,0,2.1-0.5,2.4-1.8c0.2-0.8,0.3-1.6,0.9-2.2c1.3-1.5,3.7-2,5.7-1
		c0.9,0.4,1.6,1,2.5,1.5c1.5,0.9,3,0.7,4.4-0.1c1.1-0.6,1.3-1.7,0.4-2.7c-0.2-0.3-0.5-0.5-0.8-0.7c-1.7-0.9-2.1-2.5-2-4.2
		c0.2-3.1,1.1-6.1,2.2-8.9c0.7-1.7,1.3-3.4,2.9-4.6c0.6-0.4,0.7-1.2,0.5-1.9c-0.3-1.6-2.2-2.9-3.8-2.6c-0.4,0.1-0.7,0.2-1,0.3
		c-2.6,0.9-4.4-0.2-4.7-3c-0.1-1,0-2.1,0-3.1c-0.1-2.1-0.9-2.9-3-2.7c-0.2,0-0.5,0-0.7,0c-1.7,0.1-2.4,0.5-2.9,2.3
		c-0.5,1.8-0.9,3.6-1.7,5.2c-0.3,0.6-0.5,1.3-1,1.7c-0.5,0.3-0.9-0.1-1.3-0.3c-5.1-3.4-10.1-6.9-15.2-10.3c-0.7-0.5-1.3-1.2-1.8-1.9
		c-1.7-2.6-3.5-5.3-5.2-7.9c-1-1.5-1-1.5-2.5-0.4c-0.9,0.6-1.7,1.3-2.6,1.9C151.1,189.5,150.7,189.8,150.2,189.6z"/>
	<path fill="#823254" d="M130.6,176.3c-6.7,0.1-11.4-1-16.1-2.1c-2-0.5-4.1-0.7-6-1.6c-0.3-0.1-0.7-0.2-0.7-0.7
		c-0.4-2.1-1.2-2.9-3.4-2.9c-2.8-0.1-5.6-0.4-8.2-1.4c-1.3-0.6-2.6-1.2-3.9-1.9c-2.6-1.4-5.2-2.9-8-3.9c-0.6-0.2-0.9-0.4-0.6-1.2
		c0.4-1,0.1-1.9-0.9-2.5c-1-0.7-2-0.4-2.7,0.4c-0.6,0.7-1.1,0.6-1.7,0.1c-3-2.9-5.8-5.8-7.4-9.7c-2.9-7-4.8-14.3-6-21.7
		c-0.3-1.6-0.4-3.3,0.2-5c0.3-1.1,0.7-2,1.4-2.8c4.3-4.9,7.3-10.5,9.9-16.5c0.3-0.7,0.4-1.4,1.6-1.1c0.9,0.2,1.7-0.5,2.3-1.2
		c0.3-0.4,0.6-0.8,0.7-1.2c1.2-2.7,2.4-5.3,3.5-8c0.8-1.8,0.6-2.5-1-3.7c-0.3-0.3-0.4-0.6-0.6-1c-1-2.7-1.4-5.5-1.9-8.3
		c-0.4-2.6-1-5.2-1.4-7.9c-1-6.5-0.5-12.8,2.3-18.8c0.7-1.4,2.1-2.1,3.2-3.2c0.4-0.4,0.8,0.1,1.1,0.4c1.3,1.4,2.9,2.5,4.3,3.8
		c4.5,4,10.1,6.1,15.4,8.6c4.4,2,9,3.1,13.8,2.9c4.1-0.2,8.2-0.6,12.2-1.3c2.9-0.5,5.9-0.7,8.9-1c5.2-0.5,10.4-1.5,15.5-2.5
		c1.3-0.3,2.6-0.7,4-0.6c0.4,0,0.9-0.1,1.3-0.3c5.4-2.8,11.1-5,16.4-7.8c1.9-1,3.8-2.1,5.6-3.4c0.6-0.4,1-0.4,1.5,0.1
		c1.1,1,2.1,1.9,3.3,2.8c1.9,1.5,2.9,3.6,3.2,6c0.4,3.1,1.3,6.1,1.9,9.2c0.2,1.2,0.4,2.4,0.5,3.5c0.1,1.2,0.1,2.3-0.7,3.4
		c-1.7,2.7-3,5.6-4,8.6c-0.4,1.2-0.8,2.5-0.4,3.9c0.3,1.1,1,1.5,2.1,1.2c0.7-0.2,0.7,0,0.9,0.6c0.7,4.1,0.9,8.2,1.7,12.3
		c0,0.2,0.1,0.5,0.1,0.7c-0.6,5.2-0.3,10.5-0.1,15.7c0.1,2.4,0.9,4.7,2.4,6.8c0.8,1.1,0.8,2.5,1.1,3.9c0.5,2.3,0.2,4.6,0.3,6.9
		c0,0.4-0.1,0.8-0.4,1.1c-0.6,0.7-0.9,1.5-0.9,2.4c0.4,6-1.3,11.5-4.5,16.6c-1,1.6-1.7,3.4-3.5,4.4c-1.1,0.6-1.8,1.8-2.6,2.7
		c-3.8,4-8.1,7.5-12.7,10.5c-0.6,0.4-1,0.6-1.6-0.1c-0.8-0.8-1.9-0.7-2.9-0.4c-8.9,2.7-18.1,3.7-27.2,5.5
		C137.5,176.3,133.2,176.2,130.6,176.3z"/>
	<path fill="#245C59" d="M73.5,84c-1.6-4.4-3.2-8.7-4.1-13.3c-0.1-0.6,0-1,0.5-1.5c3.3-3.3,3.4-8,0.3-11.5c-0.3-0.4-0.4-0.8-0.4-1.2
		c0-3.4-0.2-6.9,0.1-10.3c0.2-3.3,0-6.6,0.7-9.9c0.4-2.2,1.3-4.1,3-5.5c7.5-6.4,15.7-11.8,25.2-15c6.2-2.1,12.6-3.8,19-5.2
		c2.1-0.5,4.2-1.1,5.7-2.9c0.2-0.2,0.6-0.3,0.9-0.4c5.6-1.8,11.4-2.5,17.3-2.1c2.6,0.2,5.1,0.7,7.6,1.6c2.1,0.8,4.1,1.7,6.2,2.6
		c2.4,1.1,4.9,1.9,7.1,3.5c2.4,1.8,5.3,2.6,8.2,3.3c1.2,0.3,2.3,0.7,3.4,1.2c1,0.5,2.1,1,3.3,0.5c0.2-0.1,0.4-0.1,0.6,0
		c2.8,1.5,5.9,1.9,8.8,2.9c5.7,2,10.9,5.1,15.3,9.2c2.9,2.7,4.9,6.1,6.4,9.8c0.2,0.4,0.2,0.8,0.3,1.3c0.2,1,0.5,2,1.5,2.5
		c1.5,0.7,1.5,2.2,2.1,3.3c0.2,0.3-0.1,0.6-0.4,0.7c-1,0.5-1.2,1.4-1.3,2.4c-0.1,2.3,0.5,4.5,0.8,6.7c0.5,3.4,0.1,6.7-0.6,10
		c-1.2,6.2-3.8,11.9-6.4,17.6c-0.1,0.1-0.2,0.2-0.3,0.4c-1.2-1.6-2.2-3.4-1.9-5.5c0.3-2.1,0.3-4.2,0.4-6.2c0.3-5.5,0.7-11,1.2-16.5
		c0.2-1.9,0.3-3.9,0.5-5.9c0-0.4-0.1-0.9-0.2-1.3c-0.9-3.2-1.9-6.3-2.9-9.4c-0.3-1-0.8-1.6-1.7-2c-3.5-1.8-7-3.7-10.5-5.5
		c-1.5-0.7-2.7-1.9-3.7-3.2c-0.9-1-1.9-2-2.7-3.1c-0.6-0.8-1.4-1-2.4-0.6c-8.2,3-16.4,6.1-24.5,9.1c-1,0.4-1.8,0.4-2.8,0
		c-2.7-0.9-5.5-1.8-8.2-2.8c-0.8-0.3-1.6-0.3-2.5-0.2c-10,2-19.9,3.9-29.9,5.9c-1.3,0.3-2.4,0.1-3.6-0.7
		c-5.4-3.4-10.8-6.9-16.2-10.2c-1.2-0.8-1.5-0.8-1.7,0.7c-0.4,2.9-1.9,4.9-4.1,6.7c-3.2,2.6-6.2,5.5-9.3,8.3
		c-0.8,0.7-1.3,1.6-1.4,2.7c-0.6,6.2-1.2,12.3-1.9,18.5c-0.2,1.6,0.3,3.2,0.5,4.8c0.5,4,1,7.9,1.5,11.9C76,81.6,74.9,83.4,73.5,84z"
		/>
	<path fill="#132A28" d="M73.5,84C73.5,84,73.5,84,73.5,84c2.8-2,1.9-4.7,1.6-7.3c-0.4-3-0.7-5.9-1.1-8.9c-0.1-0.6-0.2-1.2-0.2-1.8
		c-0.5-3.5,0.4-6.9,0.7-10.4c0.2-2.6,0.5-5.2,0.8-7.8c0.1-1,0.2-2.1,0.3-3.1c0.1-1.4,0.9-2.2,1.9-3c3.4-3,6.8-6.1,10.2-9
		c1.4-1.2,2.2-2.7,2.5-4.6c0.6-2.8,0.7-2.8,3.1-1.3c5.4,3.3,10.7,6.7,16.1,10.1c0.7,0.4,1.3,0.6,2.1,0.4c8.3-1.7,16.7-3.3,25-4.9
		c2.1-0.4,4.1-0.8,6.2-1.2c0.6-0.1,1.1,0,1.6,0.1c3,1,6,2,9,3c0.7,0.2,1.2,0.2,1.9,0c7.1-2.7,14.3-5.3,21.4-7.9c1.3-0.5,2.7-1,4-1.5
		c0.6-0.3,1.1-0.2,1.6,0.3c1.5,1.7,3,3.4,4.6,5.1c0.6,0.7,1.3,1.2,2.1,1.6c3.8,2,7.5,3.9,11.3,5.9c0.6,0.3,1,0.7,1.2,1.4
		c1.1,3.5,2.3,6.9,3.2,10.4c0.3,1.3,0,2.8-0.1,4.3c-0.2,2.3-0.5,4.7-0.7,7c-0.3,4.6-0.7,9.1-0.9,13.7c-0.1,1.8,0,3.7-0.3,5.5
		c-0.1,1.1,0.7,2,1,3c0.2,0.5,0.4,1,0.6,1.5c-0.4,1.4-1.3,2.5-2,3.6c-1.2,1.9-2.5,3.7-3.9,5.9c0-3.6-0.7-6.7-1.1-9.8
		c-0.2-2.1,0-4.1-0.3-6.2c-0.2-1.2,0.7-2.4,1.7-3.1c1-0.8,1.4-1.7,1.4-2.9c0-4.2-0.9-8.2-1.7-12.2c-0.5-2.3-0.9-4.7-1.4-7
		c-0.4-2-1.4-3.7-2.9-5.1c-1.6-1.5-3.1-3.2-5-4.4c-0.3-0.2-0.4-0.4-0.5-0.7c-0.7-1.7-2-2.2-3.7-1.3c-2.3,1.1-4.3,2.8-6.5,4.1
		c-3.4,2-7,3.5-10.5,5.1c-3.5,1.7-7.2,3-11,4c-4.3,1.1-8.7,1.8-13.1,2.3c-4.9,0.5-9.8,1.1-14.7,1.7c-3,0.4-6,0.6-9,0.7
		c-3.8,0.1-7.4-0.7-10.9-2.3c-3.9-1.8-7.9-3.4-11.6-5.7c-2.8-1.8-5.3-4-7.5-6.4c-0.6-0.6-0.9-1.5-1.6-2.1c-0.9-0.7-1.9-0.8-2.8-0.2
		c-2,1.4-3.9,3-5.7,4.7c-1.7,1.6-2.2,3.8-3,5.8c-1.9,4.6-2.2,9.4-1.9,14.2c0.3,3.9,0.9,7.8,1.7,11.7c0.6,2.8,0.8,5.7,1.8,8.5
		c0.2,0.6,0.4,1.3,0.8,1.7c1.1,0.9,0.7,1.8,0.2,2.7c-0.3,0.7-0.7,1.4-1.1,2.2c-0.3-0.9-0.5-1.7-0.7-2.5c-0.3-1.8-1.4-3.2-2.5-4.5
		C74.2,86,73.7,85.1,73.5,84z"/>
	<path fill="#698DAE" d="M238.2,152.4c-2.1-0.5-4.3-0.4-6.5-0.4c-2.4,0-4.8,0.1-7.2,0.2c-0.5,0-0.7,0.2-0.6,0.8
		c0.1,0.5,0.3,0.9,0.5,1.3c1.8,2.3,3.6,4.7,5.4,7c0.8,1.1,2.1,1.8,3.2,2.5c7,4.7,14,9.5,21,14.2c0.7,0.5,0.9,0.8,0.4,1.6
		c-2.4,4.2-4.7,8.4-7,12.7c-0.8,1.4-0.3,2.8-0.3,4.2c0,0.4,0.1,0.7,0.2,1.1c0.1,4.9,0,9.9,0.3,14.8c0.2,3.8-0.1,7.6,0.4,11.3
		c0.1,0.9-0.3,1.4-1,2c-2.1,1.7-4.1,3.5-6.2,5.3c-1.6,1.4-3.1,2.8-4.8,4.1c-1.7,1.3-2,3.3-2.9,5c-0.3,0.6-0.5,1.2-0.9,1.8
		c-0.9-2.2-1.7-4.4-2.5-6.5c-3.4-9.1-6.8-18.1-10.3-27.2c-0.5-1.4-0.4-2.7-0.2-4c0.7-5.7,1.4-11.5,2.1-17.2c0.4-2.8,0.7-5.6,1.1-8.4
		c0.1-0.6-0.2-1-0.6-1.3c-1.7-1.5-3.4-2.9-5.1-4.3c-2.4-2.1-4.9-4.1-7.3-6.1c-3-2.5-6-5.1-9-7.6c-0.1-0.1-0.1-0.1-0.2-0.2
		c-1.5-1.3-1.6-1.4,0.2-2.4c1.2-0.7,1.4-2,2.4-2.7c0.1-0.1,0.2-0.3,0.1-0.4c-0.2-0.2-0.5-0.2-0.8-0.1c-1.3,0.3-2.6,0.6-3.9,1
		c-0.4,0.1-0.8,0.3-0.9-0.3c2.2-3.7,3.4-7.8,4.4-11.9c0.1-0.5,0.4-0.8,1-1c2.7-1.2,5.3-2.3,8.2-2.7c5-0.7,9.9-0.8,14.8,0.6
		c5.7,1.6,9.1,5.7,11.4,10.9C237.5,150.7,237.8,151.6,238.2,152.4z"/>
	<path fill="#6B8FAF" d="M64.6,145.5c-0.1,1-1,1.3-1.7,1.7c-6.5,4.7-13.1,9.4-19.7,14.1c-1.5,1.1-3,2.1-4.5,3.2
		c-1,0.8-1.1,2-1.4,3.1c-1.7,5.3-3.4,10.6-5,16c-1.8,5.9-3.7,11.8-5.5,17.7c-0.2,0.5-0.2,1-0.2,1.5c0,7.8-0.1,15.5,0,23.3
		c0.1,5.8-0.2,11.6-0.3,17.4c-0.1,3,0,6.1-0.2,9.1c-0.1,1.6-0.2,3.2-0.4,4.9c-3.4-5.6-6.7-11.2-10.1-16.7c-0.3,1.5,0.1,2.9,0.3,4.3
		c0.7,4.3,1.4,8.5,2.1,12.8c0.6,3.7,1.2,7.4,1.8,11.2c0.6,3.6,1.3,7.3,1.7,10.9c0.2,1.4-0.6,2.8-1,4.1c-2.6,8.6-5,17.2-6.7,26
		c-0.3,1.6,0.5,3.1,0.7,4.7c0.4,2.3,0.9,4.7,1.3,7c-3.2-1.7-6.1-3.8-8.9-6.1c-0.6-0.5-1.2-1.2-1.6-1.9c-0.7-1.2-0.5-2.5-0.2-3.7
		c1.8-7,4.2-14,6.5-20.8c0.4-1.1,0.6-2.2,0.6-3.3c0-4.8,0-9.7,0-14.5c0-3.4-0.3-6.8-1.1-10.1c-0.3-1.4,0.2-2.8,0.4-4.1
		c1.9-10.3,2.6-20.7,2.4-31.2c0-0.1,0-0.3,0.2-0.5c0.4,1.1,0.8,2.2,1.2,3.3c0.8,1.9,1.5,3.9,3,5.4c1.3,1.3,2.7,1.7,3.6,1.1
		c0.8-0.6,1-1.9,0.1-3.5c-1.3-2.7-2.3-5.5-3.6-8.2c-2.4-5.5-3.9-11.3-5.5-17c-0.5-2-0.8-3.9-0.2-6c0.5-1.7,0.1-3.5,0-5.2
		c-0.9-10.1,1.4-19.4,6.3-28.3c1.9-3.5,4.5-6.4,6.8-9.5c0.2-0.3,0.5-0.4,0.8-0.3c1.3,0.4,2.3-0.3,2.7-1.4
		c3.1-7.1,9.4-10.9,15.6-14.7c3.6-2.2,7.4-4,11.4-5.1c1.4-0.4,2.9-0.4,4.4-0.4c0.6,0,0.8,0.2,0.9,0.7
		C62.5,139.3,63.6,142.3,64.6,145.5z"/>
	<path fill="#6B8FAF" d="M178.6,236.6c0.6,2.2,2.1,3.9,3.1,5.9c0.1,0.2,0.4,0.4,0.3,0.8c-1.5,0.3-3.1-0.1-4.6-0.3
		c-1.5-0.2-3-0.2-4.5-0.3c-3.2-0.3-6.3-0.4-9.5-0.8c-0.5-0.1-0.7,0.3-0.8,0.7c-0.3,1.6-0.8,3.1-0.8,4.8c0,4.5-0.1,9-0.2,13.5
		c0,0.7-0.3,1.1-0.7,1.6c-3.3,4.4-6.6,8.9-9.9,13.3c-0.4,0.5-0.4,0.8-0.3,1.4c2.1,8.2,4.1,16.4,6.1,24.5c0.2,1,0.2,1.9,0.1,2.9
		c-0.3,3.7-0.3,7.5-0.5,11.2c-0.2,4.1-0.4,8.2-0.5,12.3c0,0.2-0.1,0.5-0.1,0.7c0,0.9-0.5,1-1.1,0.5c-0.2-0.1-0.4-0.1-0.6-0.2
		c-0.2,4.6-0.5,9-0.7,13.5c-1.6,0.5-3.2,0.7-4.8,1c-0.5,0.1-0.8-0.1-1-0.6c-0.7-2.2-1.5-4.4-2.2-6.6c-0.2-0.7-0.4-1.4-0.9-1.9
		c-0.2-0.2-0.3-0.4-0.2-0.7c0.6-1.9,0.1-3.6-0.5-5.4c-1.7-4.6-2.1-9.4-2.5-14.2c-0.4-5.3,0.3-10.7-0.5-15.9
		c-0.9-5.3,1.1-9.8,2.4-14.6c1.9-6.7,3.7-13.4,4.8-20.3c0.5-3.2,0.8-6.4,0.8-9.7c0-1.1,0.1-2.2,0.6-3.2c1-2.4,1.3-4.9,1.8-7.4
		c1.3-7.1,2.9-14.2,4.5-21.3c1-4.4,1.7-8.9,2-13.5c0.1-1.3,0.1-2.6-0.9-3.7c-0.4-0.4-0.4-1.1-0.6-1.7c-1.4-4.2-3.3-8.2-5.3-12.1
		c-0.2-0.4-0.4-0.9-0.6-1.3c1.5-0.8,2.7-1.9,4.1-2.9c1.2-0.9,1.3-0.9,2.1,0.3c1.9,2.9,3.9,5.8,5.8,8.8c0.3,0.5,0.7,1,1.2,1.3
		c5.4,3.7,10.9,7.3,16.3,11c-0.2,1.5-1.4,2.4-2.8,2c-0.5-0.1-1.1-0.4-1.6-0.5c-1-0.4-2-0.4-2.9,0.4c-0.4,0.4-1,0.5-1.5,0.6
		c-1.7,0.3-2.2,1.4-1.3,2.9c0.5,0.8,1.3,1.5,2.1,1.9c3.1,1.9,5,4.7,6.5,7.9c0.5,1.1,1.1,2.2,0.5,3.5c-1.3,0.5-2.6,0.2-3.9,0.2
		c-1.2,0.1-1.3,0.1-0.7,1.2c1.2,2.1,2.4,4.4,3.7,6.4C178,235.4,178.5,235.9,178.6,236.6z"/>
	<path fill="#6B8FB0" d="M111.8,196c1.3,0.3,2.6,0.7,3.9,1c0.7,0.2,0.9,0.5,0.6,1.1c-2.5,6.1-5.3,11.9-8.8,17.5
		c-2.6,4.2-5,8.6-7.5,12.9c-0.5,0.8-1,1.2-1.9,1.3c-3.3,0.4-6.5,0.9-9.8,1.3c-3.3,0.4-6.5,0.9-9.8,1.3c-3.7,0.5-7.4,1-11.1,1.5
		c-1.4,0.2-2.8,0.4-4.2,0.6c-0.6,0.1-0.8-0.3-0.9-0.7c-1.7-4-3.4-8-5.1-12c-0.2-0.5-0.2-0.9,0.2-1.4c3.3-3,6.6-6.1,9.8-9.1
		c1.9-1.7,3.6-3.6,5.6-5.3c2.3-2.1,4.4-4.4,7.1-6c4.4-2.7,8.8-5.5,13.1-8.3c0.4-0.3,0.7-0.3,1.2-0.2c4.6,1.1,9.1,2.5,13.8,3.4
		C109.1,196.3,110.3,196.8,111.8,196z"/>
	<path fill="#C4BFD7" d="M139.9,225.6c1.1,1.1,1.9,1,2.6-0.3c1-1.8,1-3.8,0.7-5.7c-1-6.7-3.1-13.1-5.5-19.5
		c-2.3-6.1-3.9-12.4-5.8-18.7c-0.2-0.7,0.1-0.7,0.6-0.7c2.1,0,4.2-0.2,6.2-0.5c0.6-0.1,1,0.1,1.3,0.6c3.9,7.7,8.3,15.1,11.3,23.3
		c0.3,0.9,0.7,1.9,1.2,2.7c0.4,0.8,0.2,1.6,0.2,2.5c-0.5,6.3-1.9,12.3-3.3,18.4c-1.2,5.2-2.3,10.3-3.1,15.6c-0.1,0.6-0.2,1.1-1,1.4
		c-0.9,0.3-1.4,1.2-1.4,2.2c0,0.8,0,1.7,0,2.5c0.9,10.1-1.5,19.8-4.2,29.4c-1.3,4.4-3,8.7-3.8,13.3c-0.4,2.4-1.2,4.9-0.5,7.2
		c1.4,4.5,0.6,9.1,1,13.6c0.5,5.4,0.7,10.9,2.7,16.1c0.6,1.6,1.4,3,2.7,4.2c0.2,0.2,0.7,0.4,0.1,0.8c-1.5,1.1-1.4,2.7-0.9,4.2
		c0.6,2,1.3,3.9,2,6c-1.6,0.1-3.1,0.2-4.6,0.3c-2.5,0-5,0-7.4,0c-0.8,0-1-0.1-1-1c0.3-4.5,1.8-8.8,2.9-13.2
		c1.2-4.6,1.9-9.3,1.2-13.9c-1-6.3-0.4-12.6-1-18.8c-0.8-8.2-1.5-16.4-3.3-24.4c-0.1-0.3,0-0.6,0.1-0.9c3-11.6,5.9-23.2,8.1-35
		c0.6-3.2,1.2-6.5,1.9-9.7c0.2-0.5,0-1.1,0.1-1.7C139.6,225.9,139.5,225.6,139.9,225.6z"/>
	<path fill="#6B8FAF" d="M63.6,258.1c-1.1,0.9-2.5,1-3.7,1.4c-3.6,1.1-7.3,2.1-10.9,3.2c-0.4,0.1-0.7,0.3-0.7,0.8
		c-0.2,2.9-0.5,5.9-0.7,8.8c-0.3,3.5-0.6,7-0.9,10.6c-0.2,2.3-0.3,4.5-0.5,6.8c-0.2,2.7-0.5,5.5-0.7,8.2c0,0.6,0,1.1,0.2,1.6
		c2.3,6,4.5,12.1,6.7,18.2c1.9,5.2,3.8,10.4,5.8,15.6c-2.5-1.5-5.1-2.9-7.5-4.7c-0.5-0.3-0.7-0.6-0.5-1.3c0.3-1.2-0.2-2.2-1.4-2.8
		c-0.3-0.1-0.6-0.1-0.6-0.6c0-1.8-1-3.3-1.9-4.7c-3.5-5.1-4.5-10.9-5-16.9c-0.6-6.3-0.8-12.7-0.7-19c0-3.2,0.7-6.3,1-9.4
		c0.3-3.2,0.7-6.3,1.2-9.5c0.3-2.1,0.9-4.2,2-6.1c0.6-1,1.1-2.1,1.3-3.3c0.2-0.8,0.5-0.8,1.2-0.6c5.1,1.5,10.2,2.8,15.5,3.6
		C62.9,258,63.3,258,63.6,258.1z"/>
	<path fill="#C6C0D8" d="M115.4,179.3c-3,1.4-5,3.3-6.4,6.1c-1.5-2.7-3.6-4.8-5.9-6.5c-4.6-3.3-9.8-3.9-15.3-3.6
		c-3.3,0.2-6.5,1-9.8,1.7c-0.2,0-0.4,0.1-0.6,0.1c-2.8,0.3-2.6,0.2-3.6-2.3c-0.7-1.8-0.3-2.9,0.8-4.3c1.4-1.9,3.3-3.2,4.8-5
		c0.3-0.4,0.5-0.2,0.8-0.1c3.1,1.2,6.3,2.5,9.2,4.2c3.4,2,7.1,3.4,11,4c0.3,0,0.7,0.1,0.9,0.3c2.3,2.8,5.6,3.4,8.8,4.4
		C111.8,178.8,113.5,179,115.4,179.3z"/>
	<path fill="#C7C1D9" d="M189.9,179.4c-8.2-1.6-15.2,0.7-21.3,6.3c-0.1-1.3-0.2-2.6-0.5-3.7c-0.4-1.8-1-3.3-3.1-3.8
		c-0.5-0.1-0.9-1.2-1.4-2c1.1,0.1,2,0,2.9,0.2c3.2,0.6,6.2-0.1,8.9-1.8c1.6-1,3.1-2.1,4.6-3.2c0.3-0.2,0.5-0.5,1-0.2
		c2.2,1.1,4.3,2.3,6.1,3.9C188.5,176.3,189.3,177.8,189.9,179.4z"/>
	<path fill="#577697" d="M139.9,225.6c-0.5,0.6,0.1,1.5-0.4,2.1c0-1,0.1-2-0.2-3C139.7,225,139.8,225.3,139.9,225.6z"/>
	<path fill="#6A8DAE" d="M239,326.7c0.2-1.9,0.1-3.6,0.3-5.2c0.2-1.7,0.2-3.5,0.3-5.2c0.3-2.9,0.1-5.8,0.6-8.7
		c0.8-4.4-0.9-8.2-2.2-12.1c-1.4-4-2.8-8-4.2-11.9c-0.5-1.5-1-3-1.6-4.5c-0.5-1.2-0.5-2.5-0.2-3.8c0.1-0.5,0.1-1,0.1-1.4
		c-0.1-2.4,0.3-4.7,0.3-7.5c1,1.6,1.8,2.9,2.7,4.1c0.2,0.3,0.4,0.7,0.6,1c0.4,0.6,0.7,0.6,1,0c1.8-3.1,3.7-6.3,5.5-9.4
		c1.6-2.7,3.2-5.3,5-7.9c-0.2,1.6-0.3,3.3-0.5,4.9c-0.3,2.6-0.6,5.2-0.9,7.8c-0.3,2.4-0.5,4.7-0.8,7.1c-0.1,0.8,0,1.4,0.2,2.1
		c2.9,8.2,5.8,16.5,8.7,24.7c0.3,0.7,0.2,1.3-0.2,2c-4.7,7.8-9.4,15.7-14.1,23.6C239.4,326.4,239.4,326.4,239,326.7z"/>
	<path d="M178.6,236.6c-0.5-0.5-0.8-1-1-1.6c-0.4-0.7-0.5-1.6-0.3-2.3c0.4-1.9,0.8-3.9,1.3-5.8c0.1-0.9-0.1-1.7-0.4-2.6
		c-1.3-3.5-3.3-6.4-6.5-8.5c-1-0.6-1.9-1.3-2.5-2.4c-0.9-1.7-0.1-3.1,1.8-3.1c0.5,0,0.9-0.1,1.3-0.5c0.8-0.9,1.9-1,3.1-0.6
		c0.2,0.1,0.3,0.1,0.4,0.2c2.3,1,2.7,0.9,4-1.3c1.1-2,1.9-4.2,2.4-6.5c0.2-0.9,0.4-1.8,1.1-2.5c1-1,4.3-1.2,5.4-0.3
		c0.8,0.6,0.9,1.5,1,2.5c0,1.5-0.3,3,0.3,4.4c0.7,1.7,2.1,2.3,3.8,1.6c2.4-1,3.7-0.6,5.1,1.7c0.7,1.1,0.5,2.6-0.7,3.2
		c-0.7,0.4-1.1,0.9-1.4,1.6c-1.7,3.4-2.9,7.1-3.3,10.9c-0.2,1.8,0,3.6,2,4.6c0.9,0.4,1.5,1.2,1.4,2.3c-0.1,1.1-1,1.4-1.9,1.8
		c-1.8,0.9-3.3,0.3-4.8-0.8c-1.3-0.9-2.7-1.5-4.3-1.4c-1.8,0.1-3.1,1.2-3.4,2.9C182.1,236.7,180.9,237.4,178.6,236.6z"/>
	<path fill="#BC794C" d="M115.5,70.5c0.3-0.3,0.8-0.2,1.1-0.2c7.6,0,15.3,0.2,22.9,0.3c4.2,0.1,8.3,0.1,12.5,0.2
		c0.7,0,1.2-0.1,1.8-0.4c8.9-4.5,17.8-9.1,26.7-13.6c0.9-0.5,1.8-0.9,2.6-1.4c0.5-0.3,0.8-0.3,1,0.4c1.5,4.3,3.1,8.6,4.7,12.9
		c0.3,0.8,0.1,1.6-0.1,2.3c-0.8,3.9-1.7,7.9-2.5,11.8c0,0.2-0.1,0.4-0.1,0.6c0.1,3.4-0.3,6.8-0.3,10.2c0,2.4-0.2,4.9-0.2,7.3
		c0,3.2,0.5,6.3,0.9,9.5c0.3,2.7,0.6,5.4,0.8,8.1c0.4,5,0.3,10,0.5,15c0,1.4-0.1,2.7-1.3,3.7c-2.9,2.5-3.7,6.1-5.2,9.4
		c-0.9,2-1.7,4-2.5,6.1c-0.2,0.5-0.5,0.9-1.1,1c-11.4,3.2-22.8,6.3-34.2,9.6c-1.8,0.5-3.5-0.1-5.2-0.4c-4.2-0.5-8.3-1.2-12.5-1.8
		c-4.4-0.7-8.8-1.4-13.2-2c-4.2-0.6-8.3-1.2-12.5-1.8c-1.7-0.3-3.5-0.5-5.2-0.8c-1.2-0.2-1.8-1.3-2.5-2.1c-2.5-2.9-5-5.8-7.5-8.7
		c-3.1-3.5-6.2-7-9.3-10.6c-0.6-0.7-1.2-1-2-1.3c-0.9-0.4-1-0.7-0.5-1.6c3.2-5.9,6.4-11.8,9.6-17.7c1.5-2.8,1.8-5.9,2.6-8.9
		c0.7-2.6,1.7-5.2,1.5-7.9c-0.1-1.6-0.3-3.2-0.4-4.8c-0.2-1.9,0.4-3.7,0.8-5.4c0.6-2.3,0.5-4.5-0.3-6.7c-1.4-3.8-2.6-7.7-3.8-11.6
		c-0.4-1.1-0.5-2.1-0.1-3.2c0.9-2.7,1.6-5.4,2.4-8.1c0.2-0.9,0.5-1,1.2-0.4c4.3,4.1,8.7,8.1,13.1,12.1c0.4,0.4,0.8,0.5,1.4,0.5
		c1.3,0,2.7-0.2,4,0.1c-0.6,0.8-1.5,1-2.4,1.3c-0.3,0.1-0.6,0.1-0.8,0.1c-1.2,0.3-2.1,1.4-1.9,2.4c0.2,1.2,1.3,2.1,2.7,1.9
		c1-0.1,1.9-0.4,2.7-0.8c1.8-1,3.7-1.4,5.8-1.3c1.1,0,1.9,0.4,2.7,1.1c2.2,2.2,4.5,4.3,6.3,6.9c2.1,3.2,5.4,4,8.9,4.1
		c0.6,0,1.3-0.2,1.8-0.5c0.8-0.4,1.4-1.1,1.2-2.1c-0.2-1-0.9-1.5-1.8-1.6c-0.7-0.1-1.4-0.1-2,0c-1.7,0.4-3-0.3-4.2-1.4
		c-0.2-0.2-0.4-0.4-0.6-0.6c-2.1-3-4.7-5.7-7.3-8.2C115.8,71.2,115.5,71,115.5,70.5z"/>
	<path d="M115.5,70.5c2.9,2.6,5.6,5.4,7.9,8.7c1.3,1.8,2.9,2.8,5.2,2.2c0.5-0.1,1-0.1,1.6-0.1c1.2,0.1,2.1,0.8,2.3,1.9
		c0.2,1.2-0.4,2-1.4,2.5c-1.4,0.8-2.8,0.5-4.2,0.3c-3-0.4-5.3-1.8-7.1-4.2c-1.8-2.6-4.1-4.7-6.3-6.9c-1.5-1.4-3.2-0.9-4.9-0.7
		c-1.1,0.1-2.1,0.7-3.1,1.2c-1.1,0.5-2.1,0.9-3.3,0.8c-1.4-0.1-2.4-1.1-2.5-2.4c-0.1-1.2,0.8-2.4,2.1-2.5c1.2-0.2,2.3-0.7,3.4-1.2
		c2.7-1,5.5-1.2,8.3-0.7C114.2,69.7,114.8,70.2,115.5,70.5z"/>
	<path fill="#537395" d="M178.6,226.8c0.1,1.2,0,2.3-0.3,3.4c-0.5,1.6-0.8,3.1-0.6,4.8c-1.4-1.8-2.4-3.9-3.5-5.9
		c-1.3-2.2-1.2-2.2,1.4-2.2C176.5,226.8,177.5,226.8,178.6,226.8z"/>
	<path fill="#C7C1D9" d="M178.4,214.9c4.1-0.9,5.6-4.2,7-7.6c0.5,0.2,0.5,0.7,0.7,1c1,2.1,2.7,3.4,5.1,3.7c0.7,0.1,1,0.2,0.7,1.1
		c-1.7,4.2-3,8.6-2.9,13.2c0,0.3,0.1,0.7-0.5,0.6c-1.4-0.2-2.8-0.4-4.3-0.1c-0.4,0.1-0.5-0.1-0.5-0.4c-0.3-4.4-2.5-7.9-5.1-11.2
		C178.4,215.1,178.4,215,178.4,214.9z"/>
	<path fill="#833153" d="M152.9,109.7c2.7,0.4,4.9,1.9,7.7,2.9c-2.8,1.8-5.2,3.4-7.7,5c-4.4,2.8-8.8,5.6-13.2,8.5
		c-0.5,0.3-1,0.4-1.5,0.2c-7.2-3.1-14.5-6.1-21.7-9.2c-1-0.4-2-0.9-3-1.3c-0.5-0.2-0.6-0.5-0.4-1c2.2-3.9,4.4-7.9,6.6-11.8
		c0.2-0.4,0.4-0.8,0.9-0.7c0.4,0.5,0.2,1,0.1,1.5c-0.3,1.9-0.2,3.9-0.2,5.9c0.1,2.8,1.6,4.2,4.4,4.4c4.2,0.2,8.4,0.2,12.6,0.7
		c1.5,0.2,2.9,0,4.4-0.2c0.6-0.1,1.2,0,1.7,0.2c1.6,0.8,2.6,0.6,3.8-0.8c1.1-1.4,2.5-2.6,3.9-3.6C152,109.9,152.3,109.5,152.9,109.7
		z"/>
	<path d="M138.7,152.9c-1.5,1.4-3.1,2.5-5.2,1.8c-0.7-0.2-1.4-0.4-2.1-0.3c-0.8,0.2-1.6,0.2-2.4,0.2c-0.8,0-1.7,0-2.5,0
		c-2.5-0.1-4-1.7-5.3-3.6c-1-1.5-0.7-3.2-0.5-4.8c0.4-2.6,0.8-5.2,1.6-7.7c2-6.3,5.1-6.6,10.2-6.2c1,0.1,2,0.1,3,0.2
		c3.4,0.5,5.8,2.9,6.3,6.3c0.2,1.5,0.5,3,0.7,4.5c0.3,2.1-0.2,4.1-1.2,6C140.8,150.7,140.1,152,138.7,152.9z"/>
	<path d="M152.9,109.7c-1.9,1.1-3.5,2.5-4.9,4.2c-1.2,1.5-3,2.2-4.6,0.9c-0.3-0.2-0.5-0.1-0.8-0.1c-3.1,0.5-6.3,0.2-9.4-0.1
		c-0.5,0-1-0.1-1.4-0.1c-2.6,0.2-5.2-0.3-7.8-0.3c-2.1,0-3.7-1.9-3.8-4.3c-0.1-2.5-0.1-5.1,0.4-7.6c0.1-1,0.2-1.9,0.6-2.8
		c0.7-1.5,2.3-2.2,3.7-1.5c1.3,0.7,1.6,1.9,0.9,3.6c-0.9,2.1-1.3,4.2-1.3,6.5c0,0.3,0,0.5,0.3,0.6c1.8,0.6,3.6,1.4,5.6,1.4
		c3.2,0,6.3,0.5,9.4,0.4c1.3,0,2.4-0.2,3.6-0.8c0.7-0.3,1.4-0.7,2.3-0.7c0.4,0,0.6-0.2,0.9-0.5c0.9-0.8,1.8-1.6,2.7-2.4
		c0.3-0.3,0.6-0.5,1-0.7c1.4-0.8,2.9-0.6,3.7,0.4c0.7,1,0.3,2.5-0.8,3.5C153.1,109.5,153,109.6,152.9,109.7z"/>
	<path d="M173.6,88.7c-1.8-0.8-3.6-1.1-5.4-0.8c-1.3,0.2-2.5,0.2-3.8,0.2c-1.5,0-2.6-1.1-2.6-2.4c0-1.4,1.1-2.3,2.6-2.5
		c5.6-0.7,10.7,1,15.6,3.5c1.1,0.5,1.8,1.4,1.6,2.7c-0.2,1.2-0.9,2-2.2,2.1c-0.5,0-0.6,0.3-0.5,0.7c0.4,2-0.3,3.5-1.7,4.8
		c-1.8,1.8-3.7,3.4-6.3,3.9c-2.2,0.4-4-0.5-4.8-2.6c-0.1-0.2-0.1-0.5-0.2-0.7c-1.2-2.2-0.7-4.3,0.9-6.3
		C168.5,89.1,170.9,89.1,173.6,88.7z"/>
	<path d="M104.5,89.4c3.2,1.5,4.6,4.1,3.8,6.8c-1.3,4.1-4.4,4.2-7.3,2.3c-0.7-0.4-1.2-0.9-2.1-1c-1.6-0.3-2.4-1.9-1.8-3.7
		c0.4-1.4,1.3-2.4,2.5-3.5c-1.4,0-2.5,0.5-3.6,0.8c-0.8,0.2-1.5,0.2-2.3,0.2c-1.2-0.1-2.2-1.1-2.2-2.3c0-1.1,0.9-2.1,2.1-2.3
		c3.6-0.6,7.3-1.3,10.9-1.8c4.1-0.6,8.3-0.3,12.4-0.3c0.3,0,0.6,0.1,0.8,0.2c1.2,0.3,1.9,1.4,1.7,2.6c-0.2,1.1-1.1,1.8-2.4,1.8
		c-2.8-0.2-5.6-0.1-8.4-0.1C107.4,89,106,89,104.5,89.4z"/>
	<path d="M149.5,87.4c-1.1,0-2.1,0-2.9-0.7c-0.8-0.7-1.1-1.6-0.8-2.6c0.3-1,1.1-1.7,2.1-1.6c2.2,0.2,4.1-0.8,6.1-1.6
		c1.3-0.5,2.6-1.3,3.3-2.5c2.9-5.2,7.7-7.4,13.2-8.5c2.4-0.5,4.8-0.7,7.1-1.6c1.6-0.6,3.2,0.3,3.5,1.8c0.3,1.5-0.7,2.6-2.5,2.9
		c-3.8,0.8-7.7,1.1-11.4,2.6c-2.1,0.8-3.9,2.1-5.1,4c-2,3.3-4.8,5.3-8.4,6.6C152.2,86.7,150.9,87.6,149.5,87.4z"/>
	<path fill="#863353" d="M138.7,152.9c0.9-1.2,1.8-2.4,2.7-3.6c4.2-0.4,8.3-0.8,12.5-1.1c0.2,0,0.5,0,0.7,0.1c2.4,1.5,4.7,3,7.4,4.6
		c-4.4,0-8.5,0-12.8,0c1.1,1.8,2.2,3.5,3.3,5.4C147.7,156.4,143.2,154.6,138.7,152.9z"/>
	<path fill="#863554" d="M121.3,151c1.6,1.4,3,3.1,5.3,3.6c-1.4,0.5-2.9,0.4-4.3,0.7c-2.3,0.4-4.5,0.7-6.8,1c-0.1,0-0.3,0-0.6,0
		c1.3-1.6,2.4-3.1,3.7-4.5C119.2,150.9,120.3,151.2,121.3,151z"/>
	<path fill="#461B3D" d="M130.3,137.1c1.6,0.2,3.3,0.5,5,0.6c1,0,1.7,0.9,2,2c0.4,1.6,0.7,3.2,0.9,4.8c0.2,1-0.2,1.9-0.7,2.7
		c-0.2,0.2-0.3,0.4-0.7,0.3c-1-0.2-1.7,0.2-2.3,0.9c-1.5,1.5-3.4,1.6-5.3,1.7c-0.5,0-0.5-0.4-0.6-0.7c-0.4-1.8-1.2-2.4-3-2.3
		c-0.5,0-0.6-0.1-0.5-0.5c0.5-2.6,0.9-5.2,2.1-7.6C127.8,137.7,128.8,136.9,130.3,137.1z"/>
</g>
</svg>
