<?xml version="1.0" encoding="utf-8"?>
<!-- Generator: Adobe Illustrator 18.1.1, SVG Export Plug-In . SVG Version: 6.00 Build 0)  -->
<svg version="1.1"
	 id="svg2" xmlns:dc="http://purl.org/dc/elements/1.1/" xmlns:cc="http://creativecommons.org/ns#" xmlns:rdf="http://www.w3.org/1999/02/22-rdf-syntax-ns#" xmlns:svg="http://www.w3.org/2000/svg"
	 xmlns="http://www.w3.org/2000/svg" xmlns:xlink="http://www.w3.org/1999/xlink" x="0px" y="0px" viewBox="-98 157.1 413.5 479.9"
	 enable-background="new -98 157.1 413.5 479.9" xml:space="preserve">
<g id="layer1" transform="translate(0,-572.51216)">
	<g id="g4191" transform="translate(-140.73882,296.08257)">
		<g id="g4172" transform="translate(731.42857,191.42857)">
			<path id="path4170" fill="#FFDD55" fill-opacity="0.46" d="M-365.7,660l-90.6-30.5l-23.9,92.5l-49.8-81.6l-77.8,55.5l14.3-94.5
				l-95.3-7.5l71.7-63.2l-68.2-67l95.6-2.3l-9.2-95.1l74.7,59.7l54.1-78.8l18.8,93.7l92.1-25.6l-45.8,83.9l87,39.6l-89,34.8
				L-365.7,660z"/>
			<path id="rect4159" fill="#DACFCF" d="M-568.7,608.5l138,6.2l24.6,19.1l-14.1,44.4l-157.6,2l-29.3-37.5L-568.7,608.5z"/>
			<path id="rect4153" fill="#A05A2C" d="M-644,428l106.7,9.4l111.7-12.9l115,10.6l-127.1,109.9l-109.8,7.1L-644,428z"/>
			<path id="rect4156" fill="#804823" d="M-643,430.9l107.9,19.3l96.4-6l117.2-5.4l-117.1,75.7H-573L-643,430.9z"/>
			<path id="rect4136" fill="#C8B7B7" d="M-672.3,440.9c6.2-6.8,2.8-16.4,26.1-18.4l115.9,60.8l213.1-47.9l42.1,5.5l-165.7,208.6
				h-116.3L-672.3,440.9z"/>
			<path id="path4151" fill="#9F8282" d="M-560.9,642.8l3.7,6.8h116.3l165.7-208.6c-13.6-2.1-16.6-10.6-42.1-5.5l-207.9,46.7
				L-560.9,642.8z"/>
			<text transform="matrix(0.4686 0 0 1 -661.179 636.0246)" font-family="'ArialMT'" font-size="165.0072">Continue</text>
			<text transform="matrix(0.4686 0 0 1 -665.2201 628.9536)" fill="#FFFFFF" font-family="'ArialMT'" font-size="165.0072">Continue</text>
			
				<text transform="matrix(0.4686 0 0 1 -665.2201 628.9536)" fill="none" stroke="#000000" font-family="'ArialMT'" font-size="165.0072">Continue</text>
		</g>
		<path id="rect4184" fill="#E9E9E9" d="M186.3,500.9l56.1-67.4l-21.5,84.8l8.2,61.1l1.4,52.9l-37.1-40l12.8-44.2L186.3,500.9z"/>
		<path id="path4187" fill="#CCCCCC" d="M264.9,516.5l50.4-55.7L296,530.9l7.4,50.6l1.3,43.7l-33.4-33.1l11.5-36.6L264.9,516.5z"/>
		<path id="path4189" fill="#BBBBBB" d="M128.2,538.7l40.8-45.1l-15.6,56.8l6,40.9l1,35.4l-27-26.8l9.3-29.6L128.2,538.7z"/>
	</g>
</g>
</svg>
