<?xml version="1.0" encoding="utf-8"?>
<!-- Generator: Adobe Illustrator 18.1.1, SVG Export Plug-In . SVG Version: 6.00 Build 0)  -->
<svg version="1.1" id="Layer_1" xmlns="http://www.w3.org/2000/svg" xmlns:xlink="http://www.w3.org/1999/xlink" x="0px" y="0px"
	 viewBox="0 0 302.7 360" enable-background="new 0 0 302.7 360" xml:space="preserve">
<g>
	<path d="M59.3,108.1c-0.2-1.6,0.4-2.9,0.9-4.2c0.8-2.1,1.8-4.1,2.8-6.1c1-2,2.8-3.4,4.7-4.4c1.2-0.7,1.7-1.6,1.9-2.9
		c0.2-1.5,0.4-3,0-4.5c-0.4-1.7-1.1-2.2-2.8-1.9c-0.7,0.1-1.2-0.2-1.6-0.8c-0.7-1-0.6-2.5,0-3.6c2.2-3.7,5-7,8-10.1
		c1-1,1.8-2.2,3.4-2.2c0.4,0,0.5-0.4,0.6-0.7c1.6-3.1,3.3-6.3,4.9-9.4c0.6-1.2,1.2-2.5,1.4-3.9c0.2-1.7,1.6-2.4,2.8-3.2
		c1.3-0.9,2.6-1.6,4-2.4c1.3-0.7,2.6-1.1,4.1-0.7c0.4,0.1,0.8-0.1,1.1-0.2c2.8-1,5.5-2.1,8.2-3.1c0.5-0.2,1.1-0.5,1.6-0.5
		c1.6,0.1,1.8-0.9,2.2-2.2c1.3-4.7,3.3-9.1,5.7-13.3c0.3-0.5,0.5-1,0.6-1.5c0.2-1.3,0.9-2.4,1.9-3.3c5-4.7,9.2-10.1,13.6-15.3
		c1.7-2,3.1-2.2,5.2-0.9c1.1,0.7,1.2,1.9,1.1,3c-0.1,1.7,0.3,3.2,1.6,4.4c0.3,0.3,0.5,0.4,0.9,0.3c1.6-0.2,2.2,0.2,2.6,1.9
		c4.9-2.4,9.9-4.5,15.2-6c1.2-0.3,2.3-0.7,3.3-1.5c2-1.3,4.1-2.4,6.2-3.6c2.4-1.3,4.7-2.7,6.8-4.4c0.8-0.6,1.6-1,2.7-0.6
		c0.2,0.1,0.4,0,0.7,0c1.6-0.5,2.6,0.2,2.7,1.8c0.1,1.6,0.5,3.2,0.8,4.8c0.1,0.6,0.3,0.9,1.1,0.7c1.3-0.4,2.7-0.8,4-1.1
		c1.4-0.3,3.1,0.4,2.9,1.5c-0.2,1.8,0.8,3.3,0.6,5c0,0.2,0,0.5,0,0.7c0.2,1.3,0.2,1.3,1.5,0.8c1.6-0.7,3.3-1.4,5.1-1.5
		c0.8,0,1.7,0,2.4,0.6c0.4,0.3,0.8,0.2,1.3,0.2c1.6-0.1,3.1,0.4,4.5,1c4.1,1.7,7.7,4,10.9,7.1c2.2,2.1,3.4,4.8,4.2,7.6
		c2.1-0.9,3.1-0.2,3.3,2c0.3,3-0.7,5.7-1.3,8.4c-0.3,1.3,0.3,2.1,1.7,1.8c2.7-0.5,5.3-1.2,8-1.6c3.8-0.6,7.7-0.9,11.5-1.3
		c2.9-0.4,5.9-0.7,8.8-1.1c1.4-0.2,2.8-0.1,4.2-0.3c1.7-0.2,2.6,1.4,1.9,2.9c-1.5,3-3.8,5.5-5.8,8.2c-1,1.3-2.1,2.5-3,4.1
		c1.9,0.3,3.7-0.2,5.6-0.2c0.8,0,1.7-0.1,2.5,0.3c0.7,0.3,1.2,0.8,1.3,1.6c0,0.8-0.4,1.4-1.1,1.7c-0.3,0.2-0.7,0.2-0.9,0.7
		c-1.2,4.9-3.9,9-5.8,13.6c-0.6,1.5-0.6,1.4,0.9,1.8c5.5,1.4,10.9,2.8,16.3,4.4c1.3,0.4,2.5,0.8,3.6,1.6c0.7,0.5,1.2,1.1,1.5,1.8
		c0.4,1.4-0.3,2.3-2.1,2.5c0.9,1.8,1.7,3.5,3.2,4.9c0.8,0.7,1.2,1.4,0.8,2.4c-0.4,1.1-1.3,1.4-2.4,1.3c-1.3-0.1-2.5-0.5-3.9-1
		c0.5,1.7,1,3.2,2,4.5c0.7,0.9,1.4,1.8,2.8,2c1.1,0.1,1.9,1.1,2.7,1.9c3.6,3.2,6.8,6.7,9.5,10.8c1.2,1.8,2.7,3.4,4.4,4.8
		c1.3,1.1,2.7,1.6,4.4,1.7c0.4,0,0.9,0,1.3,0c3.2,0.1,3.9,1.5,3.3,4.6c-1,4.6-3,8.9-5.1,13.1c-1.8,3.8-3.9,7.4-5.3,11.3
		c-0.4,1-0.3,1.3,0.9,1.3c2.5,0,5.1-0.3,7.6,0.7c0.3,0.1,0.7,0.1,1,0c1.6-0.6,2.8,0.1,3.3,1.7c0.7,2.2,0.4,4.4-0.3,6.6
		c-0.4,1.2-0.9,2.4-1.3,3.6c-0.4,1.3,0.1,2.2,1.4,2.5c0.8,0.1,1.3,0.5,1.7,1.1c2.7,3.4,2.5,11-2.2,14.4c-0.5,0.3-0.5,0.7-0.5,1.1
		c-0.1,1.5-0.7,2.1-2.1,2.2c-0.5,0-0.7,0.3-0.9,0.7c-2.2,3.1-3,6.6-3.2,10.3c0,0.5,0,1,0,1.4c-0.1,0.8-0.1,1.4,0.9,1.6
		c0.6,0.1,0.9,0.8,1.1,1.5c1.1,3.8,2.2,7.7,1.9,11.7c-0.1,1.9-0.2,3.7-2,4.8c-0.1,0.1-0.2,0.3-0.2,0.5c-0.3,1-1,1.5-2,1.6
		c-3.7,0.6-7.4,1.5-11,2.6c-0.8,0.2-1.6,0.6-2.4,1.2c1,0.7,1.1,1.7,1.1,2.7c0,1.8,0.7,3.3,1.5,4.9c0.9,1.8,2,3.5,3,5.3
		c1,1.7,1.9,3.3,1.2,5.4c-0.1,0.4,0,0.8,0,1.2c0.3,5-0.7,9.7-2.6,14.3c-0.3,0.6-0.1,1,0.3,1.6c1,1.4,2.4,2,3.8,2.7
		c1.3,0.7,2.1,1.9,3,2.9c0.5,0.5,0.5,1.2,0.4,1.9c-0.1,0.9-0.3,1.9-0.4,2.8c-0.1,0.6,0,1.1,0.5,1.6c0.8,0.8,0.6,1.8,0.1,2.8
		c-2.4,4-4.1,8.2-5,12.8c-0.2,0.9-0.2,1.8-0.1,2.7c0,1.9,0.7,2.4,2.6,1.8c0.9-0.3,1.7-0.7,2.5-1.2c1.1-0.6,2.2-1.3,3.4-1.8
		c0.8-0.4,1.8-0.6,2.5,0.2c0.7,0.8,0.9,1.8,0.4,2.9c-2.1,4.9-4.3,9.7-5.7,14.9c-0.2,0.9-0.4,1.8-0.7,2.6c-0.2,0.8-0.3,1.4,0.4,2.1
		c0.9,0.9,0.1,2-0.3,2.9c-0.4,0.8-1.1,1.3-2,1.1c-0.6-0.2-0.9,0.1-1.4,0.4c-3.5,2.2-7.3,3.8-11.6,3.4c-1.8-0.2-3.6-0.3-5.4-0.4
		c-1.3-0.1-2.7,0.5-3.8,1.3c-0.7,0.5-0.5,1.4-0.4,2.2c0.1,0.6,0.2,1.1,0.2,1.7c0,0.8-0.4,1.5-1.1,1.8c-1,0.5-3.4,0.1-4.2-0.7
		c-1-1.2-2.3-2-3.8-2.4c-2.7-0.8-4.8-2.5-6.5-4.6c-0.7-0.8-1.3-1.6-2.1-2.3c-0.8-0.8-1.8-1.1-3-1.2c-4.6-0.4-9.3-0.1-13.7-1.6
		c-2.5-0.9-4.7-2.3-6.6-4.1c-0.4-0.4-0.7-0.9-1.1-1.2c-0.5,1.2-1.1,2.1-1.2,3.1c-0.1,0.8-0.6,1.5-1,2.2c-1,1.5-2.1,2.8-2.3,4.7
		c-0.1,0.5-0.4,1-0.8,1.1c-1.2,0.4-1,1.1-0.8,2c0.6,3.5,1.6,6.9,2,10.4c0,0.3,0.2,0.5,0.5,0.7c1.1,0.5,1.6,1.4,0.9,2.4
		c-3.1,4.9-4.4,10.6-6.8,15.9c-1,2.1-4.5,3.3-6.5,2.1c-0.3-0.2-0.4-0.2-0.7,0c-0.6,0.5-1.3,0.8-2.1,0.6c-0.3-0.1-0.6,0.1-0.9,0.3
		c-3.5,2-7.5,2.7-11.3,3.9c-9,2.8-18.1,4.7-27.3,6.5c-3,0.6-6,1.1-8.9,2.3c-0.4,0.2-0.8,0.1-1.2,0.1c-6.4-1-12.4-3-18.2-5.9
		c-5.1-2.6-10.8-3.8-16.3-5.1c-0.5-0.1-1-0.3-1.5-0.5c-0.8-0.3-1.5-0.7-2.1,0.4c-0.3,0.5-0.8,0.4-1.2-0.1c-0.5-0.5-0.8-1.2-0.9-1.8
		c-0.1-1.2-0.8-2.1-1.5-3c-3.7-4.5-7.2-9.2-9.9-14.5c-0.3-0.5-0.5-1-0.7-1.5c-0.5-1.3,0-3,1.6-3.1c0.4,0,0.5-0.3,0.6-0.6
		c0.1-1,0.2-2,0.4-3.2c-1.2,1.7-2.3,3.3-3.7,4.5c-1.5,1.4-3.1,2.4-5.1,2.5c-1,0.1-2,0-2.8-0.4c-2.2-1.2-4.5-0.7-6.8-0.5
		c-6.6,0.6-12.7,3.1-19.1,4.5c-1.2,0.3-2.3,0.6-3.4,1c-0.4,0.1-0.8,0.3-1.2,0.2c-1.2-0.2-2.2-0.1-3.4,0.3c-1.4,0.5-2.5-1.3-1.9-2.8
		c0.3-0.8,0.9-1.3,1.6-1.8c0.8-0.7,1.7-1.3,2.6-1.9c-0.1-0.3-0.4-0.2-0.5-0.2c-2.8,0.2-5.3-0.7-7.6-2.4c-0.6-0.4-1.2-0.6-1.9-0.6
		c-0.4,0-0.9,0-1.3-0.1c-1-0.2-1.7-0.8-1.6-1.9c0-1.1,0.7-1.8,1.7-1.9c2.8-0.1,4.8-1.6,6.8-3.3c1.1-0.9,2.5-1.3,3.6-2.3
		c1.7-1.6,3.2-3.3,4.1-5.5c0.3-0.8,0.8-1.4,1.3-2.3c-4.7,0.1-7.3-2.7-9.3-6.4c-2.2-4.3-3.9-8.7-4.3-13.5c-0.1-0.7-0.7-0.9-1.1-1.1
		c-1.9-1.3-1.9-1.3-3.6,0.3c-1.4,1.4-2.8,2.7-4.5,3.8c-1.4,0.9-2.8,1.3-4.4,1.1c-1.7-0.1-2.2-1.3-2-2.9c0.4-2,0.8-4,1.9-6.1
		c-2.5,1.4-4.6,2.7-6.7,4.2c-1.8,1.3-3.6,2.6-5.6,3.6c-1,0.5-1.9,0.9-2.9,0c-0.2-0.2-0.4-0.1-0.6,0c-1.1,0.3-1.7-0.2-1.8-1.4
		c-0.1-1.1,0.1-2.1,0.6-3c0.8-1.5,1.5-3,2.3-4.6c-6.6-0.2-9.8-4.4-12.1-9.8c-0.2-0.5-0.4-0.9-0.8-1.2c-0.8-0.6-1.1-1.5-1.2-2.5
		c-0.2-1.1-0.3-2.3-0.5-3.4c-0.8-3.6-2.2-4.9-5.8-5.3c-1.2-0.1-2.3-0.6-3.2-1.4c-0.6-0.6-0.9-1.4-0.4-2.1c1.2-1.9,1.7-4.1,2.6-6.1
		c1-2.2,1.7-4.4,2.6-6.6c0.2-0.4,0.3-0.8,0-1.2c-0.9-1.1-1.1-2.5-0.7-3.8c0.4-1.1,0.3-2.2,0-3.3c-0.4-1.5-0.3-3.1-0.4-4.6
		c-0.1-5.3,0.3-10.5,1-15.8c0.2-1.5,0-3.1,0.8-4.6c0.3-0.5-0.3-1.4-0.2-2.2c0.3-1.3,0.8-2.4,1.5-3.5c4.5-6.8,8.8-13.6,14.2-19.7
		c1.4-1.5,2-2.9,1.8-4.9c-0.1-1.2,0.2-2.5,0.5-3.7c0.1-0.4,0.2-1,0.5-1.2c1.3-1,1.1-2.5,1.5-3.8c0.3-0.9,0.6-1.8,1.1-2.6
		c3.3-5.2,5.9-10.7,9.1-15.9c1-1.6,2.1-3.1,3.2-4.6c0.3-0.4,0.5-0.6,0-0.9c-2.6-1.7-2.4-4.3-2.3-6.9c0-0.7,0.2-1.5,0.3-2.2
		c0.3-1.7,0.2-3.3,0.1-5c-0.4-5,1-9.4,4.9-13c4.1-3.8,8.9-6.2,13.6-9C57,108.4,58.1,107.9,59.3,108.1z"/>
	<path fill="#BA4E55" d="M106.3,51.1c0.2,1,0,1.8-0.5,2.7c-0.8,1.4-0.8,3-0.3,4.5c1.7,4.9,2.1,9.9,1.8,15c0,1.1,0,2.2,0.2,3.2
		c0.2,1,0.7,1.8,1.9,1.9c0.9,0.1,1.8-0.7,2-1.9c0.4-3.3,0.2-6.6,0.1-9.9c-0.1-3.1-1.1-5.9-1.8-8.9c-0.3-1-0.3-1.9,0.2-2.9
		c0.6-1,0.5-2.3,0.5-3.4c-0.2-8,2.7-15,6.5-21.8c0.6-1,1.5-1.8,1.3-3.1c0-0.2,0.2-0.4,0.4-0.6c4.6-4.5,8.6-9.4,12.8-14.5
		c0.3,1.6,0.8,2.9,1.5,4.1c-4.9,6.2-9.7,12.4-14.5,18.6c-0.5,0.6-0.8,1.2-0.8,2c0,7.4,0,14.7,0,22.1c0,0.1,0,0.2,0.1,0.5
		c0.6-0.2,1-0.6,1.4-1c7.4-5.8,14.9-11.5,22.3-17.3c0.4-0.3,0.8-0.8,1.4-0.7c0.4,0.5,0,0.8-0.3,1c-1.3,1-2.1,2.3-3,3.6
		c-2.3,3.3-4.6,6.6-6.4,10.3c-0.1,0.2-0.2,0.4-0.3,0.7c-0.2,0.6,0.1,1,0.5,1.3c0.5,0.3,0.9,0.2,1.3-0.2c0.3-0.3,0.6-0.7,0.8-1
		c3.1-4.7,6.7-9.2,9.4-14.2c0.1-0.1,0,0,0.1-0.1c0.2-0.6,1-1.3,0.5-1.8c-0.5-0.6-1.1,0.3-1.6,0.5c-0.3,0.1-0.6,0.3-0.9,0.2
		c-0.2-0.6,0.2-0.8,0.5-1.1c2.6-2,5.1-4.1,7.8-6c0.3-0.2,0.7-0.7,1-0.3c0.3,0.3,0,0.8-0.2,1.1c-2.1,3.9-4.1,7.8-6.2,11.6
		c-1,1.9-2.1,3.9-3.1,5.8c-0.3,0.5-0.5,1.1-0.9,1.5c4.1-3.9,8.2-7.8,12.3-11.7c1.7-1.6,3.4-3.2,5-4.8c2-2,4.2-3.8,6.2-5.9
		c0.3-0.3,0.5-0.7,1.1-0.5c-0.3,0.8-0.7,1.6-0.9,2.5c-0.2,0.8-0.4,1.7,0.5,2.1c1,0.5,1.6-0.2,2.1-0.9c1.7-2.4,3.9-4.4,6.2-6.1
		c4.7-3.4,9.8-6.3,15.2-8.6c0.1-0.1,0.3-0.2,0.4-0.1c2.3,0.9,4.3-0.9,6.5-0.6c1.1,0.1,2.3-0.1,3.4,0.4c4.1,1.6,7.7,3.8,10.8,7
		c1.3,1.3,1.9,3,2.5,4.6c0.3,0.9,0.7,1.7,1.2,2.5c0.3,0.5,0.7,1.1,1.3,1c1.4-0.1,0.9,0.7,0.8,1.3c-0.8,3.4-1.8,6.8-2.4,10.2
		c-0.5,3.4-0.2,6.5,1.9,9.4c0.9,1.2,0.4,2.7,0.2,4.1c-0.3,2.3-1.1,4.4-1.9,6.5c-0.2,0.4-0.3,0.9-0.4,1.4c-0.3,2.1,0.6,2.9,2.8,2.6
		c-1.4,3.7-1.9,7.5-1.8,11.4c0,0.8,0,1.7,0.2,2.5c0.9,3.2,1.8,6.4,2.4,9.7c0.1,0.6,0.5,1.1,1.1,1.3c1,0.3,0.8,0.8,0.5,1.6
		c-1.8,3.6-4.2,7-6.3,10.4c-2.6,4.2-5.5,8.1-9,11.6c-1.3,1.3-2.7,2.3-4.3,3.6c0.4-1.4,1.1-2.5,1.4-3.7c0.2-0.9,0.2-1.8-0.7-2.3
		c-1-0.5-1.7,0.1-2.3,0.8c-0.5,0.5-0.9,1.2-1.2,1.8c-2.3,4.1-4.9,8-8.2,11.5c-4.1,4.4-8.3,8.8-13.1,12.5c-2.7,2.1-5.7,3.6-9,4.4
		c-0.2,0-0.4,0-0.8,0.1c2.2-2.3,4.3-4.5,6.2-6.7c3.1-3.7,6.4-7.4,9-11.5c0.5-0.8,1-1.6,1.2-2.6c0.3-1-0.1-1.4-1.1-1.1
		c-1.1,0.3-2.1,1-3,1.8c-3,2.6-5.3,5.9-7.8,8.9c-3.2,3.8-6.4,7.6-10.2,10.8c-2.1,1.7-4.4,3-7,3.7c-2.2,0.5-4.5,0.2-6.7-0.2
		c-4.8-0.8-9.7-1.3-14.4-2.9c-4.2-1.4-8.4-2.9-11.9-5.9c-2.7-2.3-4.3-5.3-6.1-8.2c-0.6-1-1.1-2.1-1.6-3.1c-0.6-1.1-1.6-1.6-2.6-1.2
		c-1,0.4-1.4,1.5-0.9,2.7c2.2,5,4.8,9.7,9.1,13.3c0.6,0.5,0.6,1,0.5,1.6c-0.5,3.3-1,6.7-1.5,10c-0.1,0.9,0,1.8,0.5,2.6
		c0.6,1.1,0.5,2.5,0.8,3.7c1,4.7,1.8,9.4,2.7,14.1c0.1,0.3,0.3,0.5,0.1,0.8c-1,1.4-0.5,2.8-0.1,4.1c2,6.9,4.5,13.5,8.1,19.7
		c1.1,1.8,2.4,3.4,4.3,4.5c-1,0.7-2.1,0.4-3.1,0.7c-4.5,1.4-8.6,3.8-12.6,6.4c-2.4,1.5-4.8,3.2-6.8,4.4c0.7-0.8,1.7-1.9,2.7-3
		c0.6-0.7,1.3-1.3,1.6-2.2c0.2-0.7,0.2-1.4-0.3-1.9c-0.6-0.6-1.3-0.6-2-0.4c-1,0.4-1.7,1-2.4,1.8c-3.9,4-8.1,7.4-13,10.2
		c-1.2,0.7-1.5,1.7-1,2.7c0.5,1,1.7,1.3,2.9,0.7c2.3-1.2,4.5-2.6,6.7-4.3c0.1,0.9-0.4,1.5-0.8,1.9c-3.1,2.8-3.8,6.5-3.8,10.4
		c0,3.3,0.3,6.6,0.6,9.9c0.2,2.9,0.4,5.7,0.6,8.6c0.1,1.6,0.2,3.3,0.8,4.8c0.8,2.4,0.9,4.8,1,7.3c0.1,3.3,1.1,6.4,2.2,9.5
		c0.8,2.1,1.4,4.3,2,6.5c0.1,0.3,0.2,0.7,0.1,1.1c-0.1,3.9,0.3,7.7,1.7,11.4c0.4,1.2,0.2,2.3-0.1,3.5c-0.6,2.8-1.8,5.5-1.6,8.4
		c0,0.4,0,0.9,0.2,1.3c0.7,0.9,0.3,1.9,0,2.8c-0.7,1.9-1.3,3.8-1.9,5.7c-0.1,0.4-0.2,0.8-0.7,0.8c-2.4-0.2-3.3,1.5-4.1,3.2
		c-0.9,1.9-1.9,3.8-3.5,5.2c-0.6,0.5-1.2,1-2,1.2c-0.4,0.1-0.8,0.1-1.2-0.1c-2.9-1.9-6.1-1.4-9.2-1c-6.5,0.7-12.6,3-18.9,4.4
		c-0.9,0.2-1.3,0.1-1.3-0.9c0.5-0.1,1.1-0.2,1.6-0.4c0.9-0.3,1.7-0.7,1.7-1.7c0-1-0.8-1.5-1.7-1.8c-0.7-0.2-1.4-0.3-2.1-0.3
		c-2.2-0.1-4.5,0.2-6.7-0.2c-0.5-0.1-0.9-0.2-1.3-0.6c1.1-1.1,2.5-1.6,3.8-2.5c3.7-2.7,6.9-5.9,7.9-10.5c0.5-2,1.4-2.7,3.3-2.9
		c2.6-0.3,5-1.5,7.4-2.6c0.5-0.2,0.9-0.4,1.5-0.6c0.1,0.8-0.4,1.4-0.7,1.9c-1.2,2.5-2.5,4.9-3.8,7.3c-0.5,1.1-0.8,2.2-0.6,3.4
		c0.2,1.1,1,1.9,2,1.8c1.2,0,1.7-0.7,1.9-1.8c0.4-2.3,1.7-4.2,2.7-6.2c1.5-2.9,3-5.8,3.6-9.1c0.1-0.7,0.2-1.4,0.1-2.1
		c-0.1-0.9-0.6-1.6-1.5-1.8c-1-0.2-1.7,0.2-2,1.1c-0.2,0.5-0.6,0.6-1,0.8c-2.2,0.8-4.4,1.7-6.5,2.7c-3,1.3-6.1,1.7-9.3,1.8
		c-1.8,0-3.3-0.7-4.3-2.2c-2.6-3.8-4-8.1-5.2-12.6c3.5,0.3,6.8,0,10-1.1c1.5-0.5,2.9-1.2,3.7-2.7c0.9,0.1,1,0.9,1.5,1.5
		c0.7,0.8,0.8,0.8,1.4-0.1c2.3-3.3,4.6-6.5,6.9-9.8c0.8-1.1,1.2-1.2,2.2-0.3c3.9,3.6,7.8,7.1,11.8,10.6c0.2,0.2,0.4,0.4,0.5,0.5
		c-2.2-4.9-4.8-9.7-6.9-14.7c-0.6-1.5,0.1-3,1-4.3c0.7,0,1,0.3,1.2,0.9c0.1,0.4,0.2,0.8,0.4,1.1c0.4,0.5,1,0.8,1.7,0.7
		c0.6-0.1,1.1-0.4,1.4-1c0.5-1.1-0.2-3.3-1.3-3.9c-2.5-1.4-2.5-1.4-1.8-4.2c0.4-1.6,0.6-3.2,1-4.8c0.6-2,1-4,1.7-6.1
		c-1.1,0.8-2,1.6-3.1,2.3c-1.8-0.3-2.8,0.8-3.6,2.1c-0.4,0.6-0.7,1.4-1.4,1.9c-2.6,1.8-5.1,3.6-7.6,5.5c-0.8,0.6-1.6,1.2-2.4,1.8
		c-0.7,0.4-1,0.2-1.1-0.5c0-0.3-0.1-0.6,0-0.8c0.4-4.9,0.3-9.8,0.7-14.7c0.2-1.9,0.1-2-1.7-1.4c-6.5,2-13,4.1-19.5,6.1
		c-0.2,0.1-0.5,0.1-0.7,0.2c-0.7,0.2-1.1-0.1-0.9-0.9c0.2-0.7,0.4-1.5,0.6-2.2c1.5-5.3,3-10.7,4.5-16.1c0.4-1.3,0.4-1.3-1-1
		c-5.4,1.3-10.7,2.8-16,4.1c-1.7,0.4-1.8,0.4-2-1.3c-0.3-2.9-0.4-5.8-0.7-8.7c-0.2-2.8-0.4-5.7-0.6-8.5c-0.1-0.8-0.4-1.2-1.3-1.3
		c-3.7-0.3-7.4-0.6-11.1-0.9c-1.2-0.1-2.3-0.2-3.5-0.3c-1.1-0.1-1.5-0.5-1.3-1.5c0.7-4.6,1.5-9.2,2.3-13.7c0-0.3,0.1-0.5,0.3-0.7
		c-2.2,5.5-4.7,11-7,16.5c-0.8,1.9-1.7,3.7-2.2,5.7c-1.3,2.2-2.6,4.5-4.1,7c-0.2-2-0.2-3.7-0.1-5.3c0.3-3.7,0.6-7.3,0.9-11
		c0.1-0.9-0.1-1.8-0.1-2.6c0-1.2,0.7-2.3,1.2-3.4c1.3-2.7,3.1-5,4.8-7.4c2.8-3.9,5.3-8,8.4-11.6c0.2-0.2,0.3-0.3,0.5-0.6
		c0.5,1.9,1,3.6,1.6,5.4c0.3,1,0.8,1.9,1.3,2.8c0.4,0.6,0.9,1,1.5,1.3c0.8,0.4,1.5,0.5,2.2-0.1c0.7-0.6,0.5-1.4,0.1-2
		c-1.7-3.3-2.4-6.9-3.2-10.5c-0.6-2.7-0.3-5.4-0.1-8.1c0.1-1.2,0.9-2.1,1.3-3.1c2.2-5.1,5.6-9.5,7.9-14.5c1.4-3,3.2-5.7,5.2-8.3
		c1.2,2.2,2.3,4.3,3.5,6.4c0.4,0.8,0.9,1.5,1.6,2.1c0.5,0.4,1,0.6,1.6,0.3c0.6-0.2,0.7-0.8,0.8-1.4c0-1-0.3-1.9-0.6-2.8
		c-1.1-2.9-2.4-5.5-3.9-8.2c-0.8-1.4-1.8-2.7-3.1-3.6c-1.1-0.8-1.2-2-1-2.9c0.6-3.9,1.4-7.7,2.1-11.5c0.2-1.1,0.6-2.4-0.1-3.5
		c-0.1-0.2-0.1-0.5,0-0.7c1-1.3,1.6-2.8,2.9-3.7c3.9-2.7,8.1-4.8,12.1-7.3c0.6-0.4,1.1-0.6,1.8,0.1c0.6,0.5,1.4,0.2,2,0
		c0.3,0.3,0.2,0.6,0.2,1c-0.1,2.4-0.4,4.8-0.4,7.1c0,0.5,0,1-0.3,1.4c-0.3,0.4-0.8,0.3-1.2,0.4c-1.8,0.2-3.3,1-4.9,1.8
		c-1,0.4-1.3,1.4-1,2.2c0.3,0.9,1.1,1.2,2.3,1c0.3-0.1,0.7-0.3,1-0.1c1.3,0.8,2.7,0.4,4.1,0.3c0.5,0,1.2-0.2,1.5,0.5
		c-0.3,0.4-0.3,0.9-0.1,1.4c1.1,4,2.2,7.9,3.3,12.1c0.8-2.7,1.7-5.1,2.6-7.5c0.2-0.5,0.2-1.1,0.8-1.4c0.6,0.1,0.8,0.6,1,1.1
		c0.5,1.3,0.8,2.7,0.7,4.1c-0.1,2.1,0.3,4.2,0.6,6.3c0.1,0.8,0.4,1.6,0.9,2.3c0.6,0.8,1.4,0.8,1.9-0.1c0.3-0.5,0.4-1,0.5-1.6
		c0-1.2,0-2.5-0.2-3.7c-0.4-1.9-0.1-3.8-0.4-5.7c-0.3-2.6-1.4-4.7-3.1-6.6c-0.2-0.3-0.5-0.5-0.6-0.9c0.3-0.7,0.5-1.5,1-2.1
		c0.3-0.1,0.5,0.1,0.7,0.3c0.6,0.7,1.4,1.2,2.2,1.6c0.6,1,0.7,2.1,0.9,3.2c0.7,3.5,1.5,7,2.2,10.7c0.8-1.4,1.4-2.7,2-3.9
		c0.2-0.4,0.4-1,0.9-1.2c0.6,0,0.9,0.4,1.3,0.7c1.8,1.4,3.9,2.1,6.2,2c1.6-0.1,2.6-0.7,2.6-1.6c0-0.8-0.7-1.5-2.3-1.6
		c-2.6-0.2-4.5-1.4-6.2-3.1c0-0.6,0.3-1.1,0.6-1.6c1.7-3.5,3.4-6.9,5.2-10.4c0.6-1.1,0.8-2.2,0.6-3.5c-0.3-1.6-0.2-3.2-0.3-4.8
		c-0.2-4.8-0.5-9.6-0.8-14.5c-0.2-3.4,0.2-2.7-2.9-3.4c-1.7-0.4-3.4-0.7-5.2-1c-0.5-0.1-1-0.1-1.4-0.7c1.3-0.6,2.5-1.1,3.8-1.7
		c0.4-0.2,0.9-0.4,1.3-0.7c0.8-0.6,1.5-1.3,1.1-2.4c-0.3-0.9-1.5-1.4-2.6-1.1c-2.3,0.7-4.5,1.8-6.7,2.7c-0.9,0.4-1.2,0.3-1.1-0.7
		c0.2-2.3-0.1-4.6-1.4-6.6c0.5-0.4,1.1-0.3,1.6-0.3c2.4,0.2,4.9,0.3,7.3,0.6c1,0.1,2.1,0,3.2,0.3c-2.2-1.5-4.3-2.9-6.4-4.3
		c-1.3-0.9-1.3-1.3,0-2c2.7-1.6,5.3-3.1,8-4.6c0.7-0.4,1.3-0.3,1.7,0.4c3.4,4.8,6.7,9.6,10.1,14.5c-0.9-4-1.8-8.1-2.7-12.1
		c-0.1-0.6-0.6-1.5-0.1-1.9c0.7-0.5,1.3,0.4,1.8,0.8c2.3,1.7,4.5,3.5,7,5.3c-0.1-2-0.4-3.8-0.6-5.6c-0.4-3.4-0.8-6.7-1.3-10.1
		c-0.1-0.5,0-1,0.2-1.5c1-3.2,2.2-6.3,3.2-9.4C105.6,51.9,105.7,51.3,106.3,51.1z"/>
	<path fill="#BA5157" d="M257.8,87.6c0,0.1,0,0.2-0.1,0.2c-0.4,0.8-0.6,1.6,0.1,2.3c0.7,0.7,1.6,0.5,2.3,0c1.2-0.7,2.4-0.8,3.8-0.5
		c-1.7,1.3-1.5,2.9-0.8,4.4c1,2.4,2.3,4.6,5,5.4c0.3,0.1,0.5,0.3,0.7,0.6c-0.7,2.1-1.9,3.9-2.9,5.9c-1.8,3.5-3.8,6.9-5.4,10.5
		c-0.5,0.9-1.3,1.5-2,2.2c-1.3,1.5-2.7,2.9-2.3,5.1c0.1,0.4-0.2,0.7-0.5,0.9c-1.5,1.3-1.5,2.6,0,3.9c1.2,1.1,2.3,2.3,3.6,3.3
		c1.6,1.2,2.3,2.8,2.1,4.8c-0.1,0.6-0.3,1.1-0.9,1.5c-3.5,1.9-6.2,4.7-9.1,7.2c-0.5,0.4-1,0.8-1.6,1.1c-6,2.4-12.2,4.3-18.6,5.5
		c-4.1,0.8-8.2,1.3-12.4,1.3c-0.4,0-0.8,0-1.2,0.1c-0.9,0.2-1.6,0.9-1.5,1.7c0.1,0.9,0.7,1.4,1.6,1.6c0.9,0.2,1.8,0,2.6,0.1
		c0.5,0,1.1-0.1,1.6,0.4c0.5,0.8,0.4,1.8,0.5,2.7c0.5,4.7,1.2,9.3,1.6,14c0.1,0.6-0.3,0.9-0.7,1.2c-4.7,3.2-8.9,7-13.8,9.9
		c-1.6,0.9-3,2.1-4.5,3.2c-0.4,0.3-0.7,0.6-0.9,1c-0.3,0.6-0.3,1.2,0.1,1.8c0.4,0.6,0.9,0.7,1.6,0.7c0.7-0.1,1.3-0.5,1.8-0.9
		c3.3-2.7,7.2-4.7,10.5-7.3c0.2-0.2,0.5-0.3,0.8-0.1c0.2,0.6-0.2,1.1-0.5,1.5c-2,3-3.9,6.1-6,9.1c1.5-0.2,2.9-0.8,4.4-0.8
		c0.9,1.7,1.7,1.8,3,0.3c0.5-0.6,0.8-1.3,1.5-1.6c5.6-1.2,11.2-2.6,16.8-3.8c0.5-0.1,1.2-0.5,1.6,0c0.4,0.5-0.2,1.1-0.5,1.6
		c-2,3.7-4.1,7.2-5.9,11c-2.6,2.5-5.5,4.5-8.9,5.7c-0.8,0.3-1.7,0.2-2.5,0.2c-1,0-1.9,0.1-2.8,0.4c-0.9,0.3-1.5,1-1.4,1.9
		c0.1,0.9,0.7,1.4,1.8,1.4c2.5,0.1,4.9-0.1,7.3-1c0.4-0.2,0.8-0.4,1.3-0.2c0.4,0.7-0.3,1.2-0.4,1.9c1-0.6,2-0.9,2.9-1.4
		c5.9-3,12-5.8,18-8.8c3.1-1.6,6.3-3,9.5-4.6c0.5-0.3,1-0.5,1.6-0.3c3.7,0.9,7.4,1.5,11,2.5c0.5,0.8,0,1.6-0.3,2.2
		c-1,2.1-2.2,4.1-3.3,6.1c-1.2,2.3-2.5,4.6-3.5,7.1c-0.3,0.7-0.5,1.4-0.5,2.1c0,0.7,0.3,1.3,0.9,1.5c0.6,0.3,1.1-0.1,1.5-0.5
		c0.5-0.5,0.9-1,1.2-1.6c1.8-4.4,4.4-8.4,6.6-12.6c0.6-1.3,1.1-2.6,1.3-4c0.4-2.7-0.4-4.5-2.6-5.9c-0.3-0.2-0.6-0.3-0.8-0.7
		c-1.2-2.5-2.7-4.9-4-7.3c-1.4-2.7-3.1-5.3-4.4-8.1c0.4-0.9,0.8-1.6,1.8-1.9c5,0.1,10.1,0.5,15.1,0.3c0.3-0.1,0.5-0.1,0.8,0.1
		c0.3,0-0.2,0.5,0.3,0.4c0.7-0.2,1.5-0.1,2.3-0.1c0.7,0,0.8-0.2,0.5-0.8c-1.3-2.8-2.6-5.7-3.9-8.5c-1.1-2.4-2.2-4.9-3.4-7.3
		c-0.1-0.1-0.1-0.3-0.2-0.4c-0.1-0.4-0.3-0.8,0-1.1c0.3-0.3,0.7-0.2,1.1-0.1c1.6,0.5,3.1,0.9,4.7,1.4c0.2,0.1,0.5,0.3,0.8,0.2
		c-4-1-7.9-2.4-11.9-3.5c-1.3-0.9-2.2-2.1-3.4-3.1c-0.8-0.6-1.6-1.2-2.5-1.6c-1.6-0.8-2.3-0.6-3.2,1c-0.1,0.1-0.2,0.3-0.3,0.3
		c-0.8,0-1.2,0.3-1.3,1.1c-0.5,3.6-1,7.3-1.6,10.9c0,0.2,0,0.5-0.1,0.7c-0.1,0.4-0.2,0.8-0.6,0.8c-0.4,0.1-0.6-0.3-0.8-0.6
		c-1-1.7-1.9-3.4-3-5c-0.2-0.7,0.3-1.3,0.4-2c0.6-2.7-0.3-3.6-3-3.1c-1.1-1-1.8-2.2-2.1-3.7c1-0.9,2.2-1.5,3.7-1.4
		c0.7,0,1.3,0,1.7-0.6c1.9-2.5,4.6-4,7.1-5.6c0.6-0.4,1.2-0.8,1.8-1.2c1.2-0.6,1.8-1.6,2.1-2.9c0.6-0.2,0.6,0.4,0.8,0.6
		c1.3,1.5,2.2,3.2,3.8,4.4c3.3,4.1,7.7,5.8,12.8,6c1.6,0.1,3.2,0.1,4.8,0c2.4-0.2,4.6,0.6,6.9,1c0.4,0.1,0.5,0.3,0.5,0.7
		c0,0.7-0.2,1.4-0.4,2.1c-0.6,1.7-1.2,3.5-1.7,5.2c-0.1,0.4-0.3,0.7-0.7,0.9c-1.4,0.7-2.4,1.9-3.2,3.1c-0.7,1.1-0.6,2.4,0.2,3.1
		c0.8,0.7,2,0.5,3-0.6c0.6-0.7,1.4-0.7,2.2-0.9c1.9-0.6,2.3,1.2,3.5,1.6c0.1,0,0.1,0.3,0.2,0.4c0.5,2.6-0.3,5.1-2,7
		c-0.6,0.7-1.8,1-2.5,1.9c-3.9,4.4-5.9,9.5-6.1,15.3c0,1.5-0.3,2.9,0,4.4c0.3,1.4,0.8,2.6,2.2,3.2c0.5,0.2,0.6,0.6,0.7,1
		c1.1,3.3,1,6.7,0.9,10.1c0,0.6-0.3,0.5-0.7,0.6c-5.1,0.9-10.2,1.9-14.8,4.3c-1.5,0.8-2.7,1.9-3.1,3.6c0,0.2-0.1,0.4-0.3,0.5
		c-2.3,0.8-4.2,2.3-6.4,3.3c-0.5,0.3-0.9-0.1-1.3-0.2c-1.7-0.8-3.4-1.8-5.1-2.7c-0.8-0.4-1.2-0.3-1.6,0.4c-0.4,0.7-0.8,1.4-1.4,1.9
		c-4.2,1-7.9,3.2-11.6,5.2c-0.4,0.2-0.7,0.5-1.2,0.5c-1.8-1.3-3.4-2.8-5.1-4.1c-0.9-0.7-1-0.7-1.6,0.3c-0.8,1.5-1.7,2.9-2.5,4.3
		c-0.2,0.4-0.4,0.9-1,0.9c-2-0.8-2.1-1-4,1.2c-0.7,0.8-1.3,1.6-1.7,2.6c-0.8,1.8-0.3,2.7,1.6,2.9c0.2,0,0.3,0.1,0.4,0.2
		c0,0.5-0.3,0.9-0.6,1.3c-1.3,1.6-1.5,3.5-1.5,5.4c-0.1,3.2-0.3,6.4-0.5,9.8c1.4-1.5,2.8-2.6,4.1-3.9c2.1-2.1,4.3-3.9,6.3-6
		c0.8-0.9,1.8-1.3,3-1.4c3.6-0.3,7.1-0.8,10.7-1c1.3-0.1,2.3-0.5,3-1.8c1.7-2.9,3.5-5.7,5.3-8.5c0.3-0.5,0.5-1.2,1.3-1.2
		c1,0.5,2,0.5,2.9,0c3.4-1.8,6.6-4,10.1-5.8c0.3-0.1,0.4-0.5,0.8-0.9c0.3,1.1,0.5,2.1,0.8,3c0.9,2.5,2.2,4.9,3.6,7.2
		c0.2,0.4,0.5,0.8,0.7,1.2c0.6,1.3,1.7,2.5,0.8,4.1c-0.1,0.1,0,0.3,0,0.5c0.4,5.4-0.9,10.4-3,15.2c-0.2,0.4-0.2,0.9-0.6,1.2
		c-0.4-0.6-0.1-1.3,0.1-1.8c0.5-1.4,0.5-2.8,0.2-4.2c-0.6-3-1.1-6-1.6-9.1c-1.2,1.7-2,3.5-2.9,5.2c-2.1,4-4.3,7.9-6.3,11.8
		c-0.2,0.5-0.5,0.9-0.8,1.3c-0.5,0.7-0.9,0.8-1.5,0c-0.6-0.8-1.3-1.6-1.6-2.6c0-0.5,0.4-0.7,0.8-1c1.4-0.9,2.7-2,4-3
		c1.2-0.9,1.6-2,1.1-2.8c-0.5-0.8-1.8-0.9-3.1,0c-1.2,0.8-2.4,1.7-3.6,2.6c-0.4,0.3-0.8,0.8-1.5,0.6c-0.7-0.3-1-1.1-1.6-1.6
		c-0.6,1.1-0.7,2.4-1.2,3.5c-0.6,0.8-1.5,1.1-2.4,1.6c-2.8,1.5-5.6,2.9-8.5,4.2c-0.3,0.1-0.6,0.3-0.9,0.3c-0.5-0.1-0.8-0.6-1.3-1
		c-0.5,0.6-0.5,1.3-0.7,2c-0.5,0.7-0.6,1.5-0.7,2.4c-1.3,3.7-2.4,7.5-3.6,11.3c-0.1,0.2-0.1,0.5-0.3,0.7c-0.1,0.2-0.3,0.4-0.5,0.4
		c-0.3,0-0.4-0.2-0.5-0.5c-0.2-0.4-0.2-0.9-0.3-1.3c-0.5-3.3-1.1-6.5-1.5-9.8c-0.1-0.9-0.4-1.1-1.2-0.8c-3.4,1.2-6.7,2.3-10.1,3.4
		c-0.9,0.3-1.3,0.9-1.2,1.8c0.4,4.2,0.3,8.4,0.7,12.5c0.1,0.9,0.4,1.1,1.2,0.8c1.1-0.5,2.3-0.9,3.4-1.4c0.4-0.2,0.9-0.4,1.4-0.3
		c0.4,0.2,0.2,0.5,0.1,0.7c-0.7,1.3-0.3,2.2,0.9,2.9c0.1,0.1,0.2,0.2,0.2,0.4c-0.1,2.5,0.1,5-0.1,7.4c2-2,4.3-3.9,6.6-6.1
		c0.3-0.3,0.7-0.6,0.8-1c0.4-0.4,0.8-0.3,1.2-0.2c0.4,0.3,0.6,0.8,0.8,1.2c1.6,3.1,3.1,6.3,4.7,9.4c0.2,0.4,0.4,0.8,0.6,1.1
		c0.4-0.1,0.4-0.5,0.5-0.8c1.5-4.5,3.1-8.9,4.6-13.3c0.5-1.6,0.7-1.7,2.2-0.9c0.5,0.3,1,0.4,1.6,0.5c0.3,0.1,0.8,0,0.6,0.6
		c-2.1,0.8-2.3,1.1-2.3,3.4c0,0.6,0,1.3,0,1.9c0,0.5,0.1,1,0.3,1.4c0.3,0.5,0.6,1,1.3,1c0.6,0,1-0.4,1.3-1c0.5-1.1,0.6-2.3,0.6-3.5
		c0-0.7-0.2-1.4,0.3-2.1c1.6,0.3,3,1.3,4.4,2c0.6,0.3,1.1,0.6,1.7,0.9c0.6,0.3,0.8,0.1,0.8-0.5c0.1-1.6,0.2-3.2,0.3-4.8
		c0.2-2.9,0-5.9,0.5-8.8c0.2-0.6,0.7-1,1.3-1c1.6,0.6,2.8,1.8,4.2,2.6c1,0.6,1,0.6,1.3-0.5c0.6-2.5,1.5-4.9,1.9-7.5
		c0.2-0.6,0.7-0.8,1.1-1.2c2.1-2.1,2.1-2.2,0.8-4.6c0.2-0.7-0.1-1.7,0.9-2.1c0,0.2,0,0.4,0.1,0.6c0.1,0.9,0.2,1.7,1.2,2
		c1,0.3,1.7-0.1,2.2-1c0.3-0.4,0.5-0.5,1-0.2c1.1,0.7,2.2,1.3,3.3,1.9c0.9,0.4,1.4,1.2,1.3,2.4c-0.1,2-1,4.1-0.4,6.2
		c0.1,0.4-0.2,0.8-0.3,1.1c-1.9,4-3.3,8.2-3.9,12.6c-0.2,1.4,0,2.8,0.4,4.1c1,3,3.8,4.2,7.3,3.3c0.6-0.2,1.2-0.4,1.9-0.6
		c-1.7,3.9-2.9,7.9-4.1,11.8c-0.5,1.8-1,3.5-0.8,5.4c0.1,0.5-0.1,0.5-0.5,0.6c-1.2,0.1-2.3,0.5-3.3,1.1c-2.7,1.5-5.5,1.7-8.5,1.3
		c-1.3-0.2-2.6-0.3-3.8-0.9c-1.1-0.5-2.1-0.3-2.9,0.7c-0.2,0.3-0.5,0.4-0.8,0.5c-3.4,1.4-3.6,1.6-4.7,5c-3.6-1.4-7.5-2.4-9.3-6.5
		c2.2-0.1,4.4-0.2,6.6-0.3c0.7,0,1.4-0.1,2.1-0.4c0.7-0.3,1.4-0.8,1.4-1.6c0-0.9-0.7-1.4-1.4-1.7c-0.5-0.2-1-0.3-1.5-0.3
		c-3-0.1-6,0.2-9,0.3c-5.1,0.3-10.2,0.6-15.3-0.4c-4.3-0.8-7.5-3.2-9.8-6.8c-1-1.5-2-2.9-2.6-4.6c-0.4-0.9-1.1-1.4-2.1-1.2
		c-1,0.2-1.7,0.9-1.7,2.1c0,1.5,0.8,2.7,1.5,3.8c0.4,0.6,0.7,1.1-0.1,1.7c-0.1,0.1-0.3,0.3-0.3,0.5c-0.3,2.8-3,4.3-3.9,6.7
		c-0.1,0-0.2,0-0.3,0c-0.3-1.6-0.6-3.1-1-4.7c-0.9-3.2,0-6.2,1.4-9.1c0.8-1.7,0.5-3.5,1.1-5.2c0.3-1.1,0.3-2.1-0.1-3.2
		c-0.3-0.7,0-1.3,0-2c0.4-4.7,0.8-9.5,1.3-14.2c0.1-1,0.4-2,0.4-3c0.1-1.2,0.4-2.4-0.6-3.4c-0.2-0.2,0-0.6,0-0.9
		c0.2-1.2,0.6-2.3,0.6-3.5c0-0.4,0.1-0.9-0.2-1.2c-1.2-1.3-0.5-2.8-0.2-4.2c1.3-7.2,2-14.4,1.3-21.7c-0.2-2.3-0.8-4.5-2.5-6.5
		c-3-3.5-6.1-7-9-10.6c-0.7-0.9-1.6-1.5-2.9-1.4c-0.4,0-0.7-0.1-1-0.3c-4-1.8-8.1-3.6-12.1-5.4c-1.7-0.8-3.6-1.1-5.2-2.2
		c0.1-0.5,0.6-0.6,0.9-0.9c1.3-1.1,2.8-2.1,2.9-4.1c0-0.3,0.3-0.5,0.6-0.8c4.2-4.2,7.4-9,9.9-14.3c0.2-0.4,0.3-0.9,0.7-1.1
		c1.6-1.3,2.1-3.1,2.7-5c1.2-4,2.3-8.1,3.4-12.2c0.6-2.2,1.4-4.4,1-6.7c-0.1-0.4,0.4-0.6,0.6-0.8c1.6-1.2,3.2-2.5,4.9-3.7
		c0.5-0.4,0.9-0.8,1.3-1.3c0.5-0.7,0.8-1.4,0.2-2.2c-0.6-0.7-1.3-0.8-2.2-0.5c-1.1,0.4-2.1,1-3,1.7c-0.6,0.4-1.2,0.8-2,1.4
		c0.4-1.5,0.2-2.6-1.2-3.2c-0.4-0.2,0-0.5,0-0.7c0.3-1,0.5-2-0.4-2.9c-0.5-0.4,0-0.6,0.2-0.8c0.5-0.5,1.1-0.9,1.6-1.4
		c0.9-0.9,1.1-2.1,0.6-2.8c-0.6-0.7-1.7-0.9-2.9-0.3c-1.3,0.7-2.4,1.6-3.4,2.6c-0.3,0.2-0.4,0.6-0.9,0.7c0.3-0.9,0.5-1.7,0.8-2.5
		c0.2-0.4,0.3-0.9,0.2-1.3c-0.4-1.1,0.2-1.8,0.9-2.4c0.2-0.1,0.3-0.3,0.5-0.5c0.5-0.8,0.9-1.6,0.2-2.4c-0.7-0.8-1.5-0.6-2.3-0.2
		c-1.5,0.8-2.9,1.9-4.2,2.9c-0.3,0.2-0.6,0.6-1.2,0.7c1.3-3,2.6-5.8,3.8-8.7c0.5-1.1,1-2.2,0.9-3.4c0-0.5,0.2-0.9,0.6-1.2
		c7.1-5.1,11.8-12.1,16.3-19.3c1.6-2.6,3.3-5.1,4.6-7.8c0.6-1.1,0.9-2.3,0.8-3.6c-0.1-1.1-0.5-2.1-1.4-2.7c-0.7-0.5-1-1.1-1.1-2
		c-0.3-1.8-0.7-3.5-1.4-5.2c-1-2.6-0.8-5.3-0.4-8c0.3-0.6,0.9-0.6,1.4-0.7c2.1-0.5,4.1-1,6.2-1.4c0.7-0.2,1.3-0.5,1.9-0.9
		c1.7-1.3,3.4-2.7,5.1-4c0.8-0.6,1.3-1.4,1.6-2.3c1.2-3.6,2.3-7.3,3.5-10.9c0.5-1.6,1.7-2.6,2.7-3.9c0.2-0.2,0.5-0.4,0.8-0.3
		c-0.4,1.1-0.8,2.2-1.1,3.4c-0.3,1.1-0.1,2.2,0.5,3.2c0.5,0.8,1.2,1.2,2.1,1c0.9-0.1,1.4-0.8,1.5-1.6c0-0.6,0.3-0.7,0.8-0.7
		c1,0,2.1,0,3.3,0c-0.7,1.8-1,3.6-2.4,4.9c-1,0.9-1.5,2.1-1.6,3.4c-0.2,2-1.4,3.5-1.9,5.4c-0.2,0.6-0.8,0.3-1.3,0.2
		c-3.5-0.7-6.8-0.3-10.1,1.1c-0.8,0.3-1.5,0.7-2.2,1.2c-0.9,0.8-1,1.8-0.4,2.7c0.6,0.8,1.6,1.1,2.6,0.5c1.4-0.8,2.9-1.4,4.6-1.6
		c0,0.1,0.1,0.2,0,0.3c-1.4,2.5-2.6,5.1-4.5,7.3c-1.8,2.1-3.7,4.1-5.7,6.3c2.5-0.1,4.7-0.3,7-0.5c1.6-0.1,1.7-0.1,1.9,1.5
		c0.3,2.4,0.4,4.8,0.5,7.3c0,0.6-0.4,0.9-0.8,1.3c-3.9,4.3-7.3,8.9-10.4,13.8c-0.4,0.6-0.4,1.4-0.6,2c-2.2,4-4,8.2-6,12.4
		c-0.5,1.1-1.2,2.2-1.7,3.6c3.5-1.9,6.9-3.8,10.2-5.7c1.7-1,3.4-2,5.1-2.8c0.4,0,0.7,0.1,0.8,0.6c-1,1.8-2.6,3.1-3.9,4.6
		c-2.9,3.3-5.9,6.6-8.9,9.9c-1.9,2.1-3.8,4.1-5.6,6.2c-0.3,0.3-0.6,0.5-0.8,1c2.4-0.6,4.8-1.3,7.1-1.9c3.7-1,7.3-2,11-3
		c1-0.3,1.7-0.7,2.3-1.5c3.1-4,6.3-8.1,9.5-12.1c0.2-0.3,0.5-0.7,0.8-0.9c0.5-0.3,1.1-0.3,1.6-0.5c3.5-0.8,6.6-2.4,9-5
		c1-1.1,1.3-2.1,0.7-2.7c-0.5-0.6-1.4-0.5-2.7,0.3c-0.9,0.6-1.7,1.2-2.6,1.8c-0.4,0.2-0.7,0.6-1.2,0.4c-0.3-0.3,0-0.6,0.1-0.8
		c1.1-1.4,2.2-3,3-3.8c-2.3,2-4.9,4.4-7.8,6.6c-1.7,0.4-3.5,0.4-5.2,0c-0.3-0.8,0.3-1.3,0.7-1.9c3.1-5.6,6.3-11.1,9.4-16.7
		c0.1-0.1,0.2-0.3,0.2-0.5c-1.1,0.4-2.1,0.9-3.1,1.4c-4.6,2.2-9.2,4.3-13.7,6.5c-0.5,0.2-0.9,0.6-1.4,0.4c-0.3-0.6,0.2-0.9,0.4-1.3
		c2.5-3.4,5.1-6.9,8.2-9.8c1-1,2-1.9,2.9-3c0.6-0.7,1.2-1.1,2.2-0.8c1.1,0.3,1.7-0.2,1.8-1.3c0-1,0.5-1.9,0.7-2.9
		c1.1-0.1,2-0.9,3.2-0.7c0.1,0.4-0.1,0.7-0.1,1c-0.2,1.4-0.1,2.7,0.9,3.8c1.5,1.7,2.3,3.7,2.9,5.9c0.3,1,0.7,2.1,1.4,2.9
		c0.9,1,1.6,0.8,2.1-0.4c0.4-1.2,0.1-2.3-0.1-3.4c-0.5-2.4-1.4-4.6-3-6.5c-0.5-0.6-0.7-1.2-0.6-2c0.2-0.8-0.1-1.4-0.7-1.9
		c-0.2-0.1-0.5-0.3-0.3-0.7c1.1-0.5,2.2-0.8,3.3-1.2C257,87.4,257.4,87.3,257.8,87.6z"/>
	<path fill="#1D4931" d="M206.7,273.4c-0.1,0.9-0.5,1.8-1,2.5c-1.8,2.3-3,4.9-4.3,7.4c-1.3,2.4-3.3,3.9-5.6,5.2
		c-1,0.6-2,1.1-2.9,1.6c-0.4,0.2-0.8,0.6-1,1c-0.7,1.3-0.2,2.2,1.2,2.4c1.3,0.2,2.4-0.3,3.6-0.8c1.2-0.6,1.2-0.5,1.3,0.8
		c0,3.7,0.6,7.3,0.9,10.9c0.2,2.3,0.4,4.6,1,6.8c0.4,1.3,0.9,2.6,2,3.5c1,0.8,0.8,2.3,1,3.5c0.8,4.3,0.9,8.6,0.7,12.9
		c-0.2,3.7-0.8,7.5-0.7,11.2c0,0.8-0.5,0.9-1,1.1c-2.9,1.1-5.9,1.7-8.7,2.8c-8.4,3.2-17.2,5.1-26.1,6.6c-3.7,0.6-7.3,1.6-11,2.2
		c-1.7,0.3-3.1-0.3-4.7-0.5c-4.4-0.4-8.1-2.5-12-4.3c-5.5-2.6-11.4-4.2-17.2-5.6c-3.3-0.8-3.3-0.8-2.8-4.1c0.5-3.1,1.2-6.2,1.5-9.4
		c0-0.3,0.1-0.7,0.4-0.9c1.5-1.4,1.6-3.3,1.8-5.1c0.3-2.5,0.2-4.9,0.1-7.4c-0.1-3.3,0.4-6.6,1.2-9.8c1.1-4.6,2.2-9.3,2.4-14.1
		c0-0.6,0.2-1.3,0.3-2c0.6,0.2,1.2,0.5,1.8,0.7c1.2,0.4,2.3,0.1,2.7-0.8c0.5-0.9,0.2-1.9-0.9-2.7c-1.7-1.2-3.4-2.2-5.1-3.3
		c-2-1.3-3.5-3.3-5.2-4.9c-0.1-0.1-0.2-0.3-0.2-0.5c0-2.3-1.3-4.2-2.3-6.1c-0.9-1.8-1.8-3.5-2.3-5.5c0.5-0.2,0.7,0.2,1,0.5
		c1.2,1.3,2.4,2.5,4.1,3.1c0.3,0.6,0.4,1.3,0.8,1.8c0.2,0.2,0.4,0.5,0.7,0.3c0.2-0.1,0.2-0.4,0.2-0.6c0-0.3-0.1-0.6,0.2-0.9
		c0.5-0.2,0.9,0,1.4,0.1c1.8,0.4,3.6,0.9,5.4,1.4c0.7,0.2,1.2,0.2,1.7-0.2c0.6,0.8,0.2,1.8,0.8,2.6c0.2,0.3,0.2,0.7,0.6,0.7
		c0.4,0,0.4-0.5,0.5-0.8c0.1-0.5-0.1-1.1,0.4-1.5c2.6,0.9,5.3,1.2,7.9,1.8c2.7,0.6,5.5,1.1,8.2,1.6c0.6,0.1,1.3,0.1,1.9-0.1
		c3.9-1.5,7.9-2.9,11.9-4.5c0.8,0,1.6-0.1,2.4-0.3c2,0.4,3.8,1.1,5.8,1.7c4,1.2,8.2,1.5,12.3,2.2c2.1,0.3,4.2,0.7,6.3,1
		c1,0.2,1.9,0.2,2.9,0c2.2-0.4,4.5-0.8,6.6-1.7c1.9,1.1,3.2,0.5,4-1.9C204.1,274.2,205.2,273.3,206.7,273.4z"/>
	<path fill="#498A86" d="M206.7,273.4c-1.3,0.4-2.4,1.1-3.6,1.7c-1.9-0.6-3,0.4-3.8,1.9c-2.4,1.5-5.2,1.8-7.9,2.1
		c-1.6,0.2-3.3-0.4-4.9-0.6c-4.5-0.7-9-1.3-13.4-2.2c-2.7-0.5-5.3-1.4-7.8-2.4c0.5-1.7,0.1-3.3-0.1-4.9c-0.1-0.6-0.2-1.1-0.5-1.6
		c-0.4-0.7-1-1.2-1.9-0.9c-0.8,0.2-1.4,1-1.2,1.9c0.3,2,0.2,4.1,1.5,5.8c-0.1,0.2-0.3,0.3-0.5,0.4c-3.2,1.2-6.5,2.3-9.6,3.6
		c-1.9,0.8-3.6,0.8-5.5,0.4c-4.4-0.9-8.8-1.8-13.2-2.6c-0.5-0.1-0.7-0.4-1-0.7c-0.5-0.8-1-1.6-2.2-0.9c-0.2,0.8-0.7,0.8-1.5,0.6
		c-2.4-0.7-4.7-1.4-7.1-1.9c-0.7-0.2-1.1-1.1-2-0.7c-1.7-0.1-2.6-1.3-3.7-2.4c-0.4-0.4-0.9-0.8-1.3-1.2c-1-2-1.3-4.1-1.6-6.3
		c-0.3-2.6,0.1-4.8,1.5-7c3-4.4,5.4-9.1,7.6-13.9c2-4.3,3.5-8.9,4-13.7c0.2-1.9-0.3-2.5-1.9-2.9c-0.4-0.2-0.5-0.6-0.6-1
		c-0.1-1-0.3-2-0.4-3c-0.1-0.5-0.3-1.2,0.3-1.4c0.6-0.2,0.7,0.6,0.9,1c0.9,2,1.7,4.1,2.6,6.1c0.3,0.7,0.7,1.3,1.3,1.9
		c5.2,5.3,10.7,10.2,15.8,15.6c0.9,0.9,2,0.9,3.1,1c1.9,0.2,3.7,0.2,5.6,0.4c0.3,0,0.7,0.2,0.9-0.1c0.2-0.3-0.1-0.6-0.3-0.9
		c-2.1-3.4-4.1-6.9-6.1-10.3c-0.3-0.5-0.7-0.9-0.5-1.5c0.2-0.2,0.3-0.5,0.5-0.7c0.5-0.4,0.9,0,1.3,0.2c4.1,2.6,8.4,5,12.5,7.6
		c2.2,1.4,2.5,1.1,1.6,3.9c-0.8,1.5-1.7,3-2.5,4.5c-0.7,1.4-1.7,2.9-0.5,4.6c0.2,0.2,0,0.6,0.1,0.9c0.1,2-0.2,4,0.2,6
		c0.1,0.7,0.3,1.3,0.7,1.9c0.5,0.8,1.2,1.3,2.2,1.1c0.9-0.2,1.3-1,1.4-1.9c0.1-0.6-0.1-1.2-0.2-1.8c-0.4-1.8-0.2-3.7-0.2-5.5
		c0-0.4,0.1-1-0.1-1.3c-0.9-1.2-0.1-1.9,0.4-2.8c1.5-2.4,2.8-4.9,4.2-7.4c0.2-0.3,0.6-0.4,0.9-0.5c3.2-1,6.5-2,9.7-3.1
		c1.7-0.5,3.2-0.2,4.7,0.5c0.4,0.4,0.5,0.9,0.6,1.4c0.7,2.1,2.1,3.8,3.2,5.7c0.2,0.3,0.5,0.7,1,0.5c0.5-0.2,0.5-0.7,0.4-1.1
		c-0.1-0.9-0.4-1.6-0.9-2.3c-0.5-0.7-0.9-1.4-1.2-2.2c-0.2-0.4-0.4-0.8-0.1-1.2c0.5-0.3,1-0.1,1.5,0.1c2.7,0.7,5.3,1.3,8,2
		c0.4,0.1,0.8,0.2,1.4,0.3c-0.4-1.7-1.1-3.1-1.7-4.6c-1.4-3.5-2.6-7.1-4.2-10.6c-0.1-0.1-0.1-0.3-0.2-0.4c-0.1-0.3-0.3-0.8,0.1-1
		c0.4-0.2,0.7,0.2,0.9,0.4c1.3,1.7,2.8,3.1,3.8,5c0.6,1.7,1.1,3.5,1.7,5.2c1.4,4.3,4.1,7.8,7.3,11c0.3,0.2,0.5,0.4,0.7,0.8
		c0.8,2.3,1.6,4.6,1.9,7c0.3,3.5,0.6,6.9,0.6,10.4C208.8,268.4,208.1,271,206.7,273.4z"/>
	<path fill="#D1A07D" d="M12.7,221.1c-0.7-0.4-0.2-0.8,0-1.1c2.4-5.7,4.8-11.3,7.2-17c0.7-1.6,1.4-3.2,2.3-4.7
		c-0.3,1.7-0.5,3.4-0.8,5.1c-0.6,3.4-1.1,6.8-1.7,10.2c-0.2,0.9,0.5,0.8,0.9,0.9c1.1,0.2,2.1,0.2,3.2,0.3c4.1,0.4,8.2,0.7,12.3,1
		c0.5,0,0.8,0.1,0.8,0.7c0.1,1.7,0.3,3.5,0.4,5.2c0.3,4.4,0.7,8.7,0.9,13.1c0.1,1,0.4,1.1,1.2,0.9c5.8-1.5,11.6-3,17.4-4.5
		c0.2-0.1,0.4-0.1,0.9-0.2c-1.9,7-3.8,13.8-5.7,20.8c2.8-0.9,5.5-1.7,8.1-2.5c4.6-1.4,9.2-2.8,13.8-4.3c1.1-0.4,1.2,0,1.1,0.9
		c-0.2,4.9-0.5,9.9-0.7,14.8c0,0.8,0,1.6,0,2.6c1.8-1.3,3.4-2.5,5-3.7c1.6-1.2,3.2-2.4,4.9-3.6c0.2-0.2,0.5-0.6,0.9-0.4
		c0.2,0.5-0.3,0.8-0.5,1.1c-2.4,2.6-5.2,4.8-8.3,6.4c-1,0.5-2,0.9-3.2,0.8c-0.9-0.1-1.5,0.3-1.7,1.1c-0.3,0.8,0.1,1.7,0.9,2.2
		c0.7,0.4,1.4,0.4,2.2,0.2c2.7-0.6,5-2.1,7.2-3.6c1.5-1.1,2.9-2.4,4.3-3.6c0.3-0.2,0.6-0.7,1-0.4c0.4,0.2,0.2,0.7,0.1,1.1
		c-0.1,0.5-0.2,1-0.3,1.5c-0.4,1.8,0,3.2,1.8,4.1c0.2,0.1,0.3,0.2,0.4,0.4c-1,3.6-1,3.6,0.7,6.9c2,4.1,3.9,8.1,5.8,12.2
		c0.1,0.2,0.3,0.3,0.1,0.6c-1.6-1.4-3.2-2.8-4.8-4.3c-2.8-2.5-5.6-5.1-8.4-7.6c-0.6-0.5-0.9-0.6-1.4,0.2c-2.4,3.5-4.9,6.9-7.3,10.4
		c-0.6,0.8-0.9,1-1.5,0c-0.4-0.7-0.9-1.3-1.4-1.9c0.2-1.2-0.2-2-1.5-2.2c-1.2-1-1.9-2.4-2.7-3.6c-2.3-3.3-4.6-6.6-6.8-10
		c-0.5-0.8-0.9-1-1.8-0.5c-3.2,1.5-6.4,2.9-9.6,4.3c-0.4,0.2-0.7,0.3-1.1,0.3c-0.4,0-0.5-0.2-0.4-0.6c0.3-3.3,0.5-6.6,0.1-9.9
		c-0.1-0.7-0.3-1.4-0.9-1.7c-0.7-0.4-0.3-0.5,0.1-0.8c0.8-0.5,1.6-1.1,2.4-1.6c1.2-0.9,1.6-2.1,0.9-3.1c-0.7-1-2-1.2-3.3-0.3
		c-1,0.7-1.9,1.4-2.9,2.1c-0.5,0.4-1,0.5-1.6,0c-0.7-0.6-1.6-0.5-2.4,0c-0.6,0-0.7-0.4-0.8-0.8c-0.2-0.7-0.5-0.6-1-0.3
		c-0.8,0.5-1.6,1.1-2.7,1.2c-1.7-1-2.1-1.9-1.7-4c0.2-0.9,0.4-1.9,0.5-2.8c0.1-1.4-0.1-2.6-1.3-3.5c-1.1-0.8-2.3-0.6-3.4,0
		c-0.4,0.2-0.7,0.4-1.1,0.3c-0.5-0.2-0.3-0.7-0.3-1c0.1-1.6,0.3-3.2,0.5-4.8c-1.3,0.4-2.6,0.8-4,1.2c-0.5,0.1-1.1,0.4-1.5-0.1
		c-0.2-0.5,0-0.9,0.1-1.4c0.5-1.8,1.1-3.6,1.7-5.4c0.1-0.3,0.2-0.6,0.2-0.9c0.2-1.1-0.3-2.1-1.2-2.3c-0.9-0.2-1.7,0.3-2,1.4
		c-0.9,3-1.9,6-2.8,9c-0.1,0.5-0.2,1-0.6,1.4c-2.4,1-4.8,1.6-7.3,2.3c-0.3,0.1-0.6,0.2-0.9,0c-0.3-0.3-0.1-0.6,0.1-0.9
		c0.8-2,1.7-4,2.7-6c1.9-4.2,3.7-8.4,5.7-12.6c0.4-0.9,0.3-1.5-0.6-1.9c-0.5-0.2-1.1-0.4-0.9-1.2c0.7-1.4,1.6-2.7,2.1-4.2
		c0.2-0.6,0.4-1.2,0.5-1.8c0.1-0.4,0.2-1-0.2-1.3c-0.5-0.4-1-0.1-1.5,0.2c-0.8,0.5-1.4,1.1-2.1,1.8
		C14.2,218.5,13.5,219.8,12.7,221.1z"/>
	<path fill="#F5CAD6" d="M140.9,203.1c-0.4-0.1-0.8-0.2-1.2-0.5c-1.5-1.7-2.5-3.7-3.7-5.6c-2.9-4.9-6.3-9.6-9.7-14.2
		c-0.4-0.5-0.7-1-0.8-1.6c-0.3-2.2-0.5-4.4-0.8-6.6c-0.3-3.1,0.1-6.2,0.1-9.3c-0.1-2.6,1.2-4.3,3-5.9c0.7-0.6,1.2-1.4,1.8-2.1
		c1.3-1.4,1.8-1.3,3,0.3c0,0.6-0.3,1-0.7,1.4c-1.5,1.4-1.9,3.2-2,5.2c-0.2,3,0.5,5.8,1.5,8.6c0.4,1.1,0.8,2.1,0.1,3.2
		c-0.1,0.2-0.2,0.5,0.2,0.7c1.5-2.4,4-3,6.6-3.4c0.3,0,0.5-0.1,0.8-0.2c4-1.6,7.8-1.3,11.5,0.7c0.6,0.4,1.4,0.5,2.1,0.6
		c1.8,0.5,3.2,1.4,4,3.1c0.7,1.4,1.4,1.5,2.3,0.1c0.3-0.5,0.7-0.3,1-0.2c0.3,0.1,0.7,0.4,1-0.1c0.3-0.5,0-0.8-0.4-1.2
		c-0.7-0.6-2-0.6-2.9,0.1c-0.5,0.4-0.9,0.5-1.2-0.2c-0.4-0.7-1.1-0.9-1.8-1.1c-0.7-0.2-1.2-0.5-0.7-1.4c0.2-0.4,0.2-0.8,0-1.2
		c-0.5-0.8-0.5-1.7-0.5-2.7c0.1-2.5-0.3-4.9-0.7-7.4c-0.1-0.3-0.1-0.6,0-0.9c0.9-0.7,1.8-0.3,2.7-0.2c3,0.3,5.9,0.4,8.9,0.8
		c0.7,0.1,1.2-0.3,1.7-0.7c1.5-1.2,2.9-2.5,4.5-3.6c0.4-0.3,0.7-0.9,1.4-0.4c0.2,0.6-0.2,1.1-0.4,1.6c-1.1,2.2-1.2,4.5-1,6.9
		c0,0.3,0.1,0.6,0.3,0.9c0.4,0.6,0.4,1-0.2,1.5c-0.6,0.6-0.5,1.7,0.1,2.4c0.3,0.3,0.6,0.3,0.9,0c5.1-3.5,10.7-3.5,16.4-2.3
		c1,0.2,1.9,0.7,2.8,1.4c0.4,0.3,0.8,0.6,1.3,0.2c0.5-0.4,0.4-0.9,0.2-1.4c-0.2-0.4-0.4-0.8-0.6-1.2c-0.3-0.6-0.4-1.2-0.1-1.9
		c1.1-1.7,2.7-3,3.9-4.5c0.3-0.4,0.7-0.9,1.2-0.7c0.6,0.3,0.4,1,0.3,1.5c-0.3,3.2-0.9,6.3-1.5,9.5c-0.4,2.3-0.9,4.6-1.2,7
		c-0.4,2.3-1.8,4-2.7,6c-2.4,5.3-6.7,9.3-10.2,13.8c-0.8,1.1-2,1.7-3.2,2.3c-2.7,1.5-5.5,3-8.2,4.5c-0.7,0.4-1.5,0.6-2.3,0.6
		c-4.8,0.1-9.5,0-14.3-0.3c-3.9-0.3-7.8-1-11.6-1.9C141.6,203.2,141.2,203.3,140.9,203.1z"/>
	<path fill="#D09F7C" d="M166.7,29.8c-1.6,1.1-2.8,2.6-4.2,3.9c-4.1,3.8-8,7.7-12.1,11.5c-2.9,2.8-5.9,5.5-9,8.2
		c3.7-6.9,7.3-13.7,11-20.6c0-0.1-0.1-0.1-0.1-0.2c-1.2,0.9-2.3,1.8-3.5,2.7c-1.6,1.3-3.3,2.5-4.9,3.8c-0.3,0.2-0.7,0.5-0.8,0.9l0,0
		c-1.5,0.6-2.5,1.7-3.8,2.7c-4.9,3.7-9.7,7.5-14.5,11.3c-2.4,1.9-4.8,3.7-7.2,5.6c-0.4-0.2-0.2-0.6-0.2-0.9c0-7.5,0-15,0-22.5
		c0-1.6,1.2-2.4,2-3.4c4.1-5.4,8.3-10.8,12.5-16.1c0.3-0.4,0.5-0.8,1.1-0.9c1,1.2,1.9,2.3,3,3.6c-2.3,1.6-4.7,3.1-6.8,4.9
		c-3.1,2.7-6.2,5.5-8.8,8.7c-0.6,0.7-1.1,1.6-1.4,2.5c-0.4,1.1,0,2.2,0.9,2.6c1,0.5,1.9,0.1,2.5-0.7c7.5-10.3,17.8-16.8,29.6-21
		c2.8-1,5.7-2,8.5-3.1c1.1-0.4,2.1-1.2,3.1-1.8c3.6-2.1,7.5-3.9,11-6.8c0.3,2,0.7,3.7,0.9,5.5c0.2,1.1,0.3,2.1,1.1,3
		c0.5,0.5,1.2,0.8,1.7,0.2c1.1-1.3,2.6-1.3,4-1.6c0.3,0.5-0.1,0.9-0.3,1.3c-0.8,1.3-1.6,2.7-2.4,4c-0.5,0.9-1.2,1.4-2.2,1.6
		c-3.6,0.9-7.2,1.9-10.8,2.8c-1.1,0.3-1.2,0.4-0.7,1.5c0.6,1.4,1.2,2.9,1.7,4.3c0.2,0.4,0.3,0.8,0.3,1.3
		C167.4,28.8,167,29.3,166.7,29.8z"/>
	<path fill="#EC7BAC" d="M140.9,203.1c2.3,0.1,4.6,0.7,6.9,1c2.6,0.4,5.2,0.8,7.8,0.9c3.9,0.1,7.7,0.2,11.6,0.2c1,0,1.9-0.2,2.8-0.7
		c2.9-1.6,5.8-3.3,8.8-4.8c1.7-0.9,2.7-2.4,3.9-3.8c1.7-2,3.3-4.1,5-6.1c1.7-1.9,2.5-4.4,3.9-6.4c2.1-3.1,2.5-6.7,3.1-10.2
		c0.6-3.1,1.1-6.3,1.6-9.4c0.2-1.1,0.3-2.2,0.1-3.5c-1.6,1.7-3.2,3.5-4.8,5.2c-0.4-0.3-0.4-0.7-0.4-1.1c0-1.5-0.3-2.8-0.7-4.2
		c-0.4-1.1-0.5-2.3-0.7-3.5c-0.1-0.8-0.5-1.4-1.2-2c-1.8-1.4-3.7-2.3-6-2.2c-0.6-0.4-0.2-0.9-0.1-1.3c0.3-1.3,1-2.4,1.3-3.8
		c-2.6,2.1-5.1,4.2-7.7,6.3c-0.4,0.3-0.6,0.6-0.7,1.1c-1.4,0.2-2.4,0.9-3.1,2.1c-0.1,0.2-0.3,0.5-0.7,0.4c-1.1,0.1-1.7,1.1-2.5,1.7
		c-1.1,0.8-2.1,1.7-3.1,2.6c-0.7,0.6-1.5,0.8-2.5,0.6c-2.1-0.3-4.3-0.5-6.4-0.6c-1.5-0.1-3-0.4-4.5-0.3c-0.1,0-0.2,0-0.2,0
		c-0.7-1.8-2.4-2.3-3.8-3.2c-0.5-0.3-0.9-0.6-1.5-0.7c-0.7-0.1-1.2-0.4-1.7-0.8c-1.3-0.9-2.7-1.3-4.3-1c-1.8,0.3-3.6,0.9-5.3,1.6
		c-1.1,0.5-2.3,0.6-3.5,0.4c-1.6-1.4-1.6-1.4-3.1,0.2c-0.5,0.5-0.9,1.2-1.4,1.6c-2.6,1.8-3,4.4-3,7.2c0.1,2.6-0.2,5.2-0.3,7.8
		c-0.5-3-1.1-6.1-1.6-9.1c-0.4-2.5-1.1-4.9-1.5-7.4c-0.5-2.9-0.1-5.8,0.4-8.7c0.1-0.7-0.2-1.9,0.6-2.1c0.5-0.2,1.3,0.5,2,0.8
		c5.3,2.4,10.9,3.7,16.6,4.6c2.9,0.4,5.7,0.9,8.7,1.1c2,0.1,4.1,0,6.1-0.3c1-0.2,1.7-0.6,2.4-1.4c0.9-1.1,2.4-1.4,3.6-2.3
		c0.1-0.1,0.2,0,0.3,0c2.6,1.3,5.1,0.6,7.6-0.3c4.8-1.6,8.7-4.6,12.4-8c4.2-3.9,8.4-7.9,12-12.4c0.6-0.8,1.2-0.3,1.7-0.1
		c0.5,0.2,0,0.7-0.1,1c-1.6,3.6-3.2,7.3-4.8,10.9c-0.5,1.2-0.9,2.4-1,3.7c-0.1,0.6-0.1,1.3,0.6,1.7c0.6,0.3,1.2,0,1.7-0.3
		c0.2-0.2,0.5-0.4,0.7-0.4c1.1,0.1,1.9-0.6,2.6-1.2c0.6-0.5,1.2-0.9,2.1-1.5c-0.8,2-1.8,3.5-2.9,5c-0.4,0.6-0.9,1.1-1.1,1.8
		c-0.3,0.9-0.1,1.7,0.6,2.2c0.8,0.6,1.6,0.4,2.3-0.1c0.9-0.7,1.5-1.6,2.1-2.5c0.3-0.5,0.6-0.8,1.2-0.6c1,0.3,1.8-0.2,2.9-0.5
		c-1.5,2.6-2.5,5.2-2.8,8c-0.1,0.5-0.1,1-0.1,1.6c0.1,2.6,1.5,3.4,3.8,2c0.2,2.1-0.4,4-0.7,5.9c-0.2,1.1-0.6,2.2-0.8,3.4
		c-0.2,0.9-0.4,1.8-1.3,2.5c-0.4,0.3-0.6,1-0.7,1.5c-2.3,7.8-5.8,15-11.5,20.9c-2.1,2.3-4.4,4.4-6.9,6.2c-0.8,0.6-1.7,1.2-2.7,1.5
		c-1,0.4-1.8,0.8-2.1,1.9c-0.1,0.4-0.5,0.4-0.8,0.6c-4.9,1.7-9.9,2.9-15.2,2.5c-1.3-0.1-2.5-0.2-3.7,0.7c-0.3,0.2-1,0-1.5-0.1
		C150.6,206.5,145.6,205.3,140.9,203.1z"/>
	<path fill="#1C472E" d="M147.4,232.8c2.4,4.2,4.9,8.3,7.3,12.5c0.1,0.2,0.2,0.3,0.4,0.7c-1.7-0.1-3.3-0.1-4.8-0.3
		c-1.3-0.1-2.7-0.3-4-0.4c-0.7,0-1.1-0.3-1.6-0.7c-5.3-5.3-10.7-10.5-16.1-15.8c-0.6-0.5-1-1.1-1.2-1.9c-1-2.4-2-4.8-3.2-7.1
		c0.1,1.8,0.2,3.5,0.7,5.3c-1.4,0.2-1.7,1.3-1.9,2.4c-0.6,2.9-1.4,5.7-2.3,8.4c-1.8,5.3-4.5,10.1-7.4,14.9c-1.5,2.5-3.2,5-3.9,7.9
		c-0.1,0.3-0.2,0.7-0.1,1.1c0.2,1.9,0.3,3.9,0.6,5.8c0.9,4.6,2.9,8.7,5.1,12.7c0.2,0.3,0.4,0.5,0.5,0.8c0.7,4.4,3.9,7,6.8,9.7
		c0.7,0.7,1,1.1,1,2.2c-0.1,4.3-0.9,8.5-1.8,12.6c-0.6,2.8-1.4,5.6-1.9,8.4c-0.6,3.3-0.7,6.7-0.7,10.1c-0.1,2.2,0.2,4.3-1.1,6.4
		c-1.6,2.6-1.4,5.8-2,8.7c-0.2,0.7-0.3,1.4-0.5,2.4c-1.8-2.4-3.5-4.4-4.8-6.8c-0.1-0.7,0.4-1.1,0.8-1.4c2.2-1.7,3-3.9,3.5-6.6
		c0.7-4.6,1.8-9.2,2.6-13.8c0.6-3.6,0.7-7.3,1.2-11c0.6-3.9-0.4-7.6-1.1-11.4c-0.2-1.3-0.9-2.5-1.3-3.7l0,0c-0.4-0.7-0.8-1.3-1-2
		c-0.4-1.2-0.9-2.4-2.3-2.9c-0.3-0.1-0.4-0.4-0.5-0.6c-0.6-3.2-1.6-6.4-2.7-9.5c-1-2.6-1.4-5.4-1.7-8.1c-0.2-1.8-0.6-3.5-0.4-5.3
		c0.7-1,1.1-2.2,1.2-3.5c0.1-2.1,1.1-3.8,2.2-5.4c1.8-2.9,3-6,3.1-9.4c0.1-4.1,1.7-7.9,2.9-11.7c1-3.5,2.1-7,2.8-10.5
		c2.6-1.8,5.4-3.2,8.2-4.6c0.3-0.1,0.6-0.5,0.9-0.3c1.4,1.3,2.5,0.1,3.5-0.6c0.9-0.7,1.8-1,2.9-1.2c0.1,0.2,0.1,0.3,0,0.5
		c-1.8,2.5-0.2,4.7,0.7,7c0.2,0.6,0.9,0.7,1.6,0.6c0.6-0.1,0.9-0.5,1.1-1.1c0.1-0.3,0.2-0.7,0.1-1.1c-0.2-1.5-0.7-2.9-0.9-4.3
		c-0.2-1.1-1.3-1.3-2.1-1.7c0.7-0.6,1.5-1,2.2-1.5c0.6-0.4,1.4,0.4,2.1,0.7c-0.2,0.9-0.1,1.8,0.2,2.7c1,3.2,1.9,6.5,2.8,9.8
		c0.1,0.4,0.3,0.8,0.1,1.3c-1.9,0-3.1,1-3.1,2.7c0,1.3,0.7,2.2,2.1,2.3c0.8,0.1,1.1,0.5,1.4,1.1c0.5,1,0.8,2.1,1.1,3.2
		C145,232.9,146,233.3,147.4,232.8z"/>
	<path fill="#1C472E" d="M196.8,231.2c-1.5-1.8-3.1-3.6-4.6-5.4c2.3,5.6,4.2,11.2,6.5,17.1c-4-0.9-7.7-1.8-11.5-2.7
		c-0.7-0.3-0.6-1-0.8-1.5c-0.3-0.7-0.1-1.9-1.1-1.8c-1.1,0.1-0.8,1.3-0.8,2.1c0,0.2,0,0.4-0.1,0.6c-2-0.9-4-0.7-6.1,0
		c-3,1.1-6.1,2.1-9.2,2.9c0.7-2.2,1.9-4.2,2.2-6.5c0.5-3,0.6-6,0.2-9c-0.1-0.7-0.1-1.4,0.4-2.2c1.5,1.3,3,2.5,4.5,3.8
		c0.6,0.5,1,1.2,1.2,1.9c0.2,0.5,0.3,1.1,0.7,1.5c0.5,0.5,1,1.4,1.8,1.1c0.9-0.3,1.4-1.1,1.5-2.1c0.2-2.4-0.9-4-2.6-5.5
		c-1.1-1-2.3-2-3.4-3c-0.1-0.5,0.2-0.8,0.4-1.2c1.5-1.9,2.9-3.8,4.3-5.7c1-1.3,1.4-2.8,2.1-4.3c0.6-1.2,1.1-2.4,1.6-3.6
		c0.1-0.3,0.3-0.7,0.6-0.8c1,0.2,1.4,0.5,0.7,1.6c-0.8,1.3-0.4,3-0.9,4.4c-0.2,0.7-0.4,1.4-0.5,2.1c-0.1,1-0.2,2,0.6,2.8
		c-1.8,1.1-2.9,2.6-2.8,4.7c0,0.9,0.5,1.7,1.4,1.9c1,0.2,1.9,0,2.3-1c0.4-1,0.8-2.1,1.3-3.1c0.4-0.9-1.1-2,0.6-2.8
		c0.9-0.5,0.8-2,1.1-3.1c0.3-1.5,0.7-2.9,0.6-4.5c0-0.9,0.1-1.2,1.1-0.8c3.6,1.6,7.2,3.4,11,4.8c0.9,0.4,1.8,0.8,2.9,0.7
		c0.5,0,0.8,0.3,1.1,0.6c2.9,4,6.5,7.5,9.5,11.5c0.2,0.3,0.6,0.6,0.9,0.8c0.3,0.2,0.5,0.5,0.4,0.9c-0.4,2.9-0.5,5.9-0.4,8.8
		c0,4.8-0.8,9.6-1.6,14.3c-0.3,2.1-0.6,4.1,0.1,6.2c0.4,1.3-0.4,2.5-0.9,3.7c-0.2-1.9-0.4-3.8-0.5-5.7c-0.1-2.8-0.9-5.5-1.8-8.1
		c-0.3-1-0.7-2-0.9-3c-0.3-1.1-0.9-1.8-2.1-1.9c-1.2-0.1-1.7-1.1-2.3-1.9c-2-2.6-3-5.7-3.9-8.8c-0.5-1.7-1-3.4-1.3-5.2
		c-0.2-1.2-1.4-2.2-2.3-2.1c-1.1,0.1-1.7,1.2-1.8,2.6C196.1,228.6,196.7,229.8,196.8,231.2z"/>
	<path fill="#D09F7C" d="M72.1,125.5c-0.3,0.6-0.2,1.5-0.9,2c-0.5,0-0.8-0.3-1.1-0.5c-2-1.6-4.1-2.7-6.7-2.8c-0.6,0-1-0.2-1.2-0.8
		c-0.2-0.5-0.8-0.8-0.9-1.4c0.2-0.4,0.2-0.8,0.2-1.2c0-2.8,0.2-5.6,0.5-8.5c2.3-1.9,3-4.5,2.8-7.3c0-0.5,0-1,0.2-1.5
		c0.6-1.3,1.2-2.5,1.7-3.8c0.5-1.2,1.7-1.9,2.8-2.5c2.7-1.6,5.6-3.1,8.5-4.3c0.1,0,0.2,0,0.4-0.1c2.8,0.6,5.5,1.2,8.3,1.7
		c0.9,0.2,1.3,0.5,1.3,1.5c0.3,5.5,0.6,11.1,1,16.6c0.1,1.8,0,3.6,0.4,5.4c0.2,0.8-0.1,1.6-0.4,2.3c-2.1,4.1-4.2,8.3-6.2,12.4
		c-0.2,0.2-0.4,0.3-0.7,0.4c-1,0.6-1.3,1.2-1,2.3c0.1,0.3,0.2,0.5,0,0.8c-1,1.3-1.5,3-2.4,4.4c-0.2,0.4-0.4,0.8-0.8,1.6
		c-1.1-5.1-2.1-10-3.1-14.8c0.9-1.7,0.6-3.4,0.2-5.1c-0.7-2.8-1.6-5.4-2-8.2c-0.1-0.7-0.1-1.4-0.2-2.1c-0.1-1.1-0.8-1.8-1.7-1.8
		c-0.9,0-1.6,0.8-1.7,1.9c-0.2,2.7,0.7,5.2,1.3,7.7c0.4,1.6,0.8,3.2,1.4,4.7C72.1,124.8,72.3,125.2,72.1,125.5z"/>
	<path fill="#D0A07D" d="M270.3,144c-0.4,0-0.8-0.1-1.1-0.4c-1.2-1.5-2.5-2.9-3.5-4.6c-0.8-0.6-1.1-1.5-0.9-2.5
		c0.5-2.8-0.5-5.1-2.7-6.8c-1.2-0.9-2.1-2.2-3.3-3.1c-0.4-0.3-0.5-0.7,0.1-1c0.9-0.4,1.2-1.2,1.1-2.2c-0.2-1,0.4-1.6,1-2.2
		c1.2-1.3,2.5-2.5,3.7-3.7c0.8-0.8,1.4-1.6,1.8-2.6c0.3-0.6,0.3-1.3-0.2-1.8c-0.6-0.5-1.3-0.4-1.9-0.1c-1.1,0.6-1.7,1.7-2.6,2.5
		c-0.4,0.4-0.7,0.9-1.4,0.9c-0.3-0.5,0.1-0.7,0.3-1.1c2.6-4.9,5.2-9.8,7.8-14.6c0.1-0.2,0.2-0.3,0.4-0.5c4,2.7,7.2,6.2,10.1,10.1
		c1.5,2.1,3.1,4,4.9,5.8c2.2,2.2,4.8,3.7,8,3.9c0.9,0.1,0.9,0.3,0.6,1.1c-2.1,5.9-4.9,11.6-7.7,17.2c-1.1,2.2-2.2,4.5-2.7,7
		c-0.1,0.6-0.3,0.7-0.9,0.6c-2.8-0.5-5.2-1.8-7.3-3.7c-0.8-0.7-1.7-1-2.6-0.5C270,142.1,269.9,143,270.3,144z"/>
	<path fill="#D3A482" d="M262.6,254.2c0.6,0.8,1.2,1.6,1.7,2.4c0.4,0.7,0.7,0.9,1.2,0c2.3-4.3,4.6-8.6,6.9-12.9c1.1-2,2.2-4,3.4-6.2
		c0.4,1.9,0.7,3.5,1,5c0.3,1.8,0.5,3.7,1,5.5c0.4,1.6-0.2,3-0.5,4.4c-0.1,0.4-0.2,0.8-0.2,1.2c-0.2,0.9-0.7,1.7-0.7,2.7
		c-0.5,0.7-0.5,1.5-0.7,2.2c-1.9,0.4-3.2,1.7-4.6,2.9c-1.2,1.1-2.5,2.1-3.9,3c-6.3,4-12.2,8.7-19,12c-3.8,1.8-7.7,2.9-11.9,3.2
		c-0.2,0-0.5,0-0.7,0c-1.6-0.3-3.3-0.7-4.9-0.8c-1.9,0.5-3.7,1.4-5.6,2.1c-0.3,0.1-0.5,0.3-0.8,0.2c-0.1-1-0.2-2-0.2-3.1
		c-0.1-3.8-0.3-7.6-0.5-11.5c-0.1-0.8,0.2-1.2,1-1.5c3.7-1.2,7.4-2.4,11-3.7c0.9-0.3,1.1,0.1,1.2,0.8c0.6,3.8,1.1,7.6,1.7,11.4
		c0,0.2,0.1,0.4,0.4,0.5c0.7-2,1.3-4.1,2-6.1c0.7-2.1,1.2-4.3,2.2-6.3c1.4,1.2,2.9,1,4.3,0.2c0.4-0.2,0.8-0.4,1.3-0.3
		c1.2,0.8,1.9,2,2.9,3c0.3,0.3,0.5,0.6,0.7,0.8c0.5,0.5,0.8,0.4,1-0.2c0.6-1.9,1.2-3.7,1.7-5.6c0.1-0.5,0.3-0.9,0.5-1.3
		c0.4-0.6,1.1-0.8,1.6-1.1c1.5-0.9,3.1-1.8,4.6-2.7C261.8,254.3,262.1,254,262.6,254.2z"/>
	<path fill="#BA4D55" d="M16.3,222.7c0.2,0.6,0.7,0.9,1.2,1c1.2,0.4,1.1,1,0.7,2c-1.9,4.1-3.7,8.2-5.5,12.3
		c-1.1,2.4-2.1,4.7-3.2,7.3c2.8-0.8,5.5-1.6,8.1-2.4c0.5,0.5,0.2,1,0,1.5c-0.4,1.6-0.5,3.2-0.4,4.9c0.1,1.3,0.6,2.4,2.1,2.7
		c0.5,0.1,0.7,0.4,1.1,0.7c1.3,1.3,2.4,1.4,3.9,0.4c0.6-0.4,1.1-0.8,1.6-1.2c0.3-0.2,0.6-0.6,1.1-0.4c0.3,1.1,0,2.1-0.1,3.2
		c-0.1,1.7-0.4,3.3-0.5,5c1.6-0.4,2.8-1.5,4.2-2c0.5-0.1,0.8,0.3,1.1,0.5c0.7,0.5,1.4,0.8,2.2,0.3c0.8-0.4,0.8-1.2,0.7-2
		c0-0.2-0.1-0.5,0.1-0.7c0.8-0.8,2-1.1,2.9-1.7c0.4-0.3,0.6,0,0.7,0.4c0.2,0.5,0.2,1,0.7,1.3c-1.4,1.7-0.9,3.3,1.4,4.5
		c1,2.3,1.8,4.6,2.4,7c-0.2,3-0.6,5.9-1.6,8.8c-0.1,0.4-0.2,0.7-0.7,0.8c-2.3,0.2-4.1,1.3-6.1,2.4c-2.3,1.3-4.4,2.9-6.5,4.4
		c-0.3,0.2-0.6,0.4-1,0.7c-0.1-0.6,0.2-0.9,0.4-1.2c1.5-2.5,1.9-5.1,1.6-8c-0.2-1.8-0.1-3.6-0.3-5.4c-0.2-1.3-0.6-1.9-1.5-1.9
		c-1,0-1.4,0.6-1.6,2c-0.2,1.8-0.2,3.6-0.3,5.4c-0.1,0.8-0.3,1-1.1,0.8c-4.5-1-6.7-4.2-8.1-8.2c-0.4-1.2-0.3-2.5-1.6-3.4
		c-0.4-0.3-0.3-1.4-0.4-2.1c-0.4-2.1-1.3-4.1-2.6-5.8c-1.4-1.9-3.4-2.5-5.5-2.7c-1-0.1-0.9-0.4-0.5-1.1c2-4,3.8-8.1,4.7-12.5
		c0.3-1.5,0.6-3-0.8-4.2c-0.4-0.4,0.1-0.8,0.3-1.2C11.5,230.7,13.9,226.7,16.3,222.7z"/>
	<path fill="#D0A07D" d="M106.3,51.1c-1.5,3.6-2.7,7.4-3.9,11.1c-0.3,1,0.1,2,0.3,3.1c0.6,4.7,1.2,9.4,1.8,14.4
		c-3.1-2.4-6.1-4.7-9.3-7.2c1.2,5.2,2.3,10.1,3.4,15.1c-0.1,0-0.2,0.1-0.2,0.1c-0.8-1.1-1.6-2.3-2.4-3.4c-2.7-3.9-5.4-7.8-8.1-11.7
		c-0.4-0.6-0.7-0.8-1.4-0.4c-2.8,1.6-5.6,3.2-8.4,4.8c-0.7,0.4-0.7,0.6,0,1c2.3,1.5,4.6,3.1,7,4.7c0.2,0.1,0.4,0.1,0.4,0.5
		c-4.3-0.2-8.5-0.8-12.8-0.9c-0.4-0.4-0.9-0.8-1.3-1.2c-1.3-1-1.2-1-0.3-2.4c1.5-2.3,3.6-4.2,5.3-6.3c0.2-0.2,0.3-0.4,0.7-0.4
		c1.2,0.2,1.9-0.5,2.5-1.4c3.2-5,6.3-10,8.1-15.8c0.4-1.3,1.5-1.8,2.6-2c2.5-0.5,4.8-1.3,7.2-2.2c3-1.1,6-2.2,9.1-3.3
		C106.3,48.7,106.3,49.9,106.3,51.1z"/>
	<path fill="#D0A07C" d="M242.7,51.6c-1.4,1.2-2.7,2.4-3.3,4.3c-1.2,3.9-2.5,7.7-3.7,11.6c-0.2,0.7-0.8,1.1-1.3,1.5
		c-1.6,1.3-3.3,2.6-5,4c-0.9,0.8-2,1.2-3.1,1.4c-2.3,0.5-4.6,1.1-7,1.6c0.1-2.8,1.1-5.3,2.2-7.7c0.6-1.3,1.1-2.5,1.1-4
		c0-0.7,0-1.3-0.7-1.7c-0.7-0.4-1.3,0.1-1.8,0.6c-0.4,0.3-0.7,0.7-1.2,1.3c0.9-2.8,1.7-5.4,1.5-8.1c-0.1-1.7-0.5-3.3-1.4-4.6
		c-1.1-1.6-1.2-3.2-1.1-5c0-0.4,0.1-0.7,0.6-0.6c3.1,0.2,5.9-1,8.9-1.5c3.5-0.6,6.9-1,10.4-1.3c3.5-0.4,7-0.6,10.5-1.2
		c0.3,0,0.6-0.1,1,0.1C247.4,45.4,244.7,48.2,242.7,51.6z"/>
	<path fill="#D2A380" d="M261,228c-0.6,0.2-0.7,0.7-1,1.2c-1.9,3-3.8,5.9-5.5,8.9c-0.6,1-1.3,1.5-2.4,1.6c-2.7,0.2-5.3,0.5-8,0.8
		c-1.5,0.1-3,0.3-4.5,0.5c-0.8,0.1-1.2,0.7-1.8,1.2c-3.6,3.4-7.2,6.8-10.9,10.3c-0.3-1,0-1.9,0.1-2.7c0.2-3.4,0.4-6.8,0.5-10.1
		c0-1,0.7-1.7,1.1-2.5c0.3-0.6,0.7-1.2,1.1-1.9c0.3-1.1,1.1-1.8,1.8-2.6c1.1-1.3,2.2-2.5,2-4.3c1.3-1.5,2.1-3.3,3.1-4.9
		c1-1.7,1-1.8,2.5-0.5c1.6,1.3,3.3,2.4,4.6,3.9c-0.1,0.5-0.6,0.7-1,1c-2.3,1.4-4.5,3-6.9,4.4c-0.3,0.2-0.5,0.3-0.8,0.6
		c-0.8,0.7-1,1.6-0.6,2.3c0.5,0.8,1.4,1,2.4,0.6c0.7-0.3,1.3-0.7,1.9-1.1c2.1-1.4,4.2-2.9,6.4-4.2c0.6-0.4,1.3-0.8,2-1
		c0.8,0.1,1.3,0.8,1.8,1.3c0.7,0.5,1,0.4,1.4-0.3c0.8-1.4,1.7-2.8,2.6-4.1c0.6-0.6,1.4-0.9,2.1-1.4c0.3-0.2,0.6-0.4,0.9-0.6
		c1.4-1.1,1.4-1.4,0.5-3.1c0.6-1,1-2.4,1.9-2.8c0.9-0.4,2,0.8,3,1.3c1.5,0.7,2.9,1.7,4.5,2.2c-1.4,1.2-3.2,1.8-4.5,3.1
		C260.3,226,260.3,226.6,261,228z"/>
	<path fill="#D09E7B" d="M250.8,90c-1,0.2-1.9,1.1-3,0.7c-0.3,0-0.4-0.2-0.6-0.3c-1-0.6-1.7-0.3-2,0.7c-0.6,1.8-0.8,1.9-2.6,2
		c-2.1,0.1-3.5,1.6-5,2.8c-0.4,0.3-0.7,0.9-1.3,0.9c-0.1-1.6-0.3-3.2-0.4-4.7c-0.1-0.9-0.2-1.8-0.2-2.6c0-1.3-0.6-1.4-1.7-1.1
		c-1.2,0.3-2.5,0.2-3.7,0.3c-1.2,0.1-2.4,0.2-3.7,0.3c0-0.7,0.5-1,0.8-1.3c1.9-2.1,3.9-4,5.6-6.2c1.4-1.8,2.4-3.9,3.5-5.8
		c0.2-0.3,0.4-0.7,0.6-1c1.9-0.2,4-0.6,5.5,0.4c1.8,1.1,3.5,0.5,5.2,1c1.9,0.6,3.8,1,5.7,1.5c1.8,0.5,3.7,1,5.5,1.5
		c1.9,0.5,3.7,1.1,5.6,1.6c0.3,0.1,0.6,0.2,1,0.4c-1,0.5-1.5,1.2-1.4,2.2c0.1,0.9,0.9,1.5,1.1,2.5c-2.9-0.6-5.6-0.6-7.6,1.9
		c-1-0.1-1.8,0.4-2.6,0.7c-0.6,0.2-1.3,0.5-2,0.5C252.4,89.1,251.6,89.6,250.8,90z"/>
	<path fill="#1E4A32" d="M214.1,320.2c0.4,1.2,0.8,2.5,1.2,3.7c0.1,0.3,0.1,0.7,0.3,0.9c1.3,1.4,0.7,2.6-0.2,4
		c-1.9,3.2-2.7,6.9-4.2,10.3c-0.7,1.6-1.4,2-3,1.4c-0.3-0.1-0.4-0.3-0.3-0.5c0.3-1.1,0.3-2.1-0.6-3c-0.2-0.2-0.1-0.4-0.1-0.7
		c0.1-1.7,0.2-3.3,0.4-5c0.4-3.6-0.7-7-1.5-10.5c-0.9-3.7-1.7-7.4-1.9-11.2c0-0.4-0.2-0.8-0.3-1.2c-0.4,0.3-0.1,0.8-0.3,1.1
		c-0.6-1.2-0.6-2.6-0.8-3.8c-0.4-3-0.5-6-0.8-8.9c-0.2-1.8-0.1-3.7-0.2-5.5c-0.2-2.4,1.1-4.2,2.4-5.9c0.8-1.1,1.7-2.1,2.3-3.3
		c0.6-1.3,1.5-2.4,2.2-3.7c1.8-3,3.1-6.1,3.9-9.5c0.1-0.5,0-1.3,0.5-1.3c0.8,0,0.5,0.9,0.4,1.4c-0.2,2.9-0.6,5.9-0.8,8.8
		c-0.1,1.4-0.4,2.9-0.3,4.3c0.2,3.4-0.5,6.6-1.5,9.8c-0.8,2.4-1.4,4.9-1.2,7.5c0.1,1.6,0.8,3.1,1.1,4.6c1,5.1,2.1,10.3,3.2,15.4
		C214.1,319.8,214.1,320,214.1,320.2c-0.5,0.1-0.6-0.4-0.8-0.7c-1.4-3-3-6-4.4-9.1c-0.6-1.4-0.6-2.9-0.6-4.4
		c-0.1-4.6-0.5-9.3-0.5-13.9c0-2,0.4-4,0.2-5.8c-0.7,2.1-1.6,4.5-2.5,6.8c-0.3,0.7-0.4,1.5-0.4,2.2c0,3.8-0.1,7.6,0,11.4
		c0.1,3.3,0.3,6.6,1.1,9.9c0.8,3,1.3,6.1,1.9,9.2c0.3,1.6,1.5,2.4,2.5,3.4c0.5,0.4,0.7-0.1,0.8-0.5c0.7-2.1,1.2-4.3,1.9-6.4
		C213.6,321.6,213.6,320.8,214.1,320.2z"/>
	<path fill="#518E8A" d="M119.8,216c0.5,0.4,0.2,0.8,0.1,1.2c-1.3,5.7-3.2,11.2-4.8,16.7c-0.6,2.1-0.8,4.4-0.9,6.6
		c-0.1,2.4-1.3,4.3-2.4,6.3c-1.4,2.4-2.8,4.8-2.9,7.7c0,0.9-0.5,1.6-1.3,2c-1.1-7.1-1.3-14.2-1.7-21.3c-0.1-2.3-0.2-4.6,0.2-6.8
		c0.1-0.4,0.1-0.9,0.4-1.1c1.4-1.5,2.6-3.2,4-4.7C113.1,219.7,116.8,218.4,119.8,216z"/>
	<path fill="#BA4E55" d="M46.8,271.2c0.3,0.8,0.7,0.2,1,0.1c3.4-1.5,6.8-3.1,10.2-4.6c0.7-0.3,1.1-0.4,1.6,0.4c3,4.5,6.1,9,9.2,13.6
		c0.1,0.2,0.2,0.4,0.3,0.6c-1,0-1.9,0.3-2.8,0.6c-2.9,1.1-5.8,1.6-8.9,1.1c-1.9-0.3-3.3-1.5-4.9-2.5c1-1.1,1.9-2.2,2.5-3.4
		c0.3-0.5,0.5-1,0.6-1.6c0.2-1-0.4-1.4-1.3-1.2c-1.4,0.3-2.5,1.1-3.4,2.1c-2.1,2.1-4.1,4.3-6.1,6.4c-0.9,0.9-1.8,1.8-2.9,2.5
		c-0.2-0.2,0-0.4,0.1-0.6C44.3,280.5,46,276,46.8,271.2z"/>
	<path fill="#488986" d="M116.2,284.9c0.9,1.4,1.6,2.9,1.8,4.5c0.4,2.7,1.3,5.4,1.1,8.3c-0.3,3.6-0.7,7.1-1.1,10.7
		c-0.8,6.6-2.4,13.1-3.6,19.7c-0.1,0.6-0.3,1-0.7,1.4c-1,1.1-2.2,2-3.1,3.3c-1.1-1.2-1.8-2.6-2.6-4c-0.1-0.2-0.1-0.5-0.1-0.7
		c0.6-3.4,0.9-7,2.1-10.3c1.3-3.5,2.2-7,3.2-10.5c0.5-1.8,1-3.7,0-5.6c-0.2-0.3,0-0.6,0.1-0.9c1.2-4.3,2.1-8.7,2.9-13.2
		C116.3,286.7,116.2,285.8,116.2,284.9z"/>
	<path fill="#EB78AA" d="M165.6,237.8c-0.2-1.6-1.2-2.9-1.9-4.3c-1.3-2.4-2.8-4.8-3.8-7.4c-0.2-0.6-0.7-1-1.1-1.4
		c-0.8-0.8-1.6-1.6-2.2-2.5c-0.5-0.7-1-1.3-0.4-2.4c0.4-0.8-0.1-1.6-0.8-2c-0.9-0.6-1.8-1.1-2.7-1.5c-2.3-1.1-4.3-2.5-6.3-4.1
		c-0.8-0.6-1.5-1.4-1.5-2.6c1.7-0.3,3.3,0.4,4.9,0.8c3.9,0.8,7.9,1.4,11.9,1.1c0.9-0.1,1.8-0.2,2.6-0.4c3.8-1.1,7.8-1.4,11.8-3.1
		c-1.3,1.7-1.8,3.5-2.8,5c-0.6,0.9-1.1,1.8-1.9,2.6c-0.1,0.1-0.3,0.2-0.3,0.4c-0.3,1.1-0.9,1.8-2.1,1.9c-0.7,0.1-1.1,0.8-1.1,1.5
		c0.1,2.1-0.2,4.1-0.5,6.2c-0.3,2.1,0.5,4,0.3,6.1c-0.2,2.3-0.5,4.6-1.5,6.7C165.6,238.5,165.8,237.9,165.6,237.8z"/>
	<path fill="#1C472D" d="M165.6,237.8c0.1,0.1,0.3,0.3,0.4,0.4c-0.8,2-1.7,3.8-2.8,5.6c0-0.1,0-0.2,0-0.2c0.7-1.9-0.4-2.7-1.9-3.5
		c-4.2-2.5-8.4-5.1-12.6-7.6c-0.3-0.2-0.5-0.4-0.9-0.3c0.1-0.8,0.3-1.5,0.4-2.3c0.2-1.7,1-3.2,2.2-4.5c0.6-0.4,1.1,0,1.5,0.2
		c0.9,0.4,1.8,0.8,2.8,1c1,1,1.7,2.3,2.3,3.6c1.4,2.9,3.4,5.5,4.6,8.5c0.4,1,1.1,1.7,2.2,1.5C165.1,239.9,165.7,239,165.6,237.8z"/>
	<path fill="#B94B54" d="M167.8,28.4c-1.1-2-1.8-4.3-2.7-6.4c-0.3-0.8,0.3-0.7,0.7-0.8c3.9-1,7.8-2.1,11.8-3.1
		c0.4-0.1,0.9-0.2,1.1-0.6c1.1-2,2.5-3.8,3.4-5.9c0.6-0.2,1.2-0.4,1.9-0.7c-0.2,1.1-0.2,2.2-0.2,3.3c0,0.3,0.1,0.6,0,1
		c0,0.6,0.9,1.2,0.4,1.8c-0.4,0.5-1.2,0.6-1.8,1C177.3,20.8,171.9,23.7,167.8,28.4z"/>
	<path fill="#EB74A7" d="M125.5,181.2c4.6,6.1,8.9,12.4,12.9,19c0.5,0.8,1.1,1.4,1.3,2.4c-4.4-0.9-7.4-3.4-9.1-7.5
		c-1.7-4.1-3.4-8.2-5.1-12.2C125.3,182.3,125.2,181.8,125.5,181.2z"/>
	<path fill="#468884" d="M184.6,206.7c-1.1,2.6-2.1,5.3-3.4,7.8c-1.1,2-2.7,3.8-4.1,5.7c-0.5,0.7-1,1.4-1.6,2.1
		c-1.3-0.9-2.2-2.1-3.4-3.2c1.8-0.2,2.8-1.1,3.7-2.4c1.3-1.9,2.4-3.9,3.3-6c0.6-1.3,0.3-2.1-1.1-3.2c1.5-0.6,3-1.3,4.4-2.1
		c0.4-0.2,0.7-0.4,0.9,0.2C183.5,206.1,184.1,206.4,184.6,206.7z"/>
	<path fill="#468884" d="M143.1,222c-1.2-4-2.4-8.1-3.6-12.1c-0.2-0.5-0.2-1.2,0.5-1.6c0.3,0.1,0.5,0.2,0.8,0.3
		c0.6,0.2,0.9,0.3,0.5,1.1c-0.7,1.1-0.3,2.2,0.3,3.3c0.9,1.5,2.3,2.5,3.7,3.6c1.3,0.9,2.5,1.8,3.9,2.6c0.8,0.5,0.7,0.7,0.1,1.3
		c-1,0.9-1.8,2-2.6,3.1c-1.3,0.3-2.2-0.6-3.1-1.2C143.4,222.2,143.2,222.1,143.1,222z"/>
	<path d="M135.6,209.1c1.4,0,2.5,0.7,2.6,2.1c0.1,1.1,0.5,2.2,0.7,3.2c0.2,0.7,0.2,1.3-0.1,2c-0.5,1.4-2.4,1.9-3.1,0.6
		c-1-1.8-1.9-3.7-1.6-6c0.1-0.8,0.7-1.2,1.1-1.8C135.3,209.2,135.4,209.2,135.6,209.1z"/>
	<path fill="#468885" d="M112.4,279.4c2.6,0.9,3.1,3.3,3.8,5.5c-1.3-1.2-1.6-1.1-3.4,0.7C112.3,283.5,112.3,281.5,112.4,279.4z"/>
	<path fill="#D09F7D" d="M43,267.4c-1-2.3-1.8-4.6-2.4-7c0.9,0.1,1.8,0.1,2.8-0.1C42.8,262.7,43.1,265.1,43,267.4z"/>
	<path fill="#448782" d="M154.8,226.6c-0.4,0.3-0.8,0.2-1.2,0c-1-0.4-2-1-3.1-1.2c0-0.1,0-0.2,0.1-0.3c1.2-2.1,1.4-2.1,2.8-0.2
		C153.9,225.4,154.3,226,154.8,226.6z"/>
	<path fill="#1C462D" d="M143.5,222.3c1,0.4,2.1,0.8,3.1,1.2c-0.2,0.3-0.4,0.6-0.6,0.9c-0.3,0.4-0.3,1-0.9,0.8
		c-0.6-0.2-1.2-0.6-1.1-1.4C144.1,223.2,143.8,222.8,143.5,222.3z"/>
	<path fill="#CF9D7A" d="M191.8,40.8c0.4,3.6,0.8,7.3,1.2,10.9c0.3,2.6,0.5,5.1,0.8,7.7c0,0.5,0.1,0.9,0.4,1.7
		c2.8-10.4,5.6-20.5,8.4-30.7c0.5,0.1,0.5,0.6,0.6,0.8c1.1,3.1,2,6.3,3.2,9.4c0.4,1,0.1,1.9-0.1,2.8c-0.7,5.8-1.6,11.5-2.3,17.2
		c-0.7,5.2-1.3,10.5-2,15.7c-0.6,4.6-1.2,9.3-1.8,13.9c0.1,1.1-0.2,2-1.2,2.6c-3.3,1.8-6.3,4-9.5,6c-8.8,5.6-17.7,11.3-26.6,16.8
		c3.1-4.1,6.3-8.3,9.5-12.5c0.4,0.4,0.1,0.9,0.4,1.1c0.7,0.7,1.2,0.5,1.7-0.2c1.5-1.7,2.4-3.8,3.4-5.7c1.9-3.6,3.7-7.2,5.5-10.9
		c1-2.1,1.9-4.3,2.4-6.6c0.1-0.6,0.1-1.1-0.1-1.7c-0.3-0.8-0.8-1.3-1.7-1.3c-0.9,0.1-1.4,0.7-1.5,1.5c-0.4,2.8-1.7,5.2-2.8,7.7
		c-0.3,0.7-0.7,1.2-1.6,1c-0.7-0.2-1.2,0.3-1.7,0.8c-0.9,0.8-1.5,1.8-2.3,2.6c-3.4,3.4-6.8,6.8-10.2,10.2c-1.5,1.5-3.1,2.9-4.9,4
		c-2.6,1.3-4.9,2.9-7.4,4.3c-4.5,2.6-8.9,5.4-13.4,7.9c-0.2,0.1-0.4,0.3-0.6,0.4c-0.3,0.2-0.7,0.4-1,0.1c-0.3-0.5,0.1-0.7,0.3-1
		c5.6-7.3,11.3-14.6,16.9-22c0.2-0.3,0.4-0.6,0.8-1.2c-13.3,5.1-26.4,10-39.4,15c1.8-2.2,4.2-3.8,6-6c0-0.5,0.4-0.5,0.7-0.6
		c1.2-0.4,2.1-1.2,2.8-2.2c2.2-2.3,4.7-4.3,7-6.5c0.9-0.8,1.7-1.6,2.6-2.5c-2.8-0.1-5.5,0.4-8.1,0.6c-2.3,0.1-4.6,0.4-6.9,0.6
		c-0.2,0-0.5,0.1-0.6-0.2c-0.1-0.3,0-0.6,0.2-0.8c0.9-1.2,1.9-2.5,2.8-3.7c0.1-0.2,0.3-0.3,0.6-0.3c2.7-1.5,5.5-2.9,8.2-4.4
		c5.3-2.9,10.6-6,16.1-8.8c3.4-1.7,6-4.2,8.3-7.2c1.1-1.4,2.3-2.7,3.5-4.1c0.3-0.3,0.7-0.6,0.7-1.1c-0.1-0.6,0.4-0.7,0.7-1
		c3.2-2.8,6.4-5.5,9.3-8.6c1.3-1.3,2.5-2.8,3.6-4.3c0.4-0.6,0.6-1.2,0.1-1.9c3.2-3.8,6.5-7.6,9.6-11.4c2.5-3,4.8-6,7.2-9.1
		c0.1-0.2,0.3-0.3,0.4-0.5c0.6,1,0.4,2.1,0.5,3.1c0.3,2.5,0.6,5,0.9,7.5c0,0.2,0,0.5-0.2,0.6c-1.6,0.3-2.3,1.5-2.8,2.9
		c-1,3.1-3,5.6-4.7,8.3c-1.7,2.9-3.3,5.8-4.8,8.8c-0.5,1-1,1.9-0.9,3.1c0.1,1,0.7,1.3,1.5,0.8c0.5-0.3,0.9-0.7,1.2-1.2
		c1.6-2.1,2.8-4.4,4-6.7c1.6-2.9,3.4-5.6,5.1-8.4c0.5-0.8,0.8-1.7,1.2-2.6C191.2,41.3,191.2,40.8,191.8,40.8z"/>
	<path fill="#D1A07D" d="M93.6,222.7c-0.7,3.5-1.7,6.9-2.5,10.4c-0.5,2.3-1.1,4.5-1.7,7c-1.2-1.6-1.9-3.3-2.8-4.9
		c-0.6-1.1-1.2-2.1-1.8-3.3c-0.5-1-0.7-0.7-1.2,0c-1.3,1.8-2.6,3.6-3.9,5.5c-1.1,0.5-2,0.4-2.8-0.4c-1.3-1.4-2.1-3-2.1-5
		c0-2,0.1-3.9,1-5.7c0.7-1.5,0.3-2.2-1.5-3.2c-0.5-0.3-0.3-0.9-0.5-1.4c-1.4,1.3-2.7,2.6-4,3.8c-1,0.8-2.1,1.4-3.4,1
		c-0.5-0.6,0-1.1,0.3-1.6c1.1-1.9,2-4,3.3-6.1c-2.3,0.8-4.1,1.8-6,2.7c-1.4,0.6-2.8,1.2-4.1,1.9c-0.4,0.2-0.8,0.5-1.3,0.1
		c-0.3-1.4-0.4-2.9-0.8-4.3c-0.4-1.4-1.2-2.1-2.2-1.9c-1,0.3-1.6,1.5-1.2,2.8c0.4,1.4,0.6,2.9,0.7,4.3c0,0.4,0.2,0.8-0.2,1.1
		c-1,0.2-1.7,1-2.8,1c0.5-3.6,1.1-7.1,1.6-10.7c0.3-0.8,0.5-1.7,0.5-2.5c0.4-2.9,0.9-5.8,1.3-8.7c0.1-0.6,0.3-1,0.9-1.3
		c5.5-2.6,11-5.2,16.4-7.8c0.1-0.1,0.3-0.1,0.7-0.2C69.1,201.7,65,208,61,214.4c0.1,0.1,0.2,0.2,0.2,0.2c9.1-6,18.1-12.1,27.4-18.2
		c-2.6,9.5-5.2,18.8-7.7,28.1c0.1,0.1,0.2,0.1,0.3,0.2c5.4-6.1,10.9-12.2,16.3-18.3c0.1,0,0.2,0.1,0.3,0.1c-0.5,2.1-1,4.2-1.5,6.3
		c0.2,0.6-0.3,0.9-0.5,1.3c-2.2,2.9-4.5,5.7-7.1,8.3c-0.6,0.6-1.2,1.2-1.6,2c-0.3,0.6-0.6,1.2-0.1,1.8c0.5,0.6,1.2,0.4,1.9,0.2
		c1.1-0.4,1.9-1.2,2.7-1.9C92.2,223.7,92.6,222.8,93.6,222.7z"/>
	<path fill="#D3A684" d="M98.2,132.6c2.6,2.2,5,4.6,7.7,6.6c2,1.5,2.7,3.4,3.1,5.7c1.2,7.3,2.6,14.5,3.9,21.8
		c0.2,1.3-0.4,2.5-0.7,3.7c-1.5,5.8-3.1,11.6-4.6,17.4c-0.1,0.5-0.2,0.9-0.6,1.3c-2.1,2.1-4.3,4.3-6.6,6.3c1.2-3,2.4-6.1,3.7-9.4
		c-4,2.9-7.7,5.6-11.4,8.3c0,0-0.1-0.1-0.1-0.1c2.1-3.2,4.2-6.4,6.3-9.6c0-0.1-0.1-0.1-0.1-0.2c-4.2,2.1-8.3,4.1-12.5,6.2
		c-0.1-0.1-0.1-0.1-0.2-0.2c1.2-1.2,2.3-2.4,3.6-3.5c1.1-1,1.9-2.1,2-3.5c0.2-2.6,2.1-4.1,3.6-5.9c1.6-2,3.3-3.9,5-5.8
		c0.7-0.8,0.7-1.7,0.8-2.6c0.4-3.9,0.7-7.8,1-11.7c0.3-3,0.6-5.9,0.9-8.9c0.1-0.7-0.1-1.3-0.3-2c-1.5-4.6-3.1-9.2-4.6-13.8
		C98.1,132.7,98.2,132.6,98.2,132.6z"/>
	<path fill="#D0A07C" d="M67.2,163.9c-4.3,5.8-8.6,11.6-13.1,17.7c0-2,0.4-3.6,0.1-5.4c-3.2,2.8-5.8,6.1-9.1,9.2
		c1.1-3.2,2-6.2,3-9.1c-0.1-0.1-0.2-0.1-0.2-0.2c-3.8,2.8-7.6,5.6-11.3,8.4c-0.1-0.1-0.2-0.1-0.3-0.2c1.4-2.3,2.8-4.5,4.3-6.9
		c-2.2-0.4-4.3,0.4-6.6,0.1c1.2-1.4,2.4-2.6,3.6-3.9c0.6-0.7,1.2-1.4,1.9-2c2.9-2.5,4-6.2,5.8-9.4c0.4-0.8,0.9-1.4,1.6-1.8
		c2.5-1.6,5-3.3,7.5-5c0.3-0.2,0.5-0.4,1-0.4c-1.1,2.6-2.2,5.1-3.4,7.9c3.5-2.3,6.8-4.4,10-6.6c0.1,0,0.1,0.1,0.2,0.1
		c-1.8,4.2-3.6,8.4-5.6,12.9c3.7-2,7-3.8,10.4-5.7C67,163.8,67.1,163.8,67.2,163.9z"/>
	<path d="M136.4,118.4c0.3-0.1,0.6-0.2,0.9-0.3c7.7-3.3,14.5-8,21.4-12.7c1.8-1.2,3.4-2.7,5-4.1c4-3.8,7.8-7.7,11.5-11.7
		c0.5-0.5,1.1-1,1.7-1.5c0.3-0.2,0.7-0.5,1-0.3c0.9,0.7,1.1-0.1,1.4-0.6c0.9-1.8,1.7-3.7,2.4-5.6c0.2-0.6,0.3-1.1,0.3-1.7
		c0-1.1,0.9-2,1.9-2.1c1-0.1,1.8,0.6,2,1.8c0.3,1.2-0.1,2.3-0.4,3.4c-0.5,1.4-1,2.8-1.6,4.1c-2.6,5.3-5.2,10.7-8.2,15.8
		c-0.4,0.8-1,1.5-1.6,2.1c-0.7,0.8-1.1,0.6-1.5-0.4c-0.2-3.1,1-5.9,2.1-8.7c-1.3,1.5-2.6,3-4,4.5c-6.9,7.3-15,13-23.6,18
		c-3.3,1.9-6.6,3.7-10.4,4.4c-0.5,0.1-1.1,0.1-1.7,0.2c-0.8,0-1.4-0.3-1.7-1.1c-0.3-0.7-0.1-1.4,0.5-2
		C134.4,118.9,135.5,118.8,136.4,118.4z"/>
	<path d="M54.7,225.4c-0.2-1.8-0.2-3.6-0.8-5.3c-0.1-0.4-0.2-0.9-0.1-1.3c0.1-1.1,0.8-2,1.8-2c1-0.1,1.9,0.6,2.2,1.7
		c0.4,1.7,0.9,3.3,0.8,5c0.5,0.9,1.3,1.2,2.2,1.4c1.8,0.3,3.7,0.6,5.4,1.5c1.3,0.1,2.4-0.3,3.4-1.1c1.1-0.8,2.1-1.7,3.3-2.3
		c0.4-0.2,0.8-0.5,1.2-0.2c2.3,0.8,2.6,1.6,1.7,3.9c-1.2,3.1-1.4,6.2,0.5,9.2c0.8,1.2,1.8,1.8,3.3,1.5c0.7,0.1,1.3-0.3,1.9-0.6
		c0.3-0.2,0.6-0.4,1-0.5c1.1-0.4,2.2-0.2,2.7,0.7c0.5,0.8,0.2,2-0.6,2.7c-2.8,2.6-8.3,2.3-10.7-0.6c-1.9-2.2-3-4.6-2.8-7.5
		c0-0.7,0-1.4,0-2.3c-2.3,1.1-4.6,1.6-7,0.9c-1.5-0.4-2.9-0.8-4.4-1.1c-0.3-0.1-0.6-0.1-0.9-0.2C56.6,228.6,55.3,227.4,54.7,225.4z"
		/>
	<path d="M88.8,267c-2.1-0.8-2.8-2.1-2.4-4.4c0.2-0.9,0.4-1.9,0.6-2.9c-1.5,1.3-2.8,2.5-4.3,3.6c-2.6,2-5.3,3.8-8.6,4.5
		c-1.9,0.4-3.3-0.6-3.3-2.3c0-1.2,1-2.1,2.2-1.9c0.8,0.1,1.4,0,2.1-0.3c3.9-1.8,7.1-4.5,9.9-7.7c0.6-0.9,1.2-1.8,1.8-2.7
		c0.8-1.1,1.8-1.7,3.2-1.2c1.1,0.3,1.9,1.6,1.9,3c0,0.3,0,0.6-0.2,0.9c-0.2,1.9-0.6,3.8-1.2,5.7c-0.5,1.6-0.1,2.2,1.5,2.9
		c1.5,0.6,2.5,2.7,2,4.3c-0.3,1-1.1,1.5-2.1,1.4c-1.1-0.1-1.9-0.8-2-1.9C89.8,267.3,89.5,267,88.8,267z"/>
	<path d="M198.8,92.9c0.5-0.8,0.9-1.7,1.2-2.6c0.7-1.2,1.3-2.4,2.3-3.3c0.4-0.3,0.7-0.7,1.4-0.5c0.6,0.2,0.5-0.4,0.5-0.7
		c0.2-0.9,0.2-1.8,0.4-2.7c0.3-1.5,1.1-2.2,2.3-2c1.1,0.2,1.8,1.2,1.6,2.7c-0.5,3.8-1.4,7.6-3.1,11.1c-1.2,2.5-2.4,5-3.5,7.4
		c-0.1,0.3-0.3,0.6-0.4,0.9c-0.2,0.4-0.5,0.9-1.1,0.7c-0.7-0.2-0.5-0.9-0.4-1.3c0.2-1,0.5-2.1,0.8-3.1c0.4-1.5,0.9-3,1.1-4.5
		c-1.2,2.4-2.5,4.8-3.7,7.2c-0.7,1.5-1.4,3-2.3,4.3c-0.8,1.2-1.9,1.6-2.8,1.1c-1-0.6-1.1-1.6-0.5-3c1.5-3,2.9-5.9,4.7-8.8
		C197.9,94.9,198.5,94,198.8,92.9z"/>
	<path d="M54,213.2c0.5,1,0.3,1.8-0.5,2.5c-2.1,0.7-4.2,0.1-5.3-1.9c-2.5-4.6-4.1-9.4-3.8-14.7c0.1-1.1,0.5-2.2,0.9-3.3
		c0.2-0.5,0.3-1,0.3-1.5c0.1-1.6,1.7-2.5,2.9-1.5c2.4,1.8,4.6,1.3,6.8-0.4c0.8-0.6,1.6-1.1,2.4-1.6c1.1-0.6,2.2-0.4,2.8,0.5
		c0.6,0.9,0.4,1.9-0.6,2.8c-2.9,2.5-6.1,4.4-10.1,4c-0.6-0.1-0.9,0.2-1.1,0.8c-0.5,1.7-0.3,3.3,0,5c0.4,2.1,1.1,4.2,1.9,6.1
		c0.5,1.1,1,2.1,2.2,2.5C53.3,212.5,53.6,212.9,54,213.2z"/>
	<path d="M61.2,122c0.6,0.3,1.1,0.7,1.2,1.4c0.1,0.4,0.3,0.5,0.7,0.5c3.2,0,5.7,1.6,8,3.6c2.9,3,4.2,6.6,4.1,10.7
		c-0.1,1.7,0.3,3.4,0.5,5.1c0.1,0.8,0.1,1.6-0.2,2.4c-0.3,0.8-0.7,1.6-1.6,1.6c-0.9,0.1-1.4-0.7-1.7-1.4c-0.7-1.4-0.6-2.9-0.9-4.4
		c-0.4-2-0.1-4.1-0.4-6.1c-0.2-1.1-0.5-2.1-1.2-2.9c-0.3-0.1-0.5-0.4-0.7-0.6c-1.4-1.8-3.1-3.1-5.3-3.6c-0.2,0-0.4-0.1-0.5-0.3
		c-0.9-0.3-1.9-0.2-2.8,0c-0.8,0.2-1.6,0.3-2.2-0.4c-0.4-0.5-0.8-0.2-1.3-0.1c-1.4,0.4-2.4,0-2.8-1.2c-0.4-1.1,0.2-2.3,1.4-2.8
		c1.1-0.4,2.2-0.9,3.3-1.3C59.6,121.9,60.4,121.8,61.2,122z"/>
	<path d="M93.6,222.7c-0.8,0.8-1.6,1.6-2.5,2.4c-0.8,0.7-1.7,1.3-2.8,1.6c-0.6,0.1-1.2,0.1-1.7-0.4c-0.5-0.6-0.3-1.2-0.1-1.8
		c0.5-1.1,1.3-2,2.1-2.8c2.7-2.8,5.3-5.8,7.5-9c2.5-3.5,4.7-7.1,5.8-11.3c0.3-1.1,1.2-1.7,2.2-1.6c1,0.1,1.8,1,1.8,2.1
		c0,1.4-0.6,2.6-1.1,3.9c-2.4,5.7-6.1,10.7-10.1,15.4C94.5,221.6,94,222.1,93.6,222.7z"/>
	<path d="M172.6,46.3c1,0.3,0.8,0.9,0.4,1.6c-1,1.8-2.4,3.3-3.8,4.7c-3.2,3.4-6.8,6.4-10.3,9.5c-1.5,1-3,2-4.6,3.1
		c-1.2,0.8-2.3,1.6-3.7,1.9c-1,0.2-1.8,0-2.2-0.9c-0.5-0.9,0.1-1.5,0.9-2c6-4.4,11.7-9.1,17-14.3C168.1,48.1,170.1,46.8,172.6,46.3z
		"/>
	<path d="M191.8,40.8c-2.7,6-6.6,11.3-9.6,17c-0.5,1-1.2,1.9-2,2.7c-0.5,0.5-1.1,1-1.9,0.6c-0.8-0.4-0.8-1.1-0.6-1.9
		c0.2-1.2,0.8-2.3,1.3-3.4c2.1-4,4.2-7.9,6.8-11.7c1.2-1.8,2.1-3.8,2.8-5.8c0.5-1.4,1.1-1.8,2.6-1.7c1.2,0.8,1.5,1.5,1,2.9
		C192,39.9,191.9,40.3,191.8,40.8z"/>
	<path d="M70.1,177.6c0.3-3.2,1-6.3,1.8-9.3c0.9-3.5,1.9-6.9,2.8-10.3c0.1-0.5,0.3-1,0.5-1.5c0.5-0.9,1.3-1.4,2.3-1.1
		c1,0.3,1.4,1,1.4,2c0,1.4-0.5,2.7-0.8,4c-1.1,4.1-2.6,8.1-3.4,12.3c-0.3,1.4-0.4,2.8-0.6,4.1c0,0.3-0.1,0.6-0.2,0.9
		c-0.4,1.4-1.2,2.2-2.1,2.1c-1-0.1-1.8-1.2-1.8-2.6C70.1,177.9,70.1,177.7,70.1,177.6z"/>
	<path d="M122.2,87.6c-1.2,1.6-2.4,3.2-3.7,4.8c-2.2,3-4.8,5.6-7.8,7.9c-0.5,0.4-1,0.8-1.6,1c-0.6,0.2-1.3,0.3-1.8-0.2
		c-0.5-0.5-0.4-1.2-0.1-1.8c0.3-0.5,0.6-1.1,1-1.5c4.9-4.5,8.5-10,12.9-15c0.6-0.7,1.3-1.4,2.3-1.7c0.8-0.3,1.6-0.2,2.1,0.5
		c0.5,0.7,0.3,1.4-0.2,2.1C124.3,85.1,123.2,86.4,122.2,87.6z"/>
	<path d="M143.1,39.9c0.7-0.4,1.3-0.8,2-1.1c0.3-0.2,0.7-0.3,1,0c0.3,0.3,0.2,0.7,0,1c-0.6,1.1-1.2,2.3-1.8,3.3
		c-2,3.1-3.9,6.1-6.1,9c-1,1.3-1.9,2.7-2.8,4c-0.5,0.7-1.1,1.2-2,0.7c-0.8-0.4-0.9-1.3-0.4-2.3c2.1-4.1,4.8-7.9,7.4-11.7
		C141.1,41.7,142.2,40.9,143.1,39.9C143.1,39.9,143.1,39.9,143.1,39.9z"/>
	<path d="M72.1,125.5c-1.5-4.2-2.9-8.5-3.2-13c0-0.3,0-0.6,0-0.8c0.1-1.1,1-1.9,2-1.9c1,0,2,0.8,2,1.8c0.1,3.6,1.3,6.9,2.2,10.2
		c0.3,1.2,0.6,2.4,0.5,3.7c0,0.8-0.2,1.5-0.9,2C73.3,127.4,72.8,126.4,72.1,125.5z"/>
	<path d="M124.5,100.4c0.1,1-0.6,1.4-1.3,1.8c-0.7,0.4-1.5,0.7-2.2,1.1c-3.7,1.1-7.5,2.1-11.2,3.2c-0.3,0.1-0.7,0.2-1,0.3
		c-1.1,0.3-2.2-0.3-2.5-1.3c-0.3-1,0.2-2,1.4-2.4c1.7-0.6,3.4-1,5.1-1.2c2.9-0.3,5.8-0.7,8.5-1.7C122.3,99.7,123.5,99.2,124.5,100.4
		z"/>
	<path fill="#D0A07C" d="M63.2,127.9c2.9,0.4,5.1,2,6.5,4.6c-1.1,3.2-2.2,6.3-3.3,9.5c-0.1,0-0.2,0-0.2,0c-0.4-1.5-0.9-3-1.3-4.5
		c-0.8-2.9-1.5-5.8-2.3-8.6C62.4,128.1,62.5,127.9,63.2,127.9z"/>
	<path d="M156.7,129.9c-1.9,0-2.8-0.5-3-1.6c-0.3-1.1,0.2-2,1.5-2.7c2.5-1.3,5.1-2.5,7.3-4.3c0.6-0.5,1.3-0.5,1.9,0
		c0.6,0.6,0.5,1.3,0,2c-0.3,0.4-0.7,0.8-1,1.2c-0.9,0.9-2.1,1.5-2.5,3.1C160.2,129.4,158.2,129.8,156.7,129.9z"/>
	<path d="M73.9,187.4c0-1.7,0.8-2.7,2-2.7c1.2,0,1.9,0.9,2.1,2.4c0.3,1.6,1.6,2.7,2.5,4c0.3,0.5,0.8,0.8,1,1.3
		c0.5,0.9,0.5,1.8-0.2,2.5c-0.8,0.8-1.7,0.7-2.5,0.2c-0.4-0.2-0.8-0.6-1.1-0.9c-1.3-1.4-2.2-3-3.2-4.6
		C74,188.9,73.9,188.1,73.9,187.4z"/>
	<path fill="#010000" d="M81,136.3c-0.9-2.1-0.4-3.1,1.6-3.6c0.5,0.1,1,0.2,1.3,0.6c1.3,1.5,3.1,1.8,4.9,2c1.7,0.2,2.7,1,2.6,2
		c0,1-1.3,1.8-2.8,1.9C85.6,139.5,83.1,138.4,81,136.3z"/>
	<path fill="#D09F7D" d="M91.7,255.6c-0.1-1.5-0.3-3-1.7-3.9c1-1,2.2-1.7,3.4-2.5C92.9,251.4,92.5,253.6,91.7,255.6z"/>
	<path fill="#D1A17D" d="M254,159.4c1.3,1.3,1.9,3.1,3,4.7c0.2,0.3,0.4,0.7,0.8,1.3c0.3-1.7,0.5-3.1,0.7-4.5
		c0.4-2.9,0.9-5.8,1.2-8.7c0.2-1.3,0.9-1,1.6-0.7c1,1.9,3.1,2.5,4.5,3.8c2.3,2,3,3.8,2,6.7c-1,2.8-2.5,5.3-4.4,7.7
		c-1.3,1.6-2.6,3.3-4.1,4.9c-0.5,0.5-0.9,1-1.2,1.7c-0.4,0.8-0.5,1.6,0.3,2.3c0.8,0.6,1.5,0.3,2.2-0.2c0.5-0.4,0.9-0.9,1.4-1.3
		c0.2-0.2,0.4-0.5,0.8-0.5c1.1,1.2,1.7,2.8,2.5,4.2c2,3.4,3.8,6.8,5.7,10.2c0.1,0.2,0.5,0.5,0.2,0.8c-0.5,0.3-0.9,0-1.3-0.2
		c-3.9-1.6-8.1-2-12.3-2.7c-0.5-0.1-1-0.1-1.4,0c-0.7,0.1-1.3,0.5-1.4,1.3c-0.1,0.8,0.2,1.3,0.8,1.7c0.4,0.3,0.9,0.3,1.4,0.4
		c3.1,0.5,6.3,0.9,9.4,1.7c1.4,0.3,2.7,0.8,3.8,1.6c1.1,0.7,1.2,1.6,0.4,2.6c-3.3-0.5-6.5-1.3-9.8-2.1c-1.1-0.3-2.1-0.2-3.2,0.3
		c-9,4.5-18.1,8.9-27.2,13.4c-1.1,0.5-2.2,1-3.6,1.6c0.5-1,0.8-1.8,1.2-2.5c0.1-0.6,0.7-0.7,1.1-1c3.5-2.1,6.6-4.7,9.6-7.5
		c1.3-1.3,2.8-2.5,4-4c0.6-0.8,1.3-1.6,1.7-2.6c0.2-0.5,0.7-1.1,0.1-1.6c-0.5-0.5-1.1-0.1-1.7,0.2c-1.7,0.8-3,2-4.4,3.3
		c-1.5,1.4-2.9,2.9-4.4,4.2c-0.3,0.2-0.5,0.6-1,0.5c0.5-2,1.8-3.6,2.7-5.4c1.2-2.3,2.5-4.6,3.8-7.1c-4,0.9-7.9,1.8-11.7,2.7
		c-2.1,0.5-4.1,0.9-6.2,1.4c-0.2,0.1-0.4,0.2-0.7,0c0.2-1.7,1.2-3.1,1.9-4.6c0.4-0.9,0.9-1.8,1.2-2.7c0.3-1.1-0.1-1.9-0.9-2.3
		c-0.8-0.3-1.7,0-2.2,1c-0.8,1.7-1.8,3.3-2.4,5.1c-0.5,1.3-1,2.6-1.5,3.9c-0.1,0.3-0.2,0.7-0.6,0.9c-1.6,0.4-3.2,0.8-5,1.2
		c0.3-0.5,0.4-0.8,0.6-1.1c2-3,4-6.1,6-9.1c0.2-0.3,0.3-0.6,0.5-0.9c0-0.6,0.5-0.8,0.9-1.1c2.5-2,5.2-3.7,7.7-5.7
		c0.7-0.5,1.3-1,1.7-1.8c0.3-0.6,0.4-1.2,0-1.7c-0.5-0.6-1.1-0.6-1.7-0.4c-0.8,0.3-1.5,0.7-2.2,1.2c-0.4,0.3-0.8,0.6-1.3,0.5
		c-0.6-1.5-0.5-3-0.7-4.5c-0.6-4.2-1-8.4-1.5-12.5c0.5-0.5,1.3-0.5,1.9-0.6c6.6-0.5,13-2.2,19.3-3.9c1.7-0.5,3.4-1.1,5.1-1.7
		c0.4-0.1,0.8-0.4,1.2-0.1c0.5,1.3,1.3,2.4,1.9,3.5c-0.1,1.2-0.4,2.3-0.7,3.5c-0.2,0.9-0.5,1.8-0.2,2.8c0.4,1.2,1.1,1.3,2,0.5
		C253,160.6,253.2,159.7,254,159.4z"/>
	<path d="M249.4,150.8c-5,1.8-10,3.2-15.2,4.4c-4.1,0.9-8.2,1.4-12.4,1.8c-1.2,0-2.5,0-3.7,0c-1.3,0-2.2-0.9-2.2-2
		c0-1.1,0.9-2.1,2.2-2.1c11.1,0.1,21.7-2.8,31.9-6.8c1.2-0.5,1.9-1.5,2.8-2.3c2.5-2.2,4.9-4.5,7.9-6c0.3-0.1,0.5-0.3,0.5-0.6
		c0-1.4,0.4-3-0.9-4.1c-1.4-1.3-2.8-2.6-4.3-3.9c-0.7-0.6-1.4-1.3-1.6-2.3c-0.2-0.8-0.1-1.7,0.6-1.9c1.1-0.5,1-1.3,0.9-2.2
		c0-1.5,0.9-2.6,1.8-3.7c0.9-1,1.8-1.9,2.7-2.9c1-1,1.9-1.9,2.9-2.9c1.2-1.1,2.4-1.4,3.2-0.7c0.8,0.7,0.8,2-0.3,3.3
		c-1.4,1.9-3.1,3.4-4.7,5.1c-0.8,0.8-1.5,1.5-1.2,2.9c0.3,1-0.5,1.7-1.7,2.1c1.3,1.2,2.4,2.4,3.7,3.4c2,1.7,3.2,3.7,2.8,6.5
		c-0.2,1.1-0.1,2.2,0.6,3.1c0.1,1.3-0.5,2.2-1.6,2.9c-2.1,1.4-4.2,2.7-6.3,4.1c-1.1,0.8-2.2,1.7-2.9,2.8c-0.3,0.5-0.9,1-1.5,0.8
		C251.9,149.2,250.7,150.3,249.4,150.8z"/>
	<path fill="#D09F7B" d="M232.2,121.7c-2.1,1.5-4.5,2.6-6.7,3.9c-3,1.7-6,3.3-8.9,5c-0.3-0.3-0.1-0.6,0-0.8
		c2.4-5.1,4.9-10.2,7.4-15.3c0.1-0.2,0.2-0.4,0.5-0.5c2.2,1.7,2.7,1.6,4.2-0.8c0.6-0.9,1.1-1.8,1.7-2.7c0.2-0.3,0.4-0.8,1-0.8
		c4.9-2.3,9.8-4.6,14.7-6.9c1.4-0.6,2.7-1.3,4.3-1.7c-0.7,1.3-1.4,2.6-2.2,3.9c-2.7,4.9-5.5,9.7-8.2,14.6c-0.2,0.3-0.3,0.7-0.6,0.8
		c-0.5,0.4-1.1,0.1-1.6-0.1c-1.8-0.6-3.4-1.8-5-2.8c-0.6-0.4-1.2-0.9-1.9-1.2c-0.9-0.4-1.8-0.1-2.2,0.6c-0.5,0.7-0.3,1.6,0.4,2.2
		c0.7,0.7,1.6,1.2,2.4,1.8C231.8,121,232.2,121.2,232.2,121.7z"/>
	<path fill="#CF9E79" d="M244.3,124.6c-3.5,4.5-7,8.9-10.4,13.4c-1,1.3-2.5,1.2-3.7,1.6c-5.4,1.6-10.8,3-16.2,4.5
		c-0.3,0.1-0.7,0.3-0.9,0.1c-0.3-0.4,0.2-0.6,0.4-0.8c4.5-4.9,8.9-9.8,13.4-14.6c2-2.2,4-4.4,6-6.5c0.4-0.2,0.8,0.1,1.1,0.3
		c1.1,0.6,2.3,1,3.4,1.6c0.3,0.8-0.4,1.2-0.6,1.8c-0.3,0.6-0.6,1.2-1,1.7c1.3-1,2.4-2.3,3.9-3.2c1.3-0.1,2.7,0.3,4,0
		C243.9,124.2,244.2,124.4,244.3,124.6z"/>
	<path d="M230.4,278.9c0.6-0.3,1.3-0.4,2-0.2c3.4,1.2,6.8,0.5,10.1-0.4c5.1-1.4,9.6-4.1,13.8-7.1c4.2-3,8.8-5.5,12.9-8.7
		c1.2-0.9,2.3-1.9,3.5-2.9c0.8-0.7,1.7-1.2,2.8-1c1.4,1,1.6,2,0.5,3.4c-0.7,0.8-1.6,1.6-2.3,2.3c-0.1,0.4-0.3,0.6-0.6,0.9
		c-2,1.6-4.1,3.1-6.2,4.4c-0.2,0.1-0.4,0.2-0.7,0.2c-0.4,0.2-0.8,0.4-1.1,0.7c-0.2,0.3-0.4,0.5-0.7,0.7c-5.6,3.7-11,7.7-17.3,10.2
		c-1.9,0.7-3.8,1.3-5.9,1.7c-0.4,0.1-0.8,0.2-1.2-0.1c-0.4,0-0.8-0.1-1.2,0.2c-1.4,0.8-6.3,0.6-7.4-0.4
		C229.4,281.7,229.2,280.6,230.4,278.9z"/>
	<path fill="#D0A07D" d="M270.7,154.8c0.6-0.3,1.1,0.1,1.7,0.3c3.6,1.1,7.1,2.3,10.6,3.6c-1.9-0.5-3.8-1-5.7-1.5
		c-0.4-0.1-0.8-0.4-1.1,0c-0.1,0.2,0.1,0.7,0.2,1c2,4.5,4.1,8.9,6.2,13.3c0.6,1.3,1.2,2.5,1.8,4c-1.4,0-2.6,0-3.8,0
		c-0.6,0,0-0.3,0-0.4c0.1-0.5,0.5-0.8,0.7-1.2c0.2-0.4,0.3-0.8-0.2-1c-0.5-0.3-0.8,0-1,0.5c-0.2,0.6-0.1,1.2-0.2,1.8
		c-0.3,0.3-0.7,0.2-1,0.2c-4.3-0.1-8.6-0.2-12.9-0.3c-0.6,0-1.2-0.1-1.8-0.2c-0.1-0.8,0.5-1.2,0.9-1.7c2.4-2.9,4.5-6,5.8-9.6
		c0.9-2.6,1.2-5.1-0.1-7.7C270.7,155.5,270.5,155.2,270.7,154.8z"/>
	<path fill="#D2A381" d="M240,283c6.8-1.2,12.7-4.4,18.4-8.2c2.2-1.5,4.3-3.1,6.6-4.3c-0.2,5-0.5,10-0.7,15.2
		c-2.5-1.3-4.8-2.6-7.2-3.8c-0.7-0.2-1.1-0.7-1.5-1.3c-1.1-0.2-2.1-0.4-3.1-1.1c-0.6-0.5-0.7,0.2-0.8,0.6c-1.6,4.7-3.3,9.5-4.9,14.2
		c-0.1,0.4-0.3,0.7-0.4,1.1c-0.4,0.1-0.4-0.2-0.5-0.4c-1.9-3.8-3.8-7.6-5.7-11.4C240.1,283.3,240.1,283.2,240,283z"/>
	<path d="M270.7,198c0.5-1.4,0.3-1.9-1-2.6c-2.6-1.3-5.4-1.8-8.2-2.2c-1.7-0.3-3.5-0.5-5.2-0.8c-1.3-0.2-2.1-1.2-1.9-2.3
		c0.2-1.1,1.1-1.9,2.5-1.7c4.9,0.7,9.8,1.2,14.4,3.2c2.5,1.3,4.1,3.1,3.8,6.1c-0.2,1.8-0.7,3.5-1.6,5.1c-2.3,4.1-4.6,8.2-6.6,12.5
		c-0.3,0.6-0.7,1.2-1.2,1.6c-0.6,0.5-1.2,0.7-1.9,0.4c-0.7-0.3-1-0.9-1-1.6c0-1.2,0.4-2.2,0.9-3.2c1.7-3.8,3.8-7.4,5.8-11
		C270,200.4,270.7,199.3,270.7,198z"/>
	<path d="M270.7,154.8c1.7,2.8,1.8,5.7,0.6,8.8c-1.5,4-4,7.3-6.7,10.6c-0.2,0.2-0.3,0.4-0.4,0.6c-0.5,0.6-0.9,1.1-1.4,1.7
		c-0.7,0.7-1.3,1.4-2,2.1c-0.7,0.6-1.7,0.9-2.5,0.3c-0.9-0.7-0.9-1.6-0.5-2.6c0.4-0.8,1-1.4,1.6-2.1c2.6-3.1,5.4-6.1,7.2-9.8
		c0.6-1.2,1.1-2.4,1.3-3.8c0.3-1.5-0.1-2.9-1.2-3.9c-1.1-1.1-2.3-2.2-3.8-2.9c-0.9-0.4-1.5-1.1-1.6-2.1c0.5-1.8,1.6-2.4,3.3-1.6
		C267.1,151,269,152.8,270.7,154.8z"/>
	<path d="M262.9,236.6c0,0.9-0.6,1.7-1.1,2.4c-1.6,2.1-3.5,3.8-5.4,5.6c-4.7,4.4-9.7,8.5-15.1,12.2c-1.6,1.1-3.3,2-5.2,2.6
		c-0.5,0.1-1.1,0.3-1.4-0.2c-0.4-0.5,0.1-0.9,0.3-1.3c1.6-2.2,3.6-3.9,5.7-5.6c5.3-4.1,10.5-8.3,15.2-13c1.2-1.2,2.4-2.4,3.2-3.9
		c0.5-0.9,1.4-1.2,2.4-0.9C262.5,234.9,262.9,235.6,262.9,236.6z"/>
	<path d="M233.3,200.2c2-1.6,3.8-3.5,5.7-5.2c1.3-1.3,2.7-2.5,4.4-3.2c0.6-0.2,1.2-0.5,1.7,0c0.5,0.5,0.2,1.1,0,1.7
		c-0.7,1.7-1.9,3.1-3.2,4.4c-4.1,4.2-8.5,8-13.7,10.9c-2.7,1.4-5.7,1.5-8.6,1.5c-1.2,0-2-0.6-2.2-1.6c-0.2-1,0.4-1.9,1.5-2.3
		c0.7-0.2,1.4-0.4,2.1-0.4c3.3,0.4,5.9-1.1,8.4-2.8C230.7,202.3,232.1,201.3,233.3,200.2z"/>
	<path d="M231.3,109.7c-1.1,1.4-2,3-3,4.5c-1.2,1.8-2.9,1.7-3.9-0.2c-0.1-1,0.3-1.8,0.8-2.6c3-5,6.5-9.6,10.5-13.9
		c0.2-0.2,0.3-0.4,0.4-0.6c0.9-0.9,1.8-1.8,2.8-2.6c1.3-1,2.7-1.7,4.4-1.5c0.8,0.1,1.3-0.6,1.3-1.3c0.1-0.9,0.3-1.6,1.2-1.8
		c0.9-0.2,1.5,0.2,1.8,1c0.1,1.2-0.5,2.3-0.6,3.5c0,1-1.5,1.4-2.4,0.8c-0.6-0.4-0.8-0.2-1.2,0.3c-0.5,0.6-1,1.1-1.6,1.6
		C237.9,100.8,234.4,105.1,231.3,109.7z"/>
	<path d="M224,174.1c0.9-0.6,1.8-1.2,2.7-1.7c1.2-0.6,2.3-0.5,2.8,0.2c0.6,0.8,0.4,1.8-0.6,2.8c-1.5,1.5-3.3,2.6-4.9,3.8
		c-1.7,1.3-3.5,2.4-5.1,3.9c-3.6,2.7-7.6,4.9-11.1,7.7c-0.1,0.1-0.2,0.2-0.4,0.3c-1.4,1-2.6,1-3.4-0.1c-0.8-1.1-0.5-2.3,0.9-3.3
		c6.3-4.4,12.6-8.8,18.7-13.4C223.7,174.3,223.9,174.2,224,174.1z"/>
	<path d="M244.3,124.6c-1.7,0.2-3.3,0.1-5,0c-0.7,0.2-1.4,0.1-2-0.5c-1.6-0.4-3-1.2-4.5-2c-0.2-0.2-0.5-0.3-0.7-0.5
		c-1-0.7-2.1-1.5-3.1-2.2c-1.1-0.8-1.4-2-0.7-2.9c0.7-0.9,1.8-1.1,3-0.4c1.5,0.9,2.9,1.9,4.3,2.8c1.1,0.7,2.3,1.3,3.6,1.4
		c1.8,0.4,3.7,0.4,5.5-0.1c1.4-0.7,2.8-1.2,4.3-1.6c1.1-0.5,2-1.3,3-2c0.6-0.4,1.1-0.8,1.7-1c0.7-0.3,1.4-0.3,2,0.3
		c0.6,0.6,0.6,1.4,0.2,2.1c-0.6,1.2-1.6,2-2.6,2.8C250.8,122.9,247.7,124,244.3,124.6z"/>
	<path d="M262.6,254.2c-2.4,1.4-4.8,2.8-7.3,4.2c-1.2,1.2-2.9,1.7-4.4,2.5c-0.8,0.4-1.5,1-2.5,0.9c-0.8,0.3-1.6,0.6-2.4,1
		c-1.5,0.6-2.3,0.4-3.3-0.9c-0.2-0.9,0.1-1.7,0.7-2.3c0.5-0.8,1.2-1.1,2.1-1c4.1-1.7,8-3.6,11.8-6c0.8-0.9,1.8-1.5,2.9-1.8
		c1.5-0.8,2.7-1.9,4.1-2.9c0.6-0.4,1.2-0.9,2-1.1c0.9-0.3,1.8-0.2,2.4,0.6c0.6,0.8,0.3,1.6-0.3,2.3c-0.7,0.9-1.8,1.5-2.7,2.2
		C264.7,252.6,263.6,253.4,262.6,254.2z"/>
	<path d="M247.2,229.5c-2.7,1.3-5,3.1-7.5,4.7c-0.8,0.5-1.7,1.1-2.5,1.6c-1.2,0.7-2.4,0.5-3.1-0.5c-0.6-1-0.3-2.2,0.9-3
		c2.8-1.8,5.7-3.6,8.6-5.5c3.2-1.7,6.3-3.5,9.6-4.8c1.1-0.4,2.1-0.9,3.3-0.8c1.3,0.8,1.4,1.7,0.3,2.7c-1.1,1-2.5,1.6-3.7,2.5
		C251.3,227.6,249.4,228.8,247.2,229.5z"/>
	<path d="M250.8,90c0.6-0.8,1.4-1.3,2.4-1.2c1.4,0.7,1.7,1.4,1.3,2.8c-0.1,0.5,0,0.8,0.3,1.2c2.1,2.4,3,5.4,3.6,8.4
		c0.2,0.8,0,1.7-0.3,2.5c-0.4,1.2-1.3,1.4-2.2,0.5c-1-0.9-1.4-2.1-1.7-3.3c-0.6-2.2-1.4-4.2-2.9-5.9C250,93.5,250,91.8,250.8,90z"/>
	<path d="M216.7,193c1.1-3.4,2.6-6.6,4.1-9.8c0.6-1.2,1.7-1.7,2.7-1.2c1.1,0.4,1.6,1.6,1,2.8c-1.1,2.4-2.2,4.7-3.4,7.1
		c-0.6,0.7-1.2,1.5-1.8,2.2c-0.5,0.6-1.1,0.9-1.9,0.6C216.8,194.3,216.7,193.6,216.7,193z"/>
	<path d="M214,201.9c0-1.1,0.4-2.1,1-3c1-1.3,2.6-1.2,3.4,0.2c0.3,0.6,0.6,0.7,1.2,0.4c0.4-0.2,0.8-0.3,1.3-0.3
		c1.4,0,2.1,1.1,1.3,2.2c-1.3,1.9-3.2,3.1-5.4,3.3C215.2,204.9,214,203.5,214,201.9z"/>
	<path fill="#010000" d="M233.5,228.3c0.6,1.4-0.1,2.5-1,3.5c-1,1.1-1.9,2.2-2.8,3.4c-0.8,0.3-1.5,0.3-2.1-0.3
		c-0.6-0.7-0.6-1.4-0.4-2.2c0.7-1.9,2-3.4,3.5-4.6C231.7,227.1,232.6,227.6,233.5,228.3z"/>
	<path fill="#D2A381" d="M231.4,282.7c2.4,0.8,4.9,0.5,7.4,0.4c0.2,0.8-0.6,1-1,1.4c-2.1,2-4.3,4-6.7,6.1
		C231.3,287.9,230.9,285.3,231.4,282.7z"/>
	<path fill="#D2A481" d="M266.1,269.7c2.5-1.8,5.1-3.5,7.5-5.5c0.4,0.7-0.1,1.4-0.3,2c-0.6,2.3-1.3,4.7-1.9,7.2
		C269.6,272.1,267.8,270.9,266.1,269.7z"/>
	<path d="M254,159.4c-0.5,0.8-0.9,1.7-1.7,2.3c-0.9,0.7-1.5,0.5-2-0.5c-0.3-0.5-0.5-1.1-0.4-1.6c0.3-1.8,0.6-3.6,1.4-5.2
		c0.8-0.6,1.6-0.8,2.4-0.3c0.9,0.6,1.1,1.5,1.1,2.5C254.7,157.5,254.4,158.5,254,159.4z"/>
	<path d="M255.6,280.5c0.7,0.2,1.1,0.7,1.5,1.3c0.2,1.7,0,3.4-0.3,5c-0.2,1-0.6,2-1.9,1.9c-1.2,0-1.6-1-1.8-1.9
		c-0.3-1.4-0.2-2.9,0-4.4C253.3,281.1,254,280.6,255.6,280.5z"/>
	<path fill="#010000" d="M250.1,212c0,0.1-0.1,0.5-0.2,0.7c-1.1,1.3-2.2,2.8-3.6,3.8c-0.4,0.3-1,0.5-1.4,0.1
		c-0.5-0.4-0.4-0.9-0.2-1.4c0.6-1.6,1.6-2.9,2.5-4.3c0.4-0.7,1.2-0.8,1.9-0.5C249.7,210.6,250.1,211.1,250.1,212z"/>
	<path fill="#010101" d="M256.9,289.4c1.1,0.1,1.9,1,1.9,2.2c-0.1,1.4-1.2,2.7-2.5,2.6c-1.1-0.1-1.9-0.9-1.9-2.1
		C254.5,290.6,255.7,289.4,256.9,289.4z"/>
	<path fill="#CF9F7C" d="M249.2,118.6c-1.3,0.9-2.8,1.4-4.3,1.6c1.8-1.8,3.8-3.3,5.7-5c0.9-0.8,1.8-1.5,2.9-2.2
		C252,114.9,250.6,116.8,249.2,118.6z"/>
	<path fill="#D1A180" d="M260.2,250.6c-0.9,0.8-1.9,1.3-2.9,1.8c0.1-1.2,0.6-2.3,0.9-3.4c0.1-0.2,0.1-0.4,0.3-0.5
		c0.3-0.1,0.4,0.2,0.5,0.4C259.4,249.5,259.8,250.1,260.2,250.6z"/>
	<path fill="#080605" d="M279.9,175c-0.5-0.7-0.3-1.4-0.1-2c0.2-0.7,0.9-0.9,1.5-0.6c0.6,0.4,0.7,1,0.3,1.5
		c-0.3,0.4-0.7,0.7-1.1,1.1C280.3,175,280.1,175,279.9,175z"/>
	<path fill="#D0A080" d="M245.5,258.4c-0.7,0.3-1.4,0.7-2.1,1c0-0.2,0-0.4,0.1-0.6c0.3-0.6,0.2-1.5,0.7-1.6
		C244.7,257.1,245.1,258,245.5,258.4z"/>
	<path fill="#478885" d="M139,317.3c-0.2-0.2-0.2-0.4-0.2-0.6c0.5-2.6-0.2-5-0.4-7.5c-0.2-2.6-0.5-5.2-0.8-7.8
		c0-0.1,0.1-0.2,0.2-0.3c0.6,0.5,0.6,1.3,0.8,2c0.2,0.8,0.3,1.6,0.7,2.3c0.7,1.4,1.2,1.7,2.7,1.3c0.8,0.8,0.9,2,1.3,3
		c0.9,2.1,1.5,4.2,2.3,6.3c0.2,0.5,0.2,0.9,0,1.4c-1.4,2.9-2.8,5.9-4.2,8.8c-0.3,0.6-0.6,1.3-1.4,1.6c-0.4-0.5-0.1-0.9,0.1-1.3
		c1.4-2.4,1.6-5,1.5-7.7c-0.1-1.7-0.7-2.1-2.2-1.4C139.2,317.3,139.1,317.3,139,317.3z"/>
	<path d="M187.6,292.6c-0.5,0.1-1.1-0.2-1.6-0.2c-0.5,0-1.2-0.4-1.2,0.7c0,0.4-0.4,0.5-0.8,0.5c-0.7,0-1.3,0-2-0.2
		c-1.8-0.6-3.6-0.8-5.4-0.8c-1.8,0-2.5-0.6-2.5-2c0-1.3,0.8-1.9,2.5-1.9c1.9,0,3.6,0.7,5.3,1.3c0.3,0.1,0.7,0.3,0.8,0.2
		c1-1,2.2-0.1,3.3-0.5c0.7-0.3,1.5-0.4,2.3-0.1c1,0.3,1.6,0.8,1.4,2C189.4,292.7,188.5,292.6,187.6,292.6z"/>
	<path d="M150.8,293.5c-0.9,0.1-1.4-0.3-1.6-1c-0.2-0.8,0-1.5,0.7-2c1.5-1.1,3.1-1.8,4.9-2.2c2.1-0.5,4.2-0.6,6.3-0.1
		c0.9,0.2,2.1,0.5,2.2,1.6c0.1,1.2-1.2,1.3-2,1.7c-1.5,0.6-3.1,0.2-4.6,0.5c-1.8,0.3-3.6,0.4-5.3,1.4
		C151.1,293.5,150.8,293.5,150.8,293.5z"/>
	<path fill="#468884" d="M167.6,300c0.9-0.6,1.9-1.3,3.1-2.1c-0.9,3.6-1.7,7-2.5,10.3c-0.6,2.5-1.5,4.9-1.3,7.5
		c0.1,0.7,0.1,1.3,0.2,2c-0.3,0.6-0.8,1-1.4,1.2c-0.5-0.2-0.4-0.6-0.5-1c-0.9-3-0.2-5.9,0.3-8.8c0.1-0.7,0.3-1.5,0.4-2.2
		c0.9-1.4,0.6-2.9,0.6-4.4C166.6,301.7,166.5,300.6,167.6,300z"/>
	<path d="M136.8,331.7c0.3,0.5,0.5,1,0.3,1.7c-0.5,1.4-1,2.9-1.5,4.4c-0.4,1.1-1.1,2.1-1.9,3c-0.7,0.7-1.5,0.7-2.2,0.4
		c-0.8-0.3-1-1.1-0.9-1.9c0-0.4,0.1-0.7,0.3-1c1-1.6,1.3-3.4,1.9-5.1c0.4-1.2,1.2-2.2,2.6-2.2C136.2,330.7,136.7,330.8,136.8,331.7z
		"/>
	<path d="M139,317.3c0.5-0.7,1-1.2,1.9-0.8c0.8,0.3,1,1,1,1.9c0.1,2.9-0.1,5.8-1.7,8.4c-0.2,0.3-0.2,0.6-0.2,0.9
		c-0.3,0.5-0.6,1-1,1.4c-1.2,0.3-2.1-0.6-1.8-1.8c0.1-0.4,0.2-0.8,0.4-1.1c0.4-1.3,0.8-2.6,0.7-4C138.2,320.5,138.1,318.8,139,317.3
		z"/>
	<path d="M165.6,319c0.3-0.6,0.9-0.9,1.4-1.2c1.8,0.2,2.2,0.9,2.5,2.7c0.5,2.9-0.5,5.7-0.3,8.5c0,0.7-0.3,1-1,1
		c-0.5,0-0.8-0.3-0.9-0.7c-0.3-1-0.6-2-0.5-3.1c-0.8-1.8-1.5-3.6-1.4-5.6C165.4,320.1,165.5,319.5,165.6,319z"/>
	<path d="M143.2,293.8c-0.9,0.1-2-0.1-2.9-0.5c-1.2-0.5-2.6-0.3-3.9-0.7c-0.6-0.2-1.2-0.4-1.7-0.8c-0.6-0.5-1.1-1.2-0.6-2
		c0.4-0.8,1.2-1,2.1-0.7c0.6,0.2,1.2,0.4,1.8,0.7c1.3,0.5,2.6,1,4.1,0.7c0.8-0.2,1.7-0.1,2.5,0c1,0,1.9,0.8,1.8,1.7
		c-0.1,1-0.7,1.6-1.7,1.6C144.2,293.8,143.8,293.8,143.2,293.8z"/>
	<path d="M167.6,300c-0.9,1.4-0.9,2.9-0.7,4.5c0.1,1-0.1,1.9-1,2.5c-1.8,0.3-2.5-0.4-3-2.3c-0.5-1.9-0.3-3.7,0.6-5.5
		c0.7-1.6,1.5-2,2.7-1.8C167.1,297.6,167.5,298.4,167.6,300z"/>
	<path d="M141.9,306.5c-1,0.9-1.6,0.9-2.4-0.2c-0.7-0.9-0.9-1.9-1.2-2.9c-0.2-0.8-0.4-1.6-0.5-2.4c0.1-0.5-0.1-1.1,0.3-1.6
		c1-1.4,2.6-1.4,3.4,0.1c0.9,1.8,1.3,3.7,1.1,5.7C142.4,305.7,142.1,306.1,141.9,306.5z"/>
	<path fill="#458883" d="M188.4,325.2c-1.2-4-2-8.2-3.1-12.2c-0.3-1.1-0.5-2.2-0.8-3.2c-0.2-0.7,0-1.2,0.6-1.5
		c0.7,0.5,1.6,0.5,2.4,0.8c-0.6,1.6,0.1,3.1,0.3,4.6c0.3,2.7,0.9,5.4,1.3,8.1C188.7,322.8,189,324.1,188.4,325.2z"/>
	<path d="M162.9,274.1c-1-0.6-1.3-1.5-1.4-2.5c-0.1-1.1-0.2-2.1-0.4-3.2c-0.2-1.1,0.3-1.9,1.3-2.3c1-0.4,2-0.1,2.3,0.8
		c0.8,2.2,1.5,4.5,0.4,6.9C164.5,274.5,163.7,274.5,162.9,274.1z"/>
	<path d="M188.4,325.2c0.2-1.2-0.3-2.6,0.7-3.6c1.8-1.1,3.4-0.2,3.4,1.9c0,1.2,0,2.3,0,3.5c0,1.6-0.6,2.2-2.2,2.3
		c-0.1,0.1-0.2,0-0.2,0C188.5,328.3,188.4,326.8,188.4,325.2z"/>
	<path d="M193,333.1c1.1-0.2,1.9,0.3,2.5,1.3c0.5,0.8,1.1,1.5,1.7,2.3c0.5,0.6,0.6,1.3,0.6,2c0,0.9-0.4,1.4-1.1,1.7
		c-0.7,0.3-1.4,0.2-1.9-0.4c-1-1.1-2-2.2-2.5-3.6c-0.4-1-0.3-1.9,0.2-2.9C192.5,333.3,192.8,333.3,193,333.1z"/>
	<path d="M169.2,335.8c0.8,0,1.4,0.5,1.7,1.2c0.6,1.3,1.2,2.6,1.6,4c0.2,1,0,1.7-0.8,2.2c-0.8,0.5-1.6,0.3-2.3-0.3
		c-1.2-1.1-1.7-2.5-2-4c-0.3-1.3,0.2-2.3,1.4-3C168.9,335.7,169,335.6,169.2,335.8z"/>
	<path d="M161.3,284.3c0-2,1.8-4.4,3.4-4.5c0.9-0.1,1.5,0.2,1.9,0.9c0.4,0.7,0.4,1.5-0.2,2.1c-0.6,0.7-1,1.4-1.3,2.2
		c-0.5,1.1-1.6,1.5-2.7,1.2C161.6,286.1,161.3,285.5,161.3,284.3z"/>
	<path d="M187.5,309c-1,0.3-1.8,0.3-2.4-0.8c-1-1.9-0.2-3.7,0.6-5.4c0.3-0.7,1.2-1,2-0.7c0.8,0.3,1.6,0.7,1.5,1.7
		C189.1,305.7,188.8,307.5,187.5,309z"/>
	<path fill="#000100" d="M177.8,280.3c-1.4-0.1-3.1-0.3-4.6-1.4c-0.5-0.4-1-0.8-0.6-1.4c0.4-0.6,1-1,1.7-0.5c1.5,0.9,3,1.6,4.7,2.1
		c0.4,0.1,1,0.2,0.8,0.8c-0.1,0.5-0.6,0.4-1,0.4C178.5,280.3,178.3,280.3,177.8,280.3z"/>
	<path fill="#010101" d="M199.2,277c0.5-2.2,2.2-3,3.8-1.9c0,1.2-1.4,2.8-2.6,2.9C199.8,278,199.3,277.6,199.2,277z"/>
	<path fill="#468783" d="M169.2,335.8c-0.1,0-0.3,0-0.4,0.1c-0.8-0.5-0.8-1.4-1-2.2c-0.4-2.2-0.8-4.4-1.2-6.6c0-0.3-0.2-0.6,0.2-0.9
		c0.2,0.8,0.3,1.5,0.5,2.3c0.1,0.7,0.3,1.2,1,1.5C168.7,331.9,169.2,333.8,169.2,335.8z"/>
	<path fill="#478883" d="M137.5,326.2c0,0.3-0.1,0.6-0.1,0.9c-0.2,1.2,0.3,1.8,1.5,1.9c-0.6,1-1.2,2-2.2,2.7
		c-0.3-0.5-0.8-0.7-1.4-0.8C136.1,329.3,136.6,327.6,137.5,326.2z"/>
	<path fill="#000101" d="M130.8,274.3c0.3-0.5,0.7-0.7,1.3-0.5c0.7,0.2,0.9,0.8,0.9,1.5c-0.1,0.7,0.1,1.5-0.2,2.2
		c-0.1,0.3-0.2,0.6-0.6,0.6c-0.4,0-0.5-0.3-0.7-0.6C131,276.5,130.7,275.5,130.8,274.3z"/>
	<path fill="#010101" d="M188.2,285.9c0-1,0.8-1.6,2.1-1.7c0.7,0,1.1,0.3,1.2,0.9c0.1,0.8-1.2,1.9-2.3,1.9
		C188.4,287,188.3,286.4,188.2,285.9z"/>
	<path fill="#010302" d="M140.3,279.6c-1.5,0-2.5-0.8-3.3-1.8c-0.1-0.2-0.2-0.4-0.1-0.5c0.1-0.2,0.4-0.3,0.5-0.1
		c1,1.3,2.6,0.9,4,1.3c0.3,0.1,0.8,0,0.8,0.5c0,0.5-0.5,0.4-0.8,0.5C141,279.5,140.6,279.6,140.3,279.6z"/>
	<path fill="#010101" d="M189.6,282c-0.8-0.1-1.5-0.2-1.5-1.2c0-1,0.7-1.2,1.4-1.2c0.8,0,1.6,0.3,1.6,1.2
		C191.3,281.8,190.4,281.9,189.6,282z"/>
	<path fill="#010202" d="M120.2,272.4c1.2-1.2,1.5,0.1,2,0.7c0.1,0.7,0.6,1.6-0.3,1.9c-0.8,0.3-1.1-0.7-1.4-1.3
		C120.3,273.3,120.2,272.9,120.2,272.4z"/>
	<path fill="#458682" d="M193,333.1c-0.2,0.2-0.3,0.3-0.5,0.5c-0.8-1.3-1.7-2.6-2.5-3.9c-0.1-0.2-0.1-0.4,0.1-0.5c0.1,0,0.1,0,0.2,0
		c0.7,0.2,1.1,0.6,1.3,1.3C192,331.5,192.4,332.4,193,333.1z"/>
	<path d="M134,254.9c-0.8,0-1.3-0.5-1.7-1.2c-0.4-1-0.5-2,0.3-2.8c0.4-0.4,0.8-0.7,1.3-1c1.2-0.7,2.4-1.3,3.7-2
		c0.8-0.4,1.6-0.5,2.1,0.3c0.5,0.8,0.1,1.5-0.5,2c-0.5,0.4-1,0.8-1.6,1.1c-1,0.6-1.8,1.2-2.1,2.4C135.4,254.4,134.7,254.8,134,254.9
		z"/>
	<path d="M133.3,257.6c-0.5,1.6-0.9,3.6-2,5.2c-0.8,1.1-1.9,1-2.6-0.2c-0.3-0.6-0.5-1.2-0.4-1.8c0.2-1.5,0.8-2.9,1.4-4.3
		c0.4-0.9,1.2-1.3,2.2-1C132.8,255.7,133.3,256.3,133.3,257.6z"/>
	<path d="M184.3,239.3c-0.3-0.6-0.3-1.3-0.2-1.9c0.1-0.6,0.4-1.2,1.1-1.2c0.8-0.1,1,0.5,1.2,1.1c0.2,0.9,0.4,1.9,0.8,2.7
		c0.2,1,0.8,1.9,1.4,2.8c0.6,1,1.3,2,1.3,3.3c0,0.5,0,0.9-0.5,1.1c-0.5,0.2-1,0-1.2-0.4C186.7,244.4,184.8,242.2,184.3,239.3z"/>
	<path fill="#010202" d="M195.8,260.7c-0.1,1.1-0.7,1.9-1.5,1.8c-0.8-0.1-1.4-1-1.3-2c0.1-0.9,0.4-1.6,1.5-1.6
		C195.3,258.9,195.9,259.7,195.8,260.7z"/>
	<path fill="#010303" d="M191.6,272.8c0.1-0.9,0.2-1.9,1-2.6c0.4-0.4,0.9-0.6,1.4-0.2c0.4,0.3,0.5,0.8,0.3,1.3
		c-0.4,0.9-1.2,1.6-1.9,2.3c-0.1,0.2-0.3,0.2-0.5,0.1C191.6,273.5,191.6,273.2,191.6,272.8z"/>
	<path fill="#050A09" d="M131.7,272c-0.2,0.5-0.3,1-0.9,1.1c-0.5,0.1-0.6-0.3-0.5-0.7c0.1-0.5,0.2-1,0.8-1
		C131.5,271.4,131.6,271.7,131.7,272z"/>
	<path d="M34.8,255.9c0.2,0.6,0.4,1.2,0.2,1.8c-0.3,1.2-1.7,1.7-2.9,1.1c-0.5-0.3-0.9-0.7-1.4-1.1c-1.4-0.7-1.9-2-2-3.4
		c-0.1-1.3-0.1-2.7,0.3-4.1c-0.9,0.4-1.3,1.3-2.2,1.3c-0.9,0.7-1.8,1.4-2.7,2c-1.7,1-3.1,0.8-4.3-0.8c-0.2-0.3-0.4-0.4-0.7-0.5
		c-1.6-0.4-2.2-1.3-2.4-3c-0.2-2.2,0.3-4.3,0.7-6.4c1-3.4,2.1-6.8,3.1-10.2c0.4-1.5,1.4-2.2,2.6-1.8c1.2,0.3,1.7,1.4,1.3,2.9
		c-0.7,2.4-1.5,4.9-2.2,7.3c0.1,1.1-0.3,2-0.6,3c-0.3,1.1-0.5,2.2-0.7,3.3c-0.1,0.5,0,1,0.3,1.5c0.5,0.6,0.9,0.8,1.6,0.3
		c1-0.8,2-1.6,3-2.4c0.5-0.4,1-0.8,1.7-0.9c0.4-0.2,0.7-0.4,1.1-0.5c1.2-0.6,2.4-0.8,3.6,0c1.3,0.9,1.6,2.2,1.5,3.6
		c0,0.9-0.1,1.8-0.4,2.6C32.7,253.3,33.1,254.8,34.8,255.9z"/>
	<path fill="#BA4D55" d="M27.6,245.8c-1.4,1.1-2.9,2.3-4.3,3.4c-0.4,0.3-0.9,1-1.4,0.6c-0.6-0.5-1.3-1-1.2-2
		c0.1-1.2,0.3-2.4,0.7-3.6c0.3-1.1,0.6-2.1,0.9-3.2c0.5,0.5,1,0.1,1.4,0c1.2-0.3,2.3-0.6,3.4-1.1c1-0.4,1,0,0.9,0.9
		C27.8,242.4,27.5,244.1,27.6,245.8z"/>
	<path d="M132.6,157.8c0.5-0.3,1.1-0.5,1.7-0.3c0.4,0.2,0.8-0.1,1.1-0.2c2-0.8,3.9-1.5,6-1.8c0.9-0.2,2-0.3,2.7,0.2
		c1.8,1.2,4,1.4,5.6,2.9c0.1,0.1,0.2,0.2,0.3,0.2c1.8,0,2.2,1.5,2.9,2.7c0.7,3.2,1.4,6.5,1,9.8c0,0.2-0.1,0.5,0.1,0.7
		c1.1,0.9,0.6,1.6-0.2,2.4c1.2,0.6,2.9,0.3,3.2,2.1c1.4-1.4,3.3-1.5,4.2-0.1c0.3,0.4,0.6,0.9,0.2,1.4c-0.4,0.5-1,0.2-1.4,0
		c-0.2-0.1-0.4-0.4-0.8-0.3c0.4,0.8,0.2,1.3-0.7,1.5c-0.9,0.2-1.5-0.1-1.8-1c-0.5-1.5-1.6-2.6-3-3c-1.9-0.5-3.5-1.4-5.3-2.1
		c-3-1-6-1-9,0.3c-1.1,0.5-2.3,0.5-3.5,0.8c-1.6,0.4-2.8,1.3-3.7,2.7c-0.2,0.2-0.2,0.7-0.6,0.6c-0.4-0.1-0.5-0.6-0.5-1
		c0-0.2,0-0.5,0.1-0.6c1-0.9,0.4-1.8,0.1-2.7c-0.8-2.3-1.5-4.6-1.6-7.1C129.4,162.8,130.1,160,132.6,157.8z"/>
	<path d="M173.3,198.3c0.1-0.8,0.6-1.5,0.5-2.3c0-0.2,0-0.5-0.1-0.5c-0.2-0.2-0.4,0-0.6,0.2c-0.8,0.9-1.8,0.9-2.9,0.9
		c-5.1,0-10.2-0.3-15.2,0c-1,0.1-1.9,0.4-2.9,0.7c-0.2,0.1-0.4,0.1-0.4,0.3c0,0.3,0.2,0.3,0.4,0.3c0.7,0.2,1.2,0.7,1,1.5
		c-0.2,0.8-0.9,1.1-1.7,1.1c-1.4,0.1-2.4-0.8-2.4-2.2c0-0.5-0.1-0.7-0.6-1c-1-0.7-0.8-1.8,0.3-2.2c0.6-0.2,1-0.5,1.4-1
		c0.4-0.5,1-0.7,1.6-0.4c0.7,0.4,0.9,0,1.3-0.6c2.2-3.1,3.9-6.5,5.3-10c0.3-0.7,0.8-1.2,1.7-1.1c0.8,0.1,1.1,0.7,1,1.4
		c0,0.5,0.2,0.6,0.6,0.6c1.7-0.1,3.4,0.3,5,1c0.5,0.2,0.6,0.1,0.8-0.3c0.6-0.7,1.4-0.8,2-0.2c1.8,1.7,3.3,3.6,3.1,6.3
		c-0.1,0.8,0.4,1.5,1.2,1.7c0.8,0.2,1.6,0.4,2.4,0.5c1,0.2,1.8,1,1.8,1.9c0,0.5-0.1,1-0.6,1.1c-1.4,0.2-1.4,1.3-1.6,2.3
		c-0.2,0.8-0.7,1.2-1.4,1.2C173.7,199.6,173.4,199.1,173.3,198.3z"/>
	<path d="M171.9,157.5c0.4-0.5,0.8-1.1,1.2-1.6c0.7-0.8,1.5-1.3,2.6-1.1c0.9,0,1.6-0.4,2.1-1.1c1.1-1.4,3.2-1.9,4.9-1.3
		c2.9-0.5,4.9,1.2,7,2.7c0.9,0.6,0.7,1.7,0.8,2.5c0.2,1.1,0.4,2.3,0.8,3.3c0.5,1.5,0.6,3.1,0.6,4.7c-0.3,1,0.3,1.8,0.8,2.7
		c0.3,0.6,0.5,1.3,0.1,1.9c-0.3,0.5-0.8,0.9-1.4,0.4c-2.8-2.5-6.3-2.5-9.7-2.4c-2.1,0-4.3,0.4-6.3,1.1c-1.4,0.4-2.6,1-3.6,2.1
		c-0.4,0.4-0.6,0.4-1,0c-1.2-1.4-1-2.8,0.4-3.5c-1.4-2.2-0.9-4.6-0.4-6.9C170.8,159.6,171.4,158.6,171.9,157.5z"/>
	<path fill="#010101" d="M167.3,176.9c-0.4-0.1-0.6,0.1-0.9,0.2c-0.5,0.2-0.9,0.4-1.3-0.1c-0.4-0.5-0.1-1,0.2-1.4
		c0.7-0.9,2.5-1.3,3.6-0.9c1,0.4,1.2,1.2,1.3,2.1c0.1,1.2-0.6,2.1-1.6,2.1C167.7,178.9,167.3,178.3,167.3,176.9z"/>
	<path fill="#010101" d="M155.6,25.7c0,0.5-0.2,1-0.6,1.4c-1.1,1-2.3,1.7-3.7,2c-1.1,0.2-1.6-0.3-1.4-1.4c0.4-1.6,1.4-2.9,2.8-3.7
		C154.1,23.3,155.6,24.2,155.6,25.7z"/>
	<path fill="#F5C9D6" d="M182.7,152.4c-1,0.2-2,0-3,0.2c-0.7,0.2-1.3,0.5-1.7,1.2c-0.6,1.1-1.6,1.5-2.4,1c-0.3-0.2-0.4-0.4,0-0.7
		c2.9-2.3,5.8-4.7,8.9-6.9C183.9,148.9,183.3,150.6,182.7,152.4z"/>
	<path fill="#478984" d="M197.5,217c2.2,1.9,4.3,3.7,6.5,5.6c0.5,0.5,1.1,1,1.6,1.4c2.5,1.8,3.1,4.9,4.5,7.3
		c0.1,0.1,0.1,0.2,0.1,0.3c1.8,2.6,2,5.6,1.9,8.7c-0.1,1.6,0.4,3.3,0.1,5.1c-2.1-2.1-4.2-4.1-6.2-6.2c-0.4-0.5-0.4-1.2-0.4-1.8
		c-0.3-2.6-0.5-5.1-0.8-7.7c0-0.5-0.3-0.8-0.6-1.1c-3.7-3-4.8-7.6-7.1-11.4C197.4,217.2,197.4,217.1,197.5,217z"/>
	<path fill="#000100" d="M183.2,228.5c-1.1,0-2.2-1-2.2-1.9c0-0.9,1-1.9,2-1.9c1.1,0,2.2,0.9,2.2,1.9
		C185.3,227.5,184.2,228.5,183.2,228.5z"/>
	<path d="M279.4,121.5c-0.2,2.7-1.4,5-3.2,7c-0.3,0.3-0.8,0.6-1.2,0.7c-1.5,0.5-2.5-0.3-2.3-1.8c0.1-0.9,0.6-1.7,1.1-2.3
		c0.5-0.6,0.9-1.2,1.2-1.9c0.5-1.2,0.5-2.3-0.3-3.4c-1.1-1.4-2.1-2.8-3.1-4.2c-0.4-0.6-0.9-1.2-1.2-1.9c-0.4-0.9-0.2-1.8,0.7-2.4
		c0.9-0.6,1.9-0.6,2.5,0.2c1.8,2.6,4.1,4.9,5.4,7.8C279.3,120,279.4,120.7,279.4,121.5z"/>
	<path fill="#BA5157" d="M248.4,261.8c2.3-1.1,4.6-2.2,6.9-3.4c-0.8,2.5-1.5,4.9-2.3,7.4c-0.3,0.9-0.5,0.8-1,0.2
		C250.8,264.6,249.6,263.2,248.4,261.8z"/>
	<path fill="#D0A07C" d="M26.9,251.6c0.8-0.7,1.6-1.4,2.6-2c-0.7,3-1.1,5.8,1.3,8.2c-1.5,1-3.1,1.8-4.9,2.6
		C26.3,257.4,26.6,254.5,26.9,251.6z"/>
	<path d="M238.3,50.6c1.6,0.4,2,1,1.5,2.5c-0.8,2.7-2,5.3-3.3,7.8c-0.7,1.4-1.5,2.8-1.9,4.4c-0.4,1.2-1.3,1.8-2.4,1.5
		c-1.1-0.3-1.8-1.5-1.5-2.7c0.2-1,0.7-2,1.2-2.9c1.6-3.2,3.4-6.3,5.3-9.3c0.1-0.1,0.1-0.2,0-0.5c-1.8,1.6-3.6,3.2-5.4,4.8
		c-1.4,1.2-2.7,2.4-4.1,3.5c-1,0.9-2.2,0.9-3,0.1c-0.8-0.8-0.8-2.1,0.2-3.1c1.7-1.7,3.7-2.9,5.6-4.3c1.7-1.2,3.4-2.4,5.1-3.6
		c0.8-0.6,1.6-0.9,2.6-0.8c0.5,0,1,0,1.3,0.5c0.3,0.5-0.2,0.9-0.4,1.3C238.8,50,238.6,50.3,238.3,50.6z"/>
	<path fill="#B94E56" d="M247.2,229.5c1.9-1.2,3.9-2.2,6-3.2c-1,1.6-1.9,3.1-2.9,4.7c-0.3,0.5-0.6,0.7-1.1,0.2
		C248.6,230.5,247.9,230,247.2,229.5z"/>
	<path fill="#468884" d="M214.1,320.2c0,1.4-0.6,2.7-1,4c-0.5,2-1.1,3.9-1.8,6c-1.8-1.4-3.5-2.6-3.8-5.2c-0.6-4.1-1.6-8.1-2.4-12.2
		c-0.4-1.9-0.2-3.7-0.3-5.6c-0.2-4.1,0-8.2-0.1-12.2c0-1.4,0.7-2.6,1.2-3.9c0.7-2,1.5-4,2.4-6c0,1.5,0.1,3.1,0,4.6
		c-0.4,4,0.1,7.9,0.3,11.8c0.1,1.9,0.1,3.8,0.2,5.6c0.1,1.8,0.6,3.3,1.3,4.8C211.4,314.7,212.8,317.4,214.1,320.2
		C214.1,320.2,214.1,320.2,214.1,320.2z"/>
	<path fill="#F5CAD6" d="M164.5,231.4c-1.8-3.7-4.4-6.9-5.4-10.9c-0.2-0.8-0.6-1.4-1.1-1.9c-1.5-1.5-3-3-4.4-4.7
		c1.5,0.6,2.9,1.2,4.4,1.8c0.9,0.4,1.6,0.3,2.5-0.1c3.4-1.5,6.8-3,10.2-4.5c0.1,0,0.2,0,0.5-0.1c-1.4,1.6-2.6,3.1-3.8,4.6
		c-0.9,1-1.5,2.1-1.7,3.5c-0.4,3-0.9,6-1.4,9.1C164.1,229.3,164.7,230.3,164.5,231.4z"/>
	<path fill="#B94B54" d="M158.7,105.4c-3,2.6-6.5,4.8-9.9,6.9c-3.5,2.2-7,4.4-11,5.7c-0.2,0.1-0.4,0.1-0.6,0.1
		c2.3-1.4,4.7-2.9,7-4.3c4.5-2.7,8.9-5.3,13.4-8C158,105.6,158.3,105.4,158.7,105.4z"/>
	<path fill="#BA4E55" d="M66.3,226.3c-1.6,0-3-0.9-4.6-1c-0.5,0-1.1-0.3-1.6-0.3c-1.1,0-1.4-0.6-1.4-1.5c3.8-1.7,7.7-3.5,11.8-5.4
		C69,221,67.6,223.7,66.3,226.3z"/>
	<path fill="#B54F54" d="M74.2,222.7c-1.7,0.4-3,1.8-4.6,2.5c1.4-1.4,2.8-2.8,4.3-4.2C74.3,221.7,74.2,222.2,74.2,222.7z"/>
	<path d="M240,178.2c-0.1-1.4,0.3-2.7,1.3-3.7c0.8-1,2-1.2,2.9-0.7c0.8,0.6,1,1.6,0.5,2.8c-0.1,0.3-0.3,0.6-0.4,0.9
		c-0.3,0.9-0.3,1.7,0.7,2.2c0.8,0.3,1.5,0.7,2.3,1c1.3,0.3,2.3,1.1,3.1,2.1c0.5,0.7,0.7,1.5,0.2,2.2c-0.5,0.7-1.3,0.9-2,0.6
		c-2.2-0.9-4.6-1.6-6.6-3C240.6,181.4,239.9,180,240,178.2z"/>
	<path fill="#B94C54" d="M237.3,124.2c0.7,0.2,1.3,0.3,2,0.5c-1.2,1.4-2.8,2.4-4.3,3.6C235.8,126.9,236.6,125.5,237.3,124.2z"/>
	<path fill="#FDFCFC" d="M142,169.8c0.9-0.9,0.7-2.2,1.1-3.2c0.3-0.6-0.9-1.7-1.9-1.9c-0.9-0.2-1.5,0.3-1.7,1.1
		c-0.5,1.6-0.7,3.4,1,4.3c-2.1,0.6-4,1.7-5.9,2.8c-0.4,0.2-0.6,0.4-0.9-0.2c-1.2-3-2.1-6-1.6-9.3c0.2-1.2,0.7-2,1.9-2.5
		c2.2-1,4.3-2,6.6-2.6c1.3-0.3,2.5-0.3,3.7,0.4c0.4,0.2,0.8,0.4,1.2,0.6c2.7,0.9,3.8,3,4.2,5.6c0.1,0.5,0.1,1,0.5,1.3
		c1.8,1.2,0.8,3,0.9,4.6c0,0.5-0.4,0.3-0.7,0.2c-1.5-0.4-2.9-1-4.5-1.2C144.7,169.7,143.4,169.7,142,169.8z"/>
	<path fill="#BA4E58" d="M170.1,192.8c-1.4-0.6-2.6-0.2-4-0.3c0.2-0.6,0.4-1.2,0-1.8c-0.4-0.6-1.1-0.7-1.8-0.9
		c-0.8-0.2-1.5-0.4-2.2-0.8c-0.9-0.5-1.8-0.8-2.9-0.6c-0.1-0.5,0.2-0.9,0.4-1.2c0.2-0.6,0.5-0.8,1.1-0.5c0.3,0.2,0.8,0.2,1.2,0.2
		c1.5-0.1,2.8,0.3,4.1,0.9c0.8,0.4,1.7,0.7,2.6,0.5c0.5-0.1,1.3,1.1,1.2,1.9C169.9,191.1,169.9,191.9,170.1,192.8z"/>
	<path fill="#D41A52" d="M156.2,193.6c0.9-1.4,1.6-2.7,2.3-3.8c1.3,2,3.8,1.7,5.7,3C161.4,192.6,158.9,193.2,156.2,193.6z"/>
	<path fill="#FDFDFD" d="M174,167.1c-1.3-2.4-1.7-4.8-0.2-7.3c0.2-0.3,0.3-0.7,0.9-0.5c0.7,0.3,1.3-0.2,1.8-0.6
		c1.4-0.9,2.6-2.2,4.2-2.9c1.2-0.5,2.4-0.7,3.6-0.5c1,0.1,1.9,0.6,2.3,1.6c0.4,1,1,2,1.2,3.1c0.2,1.3,1.5,2.1,1.5,3.4
		c0,0.1,0,0.2,0.1,0.4c0.4,2.7,0.2,2.7-2.3,2.2C182.6,165.2,178.2,165.3,174,167.1z"/>
	<path fill="#020202" d="M182.1,164.5c-0.8,0-1.3-0.5-1.3-1.5c0-1.2,0.9-2.4,1.8-2.5c0.9,0,1.5,0.7,1.5,1.8
		C184,163.6,183.3,164.4,182.1,164.5z"/>
</g>
</svg>
