<?xml version="1.0" encoding="utf-8"?>
<!-- Generator: Adobe Illustrator 18.1.1, SVG Export Plug-In . SVG Version: 6.00 Build 0)  -->
<svg version="1.1" id="Layer_1" xmlns="http://www.w3.org/2000/svg" xmlns:xlink="http://www.w3.org/1999/xlink" x="0px" y="0px"
	 viewBox="227 202 157.9 388.1" enable-background="new 227 202 157.9 388.1" xml:space="preserve">
<g>
	<path fill="#6E6E6E" d="M309.8,202.2c0,0.1,0.1,0.1,0,0.2c-0.2,0.2-0.4,0.4-0.7,0.4c-1.7,0.1-3.4,0.1-5.1,0c-0.3,0-0.5-0.1-0.7-0.4
		c0-0.1,0-0.1,0-0.2C305.5,202.2,307.6,202.2,309.8,202.2z"/>
	<path d="M303.3,202.4c2.2,0,4.4,0,6.6,0c5.3,0.2,10.2,2,14.9,4.4c1.1,0.6,2.1,1,3.5,0.7c2.7-0.6,5.4-0.2,8.1,0.6
		c4.4,1.3,8.8,2.3,13.1,4.1c9.3,3.8,15.2,10.6,18.2,20.1c0.4,1.2,0.2,2.9,1.2,3.5c1.1,0.6,2,1.4,3.1,2c0.7,0.3,1.3,0.8,1.9,1.3
		c4,2.9,3.6,6.8,2.5,10.8c-0.7,2.7-2.1,5.1-3.1,7.7c-2.1,5.7-2.6,11.4-0.6,17.2c0.1,0.4,0.3,0.8,0.5,1.2c0.7,1.6,1.8,2.5,3.7,2.2
		c0.8-0.1,1.7-0.1,2.5,0.1c0.9,0.2,1,1.4,1.5,1.4c0.6,0,1.2-0.7,1.9-0.6c1.5,0.2,2.4,1.6,1.8,3.2c-1.1,2.8-2.5,5.4-3.8,8.1
		c-0.8,1.5-1.5,3.1-2,4.7c-0.2,0.6-0.2,0.8,0.4,1c0.8,0.3,1.2,0.9,1.3,1.7c0.1,0.9-0.4,1.6-1.2,1.9c-0.8,0.4-1.5,0.9-1.8,1.7
		c-0.2,0.5-0.7,0.7-1.2,0.8c-2.4,0.6-3.9,2.5-5.4,4.2c-0.9,0.9-0.3,2.1,1,2.5c1.3,0.3,1.9,1.5,1.6,3c-0.4,1.8-0.8,3.7-1.2,5.5
		c-0.5,1.7-0.7,3.5-1.6,5.1c-0.2,0.3-0.1,0.6,0.1,0.9c0.6,1,0.2,1.8-0.6,2.4c-0.7,0.6-1.6,0.9-2.4,0.8c-3.3-0.2-6.3-1.1-8.4-4.1
		c-1.5-2.2-2.6-4.5-3.2-7.2c-0.1,1.2-0.2,2.4-0.4,3.6c-0.1,1.1-0.3,2.1-0.5,3.2c-0.2,1.3-0.4,2.5,0,3.8c0.5,1.7-0.2,3.3-0.6,4.9
		c-0.3,1-0.4,1.7,0.6,2.4c1.3,1,1.7,2.7,2.2,4.2c2.6,7.7,3.5,15.5,2.8,23.6c-0.3,3.9-0.7,7.8-1.7,11.6c-1.4,5.8-3.2,11.4-6.5,16.4
		c-6.9,10.7-15,20.2-26.6,26.1c-0.5,0.3-1.1,0.5-1.6,0.8c-1.6,0.7-1.6,0.7-0.7,2.2c1.3,2.2,1.9,4.6,2.5,6.9c0.3,1,0.6,1.4,1.7,1.6
		c2.3,0.5,4.7,0.9,7,1.2c3.4,0.4,6.7,0.1,9.7-1.9c0.7-0.5,1.5-0.5,2.3-0.1c0.7,0.4,1.5,0.6,2.2,0.8c1.4,0.3,2.4,0.9,3,2.4
		c0.3,0.7,1.1,1.4,2.1,1.6c2.6,0.8,5.4,1.4,7.7,2.7c4.1,2.2,7.6,5.3,10,9.5c0.9,1.6,1.1,3.3,1,5.2c-0.1,5.6-2.4,10.6-3.8,15.9
		c-2.2,8.1-4.8,16.1-6.5,24.4c-0.5,2.3-0.7,4.6-0.9,6.9c0,0.1,0,0.4,0.1,0.4c1,1.1,0.8,2.4,0.8,3.6c0.1,6.8,0.7,13.5,2,20.1
		c0.5,2.3,0.4,4.8,1,7.1c1,4.5-0.6,8.8-0.7,13.2c-0.1,2.8-0.4,5.6-0.4,8.4c0,0.1,0,0.2,0,0.2c1.5,3.3,0.2,6.4-0.5,9.6
		c-0.6,2.6-1.3,5.2-2.1,7.7c-0.2,0.7-0.7,1.2-1.4,1.5c-2.9,1.2-5.6,2.6-7.6,5c-1.1,1.3-1.9,2.8-3.2,4c-0.3,0.3-0.6,0.5-1.1,0.4
		c-1.1-0.2-2.1,0.4-3.1,0.7c-8.7,2.9-17.5,5.4-26,8.8c-2.3,0.9-4.3,0.4-6.5,0c-4.2-0.7-8.3-0.5-12.2,1.3c-1.8,0.8-3.7,0.6-5.5,0.9
		c-2,0.3-3.9,0.9-5.8,1.6c-1.8,0.6-3.4,0.3-5.1-0.2c-7.2-2-14.3-4.4-21.2-7.1c-3.3-1.2-6.2-3.2-8.4-6c-0.3-0.3-0.6-0.5-1-0.5
		c-3.2,0.1-6.4-0.4-9.5-0.8c-2.4-0.3-4.6,0.1-6.7,1.3c-0.8,0.5-1.4,0.2-1.8-0.5c-0.3-0.7-0.9-1.1-1.5-1.5c-1.6-1.1-2.5-2.8-3.8-4.1
		c-3.1-2.9-3-6.5-2.6-10.3c0.1-1.2,0.1-2.4,1.2-3.3c0.3-0.2,0-0.5-0.1-0.8c-0.8-2.4-0.5-4.9-0.4-7.4c0.3-5,0.5-10.1,0.2-15.1
		c-0.2-2.6-0.4-5.3-0.4-7.9c0-1.4,0.9-2.5,1.1-3.9c1.2-5.8,2.4-11.6,3.4-17.5c0.5-3,0.5-6.1,0.9-9.2c0.2-1.8-0.4-3.1-0.9-4.6
		c-1.1-3.1-2.4-6.2-2.8-9.5c-0.2-1.5-0.2-3-0.1-4.4c0.1-7-0.4-13.9-1.4-20.8c-0.1-0.6-0.2-1.3,0.1-1.8c0.9-1.4,0.8-3,0.8-4.5
		c0-2.3,0.9-4.2,2.6-5.8c3.6-3.3,7.6-5.9,12.1-7.8c3-1.3,5.8-2.7,8.7-4.1c1.2-0.6,2.4-0.9,3.7-0.4c0.4,0.2,0.7,0,1-0.2
		c0.9-0.4,1.8-0.8,2.7-1.2c1.1-0.4,2.2-0.5,3.4,0c1.2,0.5,2.4,0.3,3.7,0.2c0.8-0.1,1.5,0,2.3,0.3c1.5,0.5,3-0.2,4.4-0.6
		c0.8-0.2,1.5-0.7,2.4-0.8c0.3-0.1,0.5-0.2,0.7-0.5c1.3-3.3,3.3-6.4,4-10.1c-4.5-0.1-8.9-0.7-13.1-2.4c-3.9-1.6-7.6-3.6-10.7-6.7
		c-0.8-0.8-2-1.3-2.9-2.1c-6.8-5.4-10.6-12.6-13.1-20.7c-1.7-5.6-2.7-11.4-3.6-17.2c-0.7-4.6-1.2-9.3-1-14c0-1.1,0.3-2.1,1.2-2.9
		c0.4-0.3,0.4-0.6,0.5-1c0.2-2.7,0.4-5.3,0.5-8c0-0.6,0-1.3,0.3-1.9c0.5-1.1,0-1.9-0.7-2.4c-1.7-1.5-2.5-3.5-3.2-5.5
		c-1.5-4.3-1.8-8.8-1.8-13.3c0-5.5,0.4-11,1.2-16.5c1.5-10.4,5.7-19.6,12.1-27.9c0.4-0.6,0.6-0.8-0.1-1.4c-1.4-1.1-1.5-2.6-1.4-4.2
		c0.3-3.7,2-6.7,5.4-8.2c1.5-0.7,1.5-1.1,1.4-2.5c-0.8-9.1,0.1-18,3.1-26.6c2.7-7.6,7.8-13.2,14.6-17.5c0.2-0.1,0.4-0.2,0.6-0.4
		c3.9-4.8,9.2-7.5,15-9.4C291.1,204.1,297,202.4,303.3,202.4z"/>
	<path fill="#456988" d="M255.1,538c-0.4-1.9-0.5-3.9-1.1-5.7c-0.9-3.1-2-6.2-3.8-9c-0.7-1.2-0.5-2.7-0.6-4
		c-0.4-3.7-1.1-7.4-1.6-11.1c-0.7-4.9-1.7-9.8-1.3-14.7c0.1-0.9,0-1.7-0.4-2.6c-0.4-0.8-0.1-1.4,0.4-2.1c2.2-2.9,5-5.3,7.4-8
		c1.3-1.5,2.3-3,3.1-4.8c0.5-1.1,0.2-2.1-0.8-2.7c-0.4-0.3-0.5-0.5-0.2-0.9c3.4-6.2,5.6-12.7,7.1-19.6c0.7-3.3-0.4-6.1-0.9-9.1
		c-0.4-2.5-1.6-4.8-2-7.4c-0.1-0.9,0.6-1.7,1.4-1.4c1.4,0.5,2.8,0.5,4.3,0.4c0.8,0,1,0.3,0.9,1c-0.3,3.4-0.6,6.8-0.9,10.1
		c-0.2,2.3-0.4,4.6-0.5,6.9c-0.4,6.2-0.5,12.3-0.3,18.5c-0.5,0-0.5-0.5-0.5-0.8c0-1.7-0.1-3.5,0.2-4.9c0,1.1-0.7,2.2-1.3,3.4
		c-2,4.1-4,8.1-6,12.3c-1,2.2-2.6,3.8-4.3,5.3c-0.1,0.1-0.3,0.2-0.4,0.3c-1.8,1.5-1.8,1.5-0.2,3.2c0.9,1,1.7,2,2.7,2.9
		c0.3,0.3,0.6,0.5,0.5,1c-0.3,0.3-0.6,0.3-0.9,0.6c-0.5,0.4-0.7,0.9-0.4,1.6c1.3,2.8,3.1,5.3,5.3,7.5c4.1,4.2,9.2,6.7,14.9,8
		c2.3,0.5,4.6,0.9,7,0.8c2-0.1,2.1-0.1,2.5-1.9c0.5-0.2,0.9,0,1.4,0.2c4.8,1.7,9.6,3.3,13.9,6c1.3,0.9,2.4,0.8,3.6-0.2
		c1.7-1.4,3.6-2.6,5.3-3.9c1.1-0.8,2.2-1.3,3.5-1.5c3.2-0.5,6.5-1,9.7-1.6c0.5-0.1,1.1-0.3,1.6-0.1c1.3,1.9,1.7,2.1,3.9,1.3
		c4-1.5,8-3.2,11.7-5.4c0.9-0.6,1.9-1.1,2.9-1.5c1.4-0.6,2.3-1.5,2.5-3.1c2.9-1.7,5.5-4,8.4-5.9c0.4-0.3,0.8-0.9,1.4-0.7
		c-0.2,2.9-1.4,5.5-2.4,8.1c-1.9,5.5-4,10.9-5.9,16.4c-0.7,2-0.8,4.1-1.4,6.1c-0.8,2.5-1.6,4.9-2.4,7.4c-0.2,0.6-0.2,1.3-0.1,1.9
		c0.2,1.2,1.4,1.9,2.4,1.3c1-0.6,1.2-0.1,1.5,0.6c2.1,5,3.9,10.1,4.5,15.6c0.1,0.9,0.3,1.7,0.9,2.4c0.3,0.3,0.2,0.6,0.2,1
		c-0.2,2.5-0.4,4.9-0.6,7.4c-0.2,2.1-0.3,4.2-0.5,6.3c-0.1,1-0.8,1.9-1.7,2.2c-4.1,1.4-8.1,2.8-12.3,4c-6.9,2.1-13.7,4.6-20.5,6.9
		c-0.6,0.2-0.9,0.3-1.4-0.4c-1.2-1.6-3.1-1.5-4.7-1c-4.7,1.4-9.6,2.5-14.4,3.5c-2.2,0.5-4.5,0.3-6.8,0.7c-4.8,0.7-9-1.5-13.4-2.8
		c-3-0.9-6-2.1-9-3.1c-1.6-0.6-3.1-1.3-4.6-2.3c-0.9-0.6-1.7-1.1-2-2.3c-0.3-1.3-1.5-1.8-2.7-2.2c-1.1-0.3-2.2-0.5-3.4-0.5
		c-3.2,0-6.3-0.4-9.4-0.8c-1.3-0.2-2.6-0.1-4.2,0.3c3.3-10.2,7.5-19.9,11.2-29.8c0.1,1,0.2,2.1,0.3,3.1c0.1,2,1.8,3.8,3.4,3
		c1.7,1,2.4,2.5,2.5,4.5c0.3,4.1,0.8,8.2,1.2,12.4c0,0.2,0,0.4,0.2,0.6c0.7-0.3,1.2-0.9,1.7-1.3c1.6-1.4,3.2-2.9,4.8-4.3
		c1-0.8,1.6-1.7,1.2-3c0.3-0.3,0.6,0,0.9,0.1c1,0.2,1.5-0.1,1.7-1.1c0.1-0.8,0.1-1.7-0.1-2.5c-0.6-2.6-1.7-4.9-3.3-6.9
		c-0.2-0.2-0.4-0.4-0.6-0.6c-1.7-1.7-2.6-1.8-4.7-0.4C258.6,542.7,256.6,540.5,255.1,538z"/>
	<path fill="#F9CAE2" d="M367.4,261.6c-0.2,2.1-0.6,4.2-0.5,6.3c0.1,3.3,0.7,6.4,2,9.5c1.5,3.6,4,5.7,8,5.5c0,0.7-0.6,0.9-1.1,1.1
		c-2,0.7-2.9,2.1-3.3,4.1c-0.5,2.6-1.4,5.1-2.1,7.7c-0.2,0.9-0.3,1.7,0,2.6c0.2,0.7,0.5,1.4,0.1,2.1c-0.6,0.5-1.3,1.1-1.9,1.6
		c-1.8,1.5-2.7,3.4-2.6,5.8c0,1.7,0.7,3.1,2.2,4c0.7,0.4,0.7,0.8,0.5,1.4c-0.7,2.7-1.6,5.3-1.8,8.1c0,0.4,0,0.6-0.5,0.5
		c-1.2-0.3-2.3-0.6-3-1.7c-1.6-2.3-2.7-4.7-1.8-7.7c0.9-2.9-0.3-4.4-3.2-5c-0.9-0.2-1.1-1.1-1.1-1.8c-0.2-3.3-0.2-6.5,0.4-9.8
		c0.1-0.5,0.5-0.7,0.7-1.1c1.2-1.4,0.9-3-0.8-3.7c-0.7-0.3-0.9-0.6-0.9-1.3c-0.2-3.6,0.8-7.1,1.3-10.7c0.2-1.3,0.1-2.5-0.9-3.4
		c-1.6-1.7-2.4-3.9-3.7-5.9c-0.2-0.3-0.3-0.8-0.8-1c-0.3,0.9-0.5,1.7-0.7,2.5c-1.4,5.5-2.9,11-4.3,16.5c-0.1,0.5-0.1,1.3-0.8,1.2
		c-0.5-0.1-0.4-0.9-0.3-1.4c0.3-3.1,0.2-6.3,0.4-9.4c0.2-3.1,0.1-6.3,0.4-9.4c0-0.4,0.1-0.9-0.1-1.4c-1.1,0.9-2.1,1.9-3,3
		c-1.1,1.4-2.4,2.5-3.7,3.8c-0.3,0.3-0.6,0.8-1.1,0.4c-0.4-0.3-0.1-0.8,0.1-1.2c1.9-4.4,3.8-8.8,5.7-13.2c0.3-0.8,0.7-1.6,1.2-2.6
		c-1.6,1-3,1.9-4.4,2.8c-0.4,0.3-0.8,0.7-1.4,0.4c0.1-1.5,0.3-2.9-0.5-4.3c-0.3-0.8,0-1.6,0-2.4c0-3.1,0-6.2,0-9.1
		c-1.3,4.1-2.9,8.2-4.2,12.5c-0.1,0.4-0.2,0.9-0.7,0.9c-0.6,0-0.6-0.5-0.8-0.9c-0.9-2-1.8-4-2.6-6.1c-0.1-0.3-0.2-0.8-0.6-0.9
		c-0.5-0.1-0.6,0.5-0.8,0.8c-1.5,2.2-2.9,4.5-4.4,6.7c-0.6,0.9-1.4,1.5-2.3,2c-4.7,2.1-9.3,4.2-14,6.4c-1.4,0.6-1.7,0.6-2.4-0.7
		c-1.1-1.8-2-3.7-3-5.6c-0.4-0.8-0.8-0.9-1.6-0.5c-2.1,1.2-4.3,2.3-6.4,3.5c-0.3,0.2-0.5,0.3-0.8,0.5c-1.1,0.6-1.5,0.4-1.7-0.9
		c-0.3-1.7-0.5-3.4-0.8-5.1c-0.4-2.6-0.8-5.2-1.2-7.8c0-0.2,0-0.5-0.3-0.7c-1,1-1.9,2.1-2.8,3.2c-1,1.3-2.1,2.6-3.1,3.8
		c-0.3,0.3-0.5,0.9-1.1,0.6c-1.3-1.5-2.7-1.4-3.9,0.2c-1,1.3-1.8,2.8-2.9,4.1c-2.2,2.6-4.6,5.1-7.3,7.3c-0.5,0.5-1.1,0.9-1.8,1.2
		c-1,0.3-1.7,0.9-1.8,2c0,0.1-0.1,0.3-0.2,0.4c-2,2.7-6.4,3.2-8.9,1.1c-1.1-0.9-2.6-1.1-3.9-1.6c-0.4-0.2-0.7-0.6-0.8-1
		c-0.3-1-0.8-2-1.4-2.9c0.2-0.3,0.5-0.6,0.9-0.8c0.6-0.3,1-0.3,1.3,0.4c0.8,2,2.1,3.8,3.9,5.1c0.4,0.3,0.8,0.5,1.2,0.7
		c0.9,0.3,1.8,0.4,2.4-0.4c0.7-0.8,0.6-1.6,0.1-2.5c-0.2-0.5-0.5-0.9-0.9-1.3c-2.6-2.3-3.7-5.4-4-8.7c-0.9-8.5,0-16.8,2.7-24.9
		c1.3-3.7,3.5-7,6.2-9.8c1.1-1.1,2.1-2.2,3.2-3.2c0.7-0.6,1.3-1.3,2.4-1.2c0.3,0,0.6-0.1,0.9-0.3c1-0.8,1.6-2.1,2.8-2.6
		c1.3-3,4.1-4.2,6.7-5.6c3.3-1.8,6.9-2.8,10.5-3.9c6.1-1.9,12.3-1.8,18.5-1.6c1.5,0.1,3.1,0.3,4.5,0.9c1.4,0.6,2.5,1.7,3.7,2.6
		c4.9,3.8,9.9,7.4,14.8,11.2c0.6,0.5,1.2,1.1,1.5,1.8c2.2,4.9,4.7,9.6,7,14.5c-0.6-4.8,0-9.7-0.5-14.5c-0.1-1,0-2,0-3
		c0-0.7,0.3-1.1,1.1-0.9c2,0.4,3.9,1,5.8,1.5c0.6,0.2,1,0.6,1.3,1.2c2.3,5.1,4.7,10.2,7,15.4c0.8,1.7,0.6,3.7,0.8,5.6
		c0.3,2.8,0.6,5.6,0.8,8.4c0.1,0.9,0.5,1.1,1.4,0.9c1.3-0.4,2.5-0.9,3.8-1.1c1.1-0.2,1.3,0,1.2,1.1c-0.4,4.3-0.8,8.7-1.2,13.1
		c1-1.4,1.9-2.7,2.8-3.9c0.2-0.3,0.4-0.6,0.7-0.7C367.5,260.9,367.6,261.2,367.4,261.6z"/>
	<path fill="#6D8FAF" d="M323.5,509.9c-4,0.6-8.1,1.3-12.1,1.9c-1.7,0.3-2.8,1.6-4.1,2.5c-1.7,1.1-3.2,2.3-4.8,3.5
		c-0.6,0.4-1,0.5-1.6,0.1c-5.1-3.1-10.7-5.2-16.4-7.1c-4.4-1.8-9.1-2.6-13.5-4.4c-3.4-1.4-6.4-3.4-8.8-6.2c-1.3-1.4-2.6-2.8-3.8-4.3
		c-0.6-0.8-1.7-0.8-2.3-1.6c-1.4-1.5-2.8-3.1-4.2-4.6c-0.6-0.6-0.8-1,0-1.7c1.1-0.9,2.1-2,3.2-2.9c1-0.9,1.7-1.9,2.3-3.1
		c2.3-4.8,4.7-9.6,7.1-14.4c0.3-0.7,0.6-1.4,0.8-2.1c0,1.6,0,3.2,0,4.8c0,0.5-0.1,1,0.2,1.4c0.2,1.1,0.5,2.2,1.2,3.1
		c0.6,0.7,1.8,0.3,2,0.9c0.2,0.8,0.3,1.5,0.7,2.2c2.1,3.3,5.4,4.8,8.8,6.1c3.1,1.2,6.6,1.4,9.7,2.4c5.1,1.7,10.3,1.7,15.5,1.4
		c3.4-0.2,6.7-1.3,10.1-2c1.1-0.2,2.2-0.5,3.2-0.8c0.1,0,0.2-0.1,0.4-0.1c4.8,0.5,8.8-1.6,12.9-3.7c0.7-0.4,1.3-0.6,2.1-0.1
		c1.2,0.7,2.6-0.2,2.9-1.8c0.2-0.8,0.6-1.4,1.2-2c1.3-1.2,1.5-2.3,0.6-3.8c-0.3-0.5-0.1-0.8,0-1.2c0.4-1.1,0.7-2.1,0-3.2
		c-0.2-0.3-0.1-0.4,0.2-0.6c1.3-0.8,1.3-2,1.1-3.4c-0.4-2.2-0.5-4.5-0.8-6.8c-0.3-2.2,0.5-4.2,1.2-6.2c0.8,0.1,0.8,0.8,0.8,1.3
		c0.2,4.8,0.7,9.5,1,14.2c0.3,3.5,0.7,7,1,10.5c0.1,0.9,0.5,1.5,1.5,1.8c0.6,0.2,1.3,0.2,1.7,0.8c-1.3,6.2-3,12.3-4.9,18.4
		c-0.2,0.5-0.3,1.1-0.4,1.6c-0.1,0.5-0.5,0.7-0.9,0.9c-3.3,2-6.8,3.5-10.3,5.1C326.2,507.4,324.6,508.4,323.5,509.9z"/>
	<path fill="#4E6E60" d="M277.6,433.9c0.2,0,0.4,0.1,0.6,0c1.8-0.9,3.4,0.2,5,0.6c3.9,1,7.8,1.2,11.8,0.9c1.4-0.1,2.9-0.5,4.3,0.3
		c0.9,0.6,2.1,0.3,3,0c2.5-0.8,5.1-0.8,7.7-1.1c2.5-0.3,5-0.8,7.4-1.5c0.8-0.3,1.7-0.4,2.6-0.6c1.1-0.3,2.2-0.6,2.9-1.7
		c0.3-0.5,0.7-0.6,1.2-0.1c0.7,0.7,1.5,0.8,2.4,0.7c1.3-0.1,2.5,0.5,3.7,0.6c2.7,0.3,5.3,0.7,8,0.6c0.8,0,1,0.1,0.8,1
		c-1.2,4.3-2.8,8.4-3.7,12.7c-0.5,2.1-0.8,4.4-1.7,6.3c-0.9,2-1,4-0.8,6c0.3,3,0.2,6.1,1.4,9c0.1,0.2,0.2,0.4,0,0.5
		c-2,1.2-2,3.4-2.5,5.2c-0.4,1.5-1.1,2.3-2.4,3.1c-3.7,2.3-7.8,3.7-12.1,4.3c-1.9,0.3-3.9,0.2-5.9,0.7c-2.5,0.6-4.9,1.6-7.5,1.8
		c-4.2,0.3-8.4,0.8-12.5-0.8c-3.1-1.2-6.4-1.5-9.6-2.4c-3.2-0.9-6.2-2.2-8.6-4.7c-0.2-0.2-0.5-0.6-0.7-0.6c-2.5-0.5-2-2.7-2.1-4.3
		c-0.2-3.7-0.1-7.5-0.1-11.3c0-0.7,0.3-1.3,0.6-1.9c0.5-1.1,0.5-2.2,0.1-3.4c-0.5-1.4-0.2-2.9-0.1-4.3c0.4-4.5,1-9,1.1-13.6
		c0-0.3-0.2-0.8,0.3-0.9c1.9-0.5,3.7-1.1,5.6-1.6C277.6,433.7,277.6,433.8,277.6,433.9z"/>
	<path fill="#DC806D" d="M349.4,336.4c0.7,0.6,1.4,1,2.3,0.5c0.7-0.4,0.8,0,1,0.5c1.2,3.7,2.2,7.4,2.8,11.2
		c1.1,7.6,0.3,15.1-1.1,22.6c-0.2,1.3-0.1,2.6-0.6,3.9c-2.7,6.5-5.5,12.8-10,18.3c-4.1,5-8.2,10-13.6,13.8c-3,2.1-6.1,4.2-9.8,5.2
		c-0.6,0.2-1.2,0.2-1.8,0.2c-0.5,0-1.1,0-1.5,0.3c-1.8,1.4-3.9,1.2-5.9,1.3c-10,0.6-20.1,0.5-30.1,0.3c-7-0.1-13.4-2.1-19-6.4
		c-0.6-0.5-1.2-1-1.6-1.6c-0.7-1-1.6-1.8-2.9-2.2c-1.3-0.4-2.2-1.7-3.2-2.7c-4.1-3.9-6.4-8.8-8.2-14c-1.9-5.5-2.9-11.2-3.8-17
		c-0.6-3.6-0.9-7.3-1.3-10.9c-0.1-0.5,0-1,0.1-1.5c1.5-4.1,2.1-8.4,1.9-12.8c0.4-0.1,0.8,0.1,1.2,0.2c1,0.1,1.8-0.2,2.3-1
		c0.5-0.8,0.5-1.7-0.2-2.3c-0.6-0.6-0.4-1.2-0.3-1.9c0.5-3.4,1.7-6.5,3.2-9.5c0.6-1.3,1.2-2.6,2.3-3.6c0.9-0.8,0.8-2.1-0.1-3.2
		c-0.9-1.1-2.2-1.9-3.4-2.6c-0.9-0.6-0.8-1-0.2-1.7c1.6-2,3.4-3.6,5.6-4.7c0.9-0.4,1.8-0.9,2.1-2c0.1-0.3,0.3-0.4,0.6-0.5
		c1.8-0.6,2.2-2.2,1-3.8c-2.6-3.5-2.9-7.5-2.3-11.6c0.2-1.6,1.4-2.6,2.7-3.5c0.5-0.4,1.1-0.8,1.1-1.5c0-0.9,0.5-1.2,1.2-1.6
		c2.7-1.5,5.2-3.4,8.3-4.1c0.8-0.2,1.6-0.4,2.4-0.6c1-0.3,1.8-1,1.9-2.1c0.1-1.2-0.5-2.1-1.5-2.5c-1.3-0.6-2.7-1.1-4.1-1.6
		c-0.7-0.3-1.5-0.6-2.2-1.1c1.5-0.7,2.9-1.4,4.2-2.4c0.6-0.5,0.9-0.4,1.3,0.2c1.4,2.4,3.4,4.2,5.6,5.8c3.2,2.2,6.7,2.7,10.4,2.4
		c3.2-0.3,6.4-1,9.5-1.7c1.5-0.4,3.1-0.2,4.7,0c3.5,0.3,6.8-0.2,10.2-0.9c0.4-0.1,0.7-0.1,1.1-0.2c0.3,0.6-0.2,1-0.6,1.3
		c-2.1,1.8-3.5,4.1-4.3,6.7c-0.2,0.7-0.5,1.4-1,1.9c-2.9,1.5-6,2.5-9.1,3.8c-2.4,1-4.7,2-7.1,3c-1.4,0.6-1.7,0.4-2-1.1
		c-0.5-1.9-0.9-3.9-1.3-5.9c-0.2-0.9-0.5-1-1.3-0.8c-5.6,1.7-11.1,3.2-16.7,4.9c-1.4,0.4-1.3,0.4-1.2,1.9c0.2,2.3,0.4,4.6,0.7,6.9
		c0.1,0.8-0.2,1.3-0.8,1.8c-1.7,1.7-3.5,3.2-5.4,4.7c-1,0.8-1.5,1.7-1.1,3c0.4,1.3,0.5,2.7,0.9,4.1c0.2,0.9-0.1,1.6-0.8,2.2
		c-1.8,1.4-3.6,2.8-5.5,4.1c-0.9,0.7-1.2,1.5-1.1,2.6c0.4,3.5,0.5,6.9,0.9,10.4c0.1,0.6-0.1,1.1-0.3,1.6c-2,5.8-4.1,11.6-6.2,17.4
		c-0.1,0.3-0.2,0.6-0.3,0.9c-0.9,1.7-0.6,3.3,0.1,5.1c1.4,3.6,2.6,7.4,3.8,11.1c2.9,8.4,5.7,16.7,8.5,25.1c0.4,1.2,1,1.9,2.1,2.4
		c7.3,3.6,14.5,7.1,21.8,10.6c1.6,0.8,3.1,0.3,4.6,0.1c5.4-0.5,10.9-1,16.3-1.6c2.7-0.3,5.3-0.5,8-0.8c1.1-0.1,2.2-0.4,3.2-0.9
		c5-2.4,10-4.8,15.1-7.1c1-0.5,1.8-1.2,2.4-2.1c4.4-6.7,8.9-13.4,13.3-20.1c0.4-0.6,0.7-1.3,0.8-2c1.8-9.2,3.5-18.5,5.3-27.7
		c0.2-0.8,0-1.4-0.8-1.8c-1.8-1-3.5-2-5.3-3c-0.9-0.5-1.4-1.2-1.3-2.2c0.2-1.4,0.2-2.9,0.2-4.3c0-0.5,0.1-1,0.5-1.3
		C347.6,336.4,348.6,336.7,349.4,336.4z"/>
	<path fill="#4E6F60" d="M256.3,439.6c1.3,2.8,2,5.8,2.3,8.8c0.5,5.2-1.3,9.9-3.1,14.6c-0.8,2.1-1.8,4.1-2.6,6.2
		c-0.8,2.3-1.7,4.5-2.7,6.6c-0.2,0.4-0.5,0.9-0.4,1.2c0.2,1.4-0.6,2.2-1.5,3c-1.9,2-3.9,3.9-5.5,6.2c-1.5,2-1.9,4.2-0.9,6.5
		c0.1,0.3,0.2,0.6,0.2,0.9c-0.6,5.8,0.8,11.3,1.6,16.9c0.6,3.9,1.2,7.9,1.6,11.8c0.2,2.1,0.4,4.2,1,6.2c0.4,1.3,0.8,2.4,2.5,2.5
		c0.6,0,0.8,0.7,0.4,1.2c-0.7,0.8-0.9,1.7-1.1,2.6c-1.5,6.2-4.2,12-6.3,17.9c-2,5.5-4.4,10.9-6,16.5c0,0.1-0.1,0.2-0.2,0.3
		c-1.5-0.9-2-2.7-3.4-3.7c-0.2-0.1-0.1-0.6-0.1-0.9c-0.1-2,0.1-3.9-0.2-5.9c-0.1-0.3-0.2-0.8,0.1-1c0.9-0.9,0.8-2.1,0.8-3.3
		c0.2-5.8,0.3-11.5,0.2-17.3c0-1.8,0-3.6-0.2-5.4c0.5-0.5,0.6-1.3,1-1.9c2.6-4.8,3.3-10.1,3.9-15.5c0.7-5.8,1.5-11.7,2.3-17.5
		c0.2-1.8,0.2-3.6,0.3-5.4c0.2-2.6,0.1-5.2,0.3-7.8c0.2-3.4-0.5-6.7-0.8-10c-0.2-2.4-0.6-4.8-0.8-7.2c-0.1-2.1,0.3-4.2,0.5-6.3
		c0.4-4,0.8-8,1.1-11.9c0.1-1.7,0.6-2.9,2.4-3.7c4.1-1.8,8.2-3.7,12.2-5.6C255.5,439.6,255.9,439.5,256.3,439.6z"/>
	<path fill="#F0A1C3" d="M284.6,256.7c1.4-0.8,2.1-2.2,3.1-3.4c1.4-1.6,2.7-3.3,4.2-5.1c0.6,1.6,0.6,3.1,0.9,4.6
		c0.5,3.3,1,6.7,1.5,10c0.1,0.9,0.5,1,1.2,0.6c2.6-1.5,5.3-2.9,7.9-4.3c0.6-0.4,0.8-0.2,1.1,0.3c1.1,2.2,2.4,4.3,3.5,6.6
		c0.4,0.8,0.8,0.7,1.4,0.4c3-1.4,5.9-2.7,8.9-4.1c1.7-0.8,3.4-1.7,5.2-2.4c1.9-0.7,2.7-2.4,3.7-3.9c1.2-1.9,2.5-3.8,3.7-5.7
		c0.5-0.8,0.7-0.5,0.9,0.1c1.1,2.6,2.2,5.2,3.5,8.1c1.7-5.1,3.4-9.8,5-14.6c0.3,0,0.3,0.2,0.3,0.3c0,3.6,0,7.2,0,10.8
		c0,0.5-0.2,0.9-0.3,1.4c-1.5-1.1-2.8-0.7-3.5,1c-0.3,0.9-0.4,1.8-0.7,2.6c-0.9,3.1-3.2,5.2-5.5,7.3c-6.7,6-14.6,9.1-23.4,10.5
		c-3.7,0.6-7.2,0-10.9-0.1c-0.5,0-1-0.3-1.4-0.5c-1.4-0.6-2.4-0.3-3.1,1.1c-0.1,0.3-0.2,0.5-0.5,0.6c-3,0.6-6.1,1.4-9.2,0.9
		c-3.2-0.5-5.5-2.5-7.3-5.1c-2.1-3-1.5-2.6,0.5-4.4c3.2-2.9,6.2-6.1,8.6-9.8C284.5,259.4,285.1,258.2,284.6,256.7z"/>
	<path fill="#F1A5C6" d="M367.4,261.6c-0.2-0.7-0.3-0.3-0.5,0c-1,1.5-2.1,2.9-3.1,4.4c-0.1,0.2-0.2,0.4-0.6,0.5
		c0.1-0.9,0.1-1.8,0.2-2.7c0.4-3.8,0.8-7.6,1.2-11.4c0.1-0.7-0.1-0.8-0.8-0.6c-1.5,0.5-3.1,0.9-4.6,1.4c-0.6,0.2-0.8,0.2-1-0.5
		c-0.3-1.1-0.2-2.3-0.3-3.4c-0.5-3.4-0.7-6.9-1-10.3c-0.1-1.1-0.7-1.9-1.2-2.9c-2-4.6-4.1-9.1-6.2-13.6c-0.2-0.5-0.6-0.8-1.1-0.9
		c-1.8-0.5-3.7-1-5.5-1.4c-0.7-0.2-1-0.1-1,0.7c0.3,4.2,0.2,8.5,0.3,12.7c0.1,1.8,0.1,3.7,0,5.6c-0.8-1.7-1.7-3.3-2.5-5
		c-1-2.2-2.2-4.4-3.2-6.6c-0.4-0.9-0.9-1.8-1.2-2.7c-0.8-2.5-3.1-3.6-4.9-5c-4.9-3.8-9.9-7.5-14.9-11.2c-0.2-0.1-0.3-0.4-0.5-0.5
		c3,0.7,5.7,2.1,8.4,3.5c2.2,1.1,4.4,2.3,6.2,4c0.3,0.3,0.7,0.5,1,0.6c0.7,0.3,1.4,0.4,2-0.2c0.6-0.6,0.7-1.3,0.4-2.1
		c-0.2-0.5-0.5-1.1-0.8-1.7c1.8,0.2,3.4,0.8,5,1.2c3.6,0.9,7.2,1.9,10.7,3.3c8.7,3.6,13.7,10.1,15.9,19c0.8,3.4,0.8,6.9,0.9,10.3
		c0,1.1,0.2,2.1,0.7,3c0.6,1.2,1.5,1.2,2.2,0.1c0.9-1.5,1.3-3.2,1.4-4.9c0.1-0.9,0.1-1.7,0.2-2.6c2.7,0.9,3.8,2.9,3.1,6
		c-0.4,1.7-1.1,3.3-1.8,4.9C369.3,255.4,368.2,258.4,367.4,261.6z"/>
	<path fill="#F09FC2" d="M340.8,260.8c2-1.2,4-2.5,6.1-3.7c0.1,0,0.1,0.1,0.2,0.1c-2.5,5.8-5,11.5-7.5,17.3c3-2.3,5.2-5.3,8.2-8
		c-0.3,7.6-0.6,15-0.9,22.3c0.1,0,0.1,0,0.2,0.1c1.8-6.9,3.6-13.8,5.5-21c1.7,2.7,3.2,5.3,4.6,7.9c-2.1-0.7-3.2-0.1-3.6,2.1
		c-0.5,3.1-1,6.1-1.4,9.2c-0.2,1.9,0,3.9,0.5,6c-1.8-0.6-3.2,0.2-4.6,1.2c-3.4,2.5-7.1,2.5-10.4,0.5c-6.3-3.8-9.3-9.7-9.8-17
		c-0.1-0.7,0.1-1.4-0.2-2.1c-0.3-0.6,0.3-0.7,0.5-0.9c2.5-1.7,5-3.6,7.2-5.7C337.8,266.7,339.8,264.1,340.8,260.8z"/>
	<path fill="#4E6E5F" d="M357.8,485c-1.2-3-2.8-5.8-4.3-8.6c-0.9-1.7-2.3-3.1-3.6-4.6c-1.4-1.7-2.6-3.6-3.7-5.5
		c-0.2-0.3-0.2-0.6-0.1-1c0.5-2.1,1-4.2,1.5-6.3c0.3-1.2,0.3-2.4-0.6-3.5c-0.6-0.8-1-1.7-1.5-2.6c-0.1-0.2-0.2-0.4-0.1-0.7
		c1-2.9,1-6.1,2.1-9.1c0.9-2.5,1.8-5,3.1-7.4c0.5,0,0.6,0.4,0.6,0.7c0.3,3.2,2.6,4.9,4.7,6.8c2,1.8,4,3.6,5.9,5.5
		c0.6,0.6,0.9,1.3,0.8,2.2c-1,9-2.1,18-3,27c-0.2,2.1-0.8,4.1-1.3,6.2C358.2,484.5,358.1,484.8,357.8,485z"/>
	<path fill="#DE8874" d="M305.7,291.3c1-2.1,1.5-4.4,3-6.3c0.7-0.8,1.3-1.7,2.2-2.3c0.4-0.3,0.6-0.6,0.7-1c3.9-1.1,7.7-2.3,11.4-4
		c0.6,7.2,3.6,13.2,8.6,18.1c4.4,4.3,9.8,5.5,15.7,4c0.4-0.1,0.7-0.3,1.1-0.4c0.3-0.1,0.6-0.4,1-0.3c0.9,3.3,1.5,6.7,1.9,10.1
		c0.5,4.5,0.2,8.9-0.7,13.3c-0.4,1.9-1.1,3.8-0.8,5.7c0.4,2.2-0.4,4.2-0.8,6.3c-0.2,0.8-0.1,1.4,0.3,2.1c-0.1,0.7-0.7,0.5-1.1,0.5
		c-0.5,0-1,0-1.5,0c-0.6-1-0.4-2-0.3-3c0.3-2,0.2-4,0.4-6c0.2-2.7,0.3-5.4,0.5-8.1c0.1-0.9-0.1-1.7-0.7-2.5
		c-0.5-0.6-0.9-1.2-1.4-1.8c-0.6-1.9-2-3.2-3.4-4.4c-0.9-1.6-1.8-3.2-3.3-4.3c-5-3.7-10.1-7.4-15.2-11.1c-1.3-1-2.1-2.1-2.3-3.7
		c-0.3-1.7-0.7-3.3-1.1-4.9c-0.2-0.9-0.5-1-1.3-0.7c-3.8,1.6-7.6,3.1-11.4,4.7C306.7,291.2,306.3,291.6,305.7,291.3z"/>
	<path fill="#74977C" d="M256.3,439.6c-3.8,1.8-7.6,3.5-11.4,5.3c-1.1,0.5-2.2,1-3.3,1.5c-1,0.4-0.6,1.4-0.7,2.1
		c-0.4,3.8-0.7,7.7-1,11.5c-0.2,2.1-0.4,4.1-0.7,6.2c-0.1,1.2,0.2,2.5,0.3,3.7c0.3,3.4,0.7,6.9,1.2,10.3c0.6,4.2-0.1,8.4-0.1,12.5
		c0,5.5-1,11-1.8,16.4c-0.7,4.6-1.2,9.1-1.7,13.7c-0.2,1.9-1.2,3.5-1.8,5.2c-0.5,1.5-1.2,2.9-1.8,4.3c-0.1,0.3-0.2,0.8-0.6,0.2
		c0-1.9-0.2-3.9,0-5.8c0.2-1.6,0.9-3.2,1.2-4.8c1.1-6.3,2.3-12.5,3.5-18.8c0.3-1.8,0.4-3.6,0.5-5.4c0-0.7,0.2-1.2,0.6-1.7
		c0.9-1,0.5-2.1,0-3.1c-1.6-3.2-2.9-6.5-3.8-9.9c-0.4-1.6-0.7-3.3-0.6-5c0.2-6.1-0.6-12.2-0.7-18.3c-0.1-2.7-0.3-5.5,0.3-8.3
		c0-0.2,0.1-0.3,0.1-0.5c-0.5-2.3,0.8-3.6,2.5-4.9c1.7-1.2,3.3-2.6,5.1-3.6c3.9-2.1,7.8-4.1,11.9-5.9c1.3-0.6,2.2-0.1,2.5,1.4
		C256.1,438.5,256.2,439,256.3,439.6z"/>
	<path fill="#4F7060" d="M359.7,541.4c0,3-0.4,5.9-0.3,8.9c0,0.4-0.1,0.9,0,1.3c1.1,2.3,0,4.5-0.4,6.7c-0.1,0.4-0.3,0.8-0.3,1.2
		c-0.2,2.1-1.3,3.4-3.4,3.9c-0.2-1.4,0.2-2.9,0.3-4.3c0.2-2.3,0.5-4.6,1.1-6.8c0.4-1.4-0.2-2.3-1.7-2.9c-0.5-0.2-0.6-0.5-0.7-0.9
		c-1.2-5.9-3.3-11.5-5.9-17c-0.5-1-0.6-1.8-0.2-2.9c0.9-2.4,1.4-4.9,1.8-7.5c0.2-1.5,1-2.8,1.6-4.2c1.4-3.6,2.3-7.4,3.9-10.9
		c0.4,0.4,0.4,0.9,0.4,1.3c-0.1,4.3-0.1,8.7-0.4,13c-0.1,2,0,3.8,1.2,5.5c0.7,1.1,1.2,2.3,1.9,3.5c0.4,0.7,0.4,1.3,0.2,2.1
		c-0.7,2.8-1.6,5.5-2.3,8.3c-0.3,1.2-0.2,1.3,1,1.5C358.2,541.1,359.1,540.8,359.7,541.4z"/>
	<path fill="#73967B" d="M357.8,485c0.3-2.2,1.1-4.2,1.3-6.4c0.3-2.5,0.6-5,0.9-7.6c0.3-2.5,0.6-5,0.9-7.6c0.3-2.4,0.5-4.9,0.8-7.3
		c0.2-1.8,0.4-3.6,0.6-5.4c0.1-0.5,0.1-0.9-0.3-1.2c-2-1.9-3.9-3.9-6-5.7c-1.4-1.2-2.5-2.6-3.9-3.7c-0.5-0.4-0.5-1.2-0.7-1.9
		c-0.3-0.8-0.3-1.7-0.7-2.5c0.3-1,0.5-1.5,1.8-0.8c1.5,0.8,3.2,1.2,4.9,1.6c2.8,0.6,4.8,2.2,6.3,4.6c0.7,1.2,1.6,2,3,2.6
		c1.3,0.5,1.7,2.1,1.7,3.5c0,1.5-0.7,3-0.1,4.5c0,0.1,0,0.2-0.1,0.3c-2.9,7-4.4,14.4-6.5,21.6c-1.2,4.1-2.4,8.3-3.3,12.5
		C357.9,485.7,357.8,485.4,357.8,485z"/>
	<path fill="#7495B3" d="M338.8,500.8c0.1-1.9,0.9-3.6,1.4-5.4c1.1-3.8,2.3-7.5,3-11.4c0.1-0.4,0.1-0.8,0.1-1.2
		c0.1-0.8,0.2-1.5,1-1.9c1.8-0.5,5.8,1.4,6.5,3.1c0.3,0.7,0.6,1.4,1,2.1c0.7,1.5,1.4,3.1,2.2,4.6c0.3,0.5,0.2,1,0.4,1.5
		c0,0.8,0.2,1.6-0.2,2.4c-2.8,2-5.7,4.1-8.5,6.1c-0.4,0.3-0.7,0.6-1.2,0.3c-0.3-0.1-0.4-0.3-0.6-0.5c-0.9-0.9-1.7-1-2.9-0.5
		C340.4,500.3,339.7,501,338.8,500.8z"/>
	<path fill="#456987" d="M354.4,492.2c-1.3-2.8-2.7-5.6-4-8.4c-0.4-0.8-0.8-1.3-1.7-1.5c-1.5-0.4-2.9-1.1-4.4-1.3
		c-0.6-0.2-1.2-0.6-1.8-0.6c-1.4-0.2-1.7-1.2-1.8-2.3c-0.4-4.8-0.9-9.5-1.3-14.3c-0.2-3.5-0.6-7-0.7-10.4c0-0.4-0.1-0.8-0.4-1.1
		c1.5-6.3,3.3-12.4,5.4-18.6c0.1-0.4,0.2-0.9,0.2-1.4c0-0.4,0.1-0.7,0.5-0.8c0.6-0.1,1.2-1,1.7-0.6c0.6,0.3-0.1,1.1-0.1,1.6
		c0.3,2.9-1.6,5.2-2.3,7.8c-1,3.5-2.3,6.9-2.2,10.6c0,0.2,0,0.5-0.1,0.7c-0.7,1.2-0.6,2.4,0.1,3.4c1.8,2.4,1.4,4.9,0.6,7.5
		c-0.6,1.9-1,3.9-0.9,6c0.1,1.8,0.7,2.6,2.4,2.8c0.5,0.1,0.7,0.3,1,0.6c1,1.2,1.9,2.4,2.9,3.7c0.9,1.1,1.7,2.3,2.1,3.7
		c0.5,1.6,1.7,2.8,2.5,4.2c1,1.7,1.7,3.5,2.3,5.4C354.8,489.8,354.7,491,354.4,492.2z"/>
	<path fill="#E51385" d="M246.6,314.1c-0.4,0.4-0.7,0.7-1.1,1.1c-1,0.6-1.9,1.4-2.8,2.1c-0.8,0.5,0,1.1-0.1,1.6
		c-1.7,0.9-3.1,2-4.7,3.7c0-1.9,0-3.4,0-5c0.1-5.4,0.7-10.7,1.9-16c0.5-2,1.5-3.7,3.2-4.9c2.1-1.5,4.4-2.8,6.8-3.7
		c0.6,1.2,0.5,2.1-0.4,2.9c-1.4,1.3-2.7,2.6-4.1,3.8c-1.1,1-1,1,0.3,1.5c0.9,0.3,1.9,0.6,2.8,1c1.2,0.4,1.3,0.7,0.4,1.7
		c-2.1,2.4-4.3,4.8-6.5,7.2c-0.1,0.1-0.1,0.2-0.2,0.4c0.5,0.4,1.1,0.3,1.8,0.4c0.7,0,1.4,0,2.1,0.2c1.1,0.3,1.3,0.5,0.8,1.6
		C246.7,313.8,246.5,313.9,246.6,314.1z"/>
	<path fill="#7293B2" d="M255.1,538c1.6,1.6,2.9,3.6,4.3,5.3c0.4,0.5,1.1,0.9,1,1.7c0.2,1.5,1.1,2.5,2.1,3.6c1,1,1.5,2.4,2,3.6
		c0.6,1.5,1.3,2.9,2,4.3c0.8,1.2,0.5,2-0.6,2.9c-2.5,2.1-4.9,4.3-7.4,6.6c-0.5-1.5-0.4-3.1-0.6-4.6c-0.4-3.7-0.8-7.3-1.2-11
		c-0.1-0.8-0.4-1.2-1-1.6c-0.4-0.3-0.9-0.5-0.9-1.1c1.1-0.7,1.4-1.8,1.2-2.9c-0.2-1.9-0.6-3.7-0.9-5.5
		C255.1,538.8,255.1,538.4,255.1,538z"/>
	<path fill="#729579" d="M359.7,541.4c-1.1,0-2.2,0-3.3-0.2c-0.8-0.1-0.7-0.4-0.5-0.9c0.9-3.1,1.7-6.2,2.7-9.3
		c0.2-0.6,0.1-1.1-0.2-1.7c-0.8-1.3-1.4-2.8-2.3-4.1c-1.1-1.7-1-3.6-0.8-5.4c0-0.6,0.2-1.3,0.2-1.9c-0.2-4,0.4-8,0.2-12.1
		c0.7-1.9,1.3-3.8,2-5.7c0.3,1.9,0.3,3.8,0.4,5.7c0.2,4.9,1,9.7,1.8,14.4c0.4,2.6,0.6,5.2,1.1,7.8c0.3,1.5,0.2,3-0.1,4.5
		c-0.5,2.5-0.7,5-0.9,7.5C359.9,540.4,360,540.9,359.7,541.4z"/>
	<path fill="#E51888" d="M249.5,288.2c-2.1,0.7-4.1,1.6-6.2,2.8c0.2-1,0.6-1.6,1-2.3c2.1-4.1,4.7-7.9,7.7-11.4
		c1.2-1.4,1.2-1.5,3.5-0.2c1.1,0.6,2.1,1.3,3.3,1.6c0.7,0.2,0.5,0.7,0.5,1.1c-0.6,0.7-1.6,0.3-2.4,0.7c0.3,1,1,1.9,1.6,2.9
		c1,1.7,0.9,1.9-0.9,2.3c-2.2,0.4-4.3,0.9-6.5,1.3C250.1,287.1,249.7,287.4,249.5,288.2z"/>
	<path fill="#456988" d="M285.9,419c0.2-0.3,0.6-0.2,0.9-0.2c3.8,0,7.7,0,11.5-0.1c0.7,0,1,0,0.8,1c-0.7,3.4-1.9,6.8-2.2,10.3
		c0,0.5-0.2,0.7-0.8,0.8c-4.6,0.5-9.2,0.4-13.6-1.3c-0.8-0.3-1-0.6-0.6-1.4c0.4-0.7,0.7-1.5,1.1-2.2c2.7,0.1,5.4,0.5,8.1,0.7
		c1,0.1,1.4-0.2,1.7-1.1c0.5-1.6,1-3.2,1.6-4.8c0.4-1.3,0.4-1.4-1.1-1.4c-2,0-4.1,0-6.1,0C286.8,419.3,286.3,419.4,285.9,419z"/>
	<path fill="#F2ACCA" d="M246.6,314.1c0-0.1-0.1-0.1-0.1-0.2c0.3-1.6,0.3-1.6-1.4-1.7c-1.2-0.1-2.4,0-3.8-0.4c2.7-3,5.3-5.9,8-9
		c-1.6-0.5-3.1-1.1-4.6-1.5c-0.9-0.3-1.2-0.5-0.3-1.2c1.3-1.1,2.5-2.5,3.9-3.5c1.2-0.9,1.7-2,1.4-3.5c0.6-0.2,1.3-0.5,1.9-0.3
		c-2.4,5.7-1.5,11.2,0.5,16.7c0.2,0.6,0.3,0.8-0.4,1.1C249.8,311.4,248.1,312.7,246.6,314.1z"/>
	<path fill="#7192B1" d="M285.9,419c2.8,0,5.7,0,8.5,0c1,0,1,0.3,0.8,1.1c-0.7,2.1-1.4,4.3-2.1,6.5c-0.1,0.5-0.4,0.7-0.9,0.6
		c-2.8-0.3-5.7-0.6-8.5-1c-0.2,0-0.3-0.2-0.5-0.3C284,423.6,285,421.3,285.9,419z"/>
	<path fill="#6D8FAF" d="M307.6,418.5c3.3-0.4,6.6-0.2,9.9-0.8c0.2,0,0.6-0.3,0.7,0.1c0.3,1.7,1.6,2.8,2.2,4.3
		c0.1,0.2,0.1,0.4,0.2,0.6c-1.3,1-2.9,1.3-4.3,2.1c-2.3,1.4-4.3,1.5-6.4-0.4c-0.2-0.2-0.5-0.3-0.8-0.5
		C307.3,422.7,306.7,420.7,307.6,418.5z"/>
	<path fill="#F0A1C3" d="M370.6,300.5c0-0.1,0-0.3,0-0.4c-1.2-2.8-0.1-5.4,0.7-8c0.5-1.8,1.1-3.5,1.5-5.3c0.3-1.2,0.8-2,2-2.5
		c0.8-0.3,1.7-0.6,2.3-1.4c0.8-0.3,1.8-0.2,2.7-0.7c-0.5,1.1-1,2.2-1.4,3.3c-1.3,2.9-3,5.6-3.9,8.7c-0.1,0.5-0.4,0.9-0.4,1.4
		C374.2,298.1,372.4,299.3,370.6,300.5z"/>
	<path fill="#456987" d="M307.6,418.5c0,0.5,0.1,1.1,0,1.6c-0.5,2.1,0.7,3.2,2.4,4.1c0.1,0.1,0.3,0.1,0.4,0.2
		c1.7,1.9,3.6,1.3,5.5,0.3c1.5-0.7,3-1.5,4.6-1.9c0.1,0.1,0.2,0.2,0.2,0.3c1.1,2.9,1.1,2.9-1.8,4c-2,0.8-4,1.6-6.2,1.5
		c-0.8,0-1.4,0.8-2.3,0.7c-0.3,0-0.6,0.1-0.9-0.2c-2.6-3-4.5-6.4-5.2-10.5C305.5,418.5,306.6,418.5,307.6,418.5z"/>
	<path fill="#E51687" d="M243.7,331.9c-0.6,1.5-1.1,3-1.5,4.8c-1-1.4-1.7-2.7-2.2-4.2c-0.1-0.2-0.1-0.5-0.2-0.7
		c-1.9-2.1-0.6-3.7,0.8-5.4c0.3-0.3,0.5-0.6,0.8-0.9c2.1-2.1,2.5-2.1,4.7,0c0,0.6-0.6,0.8-1,1.1c-0.5,0.4-1.1,0.8-1.7,1.1
		c-0.7,0.4-0.8,0.9-0.5,1.6C243.2,330.2,243.6,331,243.7,331.9z"/>
	<path fill="#F1A6C6" d="M249.5,288.2c-0.5-0.9-0.1-1.3,0.8-1.4c2.5-0.5,5.1-1,7.6-1.5c0.8-0.1,0.9-0.3,0.5-1
		c-0.8-1.2-1.5-2.5-2.3-3.8c1-0.5,2.1-0.4,3-0.6c0.9,1.7,2.8,2.2,4.3,3.3c-2.8,1.6-5.4,3.2-7.9,5c-0.2,0.1-0.4,0.3-0.6,0.2
		C253.1,287.7,251.3,288,249.5,288.2z"/>
	<path fill="#F2B0CC" d="M243.7,331.9c-0.7-1-0.9-2.1-1.4-3.1c-0.2-0.5,0-0.7,0.4-0.9c1.1-0.8,2.2-1.5,3.3-2.3
		c0.3,0.1,0.6,0.3,0.9,0.6C245.3,327.8,244.7,330,243.7,331.9z"/>
	<path fill="#F1A4C5" d="M251.7,267.5c0.8,0.4,1.1,1.1,1.3,1.8c0.2,0.7,0.6,1.4,0.9,2c-1.1,0.1-2.2,0.1-3.2,0.7
		c-0.8,0.4-0.9-0.3-0.9-0.9C249.9,269.7,250.4,268.4,251.7,267.5z"/>
	<path fill="#446786" d="M302.2,426.3c0.9,1.5,1.7,2.8,2.5,4.1c-1,0.8-1.9,0-2.8-0.2c-0.4-0.1-0.2-0.5-0.2-0.7
		C301.6,428.5,301.9,427.5,302.2,426.3z"/>
	<path fill="#F0AAC8" d="M242.5,318.9c-0.9-0.8-1-1.4,0.2-2c0.8-0.4,1.6-0.9,2.1-1.7c0.2-0.3,0.4,0,0.6,0.1
		C244.4,316.4,243.7,317.8,242.5,318.9z"/>
	<path fill="#E4E4E4" d="M356.2,310.9c1.4,0.9,0.2,1.9,0.1,2.8C356.3,312.8,356.3,311.9,356.2,310.9z"/>
	<path fill="#6E8FAF" d="M283.4,565.1c-1.5,0.7-3,1.4-4.7,2.2c0.1-0.5,0.2-0.9,0.3-1.3c-0.1-0.6,0.3-1,0.6-1.3
		c1.8-1.9,3.8-3.6,5.7-5.3c2.6-2.4,5.4-4.6,8.2-6.8c0.8-0.6,1.3-1.4,1.2-2.5c-0.1-0.5,0.3-0.9,0.7-1.1c1.6-1,3.2-2,4.8-2.9
		c2.7-1.4,5.5-1.9,8.5-0.9c4.1,1.4,8.3,0.8,12.5,0.9c0.8,0,1.4-0.7,2.2-0.4c2.1-0.1,3.4,1.5,5,2.4c0.5,0.3,0.1,0.5-0.2,0.7
		c-0.9,0.5-1.9,1.1-2.8,1.6c-3.7,2-7.3,4-11,6c-0.7,0.4-0.8,0.6-0.2,1.2c0.7,0.6,1.3,1.2,1.8,2.1c-1.4,0-2.8,0-4.2,0
		c-0.6,0-0.5-0.5-0.8-0.7c-1.7-1.4-3.6-1.6-5.7-1.6c-5.5-0.1-10.8,0.9-15.8,3.1c-0.9,0.4-1.9,0.9-2.9,1.1
		C284.7,562,283.3,562.8,283.4,565.1z"/>
	<path d="M323.4,545.6c-1.3,0.7-2.6,0.8-4,0.8c-4.1,0-8.2,0.1-12.2-1.3c-2-0.7-4.2-0.1-6.2,0.9c-2,0.9-3.8,2.2-5.7,3.3
		c-0.3,0.2-0.5,0.4-0.4,0.8c0.3,0.9-0.1,1.6-0.8,2.2c-2.9,2.6-6,4.8-8.8,7.4c-2.2,2.1-4.6,3.9-6.4,6.3c-0.8,0.6-1.2,1.5-2,2.2
		c-1,1-2,1.2-2.9,0.6c-0.9-0.6-1.2-1.8-0.6-3c0.6-1.3,1.5-2.5,2.5-3.6c4.3-4.4,8.7-8.7,13.8-12.2c0.5-0.4,0.9-0.7,0.8-1.5
		c-0.1-0.7,0.3-1.4,0.9-1.9c4.5-3.8,9.3-6.7,15.5-6.3c1.8,0.1,3.4,1,5.2,1.3c2.7,0.4,5.4,0.3,8.1,0.1c1.5-0.1,2-1.9,3-2.9
		c0.1-0.1,0.2-0.3,0.3-0.5c0.8-1.4,2-1.9,3.2-1.3c1.2,0.6,1.6,2.3,0.9,3.6C326.6,542.5,325.3,544.3,323.4,545.6z"/>
	<path d="M256,494.3c1.7,0.2,2.6,1.5,3.6,2.8c4.6,6.2,10.9,9.6,18.3,11.4c1.5,0.4,2.9,0.8,4.4,1.2c0.8,0.2,1.6,0.6,2.2,1.2
		c0.4,1.5-0.1,2.1-1.7,2.2c-4.7,0.2-9.2-0.8-13.5-2.6c-5.3-2.1-9.3-5.7-12.7-10.1c-0.9-1.2-1.2-2.7-2.1-4
		C253.7,495.5,254.5,494.6,256,494.3z"/>
	<path d="M283.4,565.1c-0.5-1.6-0.2-2.7,1.2-3.2c4.2-1.5,8.2-3.5,12.6-4.3c3.7-0.6,7.5-1,11.3-0.4c1,0.2,2,0.6,2.5,1.6
		c0.1,1-0.4,1.6-1.2,2c-1.1,0.5-2.2,0.7-3.4,0.7c-3.7,0-7.3,0.2-10.9,1.2c-2.3,0.7-4.5,1.6-6.7,2.4c-0.8,0.3-1.7,0.5-2.5,0.7
		C285.2,566.2,284.2,565.9,283.4,565.1z"/>
	<path d="M338.8,500.8c0.7-0.3,1.4-0.7,2.1-1c1.7-0.8,2.8-0.4,3.6,1.3c0.2,1.4-0.4,2.3-1.6,2.9c-4.6,2.5-9.2,5-14.1,6.9
		c-1,0.4-2,0.9-3.1,0.9c-1.4,0.1-2.1-0.5-2.4-1.9c0.4-1.3,1.4-2,2.5-2.6c1.7-0.9,3.4-1.7,5.2-2.4
		C333.8,503.7,336.4,502.3,338.8,500.8z"/>
	<path d="M266.6,556.5c-0.8-0.7-1.3-1.7-1.7-2.7c-0.9-2.3-1.8-4.6-3.8-6.3c-0.8-0.7-0.9-1.6-0.7-2.5c1-1.4,2.1-1.7,3.6-0.8
		c1.3,0.8,2.2,1.9,3,3.2c1.4,2.3,2.5,4.6,2.5,7.4C269.5,557,268.5,557.6,266.6,556.5z"/>
	<path fill="#6D8FAF" d="M287.8,538c-2.6,1.1-5.1,2.2-7.7,3.2c-2.2,0.9-4.5,1.9-6.7,2.8c-0.5,0.2-0.9,0.5-1.5,0.2
		c-2.9-1.7-5.9-3.4-8.8-5c0-0.1,0.1-0.2,0.1-0.3c2.1,0.5,4.2,0.8,6.1,1.4c2.8,0.9,5.3,0,7.9-0.5c3.2-0.6,6.4-1.4,9.6-2
		c0.3-0.1,0.6,0,0.8,0C287.7,537.9,287.7,537.9,287.8,538z"/>
	<path d="M335,557.4c0.6,2-0.4,3.3-2.4,3.4c-0.9,0-1.8,0-2.8,0c-1.4-0.1-2.5-1-2.5-2.3c0-1.3,1-2.2,2.4-2.3c0.6,0,1.3,0,1.9-0.1
		C333.5,555.8,334.4,556.1,335,557.4z"/>
	<path fill="#6F91B0" d="M335.8,531.5c-2.5,1.2-4.9,2.4-7.4,3.5c-0.9,0.4-2,0.3-2.9,0.3c-2.6-0.1-5.2,0.4-7.8,0.3
		c-1,0-2,0.4-3.1,0.1C321.8,534.8,328.7,533,335.8,531.5z"/>
	<path fill="#7293B2" d="M335,557.4c-0.8-1.1-2.1-1.2-3.3-1.3c2.4-1.1,4.9-2.2,7.3-3.3c0.5-0.2,0.6-0.1,0.6,0.4
		c-0.1,1.3-0.2,2.7-0.3,4c0,0.6-0.5,0.5-0.9,0.4C337.3,557.7,336.1,557.6,335,557.4z"/>
	<path fill="#7F9F86" d="M276.3,439.1c-0.3-1.4,0-1.5,1-1.2c6.5,2,12.9,4,19.4,6c0.6,0.2,1.2,0.4,1.8,0.5c0.7,0.2,0.8,0.4,0.2,0.9
		c-1.4,1.2-2.8,2.4-4.2,3.7c-0.3,0.3-0.7,0.5-1,0.9c-1.5,1.9-3.4,2.2-5.7,1.7c-2.4-0.5-4.8-0.6-7.2-0.9c-0.4,0-0.8-0.1-1.2-0.2
		c-2.5-0.5-2.5-0.5-2.7-3C276.5,444.5,276.4,441.6,276.3,439.1z"/>
	<path d="M308.4,456.3c-0.3,4.7-0.8,9.4-2.4,13.8c-0.4,1.1-0.9,2-1.7,2.8c-0.9,0.8-1.7,0.7-2-0.5c-0.4-1.2-0.5-2.4-0.2-3.6
		c0.8-4.6,1.6-9.2,2.2-13.8c0-0.2,0.1-0.4,0.1-0.6c-1.4-4.8-1.6-9.9-3.3-14.6c0-0.1-0.1-0.2-0.1-0.3c-0.4-1.7,0.2-3.1,1.5-3.4
		c1.3-0.4,2.4,0.5,2.9,2.3c1.4,4.7,2.5,9.4,2.9,14.4C308.3,453.9,308.5,455,308.4,456.3z"/>
	<path fill="#74977C" d="M335.4,437.1c-1.1,2.2-2.2,4.3-3.2,6.4c-0.3,0.5-0.7,1-0.8,1.6c-0.6,1.7-1.6,2.6-3.5,2.7
		c-3,0.2-6,0.7-9,1.2c-0.4,0.1-0.7-0.1-0.9-0.4c-0.9-1.7-1.9-3.3-2.8-5c-0.3-0.5-0.1-0.7,0.4-0.8c5-2,10.1-3.9,15.1-5.9
		c1.1-0.5,2.2,0,3.3,0.1C334.4,436.8,334.8,437,335.4,437.1z"/>
	<path d="M275.8,457.1c-0.8,0-1.7,0.1-2.5-0.3c-0.9-0.4-1.5-0.9-1.5-2c0-1.1,0.5-1.9,1.5-2c2.6-0.4,5.2-0.7,7.8-0.5
		c1.1,0.1,2,1.2,1.9,2.1c0,1-0.9,1.9-2,2.1C279.4,456.8,277.7,457.2,275.8,457.1z"/>
	<path fill="#74987C" d="M296.2,478.7c-1.2-2.7-2.4-5.5-3.5-8.2c-0.3-0.7-0.7-1-1.5-1.2c-3.2-0.8-6.3-1.6-9.4-2.5c1-0.1,2-0.3,3-0.3
		c3.1-0.1,6.3-0.2,9.4-0.5c0.6-0.1,1,0,1.1,0.9c0.3,3.4,0.6,6.8,0.9,10.2c0.1,0.5,0.1,1.1,0.2,1.6
		C296.3,478.7,296.2,478.7,296.2,478.7z"/>
	<path d="M320.3,456.2c-1.7,0-2.6-0.6-2.8-1.6c-0.3-1.1,0.3-2.3,1.5-2.7c2.1-0.7,4.2-1.1,6.4-1.1c1.1,0,1.8,0.7,1.9,1.8
		c0.2,1.2-0.3,2.2-1.5,2.5C323.9,455.6,321.9,455.9,320.3,456.2z"/>
	<path fill="#72967A" d="M324.2,465.5c-1.7,0.5-3.4,1.2-5.1,1.6c-2,0.4-3.2,1.6-4.2,3.2c-1.3,2.2-3,4.1-4.6,6.1
		c-0.2,0.2-0.3,0.5-0.7,0.5c0.1-1.5,0.2-2.9,0.4-4.4c0.1-0.8,0.4-1.6,1-2.2c1.4-1.3,2.8-2.7,4.1-4.2c0.8-0.9,1.7-1.3,2.8-1.1
		C320.1,465.4,322.1,465.2,324.2,465.5z"/>
	<path fill="#FAC49C" d="M305.7,291.3c4.2-1.7,8.3-3.4,12.5-5c1.6-0.7,1.7-0.7,2.1,1.1c0.4,1.9,0.9,3.8,1.2,5.7
		c0.2,0.9,0.6,1.4,1.3,1.9c5.4,3.9,10.8,7.9,16.2,11.8c1.4,1,2.1,2.6,3.1,3.9c0.1,0.1,0,0.3-0.2,0.4c-0.5,0.1-0.9-0.1-1.3-0.4
		c-3.4-1.9-7.1-1.6-10.8-1.3c-0.2,0-0.5,0.1-0.7,0.2c-0.8,0.3-1.4,0.8-1.4,1.7c0,0.9,0.6,1.5,1.4,1.7c0.7,0.2,1.5,0.3,2.2,0.3
		c1.4,0,2.7,0,4.1,0c2.4-0.1,4.2,1,5.7,2.7c0.3,0.3,0.6,0.7,0.9,0.9c0.9,0.6,2,0.4,2.5-0.6c0.2-0.4,0.2-0.9,0.7-1.2
		c0.7,0.9,1.4,1.8,2.1,2.7c0.5,0.6,0.4,1.4,0.2,2.1c-0.4,1.8-0.2,3.6-0.4,5.4c-0.3,3.9-0.4,7.8-0.6,11.7c-0.4,2-0.2,4.1-0.5,6.1
		c-0.1,0.7,0.4,1,0.9,1.2c2,1.1,4,2.2,6,3.3c0.5,0.3,0.8,0.6,0.6,1.3c-1.6,8-3.1,15.9-4.6,23.9c-0.3,1.5-0.5,3-0.8,4.5
		c-0.3,1.8-1.6,3.2-2.6,4.7c-3.8,5.9-7.8,11.8-11.6,17.7c-1,1.5-2.5,2-3.9,2.7c-4.1,2-8.2,3.8-12.2,5.8c-2.3,1.2-4.7,1.6-7.2,1.8
		c-4.8,0.4-9.6,0.9-14.4,1.4c-2.7,0.3-5.4,0.3-8.1,0.8c-2.6,0.5-4.7-0.5-6.8-1.5c-6.6-3.3-13.2-6.5-19.8-9.7
		c-0.7-0.4-1.2-0.8-1.4-1.6c-4-11.9-8-23.9-12.2-35.8c-1-2.8-1-5.1,0.1-7.8c2-5,3.5-10.2,5.5-15.2c0.9-2.3,0.7-4.6,0.5-6.9
		c-0.2-2.6-0.4-5.2-0.6-7.7c-0.1-0.7,0.3-1.1,0.8-1.5c2-1.5,4-3,6-4.5c0.6-0.4,0.8-0.8,0.6-1.6c-0.4-1.7-0.6-3.5-1.1-5.3
		c-0.2-0.7,0-1.1,0.5-1.6c1.6-1.4,3-2.9,4.7-4.1c2-1.3,2.5-2.9,2.1-5.1c-0.3-1.9-0.5-3.8-0.7-5.7c-0.1-0.6,0.2-0.9,0.8-1.1
		c5.9-1.7,11.8-3.5,17.8-5.2c0.9-0.3,1.2-0.1,1.4,0.9c0.4,2.2,0.9,4.4,1.4,6.6c0.1,0.7,0.4,0.8,1.1,0.5
		C294.6,295.9,300.2,293.6,305.7,291.3z"/>
	<path d="M345.3,315c-0.1,0.3-0.2,0.5-0.2,0.8c-0.1,1-0.7,1.5-1.6,1.7c-0.9,0.2-1.7-0.1-2.2-0.8c-1.7-2.5-4.1-3.3-7-3.2
		c-1.6,0.1-3.2,0.1-4.8-0.1c-1.4-0.2-2.2-1-2.2-2.2c0-1.2,0.8-2.1,2.2-2.2c4.3-0.3,8.6-0.6,12.4,2C343.4,312,344.9,313.1,345.3,315z
		"/>
	<path d="M306.3,393c-3-0.2-5.6-1.4-7.5-4.1c-1.5-2.1-2.8-4.2-4-6.5c-0.2-0.4-0.4-0.8-1-0.9c-1.2-0.2-1.8-1-1.9-2.1
		c-0.1-1.2,0.6-2.2,1.7-2.6c2-0.8,4.1-1.3,6.2-1.8c2.5-0.6,4.8-1.8,7.3-2.2c5.6-1,10.9-0.2,15.7,2.9c0.6,0.4,1.4,0.7,1.9,1.2
		c1,1,0.9,2.1,0.3,3.3c-1.1,2.2-2.7,3.9-4.4,5.5c-3.3,3-6.8,5.8-11.3,6.9c-0.5,0.1-1.1,0.3-1.6,0.3C307.3,393,306.9,393,306.3,393z"
		/>
	<path d="M272.4,324.7c2-0.4,3.9,0.4,5.7,1c0.3,0.1,0.7,0.2,0.8,0.5c0.8,1.2,2.1,1.8,3.1,2.8c2.3,2.1,2.7,4.4,1.2,7.4
		c-1.2,2.5-2.8,4.7-4.6,6.8c-2.6,3-7.2,2.4-9.7-0.6c-2.8-3.5-3.8-7.3-3.7-11.7c0.1-2.3,1.2-4,2.9-5.4
		C269.4,324.4,271,324.8,272.4,324.7z"/>
	<path d="M330.5,340.7c-1.9,0.2-4-0.3-5.9-1.6c-1.6-1.1-2.7-2.5-2.9-4.4c-0.4-3-0.3-5.9,1-8.7c0.5-1.1,1.2-2,2.2-2.7
		c1.4-1,3.1-0.9,4.2,0.3c0.4,0.4,0.7,0.4,1.1,0.4c1.7,0,3.4-0.1,5.2,0c2.1,0.1,3.8,0.9,4.7,3c0.2,0.5,0.7,0.8,1.1,1.2
		c1.3,1.4,1.7,3.1,0.9,4.8C340.4,337.3,335.3,340.7,330.5,340.7z"/>
	<path fill="#D97D69" d="M311.5,360.9c-0.6-1-0.1-2.1-0.2-3.2c-0.1-0.6,0-1.2-0.2-1.8c-1,3.8-2.1,7.6-3.2,11.7
		c-1.5-2.3-2.9-4.3-4.3-6.4c-0.8-1.2-2.3-2.4-2.2-3.7c0.1-1.2,1.4-2.4,2.2-3.6c1.4-2.2,2.8-4.3,4.2-6.5c0.4-0.6,0.7-0.8,1.3-0.3
		c0.6,0.5,1.2,1,2,1.5c0.4-1.1-0.2-2.2,0.4-3.1c0.5,0.4,0.4,1,0.4,1.6c0,4.1,0,8.1,0,12.2C311.9,359.8,311.9,360.4,311.5,360.9z"/>
	<path d="M283.3,306.9c0.3,0.1,0.7,0.1,1.1,0.2c0.9,0.3,1.6,0.8,1.7,1.8c0.1,1-0.5,1.6-1.3,2.1c-1,0.6-2.1,0.6-3.2,0.8
		c-4,0.7-7.9,2.3-11.8,3.3c-0.8,0.2-1.7,0.5-2.6,0.5c-1.2,0-2.1-0.8-2.3-1.9c-0.2-1.1,0.5-2.2,1.6-2.5c5.3-1.1,10.3-3.4,15.8-4.2
		C282.6,307,282.9,306.9,283.3,306.9z"/>
	<path d="M311.5,360.9c0-5.1,0-10.2,0-15.3c0.7-1.4,1.5-1.9,2.7-1.7c1.2,0.3,1.9,1.3,1.8,2.7c-0.2,4.4-0.1,8.7-0.1,13.1
		c0,1.3-0.7,2.3-1.7,2.6C312.9,362.5,312,361.9,311.5,360.9z"/>
	<path fill="#DA7D6A" d="M292.1,403.4c5.6-1.2,11.3-2.2,16.9-3.7c3.2-0.9,5.6-0.4,8.1,1.5c1.1,0.8,2.3,1.5,3.3,2.3
		c-2.3-0.3-4.5-0.8-6.8-0.9c-2.7-0.1-5.4,0.2-8.1,0.3c-0.1,0-0.2,0.1-0.4,0.1c-4.3,0.2-8.7,0.3-13,0.5
		C292.1,403.5,292.1,403.5,292.1,403.4z"/>
	<path fill="#E50114" d="M298.8,379.8c3.5-0.4,6.4-2.1,9.7-2.7c3.8-0.7,7.4-0.1,10.9,1.4c0.7,0.3,0.9,0.7,0.5,1.5
		c-1.1,1.9-2.8,3.2-4.4,4.6c-2,1.8-4.3,3.2-6.9,4c-2.9,0.9-4.9,0.1-6.6-2.4C300.8,384.2,299.7,382.2,298.8,379.8z"/>
</g>
</svg>
