<?xml version="1.0" encoding="utf-8"?>
<!-- Generator: Adobe Illustrator 18.1.1, SVG Export Plug-In . SVG Version: 6.00 Build 0)  -->
<svg version="1.1" id="Layer_1" xmlns="http://www.w3.org/2000/svg" xmlns:xlink="http://www.w3.org/1999/xlink" x="0px" y="0px"
	 viewBox="0 0 158.2 388.4" enable-background="new 0 0 158.2 388.4" xml:space="preserve">
<g>
	<path fill="#FEFEFE" d="M82.6,0c24.9,0,49.8,0,74.6,0c0.8,0,1,0.2,1,1c0,128.8,0,257.6,0,386.4c0,0.8-0.2,1-1,1
		c-52.1,0-104.2,0-156.2,0c-0.8,0-1-0.2-1-1C0,258.6,0,129.8,0,1c0-0.8,0.2-1,1-1c25,0,50.1,0,75.1,0c0.1,0.1,0.1,0.2-0.1,0.3
		c-1.3,0.5-2.6,0.2-3.9,0.4c-5.4,0.6-10.5,2.2-15.5,4c-4,1.4-7.6,3.4-10.7,6.2c-2.1,1.9-4.3,3.7-6.5,5.4c-3.9,3.1-7,6.8-9.5,11.2
		c-1.3,2.3-2.1,4.7-2.7,7.2c-1.2,4.4-1.8,8.9-2.2,13.5c-0.3,3.5-0.2,7,0.2,10.5c0.1,0.9-0.2,1.4-1.1,1.8c-3.9,1.4-6.3,5.9-5.7,10.2
		c0.1,0.6,0.5,1.1,0.8,1.6c1,1.2,1.1,1.4,0.1,2.7c-2.5,3.2-4.6,6.7-6.5,10.3c-1.4,2.8-2.4,5.8-3.4,8.9c-0.3,1.1-0.6,2.2-1,3.2
		c-0.8,1.8-0.6,3.7-0.9,5.5c-0.7,4.3-1,8.6-1,13c0,3.7-0.1,7.4,0.5,11.1c0.5,2.6,1.1,5.2,2.3,7.5c0.5,0.9,1,1.8,1.8,2.5
		c0.9,0.8,1.2,1.7,0.9,2.9c-0.5,2.2-0.2,4.5-0.5,6.7c-0.1,1-0.3,2.1-0.3,3.1c0,0.5-0.2,0.9-0.5,1.2c-1,0.9-1.1,2-1.1,3.3
		c-0.1,6.1,0.7,12,1.7,18c1.1,6.6,2.7,13.1,5.3,19.3c2.1,5,5.2,9.3,9.4,12.7c3.3,2.7,6.5,5.6,10.3,7.7c4.1,2.3,8.4,3.6,13.1,4.1
		c1.1,0.1,2.1,0.3,3.2,0.3c1.1,0,1.3,0.3,1,1.3c-0.5,1.7-1.1,3.4-1.8,4.9c-0.3,0.6-0.7,1.1-0.8,1.7c-0.7,3.1-3.2,3.8-5.8,4.4
		c-1.3,0.3-2.7,0.6-4,0c-0.3-0.1-0.6-0.1-1-0.1c-1.7,0.1-3.3,0.2-5-0.3c-1-0.3-2,0-2.9,0.4c-1.4,0.7-2.8,1.3-4.5,0.9
		c-0.7-0.2-1.4,0.1-2,0.4c-4.7,2.2-9.4,4.2-13.9,6.7c-2.8,1.5-5.2,3.5-7.5,5.7c-1.5,1.5-2.3,3.3-2.2,5.4c0,1.5,0.1,3-0.7,4.4
		c-0.3,0.5-0.2,1.2-0.1,1.8c1,7,1.6,14,1.3,21c-0.1,3.8,0.7,7.5,2.1,11c0.3,0.7,0.5,1.5,0.9,2.2c1.3,2.3,1,4.7,0.8,7.1
		c-0.4,6.2-1.5,12.3-2.8,18.4c-0.6,3.1-1.2,6.2-2.2,9.2c-0.6,1.7-0.3,3.7-0.1,5.5c0.4,4.4,0.4,8.8,0.2,13.3
		c-0.2,3.3-0.5,6.6-0.3,9.9c0,0.4,0,0.8,0.2,1.2c0.4,1.1,0.5,2.1-0.3,3.1c-0.4,0.5-0.3,1.1-0.4,1.7c-0.3,2-0.1,4.1-0.1,6.1
		c0,0.6,0.3,1.1,0.6,1.5c1.4,2,2.8,3.9,4.4,5.7c0.4,0.4,0.8,0.8,1.3,1.1c0.4,0.2,0.7,0.5,1.1,0.8c1.4,1.4,1.4,1.4,3.2,0.7
		c2.3-1,4.8-0.8,7.2-0.5c2.3,0.3,4.5,0.5,6.8,0.6c1.2,0,2.1,0.3,2.9,1.3c1.8,2.2,4.2,3.8,6.8,4.9c7.3,3,14.8,5.4,22.4,7.5
		c2.1,0.6,4,0.5,6-0.3c2.6-1.1,5.4-1.3,8.2-1.6c0.5-0.1,1-0.1,1.5-0.4c4.8-2.3,9.8-2.1,14.8-1c1.3,0.3,2.4,0.2,3.6-0.3
		c2-0.8,4-1.5,6-2.2c7.2-2.6,14.6-4.8,21.9-7.2c0.3-0.1,0.5-0.2,0.8-0.2c1.8,0.1,2.8-1.1,3.6-2.4c2.1-3.4,5.2-5.4,8.8-7
		c1.1-0.5,1.7-1.2,2-2.3c1.1-4.4,2.7-8.7,2.9-13.3c0-0.5,0.1-1-0.1-1.4c-0.9-2.3-0.6-4.7-0.4-7.1c0.2-4.1,0.7-8.2,1.3-12.3
		c0.3-1.9-0.4-3.6-0.6-5.5c-0.3-3.8-1-7.6-1.7-11.4c-0.5-2.6-0.5-5.3-0.7-8c-0.2-2.5-0.3-5.1-0.3-7.7c0-0.4,0-0.8-0.2-1.2
		c-0.9-1.3-0.5-2.7-0.4-4.1c0.8-6.8,2.8-13.4,4.6-20c1.8-6.5,3.9-13,5.7-19.5c0.7-2.6,1-5.4,0.5-8.2c-0.5-2.3-2-4.1-3.4-5.8
		c-1.6-2-3.8-3.3-5.7-4.9c-0.8-0.7-1.8-1.1-2.8-1.4c-2.2-0.7-4.3-1.5-6.5-2.1c-1.1-0.3-1.9-1-2.4-2c-0.4-0.9-1.1-1.4-2-1.7
		c-1-0.3-2.1-0.6-3.1-1c-0.6-0.3-1.2-0.2-1.7,0.1c-3.6,2.2-7.5,2.4-11.5,1.8c-2.1-0.3-4.1-0.7-6.1-1.2c-0.6-0.1-1-0.4-1.2-1
		c-0.1-0.4-0.3-0.8-0.4-1.1c-0.6-2.4-1.4-4.8-2.6-7c-0.6-1.2-0.5-1.5,0.7-2c5.1-2.2,9.6-5.3,13.7-9c6.1-5.6,11.3-12,15.5-19.1
		c2.2-3.8,3.9-7.8,4.9-12.1c0.7-2.9,1.6-5.7,1.9-8.6c0.3-2.7,0.5-5.5,0.7-8.2c0.4-4.8-0.3-9.5-1-14.2c-0.2-1.5-0.6-2.9-1.1-4.3
		c-0.4-1.1-0.3-1.2,0.9-1.4c1.1-0.2,1.8-0.7,2-1.9c0.2-1.1,0.5-2.1,0.6-3.2c0.2-1.8,0.7-3.5,1.5-5.1c0.2-0.5,0.4-1,0.5-1.5
		c0.4-1.5,0.4-1.5,2-1.2c1.2,0.2,2.4,0.5,3.6,0c1.3-0.4,1.7-1.3,1.4-2.6c-0.1-0.6,0-1,0.2-1.5c1-3.2,1.8-6.4,2.4-9.6
		c0.4-2,0.1-2.4-1.7-3.3c-1-0.5-1.5-2-0.6-3c1.5-1.7,3-3.4,5.3-4.2c0.1,0,0.3-0.1,0.3-0.1c1.1-1.1,2.3-2,3.4-3.1
		c0.7-0.7,0.5-1.6-0.4-2.2c-1-0.7-1-1.5-0.6-2.5c0.5-1.4,1.1-2.8,1.8-4c1.3-2.2,2.2-4.6,3.4-6.9c0.2-0.4,0.4-0.8,0.5-1.2
		c0.4-1.7-1-3-2.6-2.4c-0.9,0.3-1.4,0.3-1.9-0.5c-0.3-0.5-0.9-0.6-1.5-0.7c-0.6,0-1.3-0.1-1.9,0c-1.8,0.2-2.9-0.7-3.6-2.2
		c-1.1-2.3-1.6-4.7-1.8-7.3c-0.3-5.3,1-10.1,3.2-14.8c1-2.1,1.9-4.3,2.2-6.7c0.2-1.3,0.1-2.6,0.1-3.8c0-0.8-0.4-1.5-0.9-2.1
		c-1.1-1.2-2.2-2.5-3.6-3.3c-1.1-0.6-2-1.5-3.2-2.1c-0.7-0.3-0.8-1-1-1.7c-1.1-3.9-2.5-7.6-4.8-10.9c-3.3-4.8-7.7-8.3-13.1-10.7
		c-5.5-2.3-11.3-3.8-17.1-5.1c-1.8-0.4-3.6,0-5.3,0.3c-0.6,0.1-1.2,0.1-1.7-0.2C93.7,2.9,88.7,1,83.1,0.5c-0.2,0-0.3-0.1-0.4-0.2
		C82.5,0.3,82.5,0.2,82.6,0z"/>
	<path fill="#6E6E6E" d="M82.6,0c0,0.1,0.1,0.1,0,0.2c-0.2,0.2-0.4,0.4-0.7,0.4c-1.7,0.1-3.4,0.1-5.1,0c-0.3,0-0.5-0.1-0.7-0.4
		c0-0.1,0-0.1,0-0.2C78.3,0,80.4,0,82.6,0z"/>
	<path d="M76.1,0.2c2.2,0,4.4,0,6.6,0c5.3,0.2,10.2,2,14.9,4.4c1.1,0.6,2.1,1,3.5,0.7c2.7-0.6,5.4-0.2,8.1,0.6
		c4.4,1.3,8.8,2.3,13.1,4.1c9.3,3.8,15.2,10.6,18.2,20.1c0.4,1.2,0.2,2.9,1.2,3.5c1.1,0.6,2,1.4,3.1,2c0.7,0.3,1.3,0.8,1.9,1.3
		c4,2.9,3.6,6.8,2.5,10.8c-0.7,2.7-2.1,5.1-3.1,7.7c-2.1,5.7-2.6,11.4-0.6,17.2c0.1,0.4,0.3,0.8,0.5,1.2c0.7,1.6,1.8,2.5,3.7,2.2
		c0.8-0.1,1.7-0.1,2.5,0.1c0.9,0.2,1,1.4,1.5,1.4c0.6,0,1.2-0.7,1.9-0.6c1.5,0.2,2.4,1.6,1.8,3.2c-1.1,2.8-2.5,5.4-3.8,8.1
		c-0.8,1.5-1.5,3.1-2,4.7c-0.2,0.6-0.2,0.8,0.4,1c0.8,0.3,1.2,0.9,1.2,1.7c0.1,0.9-0.4,1.6-1.2,1.9c-0.8,0.4-1.5,0.9-1.8,1.7
		c-0.2,0.5-0.7,0.7-1.2,0.8c-2.4,0.6-3.9,2.5-5.4,4.2c-0.9,0.9-0.3,2.1,1,2.5c1.3,0.3,1.9,1.5,1.6,3c-0.4,1.8-0.8,3.7-1.2,5.5
		c-0.5,1.7-0.7,3.5-1.6,5.1c-0.1,0.2-0.1,0.5,0,0.8c0.6,1.3,0.3,2.2-1,2.9c-1.3,0.7-2.6,0.5-4,0.3c-0.5-0.1-1.1-0.3-1.7-0.4
		c0,1-0.4,1.8-0.8,2.7c-1.3,2.5-1.5,5.2-2,7.9c-0.3,1.9-1.1,2.6-3.2,2.6c1.6,5.3,2.4,10.6,2.5,16.1c0,5.7-0.5,11.4-1.8,17
		c-2.2,10-7,18.6-13.5,26.4c-5.6,6.7-11.9,12.5-19.7,16.5c-0.6,0.3-1.1,0.6-1.7,0.8c-1.4,0.6-1.5,0.6-0.7,1.9c1.3,2.2,2,4.7,2.6,7.1
		c0.3,1,0.6,1.4,1.7,1.6c2.4,0.5,4.8,0.9,7.2,1.2c3.4,0.4,6.7,0.1,9.6-1.9c0.7-0.5,1.5-0.5,2.3-0.1c0.7,0.4,1.5,0.6,2.2,0.8
		c1.4,0.3,2.4,0.9,3,2.4c0.3,0.7,1.1,1.4,2.1,1.6c2.6,0.8,5.4,1.4,7.7,2.7c4.1,2.2,7.6,5.3,10,9.5c0.9,1.6,1.1,3.3,1,5.2
		c-0.1,5.6-2.4,10.6-3.8,15.9c-2.2,8.1-4.8,16.1-6.5,24.4c-0.5,2.3-0.7,4.6-0.9,6.9c0,0.1,0,0.4,0.1,0.4c1,1.1,0.8,2.4,0.8,3.6
		c0.1,6.8,0.7,13.5,2,20.1c0.5,2.3,0.4,4.8,1,7.1c1,4.5-0.6,8.8-0.7,13.2c-0.1,2.8-0.4,5.6-0.4,8.4c0,0.1,0,0.2,0,0.2
		c1.5,3.3,0.2,6.4-0.5,9.6c-0.6,2.6-1.2,5.1-2.1,7.6c-0.3,0.8-0.7,1.3-1.5,1.6c-2.8,1.2-5.5,2.6-7.5,5c-1.1,1.3-1.9,2.8-3.2,4
		c-0.3,0.3-0.6,0.5-1.1,0.4c-1.1-0.2-2.1,0.4-3.1,0.7c-8.5,2.8-17.1,5.2-25.4,8.6c-2.5,1-4.7,0.8-7.2,0.3c-4.2-0.8-8.3-0.5-12.2,1.3
		c-1.5,0.7-3,0.6-4.6,0.7c-2.2,0.2-4.3,0.8-6.2,1.5c-2,0.8-3.8,0.5-5.6,0c-7.2-2-14.3-4.4-21.2-7.1c-3.3-1.2-6.2-3.2-8.4-6
		c-0.3-0.3-0.6-0.5-1-0.5c-3.2,0.1-6.4-0.4-9.5-0.8c-2.4-0.3-4.6,0.1-6.7,1.3c-0.9,0.5-1.5,0.2-1.8-0.6c-0.3-0.6-0.7-0.9-1.2-1.3
		c-1.7-1.1-2.6-2.9-4-4.2c-3-2.9-3.1-6.5-2.6-10.3c0.1-1.2,0.1-2.4,1.2-3.3c0.3-0.2,0-0.5-0.1-0.8c-0.8-2.4-0.5-4.9-0.4-7.4
		c0.3-5,0.5-10.1,0.2-15.1c-0.2-2.6-0.4-5.3-0.4-7.9c0-1.4,0.9-2.5,1.1-3.9c1.2-5.8,2.4-11.6,3.4-17.5c0.5-3,0.5-6.1,0.9-9.2
		c0.2-1.8-0.4-3.1-0.9-4.6c-1.1-3.1-2.4-6.2-2.8-9.5c-0.2-1.5-0.2-3-0.1-4.4c0.1-7-0.4-13.9-1.4-20.8c-0.1-0.6-0.2-1.3,0.1-1.8
		c0.9-1.4,0.8-3,0.8-4.5c0-2.3,0.9-4.2,2.6-5.8c3.6-3.3,7.6-5.9,12.1-7.8c3-1.3,5.8-2.7,8.7-4.1c1.2-0.6,2.4-0.9,3.7-0.4
		c0.4,0.1,0.7,0,1-0.2c0.9-0.4,1.8-0.8,2.7-1.2c1.1-0.4,2.2-0.5,3.4,0c1.2,0.5,2.4,0.3,3.7,0.2c0.8-0.1,1.5,0,2.3,0.3
		c1.5,0.5,3-0.2,4.4-0.6c0.8-0.2,1.5-0.7,2.4-0.8c0.3-0.1,0.5-0.2,0.7-0.5c1.3-3.3,3.3-6.4,4-10.1c-4.3-0.1-8.6-0.6-12.6-2.2
		c-4.1-1.6-8-3.6-11.1-6.8c-0.8-0.8-2-1.3-2.9-2.1c-6.5-5.2-10.4-12.1-12.8-19.9c-1.8-5.9-2.9-11.9-3.8-18c-0.7-4.6-1.2-9.3-1-14
		c0-1.1,0.3-2.1,1.2-2.9c0.4-0.3,0.4-0.6,0.5-1c0.2-2.7,0.4-5.3,0.5-8c0-0.6,0-1.3,0.3-1.9c0.5-1.1,0-1.9-0.7-2.4
		c-1.7-1.5-2.5-3.5-3.2-5.5c-1.5-4.3-1.8-8.8-1.8-13.3c0-5.5,0.4-11,1.2-16.5c1.5-10.4,5.7-19.5,12-27.8c0.5-0.6,0.6-0.9-0.1-1.5
		c-1.4-1.1-1.4-2.7-1.3-4.3c0.4-3.6,2-6.6,5.4-8c1.5-0.6,1.5-1.1,1.4-2.5c-0.8-9.1,0.1-18,3.1-26.6c2.7-7.6,7.8-13.2,14.6-17.5
		c0.2-0.1,0.4-0.2,0.6-0.4c4-4.8,9.3-7.5,15.1-9.5C64,1.8,69.8,0.2,76.1,0.2z"/>
	<path fill="#456988" d="M127,292.4c-0.2,2.9-1.4,5.5-2.4,8.1c-1.9,5.5-4,10.9-5.9,16.4c-0.7,2-0.8,4.1-1.4,6.1
		c-0.8,2.5-1.6,4.9-2.4,7.4c-0.2,0.6-0.2,1.3-0.1,1.9c0.2,1.2,1.4,1.9,2.4,1.3c1-0.6,1.2-0.1,1.5,0.6c2.1,5,3.9,10.1,4.5,15.6
		c0.1,0.9,0.3,1.7,0.9,2.4c0.3,0.3,0.2,0.6,0.2,1c-0.2,2.5-0.4,4.9-0.6,7.4c-0.2,2.1-0.3,4.2-0.5,6.3c-0.1,1-0.8,1.9-1.7,2.2
		c-4.1,1.4-8.1,2.8-12.3,4c-6.9,2.1-13.7,4.6-20.5,6.9c-0.6,0.2-0.9,0.3-1.4-0.4c-1.2-1.6-3.1-1.5-4.7-1c-4.7,1.4-9.6,2.5-14.4,3.5
		c-2.2,0.5-4.5,0.3-6.8,0.7c-4.8,0.7-9-1.5-13.4-2.8c-3-0.9-6-2.1-9-3.1c-1.6-0.6-3.1-1.3-4.6-2.3c-0.9-0.6-1.7-1.1-2-2.3
		c-0.3-1.3-1.5-1.8-2.7-2.2c-1.1-0.3-2.2-0.5-3.4-0.5c-3.2,0-6.3-0.4-9.4-0.8c-1.3-0.2-2.6-0.1-4.2,0.3c3.3-10.2,7.5-19.9,11.3-29.8
		c0.1,1,0.2,2.1,0.3,3.1c0.1,2,1.8,3.8,3.4,3c1.7,1,2.4,2.5,2.5,4.5c0.3,4.1,0.8,8.2,1.2,12.4c0,0.2,0,0.4,0.2,0.6
		c0.7-0.3,1.2-0.9,1.7-1.3c1.6-1.4,3.2-2.9,4.8-4.3c1-0.8,1.6-1.7,1.2-3c0.3-0.3,0.6,0,0.9,0.1c1,0.2,1.5-0.1,1.7-1.1
		c0.1-0.8,0.1-1.7-0.1-2.5c-0.6-2.6-1.7-4.9-3.3-6.9c-0.2-0.2-0.4-0.4-0.6-0.6c-1.7-1.7-2.6-1.8-4.7-0.4c-1.8-2.3-3.8-4.5-5.4-7
		c-0.4-1.9-0.5-3.9-1.1-5.7c-0.9-3.1-2-6.2-3.8-9c-0.7-1.2-0.5-2.7-0.6-4c-0.4-3.7-1.1-7.4-1.6-11.1c-0.7-4.9-1.7-9.8-1.3-14.7
		c0.1-0.9,0-1.7-0.4-2.6c-0.4-0.8-0.1-1.4,0.4-2.1c2.2-2.9,5-5.3,7.4-8c1.3-1.5,2.3-3,3.1-4.8c0.5-1.1,0.2-2.1-0.8-2.7
		c-0.4-0.3-0.5-0.5-0.2-0.9c3.4-6.2,5.6-12.7,7.1-19.6c0.7-3.3-0.4-6.1-0.9-9.1c-0.4-2.5-1.6-4.8-2-7.4c-0.1-0.9,0.6-1.7,1.4-1.4
		c1.4,0.5,2.8,0.5,4.3,0.4c0.8,0,1,0.3,0.9,1c-0.3,3.4-0.6,6.8-0.9,10.1c-0.2,2.3-0.4,4.6-0.5,6.9c-0.4,6.2-0.5,12.3-0.3,18.5
		c-0.5,0-0.5-0.5-0.5-0.8c0-1.7-0.1-3.5,0.2-4.9c0,1.1-0.7,2.2-1.3,3.4c-2,4.1-4,8.1-6,12.3c-1,2.2-2.6,3.8-4.3,5.3
		c-0.1,0.1-0.3,0.2-0.4,0.3c-1.8,1.5-1.8,1.5-0.2,3.2c0.9,1,1.7,2,2.7,2.9c0.3,0.3,0.6,0.5,0.5,1c-0.3,0.3-0.6,0.3-0.9,0.6
		c-0.5,0.4-0.7,0.9-0.4,1.6c1.3,2.8,3.1,5.3,5.3,7.5c4.1,4.2,9.2,6.7,14.9,8c2.3,0.5,4.6,0.9,7,0.8c2-0.1,2.1-0.1,2.5-1.9
		c0.5-0.2,0.9,0,1.4,0.2c4.8,1.7,9.6,3.3,13.9,6c1.3,0.9,2.4,0.8,3.6-0.2c1.7-1.4,3.6-2.6,5.3-3.9c1.1-0.8,2.2-1.3,3.5-1.5
		c3.2-0.5,6.5-1,9.7-1.6c0.5-0.1,1.1-0.3,1.6-0.1c1.3,1.9,1.7,2.1,3.9,1.3c4-1.5,8-3.2,11.7-5.4c0.9-0.6,1.9-1.1,2.9-1.5
		c1.4-0.6,2.3-1.5,2.5-3.1c2.9-1.7,5.5-4,8.4-5.9C126,292.7,126.4,292.2,127,292.4z"/>
	<path fill="#F9CAE2" d="M24.4,65.3c0.2-0.3,0.5-0.6,0.9-0.8c0.6-0.3,1-0.3,1.3,0.4c0.8,2,2.1,3.8,3.9,5.1c0.4,0.3,0.8,0.5,1.2,0.7
		c0.9,0.3,1.8,0.4,2.4-0.4c0.7-0.8,0.6-1.6,0.1-2.5c-0.2-0.5-0.5-0.9-0.9-1.3c-2.6-2.3-3.7-5.4-4-8.7c-0.9-8.5,0-16.8,2.7-24.9
		c1.3-3.7,3.5-7,6.2-9.8c1.1-1.1,2.1-2.2,3.2-3.2c0.7-0.6,1.3-1.3,2.4-1.2c0.3,0,0.6-0.1,0.9-0.3c1-0.8,1.6-2.1,2.8-2.6
		c1.3-3,4.1-4.2,6.7-5.6c3.3-1.8,6.9-2.8,10.5-3.9c6.1-1.9,12.3-1.8,18.5-1.6c1.5,0.1,3.1,0.3,4.5,0.9c1.4,0.6,2.5,1.7,3.7,2.6
		c4.9,3.8,9.9,7.4,14.8,11.2c0.6,0.5,1.2,1.1,1.5,1.8c2.2,4.9,4.7,9.6,7,14.5c-0.6-4.8,0-9.7-0.5-14.5c-0.1-1,0-2,0-3
		c0-0.7,0.3-1.1,1.1-0.9c2,0.4,3.9,1,5.8,1.5c0.6,0.2,1,0.6,1.3,1.2c2.3,5.1,4.7,10.2,7,15.4c0.8,1.7,0.6,3.7,0.8,5.6
		c0.3,2.8,0.6,5.6,0.8,8.4c0.1,0.9,0.5,1.1,1.4,0.9c1.3-0.4,2.5-0.9,3.8-1.1c1.1-0.2,1.3,0,1.2,1.1c-0.4,4.3-0.8,8.7-1.2,13.1
		c1-1.4,1.9-2.6,2.8-3.9c0.2-0.3,0.4-0.6,0.7-0.7c0.5-0.2,0.5,0.1,0.4,0.5c-0.2,2.1-0.6,4.2-0.5,6.3c0.1,3.3,0.7,6.4,2,9.5
		c1.5,3.6,4,5.7,8,5.5c0,0.7-0.6,0.9-1.1,1.1c-2,0.7-2.9,2.1-3.3,4.1c-0.5,2.6-1.4,5.1-2.1,7.7c-0.2,0.9-0.3,1.7,0,2.6
		c0.2,0.7,0.5,1.4,0.1,2.1c-0.6,0.5-1.3,1.1-1.9,1.6c-1.8,1.5-2.7,3.4-2.6,5.8c0,1.7,0.7,3.1,2.2,4c0.7,0.4,0.7,0.8,0.5,1.4
		c-0.7,2.7-1.6,5.3-1.8,8.1c0,0.4,0,0.6-0.5,0.5c-1.2-0.3-2.3-0.6-3-1.7c-1.6-2.3-2.7-4.7-1.8-7.7c0.9-2.9-0.3-4.4-3.2-5
		c-0.9-0.2-1.1-1.1-1.1-1.8c-0.2-3.3-0.2-6.5,0.4-9.8c0.1-0.5,0.5-0.7,0.7-1.1c1.2-1.4,0.9-3-0.8-3.7c-0.7-0.3-0.9-0.6-0.9-1.3
		c-0.2-3.6,0.8-7.1,1.3-10.7c0.2-1.3,0.1-2.5-0.9-3.4c-1.6-1.7-2.4-3.9-3.7-5.9c-0.2-0.3-0.3-0.8-0.8-1c-0.3,0.9-0.5,1.7-0.7,2.5
		c-1.4,5.5-2.9,11-4.3,16.5c-0.1,0.5-0.1,1.3-0.8,1.2c-0.5-0.1-0.4-0.9-0.3-1.4c0.3-3.1,0.2-6.3,0.4-9.4c0.2-3.1,0.1-6.3,0.4-9.4
		c0-0.4,0.1-0.9-0.1-1.4c-1.1,0.9-2.1,1.9-3,3c-1.1,1.4-2.4,2.5-3.7,3.8c-0.3,0.3-0.6,0.8-1.1,0.4c-0.4-0.3-0.1-0.8,0.1-1.2
		c1.9-4.4,3.8-8.8,5.7-13.2c0.3-0.8,0.7-1.6,1.2-2.6c-1.6,1-3,1.9-4.4,2.8c-0.4,0.3-0.8,0.7-1.4,0.4c0.1-1.5,0.3-2.9-0.5-4.3
		c-0.3-0.8,0-1.6,0-2.4c0-3.1,0-6.2,0-9.1c-1.3,4.1-2.9,8.2-4.2,12.5c-0.1,0.4-0.2,0.9-0.7,0.9c-0.6,0-0.6-0.5-0.8-0.9
		c-0.9-2-1.8-4-2.6-6.1c-0.1-0.3-0.2-0.8-0.6-0.9c-0.5-0.1-0.6,0.5-0.8,0.8c-1.5,2.2-2.9,4.5-4.4,6.7c-0.6,0.9-1.4,1.5-2.3,2
		c-4.7,2.1-9.3,4.2-14,6.4c-1.4,0.6-1.7,0.6-2.4-0.7c-1.1-1.8-2-3.7-3-5.6c-0.4-0.8-0.8-0.9-1.6-0.5c-2.1,1.2-4.3,2.3-6.4,3.5
		c-0.3,0.2-0.5,0.3-0.8,0.5c-1.1,0.6-1.5,0.4-1.7-0.9c-0.3-1.7-0.5-3.4-0.8-5.1c-0.4-2.6-0.8-5.2-1.2-7.8c0-0.2,0-0.5-0.3-0.7
		c-1,1-1.9,2.1-2.8,3.2c-1,1.3-2.1,2.6-3.1,3.8c-0.3,0.3-0.5,0.9-1.1,0.6c-1.3-1.5-2.7-1.4-3.9,0.2c-1,1.3-1.8,2.8-2.9,4.1
		c-2.2,2.6-4.6,5.1-7.3,7.3c-0.5,0.5-1.1,0.9-1.8,1.2c-1,0.3-1.7,0.9-1.8,2c0,0.1-0.1,0.3-0.2,0.4c-2,2.7-6.4,3.2-8.9,1.1
		c-1.1-0.9-2.6-1.1-3.9-1.6c-0.4-0.2-0.7-0.6-0.8-1C25.5,67.1,25,66.2,24.4,65.3z"/>
	<path fill="#6D8FAF" d="M96.3,307.7c-4,0.6-8.1,1.3-12.1,1.9c-1.7,0.3-2.8,1.6-4.1,2.5c-1.7,1.1-3.2,2.3-4.8,3.5
		c-0.6,0.4-1,0.5-1.6,0.1c-5.1-3.1-10.7-5.2-16.4-7.1c-4.4-1.8-9.1-2.6-13.5-4.4c-3.4-1.4-6.4-3.4-8.8-6.2c-1.3-1.4-2.6-2.8-3.8-4.3
		c-0.6-0.8-1.7-0.8-2.3-1.6c-1.4-1.5-2.8-3.1-4.2-4.6c-0.6-0.6-0.8-1,0-1.7c1.1-0.9,2.1-2,3.2-2.9c1-0.9,1.7-1.9,2.3-3.1
		c2.3-4.8,4.7-9.6,7.1-14.4c0.3-0.7,0.6-1.4,0.8-2.1c0,1.6,0,3.2,0,4.8c0,0.5-0.1,1,0.2,1.4c0.2,1.1,0.5,2.2,1.2,3.1
		c0.6,0.7,1.8,0.3,2,0.9c0.2,0.8,0.3,1.5,0.7,2.2c2.1,3.3,5.4,4.8,8.8,6.1c3.1,1.2,6.6,1.4,9.7,2.4c5.1,1.7,10.3,1.7,15.5,1.4
		c3.4-0.2,6.7-1.3,10.1-2c1.1-0.2,2.2-0.5,3.2-0.8c0.1,0,0.2-0.1,0.4-0.1c4.8,0.5,8.8-1.6,12.9-3.7c0.7-0.4,1.3-0.6,2.1-0.1
		c1.2,0.7,2.6-0.2,2.9-1.8c0.2-0.8,0.6-1.4,1.2-2c1.3-1.2,1.5-2.3,0.6-3.8c-0.3-0.5-0.1-0.8,0-1.2c0.4-1.1,0.7-2.1,0-3.2
		c-0.2-0.3-0.1-0.4,0.2-0.6c1.3-0.8,1.3-2,1.1-3.4c-0.4-2.2-0.5-4.5-0.8-6.8c-0.3-2.2,0.5-4.2,1.2-6.2c0.8,0.1,0.8,0.8,0.8,1.3
		c0.2,4.8,0.7,9.5,1,14.2c0.3,3.5,0.7,7,1,10.5c0.1,0.9,0.5,1.5,1.5,1.8c0.6,0.2,1.3,0.2,1.7,0.8c-1.3,6.2-3,12.3-4.9,18.4
		c-0.2,0.5-0.3,1.1-0.4,1.6c-0.1,0.5-0.5,0.7-0.9,0.9c-3.3,2-6.8,3.5-10.3,5.1C99,305.2,97.4,306.2,96.3,307.7z"/>
	<path fill="#4E6E60" d="M50.4,231.6c0.5,0.1,1,0.2,1.4-0.1c0.5-0.4,1-0.3,1.5-0.1c4.2,1.6,8.5,2.1,12.9,1.9c0.5,0,1-0.1,1.4-0.1
		c1.5,0,2.9-0.6,4.4,0.3c0.9,0.6,2.1,0.3,3,0c2.5-0.8,5.1-0.8,7.7-1.1c2.5-0.3,5-0.8,7.4-1.5c0.9-0.3,1.9-0.4,2.8-0.6
		c1-0.3,2-0.6,2.6-1.5c0.4-0.6,0.8-0.7,1.3-0.2c0.6,0.6,1.4,0.7,2.3,0.7c1.2,0,2.4,0.4,3.6,0.6c2.7,0.4,5.5,0.8,8.2,0.7
		c0.9,0,0.8,0.3,0.7,1c-0.9,3.6-2.4,7.1-3.2,10.8c-0.7,2.7-1.1,5.6-2.1,8.2c-0.9,2.1-1,4.1-0.9,6.2c0.3,3,0.2,6.1,1.4,9
		c0.1,0.3,0.1,0.5-0.2,0.7c-0.9,0.5-1.2,1.3-1.5,2.2c-0.3,0.9-0.8,1.9-0.9,2.8c-0.2,1.7-1.2,2.4-2.5,3.2c-3.7,2.3-7.8,3.5-12,4.3
		c-1,0.2-2.1-0.1-3.2,0.1c-3,0.4-5.8,1.6-8.8,2.1c-4.9,0.8-9.7,1.1-14.5-0.7c-3-1.1-6.1-1.4-9.2-2.3c-3.2-0.9-6.2-2.2-8.5-4.7
		c-0.2-0.2-0.4-0.6-0.7-0.6c-2.5-0.5-2.1-2.7-2.2-4.3c-0.2-3.7-0.1-7.5-0.1-11.3c0-0.6,0.2-1.2,0.5-1.7c0.6-1.2,0.6-2.4,0.2-3.7
		c-0.5-1.4-0.2-2.9-0.1-4.3c0.2-3.3,0.6-6.6,0.9-9.9c0.1-1.3,0.3-2.5,0.2-3.8c0-0.3-0.1-0.6,0.3-0.7
		C46.6,232.7,48.4,231.8,50.4,231.6z"/>
	<path fill="#DC806D" d="M122.2,134.1c0.7,0.6,1.4,1,2.3,0.5c0.7-0.4,0.8,0,1,0.5c1.1,3.6,2.2,7.2,2.7,11c1.1,7.7,0.4,15.4-1.1,23
		c-0.2,1.2-0.1,2.6-0.6,3.8c-2.7,6.5-5.5,12.8-10,18.3c-4.1,5-8.2,10-13.6,13.8c-3,2.1-6.1,4.2-9.8,5.2c-0.6,0.2-1.2,0.2-1.8,0.2
		c-0.5,0-1.1,0-1.5,0.3c-1.8,1.4-3.9,1.2-5.9,1.3c-10,0.6-20.1,0.5-30.1,0.3c-7-0.1-13.4-2.1-19-6.4c-0.6-0.5-1.2-1-1.6-1.6
		c-0.7-1-1.6-1.8-2.9-2.2c-1.3-0.4-2.2-1.7-3.2-2.7c-4.1-3.9-6.4-8.8-8.2-14c-1.9-5.5-2.9-11.2-3.8-17c-0.6-3.6-0.9-7.3-1.3-10.9
		c-0.1-0.5,0-1,0.1-1.5c1.5-4.1,2.1-8.4,1.9-12.8c0.4-0.2,0.7,0.1,1.1,0.1c1,0.2,1.8-0.1,2.3-0.8c0.6-0.8,0.5-1.7-0.1-2.4
		c-0.6-0.6-0.4-1.2-0.3-1.9c0.5-3.4,1.7-6.5,3.2-9.5c0.6-1.3,1.2-2.6,2.3-3.6c0.9-0.8,0.8-2.1-0.1-3.2c-1-1.2-2.3-1.9-3.5-2.7
		c-0.7-0.5-0.8-0.8-0.3-1.5c1.6-2,3.4-3.8,5.8-4.9c0.9-0.4,1.8-0.9,2.1-2c0.1-0.3,0.2-0.3,0.5-0.4c2-0.7,2.4-2.1,1.2-3.8
		c-2.6-3.5-2.9-7.5-2.3-11.6c0.2-1.6,1.4-2.6,2.7-3.5c0.5-0.4,1.1-0.8,1.1-1.5c0-0.9,0.5-1.2,1.1-1.5c2.8-1.5,5.3-3.4,8.4-4.2
		c0.8-0.2,1.6-0.4,2.4-0.6c1-0.3,1.8-1,1.9-2.1c0.1-1.2-0.5-2-1.5-2.5c-1.3-0.6-2.7-1.1-4.1-1.6c-0.7-0.3-1.5-0.6-2.1-1.1
		c1.5-0.7,2.9-1.4,4.2-2.4c0.6-0.5,0.9-0.4,1.3,0.2c1.4,2.4,3.4,4.3,5.7,5.9c3.1,2.1,6.6,2.6,10.3,2.3c3.2-0.3,6.4-1,9.5-1.7
		c1.5-0.4,3.1-0.2,4.7,0c3.5,0.3,6.8-0.2,10.2-0.9c0.3-0.1,0.5-0.1,0.8-0.1c0.4,0.6,0,0.9-0.4,1.3c-2.1,1.7-3.4,4-4.2,6.5
		c-0.2,0.7-0.5,1.4-1,2c-1,0.6-2.1,1-3.2,1.4c-4.4,1.7-8.7,3.6-13.1,5.4c-1.3,0.5-1.6,0.4-1.9-1c-0.5-2-0.9-4-1.3-6
		c-0.2-0.8-0.5-1-1.3-0.8c-5.6,1.7-11.2,3.3-16.8,4.9C40,93.6,39.7,94,39.8,95c0.3,2.4,0.5,4.8,0.7,7.1c0.1,0.7-0.3,1.2-0.7,1.7
		c-1.8,1.7-3.6,3.2-5.5,4.8c-0.7,0.6-1.4,1.1-1.2,2.2c-0.1,0.7-0.7,1-1.1,1.5c-0.9,1.2-0.9,2.7-0.2,3.8c0.5,0.6,1.3,0.5,1.8,1
		c0,0.6-0.5,0.9-0.9,1.2c-1.6,1.2-3.2,2.5-4.9,3.7c-0.9,0.6-1.2,1.4-1,2.5c0.4,3.4,0.5,6.9,0.9,10.4c0.1,0.6-0.1,1.2-0.3,1.8
		c-2,5.8-4.1,11.5-6.1,17.3c0,0.1-0.1,0.2-0.1,0.2c-1,2.1-1,4.1-0.1,6.3c1.4,3.4,2.4,6.9,3.6,10.4c2.9,8.4,5.8,16.9,8.6,25.3
		c0.4,1.1,1,1.8,2,2.3c7.3,3.6,14.6,7.2,22,10.7c1.6,0.8,3.2,0.2,4.7,0.1c4.7-0.4,9.3-0.9,14-1.3c3.6-0.4,7.2-0.6,10.8-1.1
		c0.9-0.1,1.7-0.4,2.5-0.8c5-2.4,10-4.8,15-7.1c1.1-0.5,2-1.3,2.6-2.4c4.3-6.6,8.7-13.2,13.1-19.8c0.4-0.6,0.7-1.3,0.9-2.1
		c1.8-9.2,3.5-18.5,5.3-27.7c0.2-0.8,0-1.4-0.8-1.8c-1.8-1-3.5-2-5.3-3c-0.9-0.5-1.4-1.2-1.3-2.2c0.2-1.4,0.2-2.9,0.2-4.3
		c0-0.5,0.1-1,0.5-1.3C120.4,134.2,121.3,134.4,122.2,134.1z"/>
	<path fill="#4E6F60" d="M29.1,237.3c1.3,2.8,2,5.8,2.3,8.8c0.5,5.2-1.3,9.9-3.1,14.6c-0.8,2.1-1.8,4.1-2.6,6.2
		c-0.8,2.3-1.7,4.5-2.7,6.6c-0.2,0.4-0.5,0.9-0.4,1.2c0.2,1.4-0.6,2.2-1.5,3c-1.9,2-3.9,3.9-5.5,6.2c-1.5,2-1.9,4.2-0.9,6.5
		c0.1,0.3,0.2,0.6,0.2,0.9c-0.6,5.8,0.8,11.3,1.6,16.9c0.6,3.9,1.2,7.9,1.6,11.8c0.2,2.1,0.4,4.2,1,6.2c0.4,1.3,0.8,2.4,2.5,2.5
		c0.6,0,0.8,0.7,0.4,1.2c-0.7,0.8-0.9,1.7-1.1,2.6c-1.5,6.2-4.2,12-6.3,17.9c-2,5.5-4.4,10.9-6,16.5c0,0.1-0.1,0.2-0.2,0.3
		c-1.5-0.9-2-2.7-3.4-3.7c-0.2-0.1-0.1-0.6-0.1-0.9c-0.1-2,0.1-3.9-0.2-5.9c-0.1-0.3-0.2-0.8,0.1-1c0.9-0.9,0.8-2.1,0.8-3.3
		c0.2-5.8,0.3-11.5,0.2-17.3c0-1.8,0-3.6-0.2-5.4c0.5-0.5,0.6-1.3,1-1.9c2.6-4.8,3.3-10.1,3.9-15.5c0.7-5.8,1.5-11.7,2.3-17.5
		c0.2-1.8,0.2-3.6,0.3-5.4c0.2-2.6,0.1-5.2,0.3-7.8c0.2-3.4-0.5-6.7-0.8-10c-0.2-2.4-0.6-4.8-0.8-7.2c-0.1-2.1,0.3-4.2,0.5-6.3
		c0.4-4,0.8-8,1.1-11.9c0.1-1.7,0.6-2.9,2.4-3.7c4.1-1.8,8.2-3.7,12.2-5.6C28.3,237.4,28.7,237.3,29.1,237.3z"/>
	<path fill="#F0A1C3" d="M57.4,54.5c1.4-0.8,2.1-2.2,3.1-3.4c1.4-1.6,2.7-3.3,4.2-5.1c0.6,1.6,0.6,3.1,0.9,4.6c0.5,3.3,1,6.7,1.5,10
		c0.1,0.9,0.5,1,1.2,0.6c2.6-1.5,5.3-2.9,7.9-4.3c0.6-0.4,0.8-0.2,1.1,0.3c1.1,2.2,2.4,4.3,3.5,6.6c0.4,0.8,0.8,0.7,1.4,0.4
		c3-1.4,5.9-2.7,8.9-4.1c1.7-0.8,3.4-1.7,5.2-2.4c1.9-0.7,2.7-2.4,3.7-3.9c1.2-1.9,2.5-3.8,3.7-5.7c0.5-0.8,0.7-0.5,0.9,0.1
		c1.1,2.6,2.2,5.2,3.5,8.1c1.7-5.1,3.4-9.8,5-14.6c0.3,0,0.3,0.2,0.3,0.3c0,3.6,0,7.2,0,10.8c0,0.5-0.2,0.9-0.3,1.4
		c-1.5-1.1-2.8-0.7-3.5,1c-0.3,0.9-0.4,1.8-0.7,2.6c-0.9,3.1-3.2,5.2-5.5,7.3c-6.7,6-14.6,9.1-23.4,10.5c-3.7,0.6-7.2,0-10.9-0.1
		c-0.5,0-1-0.3-1.4-0.5c-1.4-0.6-2.4-0.3-3.1,1.1c-0.1,0.3-0.2,0.5-0.5,0.6c-3,0.6-6.1,1.4-9.2,0.9c-3.2-0.5-5.5-2.5-7.3-5.1
		c-2.1-3-1.5-2.6,0.5-4.4c3.2-2.9,6.2-6.1,8.6-9.8C57.3,57.2,57.9,55.9,57.4,54.5z"/>
	<path fill="#F1A5C6" d="M140.2,59.4c-0.2-0.7-0.3-0.3-0.5,0c-1,1.5-2.1,2.9-3.1,4.4c-0.1,0.2-0.2,0.4-0.6,0.5
		c0.1-0.9,0.1-1.8,0.2-2.7c0.4-3.8,0.8-7.6,1.2-11.4c0.1-0.7-0.1-0.8-0.8-0.6c-1.5,0.5-3.1,0.9-4.6,1.4c-0.6,0.2-0.8,0.2-1-0.5
		c-0.3-1.1-0.2-2.3-0.3-3.4c-0.5-3.4-0.7-6.9-1-10.3c-0.1-1.1-0.7-1.9-1.2-2.9c-2-4.6-4.1-9.1-6.2-13.6c-0.2-0.5-0.6-0.8-1.1-0.9
		c-1.8-0.5-3.7-1-5.5-1.4c-0.7-0.2-1-0.1-1,0.7c0.3,4.2,0.2,8.5,0.3,12.7c0.1,1.8,0.1,3.7,0,5.6c-0.8-1.7-1.7-3.3-2.5-5
		c-1-2.2-2.2-4.4-3.2-6.6c-0.4-0.9-0.9-1.8-1.2-2.7c-0.8-2.5-3.1-3.6-4.9-5c-4.9-3.8-9.9-7.5-14.9-11.2C88.1,6.2,88,6,87.9,5.8
		c3,0.7,5.7,2.1,8.4,3.5c2.2,1.1,4.4,2.3,6.2,4c0.3,0.3,0.7,0.5,1,0.6c0.7,0.3,1.4,0.4,2-0.2c0.6-0.6,0.7-1.3,0.4-2.1
		c-0.2-0.5-0.5-1.1-0.8-1.7c1.8,0.2,3.4,0.8,5,1.2c3.6,0.9,7.2,1.9,10.7,3.3c8.7,3.6,13.7,10.1,15.9,19c0.8,3.4,0.8,6.9,0.9,10.3
		c0,1.1,0.2,2.1,0.7,3c0.6,1.2,1.5,1.2,2.2,0.1c0.9-1.5,1.3-3.2,1.4-4.9c0.1-0.9,0.1-1.7,0.2-2.6c2.7,0.9,3.8,2.9,3.1,6
		c-0.4,1.7-1.1,3.3-1.8,4.9C142,53.2,140.9,56.2,140.2,59.4z"/>
	<path fill="#F09FC2" d="M113.6,58.6c2-1.2,4-2.5,6.1-3.7c0.1,0,0.1,0.1,0.2,0.1c-2.5,5.8-5,11.5-7.5,17.3c3-2.3,5.2-5.3,8.2-8
		c-0.3,7.6-0.6,15-0.9,22.3c0.1,0,0.1,0,0.2,0.1c1.8-6.9,3.6-13.8,5.5-21c1.7,2.7,3.2,5.3,4.6,7.9c-2.1-0.7-3.2-0.1-3.6,2.1
		c-0.5,3.1-1,6.1-1.4,9.2c-0.2,1.9,0,3.9,0.5,6c-1.8-0.6-3.2,0.2-4.6,1.2c-3.4,2.5-7.1,2.5-10.4,0.5c-6.3-3.8-9.3-9.7-9.8-17
		c-0.1-0.7,0.1-1.4-0.2-2.1c-0.3-0.6,0.3-0.7,0.5-0.9c2.5-1.7,5-3.6,7.2-5.7C110.6,64.5,112.6,61.9,113.6,58.6z"/>
	<path fill="#4E6E5F" d="M130.6,282.8c-1.2-3-2.8-5.8-4.3-8.6c-0.9-1.7-2.3-3.1-3.6-4.6c-1.4-1.7-2.6-3.6-3.7-5.5
		c-0.2-0.3-0.2-0.6-0.1-1c0.5-2.1,1-4.2,1.5-6.3c0.3-1.2,0.3-2.4-0.6-3.5c-0.6-0.8-1-1.7-1.5-2.6c-0.1-0.2-0.2-0.4-0.1-0.7
		c1-2.9,1-6.1,2.1-9.1c0.9-2.5,1.8-5,3.1-7.4c0.5,0,0.6,0.4,0.6,0.7c0.3,3.2,2.6,4.9,4.7,6.8c2,1.8,4,3.6,5.9,5.5
		c0.6,0.6,0.9,1.3,0.8,2.2c-1,9-2.1,18-3,27c-0.2,2.1-0.8,4.1-1.3,6.2C131,282.3,130.9,282.6,130.6,282.8z"/>
	<path fill="#74977C" d="M29.1,237.3c-3.8,1.8-7.6,3.5-11.4,5.3c-1.1,0.5-2.2,1-3.3,1.5c-1,0.4-0.6,1.4-0.7,2.1
		c-0.4,3.8-0.7,7.7-1,11.5c-0.2,2.1-0.4,4.1-0.7,6.2c-0.1,1.2,0.2,2.5,0.3,3.7c0.3,3.4,0.7,6.9,1.2,10.3c0.6,4.2-0.1,8.4-0.1,12.5
		c0,5.5-1,11-1.8,16.4c-0.7,4.6-1.2,9.1-1.7,13.7c-0.2,1.9-1.2,3.5-1.8,5.2c-0.5,1.5-1.2,2.9-1.8,4.3c-0.1,0.3-0.2,0.8-0.6,0.2
		c0-1.9-0.2-3.9,0-5.8c0.2-1.6,0.9-3.2,1.2-4.8c1.1-6.3,2.3-12.5,3.5-18.8c0.3-1.8,0.4-3.6,0.5-5.4c0-0.7,0.2-1.2,0.6-1.7
		c0.9-1,0.5-2.1,0-3.1c-1.6-3.2-2.9-6.5-3.8-9.9c-0.4-1.6-0.7-3.3-0.6-5c0.2-6.1-0.6-12.2-0.7-18.3c-0.1-2.7-0.3-5.5,0.3-8.3
		c0-0.2,0.1-0.3,0.1-0.5c-0.5-2.3,0.8-3.6,2.5-4.9c1.7-1.2,3.3-2.6,5.1-3.6c3.9-2.1,7.8-4.1,11.9-5.9c1.3-0.6,2.2-0.1,2.5,1.4
		C28.9,236.3,29,236.8,29.1,237.3z"/>
	<path fill="#DE8874" d="M122.2,134.1c-0.1,0.7-0.7,0.5-1.1,0.5c-0.5,0-1,0-1.5,0c-0.6-1-0.4-2.1-0.3-3.1c0.2-2,0.2-4,0.4-6
		c0.2-2.7,0.3-5.3,0.5-8c0.1-0.9-0.1-1.7-0.7-2.5c-0.8-1-1.6-2.1-2.4-3.1c-0.1-0.2-0.1-0.5-0.1-0.7c0.7-2.4,0.1-4.8-0.5-7.1
		c-0.6-2.2-1.5-2.8-3.8-2.8c-1.6,0-3.1,0.6-4.7,0.6c-1.7-0.9-3.2-2.2-4.8-3.4c-2.5-1.8-5-3.7-7.6-5.5c-1-0.7-1.5-1.6-1.7-2.7
		c-0.3-1.8-0.8-3.7-1.2-5.5c-0.2-0.9-0.5-1-1.3-0.7c-3.8,1.6-7.5,3.1-11.3,4.6c-0.5,0.2-1,0.6-1.6,0.3c0.5-0.8,0.6-1.8,1-2.7
		c1-2.3,2.2-4.5,4.3-6c0.3-0.2,0.4-0.5,0.4-0.9c4-1.1,7.9-2.4,11.6-4.1c0.6,7.2,3.6,13.2,8.6,18.1c4.4,4.3,9.8,5.5,15.7,4
		c0.7-0.2,1.4-0.5,2.1-0.8c0.9,3.3,1.6,6.7,1.9,10.1c0.5,4.5,0.2,8.9-0.7,13.3c-0.4,1.9-1.1,3.8-0.8,5.7c0.4,2.2-0.4,4.2-0.8,6.3
		C121.7,132.9,121.8,133.5,122.2,134.1z"/>
	<path fill="#4F7060" d="M132.5,339.2c0,3-0.4,5.9-0.3,8.9c0,0.4-0.1,0.9,0,1.3c1.1,2.3,0,4.5-0.4,6.7c-0.1,0.4-0.3,0.8-0.3,1.2
		c-0.2,2.1-1.3,3.4-3.4,3.9c-0.2-1.4,0.2-2.9,0.3-4.3c0.2-2.3,0.5-4.6,1.1-6.8c0.4-1.4-0.2-2.3-1.7-2.9c-0.5-0.2-0.6-0.5-0.7-0.9
		c-1.2-5.9-3.3-11.5-5.9-17c-0.5-1-0.6-1.8-0.2-2.9c0.9-2.4,1.4-4.9,1.8-7.5c0.2-1.5,1-2.8,1.6-4.2c1.4-3.6,2.3-7.4,3.9-10.9
		c0.4,0.4,0.4,0.9,0.4,1.3c-0.1,4.3-0.1,8.7-0.4,13c-0.1,2,0,3.8,1.2,5.5c0.7,1.1,1.2,2.3,1.9,3.5c0.4,0.7,0.4,1.3,0.2,2.1
		c-0.7,2.8-1.6,5.5-2.3,8.3c-0.3,1.2-0.2,1.3,1,1.5C131,338.9,131.8,338.6,132.5,339.2z"/>
	<path fill="#73967B" d="M130.6,282.8c0.3-2.2,1.1-4.2,1.3-6.4c0.3-2.5,0.6-5,0.9-7.6c0.3-2.5,0.6-5,0.9-7.6
		c0.3-2.4,0.5-4.9,0.8-7.3c0.2-1.8,0.4-3.6,0.6-5.4c0.1-0.5,0.1-0.9-0.3-1.2c-2-1.9-3.9-3.9-6-5.7c-1.4-1.2-2.5-2.6-3.9-3.7
		c-0.5-0.4-0.5-1.2-0.7-1.9c-0.3-0.8-0.3-1.7-0.7-2.5c0.3-1,0.5-1.5,1.8-0.8c1.5,0.8,3.2,1.2,4.9,1.6c2.8,0.6,4.8,2.2,6.3,4.6
		c0.7,1.2,1.6,2,3,2.6c1.3,0.5,1.7,2.1,1.7,3.5c0,1.5-0.7,3-0.1,4.5c0,0.1,0,0.2-0.1,0.3c-2.9,7-4.4,14.4-6.5,21.6
		c-1.2,4.1-2.4,8.3-3.3,12.5C130.7,283.5,130.6,283.2,130.6,282.8z"/>
	<path fill="#7495B3" d="M111.6,298.6c0.1-1.9,0.9-3.6,1.4-5.4c1.1-3.8,2.3-7.5,3-11.4c0.1-0.4,0.1-0.8,0.1-1.2
		c0.1-0.8,0.2-1.5,1-1.9c1.8-0.5,5.8,1.4,6.5,3.1c0.3,0.7,0.6,1.4,1,2.1c0.7,1.5,1.4,3.1,2.2,4.6c0.3,0.5,0.2,1,0.4,1.5
		c0,0.8,0.2,1.6-0.2,2.4c-2.8,2-5.7,4.1-8.5,6.1c-0.4,0.3-0.7,0.6-1.2,0.3c-0.3-0.1-0.4-0.3-0.6-0.5c-0.9-0.9-1.7-1-2.9-0.5
		C113.1,298.1,112.5,298.8,111.6,298.6z"/>
	<path fill="#456987" d="M127.2,289.9c-1.3-2.8-2.7-5.6-4-8.4c-0.4-0.8-0.8-1.3-1.7-1.5c-1.5-0.4-2.9-1.1-4.4-1.3
		c-0.6-0.2-1.2-0.6-1.8-0.6c-1.4-0.2-1.7-1.2-1.8-2.3c-0.4-4.8-0.9-9.5-1.3-14.3c-0.2-3.5-0.6-7-0.7-10.4c0-0.4-0.1-0.8-0.4-1.1
		c1.5-6.3,3.3-12.4,5.4-18.6c0.1-0.4,0.2-0.9,0.2-1.4c0-0.4,0.1-0.7,0.5-0.8c0.6-0.1,1.2-1,1.7-0.6c0.6,0.3-0.1,1.1-0.1,1.6
		c0.3,2.9-1.6,5.2-2.3,7.8c-1,3.5-2.3,6.9-2.2,10.6c0,0.2,0,0.5-0.1,0.7c-0.7,1.2-0.6,2.4,0.1,3.4c1.8,2.4,1.4,4.9,0.6,7.5
		c-0.6,1.9-1,3.9-0.9,6c0.1,1.8,0.7,2.6,2.4,2.8c0.5,0.1,0.7,0.3,1,0.6c1,1.2,1.9,2.4,2.9,3.7c0.9,1.1,1.7,2.3,2.1,3.7
		c0.5,1.6,1.7,2.8,2.5,4.2c1,1.7,1.7,3.5,2.3,5.4C127.6,287.6,127.5,288.8,127.2,289.9z"/>
	<path fill="#E51385" d="M19.4,111.9c-0.4,0.4-0.7,0.7-1.1,1.1c-1,0.6-1.9,1.4-2.8,2.1c-0.8,0.5,0,1.1-0.1,1.6
		c-1.7,0.9-3.1,2-4.7,3.6c0-1.8,0-3.4,0-5c0.1-5.4,0.7-10.7,1.9-16c0.5-2,1.5-3.7,3.2-4.9c2.1-1.5,4.4-2.8,6.8-3.7
		c0.6,1.2,0.5,2.1-0.4,2.9c-1.4,1.3-2.7,2.6-4.1,3.8c-1.1,1-1,1,0.3,1.5c0.9,0.3,1.9,0.6,2.8,1c1.2,0.4,1.3,0.7,0.4,1.7
		c-2.1,2.4-4.3,4.8-6.5,7.2c-0.1,0.1-0.2,0.2-0.2,0.4c0.5,0.3,1.1,0.3,1.7,0.3c0.7,0,1.4,0,2.1,0.2c1.1,0.3,1.3,0.5,0.8,1.6
		C19.5,111.5,19.3,111.7,19.4,111.9z"/>
	<path fill="#7293B2" d="M39.4,354.3c0.8,1.2,0.5,2-0.6,2.9c-2.5,2.1-4.9,4.3-7.4,6.6c-0.5-1.5-0.4-3.1-0.6-4.6
		c-0.4-3.7-0.8-7.3-1.2-11c-0.1-0.8-0.4-1.2-1-1.6c-0.4-0.3-0.9-0.5-0.9-1.1c1.1-0.7,1.4-1.8,1.2-2.9c-0.2-1.9-0.6-3.7-0.9-5.5
		c-0.1-0.4-0.1-0.8-0.1-1.2c1.6,1.6,2.9,3.6,4.3,5.3c0.4,0.5,1.1,0.9,1,1.7c0.2,1.5,1.1,2.5,2.1,3.6c1,1,1.5,2.4,2,3.6
		C37.9,351.5,38.6,352.9,39.4,354.3z"/>
	<path fill="#729579" d="M132.5,339.2c-1.1,0-2.2,0-3.3-0.2c-0.8-0.1-0.7-0.4-0.5-0.9c0.9-3.1,1.7-6.2,2.7-9.3
		c0.2-0.6,0.1-1.1-0.2-1.7c-0.8-1.3-1.4-2.8-2.3-4.1c-1.1-1.7-1-3.6-0.8-5.4c0-0.6,0.2-1.3,0.2-1.9c-0.2-4,0.4-8,0.2-12.1
		c0.7-1.9,1.3-3.8,2-5.7c0.3,1.9,0.3,3.8,0.4,5.7c0.2,4.9,1,9.7,1.8,14.4c0.4,2.6,0.6,5.2,1.1,7.8c0.3,1.5,0.2,3-0.1,4.5
		c-0.5,2.5-0.7,5-0.9,7.5C132.7,338.2,132.8,338.7,132.5,339.2z"/>
	<path fill="#E51888" d="M22.3,86c-2.1,0.7-4.1,1.6-6.2,2.8c0.2-1,0.6-1.6,0.9-2.2c2.1-4.1,4.7-7.9,7.7-11.4
		c1.2-1.4,1.2-1.5,3.5-0.2c1.1,0.6,2.1,1.3,3.3,1.6c0.7,0.2,0.5,0.7,0.5,1.1c-0.6,0.7-1.6,0.3-2.4,0.7c0.3,1.1,1,1.9,1.6,2.9
		c1,1.7,0.9,1.9-0.9,2.3c-2.2,0.4-4.3,0.9-6.5,1.3C22.9,84.9,22.4,85.2,22.3,86z"/>
	<path fill="#456988" d="M58.6,216.8c0.2-0.3,0.6-0.2,0.9-0.2c3.8,0,7.7,0,11.5-0.1c0.7,0,1,0,0.8,1c-0.7,3.4-1.9,6.8-2.2,10.3
		c0,0.5-0.2,0.7-0.8,0.8c-4.6,0.5-9.2,0.4-13.6-1.3c-0.8-0.3-1-0.6-0.6-1.4c0.4-0.7,0.7-1.5,1.1-2.2c2.7,0.1,5.4,0.5,8.1,0.7
		c1,0.1,1.4-0.2,1.7-1.1c0.5-1.6,1-3.2,1.6-4.8c0.4-1.3,0.4-1.4-1.1-1.4c-2,0-4.1,0-6.1,0C59.6,217.1,59.1,217.2,58.6,216.8z"/>
	<path fill="#F2ACCA" d="M19.4,111.9c0-0.1-0.1-0.1-0.1-0.2c0.3-1.6,0.3-1.6-1.4-1.7c-1.2-0.1-2.4,0-3.8-0.4c2.7-3,5.3-5.9,8-9
		c-1.6-0.5-3.1-1.1-4.6-1.5c-0.9-0.3-1.2-0.5-0.3-1.2c1.3-1.1,2.5-2.5,3.9-3.5c1.2-0.9,1.7-2,1.4-3.5c0.6-0.2,1.3-0.5,1.9-0.3
		c-2.4,5.7-1.5,11.2,0.5,16.7c0.2,0.6,0.3,0.8-0.4,1.1C22.6,109.2,20.9,110.4,19.4,111.9z"/>
	<path fill="#7192B1" d="M58.6,216.8c2.8,0,5.7,0,8.5,0c1,0,1,0.3,0.8,1.1c-0.7,2.1-1.4,4.3-2.1,6.5c-0.1,0.5-0.4,0.7-0.9,0.6
		c-2.8-0.3-5.7-0.6-8.5-1c-0.2,0-0.3-0.2-0.5-0.3C56.8,221.4,57.7,219.1,58.6,216.8z"/>
	<path fill="#6D8FAF" d="M80.4,216.3c3.3-0.4,6.6-0.2,9.9-0.8c0.2,0,0.6-0.3,0.7,0.1c0.3,1.7,1.6,2.8,2.2,4.3
		c0.1,0.2,0.1,0.4,0.2,0.6c-1.3,1-2.9,1.3-4.3,2.1c-2.3,1.4-4.3,1.5-6.4-0.4c-0.2-0.2-0.5-0.3-0.8-0.5
		C80,220.5,79.5,218.4,80.4,216.3z"/>
	<path fill="#F0A1C3" d="M143.3,98.2c0-0.1,0-0.3,0-0.4c-1.2-2.8-0.1-5.4,0.7-8c0.5-1.8,1.1-3.5,1.5-5.3c0.3-1.2,0.8-2,2-2.5
		c0.8-0.3,1.7-0.6,2.3-1.4c0.8-0.3,1.8-0.2,2.7-0.7c-0.5,1.1-1,2.2-1.4,3.3c-1.3,2.9-3,5.6-3.9,8.7c-0.1,0.5-0.4,0.9-0.4,1.4
		C146.9,95.9,145.2,97.1,143.3,98.2z"/>
	<path fill="#456987" d="M80.4,216.3c0,0.5,0.1,1.1,0,1.6c-0.5,2.1,0.7,3.2,2.4,4.1c0.1,0.1,0.3,0.1,0.4,0.2
		c1.7,1.9,3.6,1.3,5.5,0.3c1.5-0.7,3-1.5,4.6-1.9c0.1,0.1,0.2,0.2,0.2,0.3c1.1,2.9,1.1,2.9-1.8,4c-2,0.8-4,1.6-6.2,1.5
		c-0.8,0-1.4,0.8-2.3,0.7c-0.3,0-0.6,0.1-0.9-0.2c-2.6-3-4.5-6.4-5.2-10.5C78.2,216.3,79.3,216.3,80.4,216.3z"/>
	<path fill="#E51687" d="M16.5,129.7c-0.6,1.5-1.1,3-1.5,4.8c-1-1.4-1.7-2.7-2.2-4.2c-0.1-0.2-0.1-0.5-0.2-0.7
		c-1.9-2.1-0.6-3.7,0.8-5.4c0.3-0.3,0.5-0.6,0.8-0.9c2.1-2.1,2.5-2.1,4.7,0c0,0.6-0.6,0.8-1,1.1c-0.5,0.4-1.1,0.8-1.7,1.1
		c-0.7,0.4-0.8,0.9-0.5,1.6C16,127.9,16.4,128.8,16.5,129.7z"/>
	<path fill="#F1A6C6" d="M22.3,86c-0.5-0.9-0.1-1.3,0.8-1.4c2.5-0.5,5.1-1,7.6-1.5c0.8-0.1,0.9-0.3,0.5-1c-0.8-1.2-1.5-2.5-2.3-3.8
		c1-0.5,2.1-0.4,3-0.6c0.9,1.7,2.8,2.2,4.3,3.3c-2.8,1.6-5.4,3.2-7.9,5c-0.2,0.1-0.4,0.3-0.6,0.2C25.9,85.5,24.1,85.8,22.3,86z"/>
	<path fill="#F2B0CC" d="M16.5,129.7c-0.7-1-0.9-2.1-1.4-3.1c-0.2-0.5,0-0.7,0.4-0.9c1.1-0.8,2.2-1.5,3.3-2.3
		c0.3,0.1,0.6,0.3,0.9,0.6C18.1,125.6,17.5,127.7,16.5,129.7z"/>
	<path fill="#F1A4C5" d="M24.4,65.3c0.8,0.4,1.1,1.1,1.3,1.8c0.2,0.7,0.6,1.4,0.9,2c-1.1,0.1-2.2,0.1-3.2,0.7
		c-0.8,0.4-0.9-0.3-0.9-0.9C22.7,67.5,23.2,66.2,24.4,65.3z"/>
	<path fill="#FCFCFC" d="M129.2,132.3c-0.6-0.8-1.1-1.4-1.7-1.8c-0.3-0.2-0.3-0.4-0.2-0.7c0.3-1.1,0.6-2.1,1-3.3
		c0.8,0.7,1.7,0.7,2.7,0.3C130.3,128.7,129,130.1,129.2,132.3z"/>
	<path fill="#FBFBFB" d="M128.3,123.2c-0.4-0.4-0.5-0.7-0.4-1.2c0.6-2.9,1.1-5.8,1.2-8.7c0.4,1.6,0.9,3.3,1.7,4.7
		c0.2,0.3,0,0.4-0.3,0.5c-1.4,0.4-1.6,1.5-1.7,2.7C128.7,121.8,128.7,122.5,128.3,123.2z"/>
	<path fill="#446786" d="M77.4,228.1c-1,0.8-1.9,0-2.8-0.1c-0.3-0.1-0.3-0.3-0.3-0.6c0-1.1,0.2-2.1,0.6-3.3
		C75.8,225.5,76.6,226.8,77.4,228.1z"/>
	<path fill="#F0AAC8" d="M15.3,116.7c-0.9-0.8-1-1.4,0.2-2c0.8-0.4,1.6-0.9,2.1-1.7c0.2-0.3,0.4,0,0.6,0.1
		C17.2,114.2,16.5,115.6,15.3,116.7z"/>
	<path fill="#E4E4E4" d="M129,108.7c1.5,0.9,0.1,1.9,0.1,2.7C129.1,110.6,129,109.7,129,108.7z"/>
	<path fill="#6E8FAF" d="M96.2,343.4c2.1-0.1,3.4,1.5,5,2.4c0.5,0.3,0.1,0.5-0.2,0.7c-0.9,0.5-1.9,1.1-2.8,1.6c-3.7,2-7.3,4-11,6
		c-0.7,0.4-0.8,0.6-0.2,1.2c0.7,0.6,1.3,1.2,1.8,2.1c-1.4,0-2.8,0-4.2,0c-0.6,0-0.5-0.5-0.8-0.7c-1.7-1.4-3.6-1.6-5.7-1.6
		c-5.5-0.1-10.8,0.9-15.8,3.1c-0.9,0.4-1.9,0.9-2.9,1.1c-1.9,0.5-3.3,1.4-3.2,3.6c-1.5,0.7-3,1.4-4.7,2.2c0.1-0.5,0.2-0.9,0.3-1.3
		c-0.1-0.6,0.3-1,0.6-1.3c1.8-1.9,3.8-3.6,5.7-5.3c2.6-2.4,5.4-4.6,8.2-6.8c0.8-0.6,1.3-1.4,1.2-2.5c-0.1-0.5,0.3-0.9,0.7-1.1
		c1.6-1,3.2-2,4.8-2.9c2.7-1.4,5.5-1.9,8.5-0.9c4.1,1.4,8.3,0.8,12.5,0.9C94.8,343.8,95.4,343.2,96.2,343.4z"/>
	<path d="M96.2,343.4c-1.3,0.7-2.6,0.8-4,0.8c-4.1,0-8.2,0.1-12.2-1.3c-2-0.7-4.2-0.1-6.2,0.9c-2,0.9-3.8,2.2-5.7,3.3
		c-0.3,0.2-0.5,0.4-0.4,0.8c0.3,0.9-0.1,1.6-0.8,2.2c-2.9,2.6-6,4.8-8.8,7.4c-2.2,2.1-4.6,3.9-6.4,6.3c-0.8,0.6-1.2,1.5-2,2.2
		c-1,1-2,1.2-2.9,0.6c-0.9-0.6-1.2-1.8-0.6-3c0.6-1.3,1.5-2.5,2.5-3.6c4.3-4.4,8.7-8.7,13.8-12.2c0.5-0.4,0.9-0.7,0.8-1.5
		c-0.1-0.7,0.3-1.4,0.9-1.9c4.5-3.8,9.3-6.7,15.5-6.3c1.8,0.1,3.4,1,5.2,1.3c2.7,0.4,5.4,0.3,8.1,0.1c1.5-0.1,2-1.9,3-2.9
		c0.1-0.1,0.2-0.3,0.3-0.5c0.8-1.4,2-1.9,3.2-1.3c1.2,0.6,1.6,2.3,0.9,3.6C99.4,340.3,98.1,342.1,96.2,343.4z"/>
	<path d="M28.8,292.1c1.7,0.2,2.6,1.5,3.6,2.8c4.6,6.2,10.9,9.6,18.3,11.4c1.5,0.4,2.9,0.8,4.4,1.2c0.8,0.2,1.6,0.6,2.2,1.2
		c0.4,1.5-0.1,2.1-1.7,2.2c-4.7,0.2-9.2-0.8-13.5-2.6c-5.3-2.1-9.3-5.7-12.7-10.1c-0.9-1.2-1.2-2.7-2.1-4
		C26.5,293.3,27.3,292.4,28.8,292.1z"/>
	<path d="M56.2,362.9c-0.5-1.6-0.2-2.7,1.2-3.2c4.2-1.5,8.2-3.5,12.6-4.3c3.7-0.6,7.5-1,11.3-0.4c1,0.2,2,0.6,2.5,1.6
		c0.1,1-0.4,1.6-1.2,2c-1.1,0.5-2.2,0.7-3.4,0.7c-3.7,0-7.3,0.2-10.9,1.2c-2.3,0.7-4.5,1.6-6.7,2.4c-0.8,0.3-1.7,0.5-2.5,0.7
		C57.9,364,57,363.7,56.2,362.9z"/>
	<path d="M111.6,298.6c0.7-0.3,1.4-0.7,2.1-1c1.7-0.8,2.8-0.4,3.6,1.3c0.2,1.4-0.4,2.3-1.6,2.9c-4.6,2.5-9.2,5-14.1,6.9
		c-1,0.4-2,0.9-3.1,0.9c-1.4,0.1-2.1-0.5-2.4-1.9c0.4-1.3,1.4-2,2.5-2.6c1.7-0.9,3.4-1.7,5.2-2.4
		C106.6,301.5,109.2,300.1,111.6,298.6z"/>
	<path d="M39.4,354.3c-0.8-0.7-1.3-1.7-1.7-2.7c-0.9-2.3-1.8-4.6-3.8-6.3c-0.8-0.7-0.9-1.6-0.7-2.5c1-1.4,2.1-1.7,3.6-0.8
		c1.3,0.8,2.2,1.9,3,3.2c1.4,2.3,2.5,4.6,2.5,7.4C42.3,354.8,41.3,355.4,39.4,354.3z"/>
	<path fill="#6D8FAF" d="M36,336.7c2.7,0.6,5.4,1.1,8,1.8c0.9,0.2,1.8,0,2.6-0.2c4.3-0.9,8.6-1.8,12.9-2.8c0.3-0.1,0.6,0,1.3-0.1
		c-1.3,0.9-2.5,1.2-3.6,1.7c-3.7,1.6-7.4,3.2-11.1,4.7c-0.4,0.2-0.8,0.4-1.4,0.1c-2.9-1.7-5.9-3.4-8.8-5
		C35.9,336.9,36,336.8,36,336.7z"/>
	<path d="M107.8,355.2c0.6,2-0.4,3.3-2.4,3.4c-0.9,0-1.8,0-2.8,0c-1.4-0.1-2.5-1-2.5-2.3c0-1.3,1-2.2,2.4-2.3c0.6,0,1.3,0,1.9-0.1
		C106.3,353.6,107.2,353.9,107.8,355.2z"/>
	<path fill="#6F91B0" d="M87.4,333.5c7.2-0.9,14.1-2.7,21.2-4.3c-2.4,1.4-4.9,2.7-7.5,3.7c-0.8,0.3-1.9,0.3-2.8,0.3
		c-2.6,0-5.1,0.4-7.6,0.3C89.5,333.3,88.5,333.8,87.4,333.5z"/>
	<path fill="#7293B2" d="M107.8,355.2c-0.8-1.1-2.1-1.2-3.3-1.3c2.4-1.1,4.9-2.2,7.3-3.3c0.5-0.2,0.6-0.1,0.6,0.4
		c-0.1,1.3-0.2,2.7-0.3,4c0,0.6-0.5,0.5-0.9,0.4C110.1,355.5,108.9,355.4,107.8,355.2z"/>
	<path fill="#7F9F86" d="M63.4,249.6c-2.9-0.3-5.8-0.7-8.6-1c-1.4-0.2-2.8-0.4-4.2-0.5c-0.6-0.1-0.8-0.4-0.9-1
		c-0.2-3.4-0.4-6.8-0.7-10.2c-0.1-1.5-0.1-1.5,1.3-1.1c5.1,1.5,10.1,3.1,15.2,4.7c1.9,0.6,3.8,1.2,5.7,1.8c0.8,0.2,0.9,0.5,0.3,1
		c-2,1.7-4,3.4-6,5.1C64.8,248.7,64.4,249.6,63.4,249.6z"/>
	<path d="M81.2,254c-0.4,4.9-0.8,9.5-2.5,14c-0.4,1-0.9,1.9-1.6,2.6c-1,1-1.8,0.8-2.2-0.6c-0.5-1.7-0.3-3.5,0.1-5.2
		c0.9-4,1.3-8.1,1.9-12.1c0-0.2,0-0.3,0-0.5c-1.4-4.9-1.7-10-3.4-14.9c-0.2-0.5-0.2-1.2-0.1-1.8c0.2-1,0.9-1.7,2-1.7
		c1.2,0,1.9,0.6,2.3,1.7c0.8,2.5,1.5,5,2,7.5C80.6,246.7,81.1,250.4,81.2,254z"/>
	<path fill="#74977C" d="M108.2,234.9c-1.7,3.3-3.4,6.5-5,9.7c-0.3,0.6-0.8,0.7-1.4,0.8c-3.3,0.4-6.7,0.9-10,1.4
		c-0.6,0.1-0.9,0-1.2-0.5c-0.9-1.6-1.8-3.2-2.7-4.8c-0.3-0.5-0.1-0.7,0.4-0.9c5-1.9,10-3.9,15-5.9c1.1-0.5,2.2,0,3.3,0
		C107.1,234.6,107.6,234.7,108.2,234.9z"/>
	<path d="M48.6,254.9c-0.8,0-1.8,0.1-2.6-0.3c-0.9-0.4-1.4-1-1.4-2c0-1,0.5-1.7,1.4-1.9c2.7-0.5,5.4-0.8,8.1-0.5
		c1.1,0.1,1.8,0.9,1.8,2.1c0,0.9-0.8,1.9-2,2.1C52.2,254.6,50.5,255,48.6,254.9z"/>
	<path fill="#74987C" d="M54.5,264.5c3.3-0.2,6.6-0.3,10-0.5c0.5,0,1,0,1.4,0c1.9-0.3,2-0.3,2.2,1.5c0.4,3.7,0.6,7.3,1,11.3
		c-1.1-2.6-2.2-4.8-3-7.2c-0.6-1.6-1.4-2.5-3.2-2.8c-2.5-0.4-5-1.2-7.5-1.8c-0.3-0.1-0.6-0.2-0.9-0.3
		C54.5,264.6,54.5,264.6,54.5,264.5z"/>
	<path d="M97.3,248.6c1.7,0,2.6,0.6,2.8,1.7c0.2,1.3-0.4,2.4-1.8,2.7c-1.9,0.4-3.7,0.7-5.6,0.9c-1.3,0.2-2.2-0.5-2.5-1.6
		c-0.3-1.2,0.3-2.3,1.6-2.7C93.7,249.1,95.7,248.9,97.3,248.6z"/>
	<path fill="#72967A" d="M82.4,274.9c0.2-1.9,0.5-3.6,0.6-5.2c0.1-0.6,0.4-1,0.8-1.4c1.5-1.4,2.9-2.8,4.3-4.3
		c0.7-0.8,1.5-1.3,2.6-1.1c2.1,0.4,4.2,0.2,6.3,0.4c-1.7,0.5-3.3,1.2-5.1,1.6c-2,0.4-3.3,1.6-4.3,3.2c-1.3,2.2-3,4.1-4.6,6.1
		C82.9,274.4,82.7,274.5,82.4,274.9z"/>
	<path fill="#FAC49C" d="M117.1,111.8c1.8,2,4.1,3.6,3.2,6.9c-0.4,1.4-0.1,2.8-0.3,4.3c-0.3,3.9-0.4,7.8-0.5,11.7
		c-0.4,2-0.2,4.1-0.5,6.1c-0.1,0.7,0.4,1,0.9,1.2c2,1.1,3.9,2.2,5.9,3.3c0.6,0.3,0.9,0.6,0.7,1.5c-1.6,7.9-3.1,15.8-4.6,23.8
		c-0.3,1.5-0.5,3-0.8,4.5c-0.3,1.8-1.6,3.2-2.6,4.7c-3.8,5.9-7.8,11.8-11.6,17.7c-1,1.5-2.4,2-3.9,2.7c-4,1.9-8.1,3.7-12.1,5.8
		c-2.3,1.2-4.7,1.7-7.2,1.9c-4.9,0.4-9.7,0.9-14.6,1.4c-3.5,0.3-7,0.7-10.4,1c-0.5,0-0.9-0.1-1.3-0.3c-7.7-3.8-15.3-7.5-23-11.3
		c-0.6-0.3-1-0.7-1.2-1.4c-2.9-8.6-5.8-17.2-8.8-25.8c-1.5-4.3-2.9-8.6-4.5-12.9c-0.3-0.8-0.3-1.4,0-2.2c2.2-6,4.2-12.1,6.5-18.1
		c0.9-2.4,0.6-4.7,0.4-7c-0.2-2.5-0.4-5.1-0.6-7.6c-0.1-0.7,0.4-1.1,0.9-1.5c2.1-1.6,4.3-3.1,6.3-4.9c2.1-3.8,5.7-5.1,9.7-5.8
		c3.1-0.5,5.4,0.7,7.1,3.2c0.5,0.7,0.9,1.4,1.4,2.1c2.4,3.6,6.1,4.6,10.2,5c0.5,0,0.9-0.1,1.4-0.3c0.7-0.4,1.2-0.9,1.2-1.8
		c0-0.8-0.6-1.3-1.3-1.5c-0.7-0.3-1.5-0.4-2.2-0.5c-3-0.3-5.2-1.8-6.8-4.3c-0.9-1.4-1.9-2.7-3.2-3.8c-1.4-1.2-3.1-1.8-4.9-1.9
		c-2.7-0.2-5.4,0.1-7.9,1.2c-1.5,0.7-3,1.1-4.3,2.1c-0.3,0.2-0.6,0.4-1,0.3c-0.4-0.8-0.1-1.4,0.6-2c2-1.7,4-3.5,6-5.3
		c0.6-0.5,0.8-1.1,0.7-2c-0.4-2.5-0.5-5.1-0.8-7.6c-0.1-0.5,0.2-0.8,0.7-1c6-1.8,12.1-3.5,18.1-5.3c0.8-0.2,1,0.1,1.2,0.8
		c0.4,2.3,1,4.5,1.4,6.8c0.1,0.7,0.4,0.8,1.1,0.5c5.5-2.3,11.1-4.6,16.6-6.9c4.2-1.7,8.4-3.4,12.5-5c1.6-0.7,1.6-0.7,2,1
		c0.4,1.9,0.9,3.9,1.3,5.8c0.2,0.8,0.6,1.4,1.2,1.8c3.9,2.8,7.8,5.7,11.7,8.5c0.2,0.2,0.4,0.4,0.6,0.6c-0.5,0.5-1.2,0.4-1.9,0.6
		c-4.6,1.1-9,2.8-12.5,6.2c-0.7,0.7-1.3,1.5-1.5,2.5c-0.2,1,0.1,2,0.8,2.3c0.9,0.4,1.6,0,2.1-0.6c2.5-3.1,6-4.6,9.5-5.9
		c2.4-0.9,4.9-0.8,7.4-1.3c0.6-0.1,0.9,0.2,1.1,0.7c0.2,0.8,0.3,1.6,0.3,2.4c0,0.6,0,1.3,0.1,1.9c0.4,1.7,1.6,2.2,3.1,1.5
		C116.6,111.9,116.8,111.8,117.1,111.8z"/>
	<path d="M32.9,110.9c2.8-1.8,5.8-3.2,9.1-3.7c4.9-0.8,9.1,0.4,11.9,4.9c0,0,0,0.1,0.1,0.1c1.7,3.4,4.5,4.9,8.2,5.2
		c1.9,0.2,2.9,1.2,2.7,2.4c-0.1,1.3-1.4,2.3-3.2,2.1c-4.2-0.4-8-1.5-10.4-5.4c-0.7-1.1-1.4-2.1-2.3-3.1c-1.1-1.4-2.6-1.8-4.2-1.8
		c-3.2-0.1-6,1.2-8.7,2.8c-0.4,0.2-0.8,0.6-0.9,1.1c-0.3,0.8-0.8,1.3-1.6,1.7c-2.4-0.1-3.5-2.4-2.2-4.5
		C31.8,112,32.4,111.5,32.9,110.9z"/>
	<path d="M117.1,111.8c-0.7,0.8-1.6,1.2-2.7,0.8c-1.1-0.4-1.5-1.3-1.5-2.4c-0.1-1.3,0-2.6-0.3-3.9c-0.1-0.5-0.2-0.6-0.7-0.5
		c-4.6,0.5-9,1.3-13,3.8c-1.4,0.9-2.6,1.9-3.6,3.1c-0.6,0.7-1.3,1.3-2.2,1.1c-1.2-0.2-1.9-1.4-1.5-2.9c0.5-1.9,1.9-3.2,3.5-4.3
		c3.8-2.6,8-4.5,12.8-5c1.8-0.2,3.6-0.5,5.4-0.7c1.5-0.1,2.6,0.5,3.2,1.8c1,2.4,1.3,5,1.2,7.6C117.5,110.9,117.2,111.4,117.1,111.8z
		"/>
	<path d="M55.4,140.9c-3.9-0.1-8.3,0-12.6,1.2c-2,0.6-4,1.1-5.9,2c-0.8,0.4-1.7,0.3-2.4-0.3c-0.7-0.6-1-1.4-0.7-2.3
		c0.2-0.5,0.2-0.9-0.1-1.4c-0.6-1.3,0-2.7-0.2-4c-0.3-3,0.1-6,1.5-8.7c1-2.1,2.6-3.7,5-4.3c0.2,0,0.3-0.1,0.5-0.1
		c2.2,0.7,4.1-0.6,6.1-1c1.6-0.4,3.1-0.8,4.7-0.4c2.5,0.6,4.1,2.3,5.2,4.6c0.6,1.2,1.2,2.3,1.9,3.4c1.1,1.5,1,3.2,1,5
		c0,2.3,0,2.3,2.3,2.3c0.9,0,1.8,0,2.6,0.4c1.2,0.6,1.8,2.1,1.2,3.2c-0.6,1.1-1.8,1.5-3.1,0.8c-0.5-0.3-1-0.3-1.5-0.3
		C59.3,140.9,57.6,140.9,55.4,140.9z"/>
	<path d="M114,128.9c-0.1,1.6,0.2,3.1,1.5,4.3c1.4,1.3,0.6,3.4-1.2,3.8c-0.6,0.1-1.2,0.3-1.7,0.6c-0.7,0.5-1.6,0.6-2.1,0
		c-1.2-1.2-2.5-0.9-3.8-0.7c-1.8,0.2-3.4,0.1-5-0.6c-1.6-0.7-3,0.1-4.6,0.2c-1.4,0.1-2.8,0.7-4.3,0.6c-1-0.1-1.9,0.9-3,0.8
		c-0.4-0.1-0.8,0-1.2,0c-1.3-0.2-2.2-1-2.2-2.1c0-1.1,0.7-1.8,2-2.2c1.6-0.6,3.3-0.7,5-1c0.8-0.1,1.4-0.4,1.7-1.4
		c0.6-1.9,1.1-3.9,2.5-5.4c2.3-2.6,5.2-4.2,8.5-5.1c3.7-1,7,1.4,7.8,5.3C114,126.9,114.1,127.9,114,128.9z"/>
	<path d="M102.4,182.6c0,1.6-1.4,2.5-2.8,1.7c-0.5-0.3-0.9-0.6-1.3-1c-2.7-2.7-6.1-4-9.8-4.2c-9.9-0.7-19.3,1.2-28.5,4.9
		c-0.7,0.3-1.5,0.6-2.2,0.8c-1.4,0.4-2.6-0.2-3.1-1.4c-0.4-1.2,0.2-2.4,1.5-3c5.3-2,10.7-3.8,16.3-4.7c5.3-0.9,10.7-1.5,16.1-1.2
		c4.6,0.3,8.8,1.7,12.2,5C101.7,180.4,102.3,181.4,102.4,182.6z"/>
	<path fill="#D97D69" d="M82.8,157.9c-0.8,1.8-1.1,3.8-1.7,5.7c-0.1,0.5-0.2,1-0.6,1.5c-1.6-2.3-3.1-4.6-4.6-6.9
		c-0.6-1-1.8-1.9-1.8-3c0.1-1,1.1-2,1.8-2.9c1.5-2.3,3.1-4.6,4.5-6.9c0.6-0.9,1-1.2,1.8-0.3c0.2,0.3,0.6,0.4,0.9,0.6
		c0.1,0.1,0.3,0.2,0.3,0.3c0.4,1.6,1.1,3.1,1.5,4.7c-0.3,1.7-1,3.3-1.2,5.1C83.5,156.5,83.4,157.3,82.8,157.9z"/>
	<path d="M82.8,157.9c0-0.8,0.4-1.5,0.7-2.1c0.1-0.8,0.5-1.4,0.8-2.1c0.5-1,0.6-1.9,0.4-3c-0.7-1.6-1.3-3.3-1.7-5.1
		c-0.1-0.6-0.2-1.3-0.3-1.9c-0.1-1.2,0.6-2.2,1.7-2.4c1.1-0.3,2.2,0.3,2.6,1.4c0.3,0.6,0.4,1.3,0.5,2c0.2,1.5,0.6,2.9,1.3,4.2
		c0.7,1.3,0.7,2.5,0.5,4c-0.3,2.1-1.2,3.7-2.1,5.5c-0.5,1-1.3,1.7-2.5,1.6C83.7,159.8,83.1,159,82.8,157.9z"/>
	<path fill="#DA7D6A" d="M93.2,201.4c-2.2-0.3-4.5-0.8-6.7-0.9c-2.7-0.1-5.4,0.2-8.1,0.3c-0.2,0-0.4,0.1-0.6,0.1
		c-4.2,0.2-8.4,0.3-12.6,0.5c-0.1,0-0.2,0-0.7-0.1c3.3-0.7,6.3-1.4,9.2-2c3.9-0.8,7.8-1.7,11.7-2.5c0.3-0.1,0.5-0.2,0.8,0
		c2.4,1.5,4.7,3,7.1,4.5C93.2,201.2,93.2,201.3,93.2,201.4z"/>
	<path fill="#F5BF98" d="M84.7,150.8c0.6,0.8,0.7,1.5,0.2,2.4c-0.5,0.8-0.8,1.8-1.4,2.6c-0.4-0.8,0.2-1.4,0.3-2.1
		C84,152.7,84.4,151.7,84.7,150.8z"/>
</g>
</svg>
