<?xml version="1.0" encoding="utf-8"?>
<!-- Generator: Adobe Illustrator 18.1.1, SVG Export Plug-In . SVG Version: 6.00 Build 0)  -->
<svg version="1.1" id="Layer_1" xmlns="http://www.w3.org/2000/svg" xmlns:xlink="http://www.w3.org/1999/xlink" x="0px" y="0px"
	 viewBox="0 0 638.8 604.2" enable-background="new 0 0 638.8 604.2" xml:space="preserve">
<title>placeholder</title>
<g>
	<title>Layer 1</title>
	<g id="layer1">
		<path id="path2396" fill="#7F7F7F" d="M0,594.7c0-10.7,17.7-102.2,20.7-107.1c1.1-1.7,3.7-13,5.9-24.9c5.1-28,14.5-58,20-64
			C49,396.1,70.3,390,94,385c72.7-15.1,104.7-26.8,120.5-43.9c7.5-8.1,18.9-16.6,25.3-18.9c10.2-3.5,11.6-5.8,11.6-17.9
			c0-7.6-2.3-17.1-5.2-21.2s-6.4-15-7.9-24.3c-1.5-9.3-6-19.9-9.9-23.6c-3.9-3.7-7.1-8.4-7.1-10.5s-3.8-8.9-8.4-15.2
			c-7.2-9.7-8.5-16.5-8.9-45.8c-0.8-56.7,4.1-82.6,20-106.6C246.4,23.5,289.7,0.1,330,0c15.7,0,22.4,1.8,29,8
			c5,4.7,16.7,9.3,28.1,11.1c22.7,3.6,43,18,52.9,37.4c5,9.8,6.6,22.1,6.6,51.1c0,21.4,1.7,39.3,3.8,40.6
			c10.2,6.3,0.7,49.9-15.3,70.1c-6,7.6-11,16.9-11,20.6c0,3.7-3.4,14.2-7.5,23.1c-13.6,29.9-8.9,59.5,10.4,66.1
			c3.6,1.2,12.5,9.8,19.7,19.1c7.2,9.3,17.4,17.8,22.5,19c5.2,1.2,28.3,9.6,51.4,18.6c23.1,9.1,43.2,16.5,44.5,16.5
			c1.4,0,9.8,4.6,18.8,10.3c16,10.1,24.1,23.7,24.1,40.1c0,4.4,3.5,14.7,7.8,22.9c6.9,13.2,11.5,38.4,21,113.4l2,16H319.4H0L0,594.7
			L0,594.7z"/>
	</g>
</g>
</svg>
